<?xml version="1.0" encoding="UTF-8" standalone="no"?>
<!-- Created with Inkscape (http://www.inkscape.org/) -->

<svg
   xmlns:dc="http://purl.org/dc/elements/1.1/"
   xmlns:cc="http://creativecommons.org/ns#"
   xmlns:rdf="http://www.w3.org/1999/02/22-rdf-syntax-ns#"
   xmlns:svg="http://www.w3.org/2000/svg"
   xmlns="http://www.w3.org/2000/svg"
   xmlns:sodipodi="http://sodipodi.sourceforge.net/DTD/sodipodi-0.dtd"
   xmlns:inkscape="http://www.inkscape.org/namespaces/inkscape"
   width="798"
   height="350"
   viewBox="0 0 211.1375 92.604169"
   version="1.1"
   id="svg8"
   inkscape:version="0.92.1 r"
   sodipodi:docname="tasks.svg">
  <defs
     id="defs2">
    <marker
       inkscape:stockid="Arrow2Sstart"
       orient="auto"
       refY="0"
       refX="0"
       id="Arrow2Sstart"
       style="overflow:visible"
       inkscape:isstock="true">
      <path
         id="path4659"
         style="fill:#000000;fill-opacity:1;fill-rule:evenodd;stroke:#000000;stroke-width:0.625;stroke-linejoin:round;stroke-opacity:1"
         d="M 8.7185878,4.0337352 -2.2072895,0.01601326 8.7185884,-4.0017078 c -1.7454984,2.3720609 -1.7354408,5.6174519 -6e-7,8.035443 z"
         transform="matrix(0.3,0,0,0.3,-0.69,0)"
         inkscape:connector-curvature="0" />
    </marker>
    <marker
       inkscape:stockid="Arrow2Send"
       orient="auto"
       refY="0"
       refX="0"
       id="marker5551"
       style="overflow:visible"
       inkscape:isstock="true">
      <path
         id="path5549"
         style="fill:#000000;fill-opacity:1;fill-rule:evenodd;stroke:#000000;stroke-width:0.625;stroke-linejoin:round;stroke-opacity:1"
         d="M 8.7185878,4.0337352 -2.2072895,0.01601326 8.7185884,-4.0017078 c -1.7454984,2.3720609 -1.7354408,5.6174519 -6e-7,8.035443 z"
         transform="matrix(-0.3,0,0,-0.3,0.69,0)"
         inkscape:connector-curvature="0" />
    </marker>
    <marker
       inkscape:stockid="Arrow1Sstart"
       orient="auto"
       refY="0"
       refX="0"
       id="Arrow1Sstart"
       style="overflow:visible"
       inkscape:isstock="true">
      <path
         id="path4641"
         d="M 0,0 5,-5 -12.5,0 5,5 Z"
         style="fill:#000000;fill-opacity:1;fill-rule:evenodd;stroke:#000000;stroke-width:1.00000003pt;stroke-opacity:1"
         transform="matrix(0.2,0,0,0.2,1.2,0)"
         inkscape:connector-curvature="0" />
    </marker>
    <marker
       inkscape:stockid="Arrow1Send"
       orient="auto"
       refY="0"
       refX="0"
       id="Arrow1Send"
       style="overflow:visible"
       inkscape:isstock="true">
      <path
         id="path4644"
         d="M 0,0 5,-5 -12.5,0 5,5 Z"
         style="fill:#000000;fill-opacity:1;fill-rule:evenodd;stroke:#000000;stroke-width:1.00000003pt;stroke-opacity:1"
         transform="matrix(-0.2,0,0,-0.2,-1.2,0)"
         inkscape:connector-curvature="0" />
    </marker>
    <marker
       inkscape:stockid="Arrow2Send"
       orient="auto"
       refY="0"
       refX="0"
       id="Arrow2Send"
       style="overflow:visible"
       inkscape:isstock="true">
      <path
         id="path4662"
         style="fill:#000000;fill-opacity:1;fill-rule:evenodd;stroke:#000000;stroke-width:0.625;stroke-linejoin:round;stroke-opacity:1"
         d="M 8.7185878,4.0337352 -2.2072895,0.01601326 8.7185884,-4.0017078 c -1.7454984,2.3720609 -1.7354408,5.6174519 -6e-7,8.035443 z"
         transform="matrix(-0.3,0,0,-0.3,0.69,0)"
         inkscape:connector-curvature="0" />
    </marker>
    <marker
       inkscape:stockid="Arrow2Mend"
       orient="auto"
       refY="0"
       refX="0"
       id="Arrow2Mend"
       style="overflow:visible"
       inkscape:isstock="true">
      <path
         id="path4656"
         style="fill:#000000;fill-opacity:1;fill-rule:evenodd;stroke:#000000;stroke-width:0.625;stroke-linejoin:round;stroke-opacity:1"
         d="M 8.7185878,4.0337352 -2.2072895,0.01601326 8.7185884,-4.0017078 c -1.7454984,2.3720609 -1.7354408,5.6174519 -6e-7,8.035443 z"
         transform="scale(-0.6)"
         inkscape:connector-curvature="0" />
    </marker>
    <marker
       inkscape:stockid="Arrow2Lend"
       orient="auto"
       refY="0"
       refX="0"
       id="Arrow2Lend"
       style="overflow:visible"
       inkscape:isstock="true">
      <path
         id="path4650"
         style="fill:#000000;fill-opacity:1;fill-rule:evenodd;stroke:#000000;stroke-width:0.625;stroke-linejoin:round;stroke-opacity:1"
         d="M 8.7185878,4.0337352 -2.2072895,0.01601326 8.7185884,-4.0017078 c -1.7454984,2.3720609 -1.7354408,5.6174519 -6e-7,8.035443 z"
         transform="matrix(-1.1,0,0,-1.1,-1.1,0)"
         inkscape:connector-curvature="0" />
    </marker>
    <marker
       inkscape:stockid="Arrow1Lend"
       orient="auto"
       refY="0"
       refX="0"
       id="Arrow1Lend"
       style="overflow:visible"
       inkscape:isstock="true">
      <path
         id="path4632"
         d="M 0,0 5,-5 -12.5,0 5,5 Z"
         style="fill:#000000;fill-opacity:1;fill-rule:evenodd;stroke:#000000;stroke-width:1.00000003pt;stroke-opacity:1"
         transform="matrix(-0.8,0,0,-0.8,-10,0)"
         inkscape:connector-curvature="0" />
    </marker>
    <marker
       inkscape:stockid="Arrow1Lstart"
       orient="auto"
       refY="0"
       refX="0"
       id="Arrow1Lstart"
       style="overflow:visible"
       inkscape:isstock="true">
      <path
         id="path4629"
         d="M 0,0 5,-5 -12.5,0 5,5 Z"
         style="fill:#000000;fill-opacity:1;fill-rule:evenodd;stroke:#000000;stroke-width:1.00000003pt;stroke-opacity:1"
         transform="matrix(0.8,0,0,0.8,10,0)"
         inkscape:connector-curvature="0" />
    </marker>
    <marker
       inkscape:stockid="Arrow2Sstart"
       orient="auto"
       refY="0"
       refX="0"
       id="Arrow2Sstart-1"
       style="overflow:visible"
       inkscape:isstock="true">
      <path
         id="path4659-2"
         style="fill:#000000;fill-opacity:1;fill-rule:evenodd;stroke:#000000;stroke-width:0.625;stroke-linejoin:round;stroke-opacity:1"
         d="M 8.7185878,4.0337352 -2.2072895,0.01601326 8.7185884,-4.0017078 c -1.7454984,2.3720609 -1.7354408,5.6174519 -6e-7,8.035443 z"
         transform="matrix(0.3,0,0,0.3,-0.69,0)"
         inkscape:connector-curvature="0" />
    </marker>
    <marker
       inkscape:stockid="Arrow2Send"
       orient="auto"
       refY="0"
       refX="0"
       id="marker5551-7"
       style="overflow:visible"
       inkscape:isstock="true">
      <path
         id="path5549-0"
         style="fill:#000000;fill-opacity:1;fill-rule:evenodd;stroke:#000000;stroke-width:0.625;stroke-linejoin:round;stroke-opacity:1"
         d="M 8.7185878,4.0337352 -2.2072895,0.01601326 8.7185884,-4.0017078 c -1.7454984,2.3720609 -1.7354408,5.6174519 -6e-7,8.035443 z"
         transform="matrix(-0.3,0,0,-0.3,0.69,0)"
         inkscape:connector-curvature="0" />
    </marker>
    <marker
       inkscape:stockid="Arrow2Sstart"
       orient="auto"
       refY="0"
       refX="0"
       id="Arrow2Sstart-1-2"
       style="overflow:visible"
       inkscape:isstock="true">
      <path
         id="path4659-2-6"
         style="fill:#000000;fill-opacity:1;fill-rule:evenodd;stroke:#000000;stroke-width:0.625;stroke-linejoin:round;stroke-opacity:1"
         d="M 8.7185878,4.0337352 -2.2072895,0.01601326 8.7185884,-4.0017078 c -1.7454984,2.3720609 -1.7354408,5.6174519 -6e-7,8.035443 z"
         transform="matrix(0.3,0,0,0.3,-0.69,0)"
         inkscape:connector-curvature="0" />
    </marker>
    <marker
       inkscape:stockid="Arrow2Send"
       orient="auto"
       refY="0"
       refX="0"
       id="marker5551-7-1"
       style="overflow:visible"
       inkscape:isstock="true">
      <path
         id="path5549-0-8"
         style="fill:#000000;fill-opacity:1;fill-rule:evenodd;stroke:#000000;stroke-width:0.625;stroke-linejoin:round;stroke-opacity:1"
         d="M 8.7185878,4.0337352 -2.2072895,0.01601326 8.7185884,-4.0017078 c -1.7454984,2.3720609 -1.7354408,5.6174519 -6e-7,8.035443 z"
         transform="matrix(-0.3,0,0,-0.3,0.69,0)"
         inkscape:connector-curvature="0" />
    </marker>
    <marker
       inkscape:stockid="Arrow2Sstart"
       orient="auto"
       refY="0"
       refX="0"
       id="Arrow2Sstart-1-9"
       style="overflow:visible"
       inkscape:isstock="true">
      <path
         id="path4659-2-2"
         style="fill:#000000;fill-opacity:1;fill-rule:evenodd;stroke:#000000;stroke-width:0.625;stroke-linejoin:round;stroke-opacity:1"
         d="M 8.7185878,4.0337352 -2.2072895,0.01601326 8.7185884,-4.0017078 c -1.7454984,2.3720609 -1.7354408,5.6174519 -6e-7,8.035443 z"
         transform="matrix(0.3,0,0,0.3,-0.69,0)"
         inkscape:connector-curvature="0" />
    </marker>
    <marker
       inkscape:stockid="Arrow2Send"
       orient="auto"
       refY="0"
       refX="0"
       id="marker5551-7-0"
       style="overflow:visible"
       inkscape:isstock="true">
      <path
         id="path5549-0-2"
         style="fill:#000000;fill-opacity:1;fill-rule:evenodd;stroke:#000000;stroke-width:0.625;stroke-linejoin:round;stroke-opacity:1"
         d="M 8.7185878,4.0337352 -2.2072895,0.01601326 8.7185884,-4.0017078 c -1.7454984,2.3720609 -1.7354408,5.6174519 -6e-7,8.035443 z"
         transform="matrix(-0.3,0,0,-0.3,0.69,0)"
         inkscape:connector-curvature="0" />
    </marker>
    <marker
       inkscape:stockid="Arrow2Sstart"
       orient="auto"
       refY="0"
       refX="0"
       id="Arrow2Sstart-1-7"
       style="overflow:visible"
       inkscape:isstock="true">
      <path
         id="path4659-2-5"
         style="fill:#000000;fill-opacity:1;fill-rule:evenodd;stroke:#000000;stroke-width:0.625;stroke-linejoin:round;stroke-opacity:1"
         d="M 8.7185878,4.0337352 -2.2072895,0.01601326 8.7185884,-4.0017078 c -1.7454984,2.3720609 -1.7354408,5.6174519 -6e-7,8.035443 z"
         transform="matrix(0.3,0,0,0.3,-0.69,0)"
         inkscape:connector-curvature="0" />
    </marker>
    <marker
       inkscape:stockid="Arrow2Send"
       orient="auto"
       refY="0"
       refX="0"
       id="marker5551-7-9"
       style="overflow:visible"
       inkscape:isstock="true">
      <path
         id="path5549-0-22"
         style="fill:#000000;fill-opacity:1;fill-rule:evenodd;stroke:#000000;stroke-width:0.625;stroke-linejoin:round;stroke-opacity:1"
         d="M 8.7185878,4.0337352 -2.2072895,0.01601326 8.7185884,-4.0017078 c -1.7454984,2.3720609 -1.7354408,5.6174519 -6e-7,8.035443 z"
         transform="matrix(-0.3,0,0,-0.3,0.69,0)"
         inkscape:connector-curvature="0" />
    </marker>
    <marker
       inkscape:stockid="Arrow2Sstart"
       orient="auto"
       refY="0"
       refX="0"
       id="Arrow2Sstart-1-2-9"
       style="overflow:visible"
       inkscape:isstock="true">
      <path
         id="path4659-2-6-3"
         style="fill:#000000;fill-opacity:1;fill-rule:evenodd;stroke:#000000;stroke-width:0.625;stroke-linejoin:round;stroke-opacity:1"
         d="M 8.7185878,4.0337352 -2.2072895,0.01601326 8.7185884,-4.0017078 c -1.7454984,2.3720609 -1.7354408,5.6174519 -6e-7,8.035443 z"
         transform="matrix(0.3,0,0,0.3,-0.69,0)"
         inkscape:connector-curvature="0" />
    </marker>
    <marker
       inkscape:stockid="Arrow2Send"
       orient="auto"
       refY="0"
       refX="0"
       id="marker5551-7-1-7"
       style="overflow:visible"
       inkscape:isstock="true">
      <path
         id="path5549-0-8-4"
         style="fill:#000000;fill-opacity:1;fill-rule:evenodd;stroke:#000000;stroke-width:0.625;stroke-linejoin:round;stroke-opacity:1"
         d="M 8.7185878,4.0337352 -2.2072895,0.01601326 8.7185884,-4.0017078 c -1.7454984,2.3720609 -1.7354408,5.6174519 -6e-7,8.035443 z"
         transform="matrix(-0.3,0,0,-0.3,0.69,0)"
         inkscape:connector-curvature="0" />
    </marker>
    <marker
       inkscape:stockid="Arrow2Sstart"
       orient="auto"
       refY="0"
       refX="0"
       id="Arrow2Sstart-1-2-2"
       style="overflow:visible"
       inkscape:isstock="true">
      <path
         id="path4659-2-6-5"
         style="fill:#000000;fill-opacity:1;fill-rule:evenodd;stroke:#000000;stroke-width:0.625;stroke-linejoin:round;stroke-opacity:1"
         d="M 8.7185878,4.0337352 -2.2072895,0.01601326 8.7185884,-4.0017078 c -1.7454984,2.3720609 -1.7354408,5.6174519 -6e-7,8.035443 z"
         transform="matrix(0.3,0,0,0.3,-0.69,0)"
         inkscape:connector-curvature="0" />
    </marker>
    <marker
       inkscape:stockid="Arrow2Send"
       orient="auto"
       refY="0"
       refX="0"
       id="marker5551-7-1-4"
       style="overflow:visible"
       inkscape:isstock="true">
      <path
         id="path5549-0-8-7"
         style="fill:#000000;fill-opacity:1;fill-rule:evenodd;stroke:#000000;stroke-width:0.625;stroke-linejoin:round;stroke-opacity:1"
         d="M 8.7185878,4.0337352 -2.2072895,0.01601326 8.7185884,-4.0017078 c -1.7454984,2.3720609 -1.7354408,5.6174519 -6e-7,8.035443 z"
         transform="matrix(-0.3,0,0,-0.3,0.69,0)"
         inkscape:connector-curvature="0" />
    </marker>
    <marker
       inkscape:stockid="Arrow2Sstart"
       orient="auto"
       refY="0"
       refX="0"
       id="Arrow2Sstart-1-2-4"
       style="overflow:visible"
       inkscape:isstock="true">
      <path
         id="path4659-2-6-30"
         style="fill:#000000;fill-opacity:1;fill-rule:evenodd;stroke:#000000;stroke-width:0.625;stroke-linejoin:round;stroke-opacity:1"
         d="M 8.7185878,4.0337352 -2.2072895,0.01601326 8.7185884,-4.0017078 c -1.7454984,2.3720609 -1.7354408,5.6174519 -6e-7,8.035443 z"
         transform="matrix(0.3,0,0,0.3,-0.69,0)"
         inkscape:connector-curvature="0" />
    </marker>
    <marker
       inkscape:stockid="Arrow2Send"
       orient="auto"
       refY="0"
       refX="0"
       id="marker5551-7-1-78"
       style="overflow:visible"
       inkscape:isstock="true">
      <path
         id="path5549-0-8-6"
         style="fill:#000000;fill-opacity:1;fill-rule:evenodd;stroke:#000000;stroke-width:0.625;stroke-linejoin:round;stroke-opacity:1"
         d="M 8.7185878,4.0337352 -2.2072895,0.01601326 8.7185884,-4.0017078 c -1.7454984,2.3720609 -1.7354408,5.6174519 -6e-7,8.035443 z"
         transform="matrix(-0.3,0,0,-0.3,0.69,0)"
         inkscape:connector-curvature="0" />
    </marker>
  </defs>
  <sodipodi:namedview
     id="base"
     pagecolor="#ffffff"
     bordercolor="#666666"
     borderopacity="1.0"
     inkscape:pageopacity="0.0"
     inkscape:pageshadow="2"
     inkscape:zoom="1.979899"
     inkscape:cx="404.31046"
     inkscape:cy="179.65528"
     inkscape:document-units="mm"
     inkscape:current-layer="layer1"
     showgrid="false"
     units="px"
     inkscape:window-width="1920"
     inkscape:window-height="1080"
     inkscape:window-x="0"
     inkscape:window-y="0"
     inkscape:window-maximized="1" />
  <metadata
     id="metadata5">
    <rdf:RDF>
      <cc:Work
         rdf:about="">
        <dc:format>image/svg+xml</dc:format>
        <dc:type
           rdf:resource="http://purl.org/dc/dcmitype/StillImage" />
        <dc:title></dc:title>
      </cc:Work>
    </rdf:RDF>
  </metadata>
  <g
     inkscape:label="Layer 1"
     inkscape:groupmode="layer"
     id="layer1"
     transform="translate(0,-204.39582)">
    <rect
       id="rect655-3-6-3"
       width="39.6875"
       height="42.333332"
       x="85.989586"
       y="225.5625"
       style="fill:#407f7f;fill-opacity:0.25098039;stroke-width:0.27606034" />
    <rect
       id="rect655-0-4"
       width="39.688"
       height="18.520834"
       x="85.989586"
       y="267.89581"
       style="fill:#7a9f35;fill-opacity:0.25098039;stroke-width:0.18259676" />
    <flowRoot
       xml:space="preserve"
       id="flowRoot4523"
       style="font-style:normal;font-weight:normal;font-size:40px;line-height:25px;font-family:sans-serif;letter-spacing:0px;word-spacing:0px;fill:#000000;fill-opacity:1;stroke:none"
       transform="matrix(0.26458333,0,0,0.26458333,0,138.24998)"><flowRegion
         id="flowRegion4525"><rect
           id="rect4527"
           width="234.35539"
           height="68.690376"
           x="385.87827"
           y="171.69533" /></flowRegion><flowPara
         id="flowPara4529" /></flowRoot>    <rect
       id="rect655"
       width="39.6875"
       height="10.583333"
       x="85.989586"
       y="286.41666"
       style="fill:#2d882d;fill-opacity:1;stroke-width:0.13803017" />
    <rect
       id="rect655-0"
       width="39.688"
       height="10.583333"
       x="85.989586"
       y="275.83331"
       style="fill:#7a9f35;fill-opacity:1;stroke-width:0.13803017" />
    <rect
       id="rect655-3-6"
       width="39.6875"
       height="10.583333"
       x="85.989586"
       y="225.56248"
       style="fill:#407f7f;fill-opacity:1;stroke-width:0.13803017" />
    <rect
       id="rect655-3-6-0"
       width="39.6875"
       height="11.90625"
       x="85.989586"
       y="213.65623"
       style="fill:#d49a6a;fill-opacity:1;stroke-width:0.1464031" />
    <rect
       id="rect655-3-6-0-3"
       width="39.6875"
       height="9.260417"
       x="85.989586"
       y="204.39581"
       style="fill:#d46a6a;fill-opacity:1;stroke-width:0.1291154" />
    <g
       aria-label=".bss + .data"
       transform="matrix(0.13229166,0,0,0.13229166,35.399255,153.29188)"
       style="font-style:normal;font-variant:normal;font-weight:normal;font-stretch:normal;font-size:32px;line-height:25px;font-family:'Fira Code';-inkscape-font-specification:'Fira Code';letter-spacing:0px;word-spacing:0px;fill:#000000;fill-opacity:1;stroke:none"
       id="flowRoot4491-0">
      <path
         d="m 421.92387,1055.6256 c 0,1.6 1.21601,2.816 2.816,2.816 1.632,0 2.81601,-1.216 2.81601,-2.816 0,-1.568 -1.18401,-2.816 -2.81601,-2.816 -1.59999,0 -2.816,1.248 -2.816,2.816 z"
         id="path5914"
         inkscape:connector-curvature="0" />
      <path
         d="m 440.24737,1043.4336 v -9.312 l -2.688,0.32 v 23.648 h 2.368 l 0.192,-1.76 c 1.152,1.472 2.656,2.112 4.57601,2.112 4.35199,0 6.68799,-3.68 6.68799,-8.8 0,-5.28 -1.824,-8.768 -6.30399,-8.768 -1.952,0 -3.584,0.928 -4.83201,2.56 z m 3.84,12.832 c -1.56799,0 -2.944,-0.8 -3.84,-2.176 v -8.352 c 0.928,-1.344 2.368,-2.688 4.22401,-2.688 2.62399,0 4,2.208 4,6.592 0,4.48 -1.60001,6.624 -4.38401,6.624 z"
         id="path5916"
         inkscape:connector-curvature="0" />
      <path
         d="m 462.50687,1056.2336 c -1.984,0 -3.77599,-0.736 -5.08799,-1.824 l -1.50401,1.76 c 1.44,1.248 3.52,2.272 6.592,2.272 3.584,0 7.072,-1.408 7.072,-5.024 0,-3.136 -2.176,-4.288 -5.472,-5.184 -3.392,-0.928 -4.44799,-1.44 -4.44799,-2.976 0,-1.28 0.95999,-2.208 3.64799,-2.208 2.176,0 3.616,0.672 4.86401,1.536 l 1.21599,-1.856 c -1.44,-1.024 -3.424,-1.856 -6.14399,-1.856 -3.80801,0 -6.40001,1.792 -6.40001,4.608 0,2.944 2.272,4 5.76,4.864 3.584,0.896 4.064,1.696 4.064,3.2 0,1.632 -1.56799,2.688 -4.16,2.688 z"
         id="path5918"
         inkscape:connector-curvature="0" />
      <path
         d="m 481.69437,1056.2336 c -1.984,0 -3.77599,-0.736 -5.08799,-1.824 l -1.50401,1.76 c 1.44,1.248 3.52,2.272 6.592,2.272 3.584,0 7.072,-1.408 7.072,-5.024 0,-3.136 -2.176,-4.288 -5.472,-5.184 -3.392,-0.928 -4.44799,-1.44 -4.44799,-2.976 0,-1.28 0.95999,-2.208 3.64799,-2.208 2.176,0 3.616,0.672 4.86401,1.536 l 1.21599,-1.856 c -1.44,-1.024 -3.424,-1.856 -6.14399,-1.856 -3.80801,0 -6.40001,1.792 -6.40001,4.608 0,2.944 2.272,4 5.76,4.864 3.584,0.896 4.064,1.696 4.064,3.2 0,1.632 -1.56799,2.688 -4.16,2.688 z"
         id="path5920"
         inkscape:connector-curvature="0" />
      <path
         d="m 521.92538,1040.6496 h -2.496 v 6.368 h -6.20801 v 2.24 h 6.20801 v 6.368 h 2.496 v -6.368 h 6.27199 v -2.24 h -6.27199 z"
         id="path5922"
         inkscape:connector-curvature="0" />
      <path
         d="m 556.23637,1055.6256 c 0,1.6 1.216,2.816 2.816,2.816 1.63201,0 2.81601,-1.216 2.81601,-2.816 0,-1.568 -1.184,-2.816 -2.81601,-2.816 -1.6,0 -2.816,1.248 -2.816,2.816 z"
         id="path5924"
         inkscape:connector-curvature="0" />
      <path
         d="m 581.98387,1034.1216 v 8.768 c -1.152,-1.312 -2.59199,-2.016 -4.54399,-2.016 -4.12801,0 -6.592,3.744 -6.592,8.8 0,5.248 2.01599,8.768 6.43199,8.768 1.82401,0 3.52001,-0.8 4.768,-2.56 l 0.256,2.208 h 2.368 v -23.648 z m -3.84,8.928 c 1.568,0 2.91201,0.8 3.84,2.176 v 8.384 c -0.92799,1.408 -2.24,2.688 -4.15999,2.688 -2.65601,0 -4.06401,-2.24 -4.06401,-6.624 0,-4.448 1.6,-6.624 4.384,-6.624 z"
         id="path5926"
         inkscape:connector-curvature="0" />
      <path
         d="m 603.15538,1054.4096 v -8.096 c 0,-3.328 -2.11201,-5.44 -6.30401,-5.44 -1.664,0 -3.456,0.32 -5.53599,1.056 l 0.73599,2.048 c 1.728,-0.608 3.26401,-0.864 4.38401,-0.864 2.49599,0 4,0.896 4,3.36 v 1.376 h -2.496 c -5.08801,0 -7.87201,1.952 -7.87201,5.408 0,3.136 2.048,5.184 5.44001,5.184 2.17599,0 4.06399,-0.8 5.27999,-2.368 0.448,1.536 1.632,2.208 3.072,2.4 l 0.67201,-1.92 c -0.96001,-0.288 -1.376,-0.8 -1.376,-2.144 z m -6.976,2.016 c -2.20801,0 -3.23201,-1.088 -3.23201,-3.2 0,-2.176 1.34401,-3.52 5.056,-3.52 h 2.43201 v 4.32 c -0.99201,1.504 -2.592,2.4 -4.256,2.4 z"
         id="path5928"
         inkscape:connector-curvature="0" />
      <path
         d="m 623.65487,1057.2256 -1.05599,-1.824 c -0.89601,0.48 -1.98401,0.8 -3.232,0.8 -2.30401,0 -3.23201,-0.992 -3.23201,-2.848 v -10.016 h 5.504 l 0.352,-2.112 h -5.856 v -4.128 l -2.688,0.32 v 3.808 h -3.87199 v 2.112 h 3.87199 v 10.048 c 0,2.944 2.048,5.056 5.664,5.056 1.6,0 3.36,-0.448 4.544,-1.216 z"
         id="path5930"
         inkscape:connector-curvature="0" />
      <path
         d="m 641.53038,1054.4096 v -8.096 c 0,-3.328 -2.11201,-5.44 -6.30401,-5.44 -1.664,0 -3.456,0.32 -5.53599,1.056 l 0.73599,2.048 c 1.728,-0.608 3.26401,-0.864 4.38401,-0.864 2.49599,0 4,0.896 4,3.36 v 1.376 h -2.496 c -5.08801,0 -7.87201,1.952 -7.87201,5.408 0,3.136 2.048,5.184 5.44001,5.184 2.17599,0 4.06399,-0.8 5.27999,-2.368 0.448,1.536 1.632,2.208 3.072,2.4 l 0.67201,-1.92 c -0.96001,-0.288 -1.376,-0.8 -1.376,-2.144 z m -6.976,2.016 c -2.20801,0 -3.23201,-1.088 -3.23201,-3.2 0,-2.176 1.34401,-3.52 5.056,-3.52 h 2.43201 v 4.32 c -0.99201,1.504 -2.592,2.4 -4.256,2.4 z"
         id="path5932"
         inkscape:connector-curvature="0" />
    </g>
    <g
       aria-label="heap"
       style="font-style:normal;font-variant:normal;font-weight:normal;font-stretch:normal;font-size:10.58333302px;line-height:6.61458349px;font-family:'Fira Code';-inkscape-font-specification:'Fira Code';letter-spacing:0px;word-spacing:0px;fill:#000000;fill-opacity:1;stroke:none;stroke-width:0.26458332"
       id="text368-3">
      <path
         d="m 101.47785,279.09509 -0.3556,0.0381 v 3.1242 h 0.3556 v -1.6256 c 0.11853,-0.17357 0.34713,-0.3683 0.5969,-0.3683 0.2667,0 0.38946,0.1143 0.38946,0.381 v 1.6129 h 0.3556 v -1.61714 c 0,-0.41486 -0.1905,-0.6604 -0.62653,-0.6604 -0.2667,0 -0.53763,0.12277 -0.71543,0.3556 z"
         style="font-size:4.23333311px;stroke-width:0.26458332"
         id="path4543" />
      <path
         d="m 103.94423,281.26679 h 1.4986 c 0.004,-0.0466 0.008,-0.1143 0.008,-0.1905 0,-0.67734 -0.34713,-1.09644 -0.91016,-1.09644 -0.59267,0 -0.96944,0.49107 -0.96944,1.16417 0,0.69427 0.3683,1.15993 1.02024,1.15993 0.27516,0 0.55456,-0.0974 0.762,-0.25823 l -0.1651,-0.23707 c -0.19897,0.13124 -0.3683,0.19897 -0.5969,0.19897 -0.3429,0 -0.63077,-0.22437 -0.6477,-0.74083 z m 0.60113,-0.99484 c 0.33867,0 0.55033,0.24554 0.5588,0.7239 h -1.15993 c 0.0296,-0.49106 0.27093,-0.7239 0.60113,-0.7239 z"
         style="font-size:4.23333311px;stroke-width:0.26458332"
         id="path4545" />
      <path
         d="m 107.79914,281.77055 v -1.07103 c 0,-0.44027 -0.2794,-0.71967 -0.83397,-0.71967 -0.22013,0 -0.4572,0.0423 -0.73236,0.1397 l 0.0974,0.27094 c 0.2286,-0.0804 0.4318,-0.1143 0.57997,-0.1143 0.3302,0 0.52917,0.11853 0.52917,0.4445 v 0.18203 h -0.3302 c -0.6731,0 -1.0414,0.25823 -1.0414,0.71543 0,0.41487 0.27093,0.6858 0.71966,0.6858 0.28787,0 0.53764,-0.10583 0.6985,-0.31326 0.0593,0.2032 0.2159,0.2921 0.4064,0.3175 l 0.0889,-0.254 c -0.127,-0.0381 -0.18203,-0.10584 -0.18203,-0.28364 z m -0.92287,0.2667 c -0.2921,0 -0.42756,-0.14393 -0.42756,-0.42333 0,-0.28787 0.1778,-0.46567 0.66886,-0.46567 h 0.32174 v 0.5715 c -0.13124,0.19897 -0.3429,0.3175 -0.56304,0.3175 z"
         style="font-size:4.23333311px;stroke-width:0.26458332"
         id="path4547" />
      <path
         d="m 109.73635,279.97985 c -0.2667,0 -0.50376,0.13124 -0.66463,0.35984 l -0.0296,-0.31327 h -0.3048 v 3.12843 l 0.3556,-0.0423 v -1.06257 c 0.1524,0.16934 0.34713,0.254 0.59266,0.254 0.57997,0 0.85937,-0.48683 0.85937,-1.16416 0,-0.6985 -0.2159,-1.15994 -0.80857,-1.15994 z m -0.0847,0.28787 c 0.35136,0 0.508,0.2921 0.508,0.87207 0,0.59266 -0.18627,0.86783 -0.55457,0.86783 -0.21167,0 -0.3937,-0.10583 -0.51223,-0.2794 v -1.1049 c 0.12276,-0.1778 0.31326,-0.3556 0.5588,-0.3556 z"
         style="font-size:4.23333311px;stroke-width:0.26458332"
         id="path4549" />
    </g>
    <path
       style="fill:none;stroke:#000000;stroke-width:0.26458338;stroke-linecap:butt;stroke-linejoin:miter;stroke-miterlimit:4;stroke-dasharray:none;stroke-opacity:1"
       d="M 85.989583,286.28436 H 125.67708"
       id="path4610-2-06"
       inkscape:connector-curvature="0" />
    <g
       aria-label="T2 stack"
       style="font-style:normal;font-variant:normal;font-weight:normal;font-stretch:normal;font-size:10.58333302px;line-height:6.61458349px;font-family:'Fira Code';-inkscape-font-specification:'Fira Code';letter-spacing:0px;word-spacing:0px;fill:#000000;fill-opacity:1;stroke:none;stroke-width:0.26458332"
       id="text368-1"
       transform="translate(-0.67357512,-0.66145875)">
      <path
         d="m 97.781449,230.47633 h 0.880533 l 0.0381,-0.3175 h -2.1971 v 0.3175 h 0.910167 v 2.59926 h 0.3683 z"
         style="font-size:4.23333311px;stroke-width:0.26458332"
         id="path4513"
         inkscape:connector-curvature="0" />
      <path
         d="m 100.01076,230.11226 c -0.393698,0 -0.660398,0.1397 -0.888998,0.4191 l 0.245533,0.1905 c 0.186267,-0.2159 0.3429,-0.30903 0.626533,-0.30903 0.325962,0 0.524932,0.19896 0.524932,0.52493 0,0.47413 -0.23707,0.79587 -1.337732,1.84997 v 0.28786 h 1.735662 l 0.0423,-0.3048 h -1.371602 c 0.960962,-0.8763 1.303862,-1.3081 1.303862,-1.84573 0,-0.46143 -0.3302,-0.8128 -0.88053,-0.8128 z"
         style="font-size:4.23333311px;stroke-width:0.26458332"
         id="path4515"
         inkscape:connector-curvature="0" />
      <path
         d="m 105.13402,232.83006 c -0.26247,0 -0.49953,-0.0974 -0.6731,-0.2413 l -0.19897,0.23283 c 0.1905,0.1651 0.46567,0.30057 0.87207,0.30057 0.47413,0 0.93557,-0.18627 0.93557,-0.66463 0,-0.41487 -0.28787,-0.56727 -0.7239,-0.6858 -0.44874,-0.12277 -0.58844,-0.1905 -0.58844,-0.3937 0,-0.16934 0.127,-0.2921 0.4826,-0.2921 0.28787,0 0.47837,0.0889 0.64347,0.2032 l 0.16087,-0.24554 c -0.1905,-0.13546 -0.45297,-0.24553 -0.8128,-0.24553 -0.50377,0 -0.84667,0.23707 -0.84667,0.6096 0,0.38947 0.30057,0.52917 0.762,0.64347 0.47413,0.11853 0.53763,0.22436 0.53763,0.42333 0,0.2159 -0.20743,0.3556 -0.55033,0.3556 z"
         style="font-size:4.23333311px;stroke-width:0.26458332"
         id="path4517"
         inkscape:connector-curvature="0" />
      <path
         d="m 108.68413,232.96129 -0.1397,-0.2413 c -0.11853,0.0635 -0.26246,0.10584 -0.42756,0.10584 -0.3048,0 -0.42757,-0.13124 -0.42757,-0.37677 v -1.32503 h 0.72813 l 0.0466,-0.2794 h -0.7747 v -0.5461 l -0.3556,0.0423 v 0.50377 h -0.51223 v 0.2794 h 0.51223 v 1.32926 c 0,0.38947 0.27093,0.66887 0.7493,0.66887 0.21167,0 0.4445,-0.0593 0.60113,-0.16087 z"
         style="font-size:4.23333311px;stroke-width:0.26458332"
         id="path4519"
         inkscape:connector-curvature="0" />
      <path
         d="m 111.04891,232.58876 v -1.07103 c 0,-0.44027 -0.2794,-0.71967 -0.83396,-0.71967 -0.22014,0 -0.4572,0.0423 -0.73237,0.1397 l 0.0974,0.27093 c 0.2286,-0.0804 0.4318,-0.1143 0.57996,-0.1143 0.3302,0 0.52917,0.11854 0.52917,0.4445 v 0.18204 h -0.3302 c -0.6731,0 -1.0414,0.25823 -1.0414,0.71543 0,0.41487 0.27093,0.6858 0.71967,0.6858 0.28786,0 0.53763,-0.10583 0.6985,-0.31327 0.0593,0.2032 0.2159,0.2921 0.4064,0.3175 l 0.0889,-0.254 c -0.127,-0.0381 -0.18204,-0.10583 -0.18204,-0.28363 z m -0.92286,0.2667 c -0.2921,0 -0.42757,-0.14393 -0.42757,-0.42333 0,-0.28787 0.1778,-0.46567 0.66887,-0.46567 h 0.32173 v 0.5715 c -0.13123,0.19897 -0.3429,0.3175 -0.56303,0.3175 z"
         style="font-size:4.23333311px;stroke-width:0.26458332"
         id="path4521"
         inkscape:connector-curvature="0" />
      <path
         d="m 112.99883,232.81736 c -0.38524,0 -0.66464,-0.24977 -0.66464,-0.84667 0,-0.58843 0.27517,-0.87206 0.6604,-0.87206 0.19897,0 0.38524,0.0677 0.57574,0.19473 l 0.17356,-0.23283 c -0.20743,-0.17357 -0.4572,-0.26247 -0.74506,-0.26247 -0.66464,0 -1.04987,0.50377 -1.04987,1.17263 0,0.6985 0.381,1.15147 1.04987,1.15147 0.25823,0 0.5588,-0.1016 0.7493,-0.2667 l -0.16934,-0.23283 c -0.16933,0.1143 -0.3556,0.19473 -0.57996,0.19473 z"
         style="font-size:4.23333311px;stroke-width:0.26458332"
         id="path4523"
         inkscape:connector-curvature="0" />
      <path
         d="m 114.90641,229.90483 -0.3556,0.0423 v 3.12843 h 0.3556 z m 1.4859,0.9398 h -0.4572 l -0.9906,1.01176 1.09643,1.2192 h 0.4699 l -1.1176,-1.22343 z"
         style="font-size:4.23333311px;stroke-width:0.26458332"
         id="path4525"
         inkscape:connector-curvature="0" />
    </g>
    <g
       aria-label="T1 stack"
       style="font-style:normal;font-variant:normal;font-weight:normal;font-stretch:normal;font-size:10.58333302px;line-height:6.61458349px;font-family:'Fira Code';-inkscape-font-specification:'Fira Code';letter-spacing:0px;word-spacing:0px;fill:#000000;fill-opacity:1;stroke:none;stroke-width:0.26458332"
       id="text368-4"
       transform="translate(-1.4753856,10.583345)">
      <path
         d="m 98.58326,207.98673 h 0.880533 l 0.0381,-0.3175 h -2.1971 v 0.3175 h 0.910167 v 2.59927 h 0.3683 z"
         style="font-size:4.23333311px;stroke-width:0.26458332"
         id="path4498"
         inkscape:connector-curvature="0" />
      <path
         d="m 101.25707,210.29813 v -2.6289 h -0.31326 l -0.86784,0.54187 0.15664,0.24977 0.66463,-0.40217 v 2.23943 h -0.71543 v 0.28787 h 1.68063 v -0.28787 z"
         style="font-size:4.23333311px;stroke-width:0.26458332"
         id="path4500"
         inkscape:connector-curvature="0" />
      <path
         d="m 105.93583,210.34047 c -0.26246,0 -0.49953,-0.0974 -0.6731,-0.2413 l -0.19896,0.23283 c 0.1905,0.1651 0.46566,0.30057 0.87206,0.30057 0.47414,0 0.93557,-0.18627 0.93557,-0.66464 0,-0.41486 -0.28787,-0.56726 -0.7239,-0.6858 -0.44873,-0.12276 -0.58843,-0.1905 -0.58843,-0.3937 0,-0.16933 0.127,-0.2921 0.4826,-0.2921 0.28786,0 0.47836,0.0889 0.64346,0.2032 L 106.846,208.554 c -0.1905,-0.13547 -0.45297,-0.24553 -0.8128,-0.24553 -0.50377,0 -0.84667,0.23706 -0.84667,0.6096 0,0.38946 0.30057,0.52916 0.762,0.64346 0.47414,0.11854 0.53764,0.22437 0.53764,0.42334 0,0.2159 -0.20744,0.3556 -0.55034,0.3556 z"
         style="font-size:4.23333311px;stroke-width:0.26458332"
         id="path4502"
         inkscape:connector-curvature="0" />
      <path
         d="m 109.48594,210.4717 -0.1397,-0.2413 c -0.11853,0.0635 -0.26246,0.10583 -0.42756,0.10583 -0.3048,0 -0.42757,-0.13123 -0.42757,-0.37676 v -1.32504 h 0.72813 l 0.0466,-0.2794 h -0.7747 v -0.5461 l -0.3556,0.0423 v 0.50376 h -0.51223 v 0.2794 h 0.51223 v 1.32927 c 0,0.38947 0.27094,0.66887 0.7493,0.66887 0.21167,0 0.4445,-0.0593 0.60113,-0.16087 z"
         style="font-size:4.23333311px;stroke-width:0.26458332"
         id="path4504"
         inkscape:connector-curvature="0" />
      <path
         d="m 111.85072,210.09917 v -1.07104 c 0,-0.44026 -0.2794,-0.71966 -0.83396,-0.71966 -0.22014,0 -0.4572,0.0423 -0.73237,0.1397 l 0.0974,0.27093 c 0.2286,-0.0804 0.4318,-0.1143 0.57996,-0.1143 0.3302,0 0.52917,0.11853 0.52917,0.4445 v 0.18203 h -0.3302 c -0.6731,0 -1.0414,0.25824 -1.0414,0.71544 0,0.41486 0.27093,0.6858 0.71967,0.6858 0.28786,0 0.53763,-0.10584 0.6985,-0.31327 0.0593,0.2032 0.2159,0.2921 0.4064,0.3175 l 0.0889,-0.254 c -0.127,-0.0381 -0.18204,-0.10583 -0.18204,-0.28363 z m -0.92286,0.2667 c -0.2921,0 -0.42757,-0.14394 -0.42757,-0.42334 0,-0.28786 0.1778,-0.46566 0.66887,-0.46566 h 0.32173 v 0.5715 c -0.13123,0.19896 -0.3429,0.3175 -0.56303,0.3175 z"
         style="font-size:4.23333311px;stroke-width:0.26458332"
         id="path4506"
         inkscape:connector-curvature="0" />
      <path
         d="m 113.80064,210.32777 c -0.38524,0 -0.66464,-0.24977 -0.66464,-0.84667 0,-0.58843 0.27517,-0.87207 0.6604,-0.87207 0.19897,0 0.38524,0.0677 0.57574,0.19474 l 0.17356,-0.23284 c -0.20743,-0.17356 -0.4572,-0.26246 -0.74506,-0.26246 -0.66464,0 -1.04987,0.50376 -1.04987,1.17263 0,0.6985 0.381,1.15147 1.04987,1.15147 0.25823,0 0.5588,-0.1016 0.7493,-0.2667 l -0.16934,-0.23284 c -0.16933,0.1143 -0.3556,0.19474 -0.57996,0.19474 z"
         style="font-size:4.23333311px;stroke-width:0.26458332"
         id="path4508"
         inkscape:connector-curvature="0" />
      <path
         d="m 115.70822,207.41523 -0.3556,0.0423 v 3.12843 h 0.3556 z m 1.4859,0.9398 h -0.4572 l -0.9906,1.01177 1.09643,1.2192 h 0.4699 l -1.1176,-1.22343 z"
         style="font-size:4.23333311px;stroke-width:0.26458332"
         id="path4510"
         inkscape:connector-curvature="0" />
    </g>
    <path
       style="fill:none;stroke:#000000;stroke-width:0.26458341;stroke-linecap:butt;stroke-linejoin:miter;stroke-miterlimit:4;stroke-dasharray:none;stroke-opacity:1"
       d="M 85.989583,204.26353 H 125.67707"
       id="path4610-2-0-65"
       inkscape:connector-curvature="0" />
    <path
       style="fill:none;stroke:#000000;stroke-width:0.5280323;stroke-linecap:butt;stroke-linejoin:miter;stroke-miterlimit:2;stroke-dasharray:none;stroke-opacity:1;marker-start:url(#Arrow2Sstart-1-2);marker-end:url(#marker5551-7-1)"
       d="m 105.83334,234.3241 v 3.57164"
       id="path4627-9-7"
       inkscape:connector-curvature="0" />
    <path
       style="fill:none;stroke:#000000;stroke-width:0.26458341;stroke-linecap:butt;stroke-linejoin:miter;stroke-miterlimit:4;stroke-dasharray:none;stroke-opacity:1"
       d="M 85.989583,296.86769 H 125.67707"
       id="path4610-2-06-6"
       inkscape:connector-curvature="0" />
    <path
       style="fill:none;stroke:#000000;stroke-width:0.5280323;stroke-linecap:butt;stroke-linejoin:miter;stroke-miterlimit:2;stroke-dasharray:none;stroke-opacity:1;marker-start:url(#Arrow2Sstart-1-2-9);marker-end:url(#marker5551-7-1-7)"
       d="m 105.83337,274.01173 v 3.57164"
       id="path4627-9-7-5"
       inkscape:connector-curvature="0" />
    <text
       xml:space="preserve"
       style="font-style:normal;font-variant:normal;font-weight:normal;font-stretch:normal;font-size:10.58333302px;line-height:6.61458302px;font-family:'Fira Code';-inkscape-font-specification:'Fira Code';letter-spacing:0px;word-spacing:0px;fill:#000000;fill-opacity:1;stroke:none;stroke-width:0.26458332"
       x="92.98838"
       y="210.586"
       id="text5113"><tspan
         sodipodi:role="line"
         id="tspan5111"
         x="92.98838"
         y="210.586"
         style="font-size:4.23333311px;stroke-width:0.26458332">IDLE stack</tspan></text>
    <path
       style="fill:none;stroke:#000000;stroke-width:0.26458341;stroke-linecap:butt;stroke-linejoin:miter;stroke-miterlimit:4;stroke-dasharray:none;stroke-opacity:1"
       d="M 85.989583,267.76353 H 125.67707"
       id="path4610-2-06-8"
       inkscape:connector-curvature="0" />
  </g>
</svg>
