<?xml version="1.0" encoding="UTF-8" standalone="no"?>
<!-- Created with Inkscape (http://www.inkscape.org/) -->

<svg
   xmlns:dc="http://purl.org/dc/elements/1.1/"
   xmlns:cc="http://creativecommons.org/ns#"
   xmlns:rdf="http://www.w3.org/1999/02/22-rdf-syntax-ns#"
   xmlns:svg="http://www.w3.org/2000/svg"
   xmlns="http://www.w3.org/2000/svg"
   xmlns:sodipodi="http://sodipodi.sourceforge.net/DTD/sodipodi-0.dtd"
   xmlns:inkscape="http://www.inkscape.org/namespaces/inkscape"
   width="800"
   height="250"
   viewBox="0 0 211.66666 66.145835"
   version="1.1"
   id="svg8"
   inkscape:version="0.92.1 r"
   sodipodi:docname="memory.svg">
  <defs
     id="defs2">
    <marker
       inkscape:stockid="Arrow2Sstart"
       orient="auto"
       refY="0"
       refX="0"
       id="Arrow2Sstart"
       style="overflow:visible"
       inkscape:isstock="true">
      <path
         id="path4659"
         style="fill:#000000;fill-opacity:1;fill-rule:evenodd;stroke:#000000;stroke-width:0.625;stroke-linejoin:round;stroke-opacity:1"
         d="M 8.7185878,4.0337352 -2.2072895,0.01601326 8.7185884,-4.0017078 c -1.7454984,2.3720609 -1.7354408,5.6174519 -6e-7,8.035443 z"
         transform="matrix(0.3,0,0,0.3,-0.69,0)"
         inkscape:connector-curvature="0" />
    </marker>
    <marker
       inkscape:stockid="Arrow2Send"
       orient="auto"
       refY="0"
       refX="0"
       id="marker5551"
       style="overflow:visible"
       inkscape:isstock="true">
      <path
         id="path5549"
         style="fill:#000000;fill-opacity:1;fill-rule:evenodd;stroke:#000000;stroke-width:0.625;stroke-linejoin:round;stroke-opacity:1"
         d="M 8.7185878,4.0337352 -2.2072895,0.01601326 8.7185884,-4.0017078 c -1.7454984,2.3720609 -1.7354408,5.6174519 -6e-7,8.035443 z"
         transform="matrix(-0.3,0,0,-0.3,0.69,0)"
         inkscape:connector-curvature="0" />
    </marker>
    <marker
       inkscape:stockid="Arrow1Sstart"
       orient="auto"
       refY="0"
       refX="0"
       id="Arrow1Sstart"
       style="overflow:visible"
       inkscape:isstock="true">
      <path
         id="path4641"
         d="M 0,0 5,-5 -12.5,0 5,5 Z"
         style="fill:#000000;fill-opacity:1;fill-rule:evenodd;stroke:#000000;stroke-width:1.00000003pt;stroke-opacity:1"
         transform="matrix(0.2,0,0,0.2,1.2,0)"
         inkscape:connector-curvature="0" />
    </marker>
    <marker
       inkscape:stockid="Arrow1Send"
       orient="auto"
       refY="0"
       refX="0"
       id="Arrow1Send"
       style="overflow:visible"
       inkscape:isstock="true">
      <path
         id="path4644"
         d="M 0,0 5,-5 -12.5,0 5,5 Z"
         style="fill:#000000;fill-opacity:1;fill-rule:evenodd;stroke:#000000;stroke-width:1.00000003pt;stroke-opacity:1"
         transform="matrix(-0.2,0,0,-0.2,-1.2,0)"
         inkscape:connector-curvature="0" />
    </marker>
    <marker
       inkscape:stockid="Arrow2Send"
       orient="auto"
       refY="0"
       refX="0"
       id="Arrow2Send"
       style="overflow:visible"
       inkscape:isstock="true">
      <path
         id="path4662"
         style="fill:#000000;fill-opacity:1;fill-rule:evenodd;stroke:#000000;stroke-width:0.625;stroke-linejoin:round;stroke-opacity:1"
         d="M 8.7185878,4.0337352 -2.2072895,0.01601326 8.7185884,-4.0017078 c -1.7454984,2.3720609 -1.7354408,5.6174519 -6e-7,8.035443 z"
         transform="matrix(-0.3,0,0,-0.3,0.69,0)"
         inkscape:connector-curvature="0" />
    </marker>
    <marker
       inkscape:stockid="Arrow2Mend"
       orient="auto"
       refY="0"
       refX="0"
       id="Arrow2Mend"
       style="overflow:visible"
       inkscape:isstock="true">
      <path
         id="path4656"
         style="fill:#000000;fill-opacity:1;fill-rule:evenodd;stroke:#000000;stroke-width:0.625;stroke-linejoin:round;stroke-opacity:1"
         d="M 8.7185878,4.0337352 -2.2072895,0.01601326 8.7185884,-4.0017078 c -1.7454984,2.3720609 -1.7354408,5.6174519 -6e-7,8.035443 z"
         transform="scale(-0.6)"
         inkscape:connector-curvature="0" />
    </marker>
    <marker
       inkscape:stockid="Arrow2Lend"
       orient="auto"
       refY="0"
       refX="0"
       id="Arrow2Lend"
       style="overflow:visible"
       inkscape:isstock="true">
      <path
         id="path4650"
         style="fill:#000000;fill-opacity:1;fill-rule:evenodd;stroke:#000000;stroke-width:0.625;stroke-linejoin:round;stroke-opacity:1"
         d="M 8.7185878,4.0337352 -2.2072895,0.01601326 8.7185884,-4.0017078 c -1.7454984,2.3720609 -1.7354408,5.6174519 -6e-7,8.035443 z"
         transform="matrix(-1.1,0,0,-1.1,-1.1,0)"
         inkscape:connector-curvature="0" />
    </marker>
    <marker
       inkscape:stockid="Arrow1Lend"
       orient="auto"
       refY="0"
       refX="0"
       id="Arrow1Lend"
       style="overflow:visible"
       inkscape:isstock="true">
      <path
         id="path4632"
         d="M 0,0 5,-5 -12.5,0 5,5 Z"
         style="fill:#000000;fill-opacity:1;fill-rule:evenodd;stroke:#000000;stroke-width:1.00000003pt;stroke-opacity:1"
         transform="matrix(-0.8,0,0,-0.8,-10,0)"
         inkscape:connector-curvature="0" />
    </marker>
    <marker
       inkscape:stockid="Arrow1Lstart"
       orient="auto"
       refY="0"
       refX="0"
       id="Arrow1Lstart"
       style="overflow:visible"
       inkscape:isstock="true">
      <path
         id="path4629"
         d="M 0,0 5,-5 -12.5,0 5,5 Z"
         style="fill:#000000;fill-opacity:1;fill-rule:evenodd;stroke:#000000;stroke-width:1.00000003pt;stroke-opacity:1"
         transform="matrix(0.8,0,0,0.8,10,0)"
         inkscape:connector-curvature="0" />
    </marker>
  </defs>
  <sodipodi:namedview
     id="base"
     pagecolor="#ffffff"
     bordercolor="#666666"
     borderopacity="1.0"
     inkscape:pageopacity="0.0"
     inkscape:pageshadow="2"
     inkscape:zoom="0.98994949"
     inkscape:cx="331.27664"
     inkscape:cy="210.2825"
     inkscape:document-units="mm"
     inkscape:current-layer="layer1"
     showgrid="false"
     units="px"
     inkscape:window-width="1920"
     inkscape:window-height="1080"
     inkscape:window-x="0"
     inkscape:window-y="0"
     inkscape:window-maximized="1" />
  <metadata
     id="metadata5">
    <rdf:RDF>
      <cc:Work
         rdf:about="">
        <dc:format>image/svg+xml</dc:format>
        <dc:type
           rdf:resource="http://purl.org/dc/dcmitype/StillImage" />
        <dc:title></dc:title>
      </cc:Work>
    </rdf:RDF>
  </metadata>
  <g
     inkscape:label="Layer 1"
     inkscape:groupmode="layer"
     id="layer1"
     transform="translate(0,-230.85415)">
    <rect
       id="rect3682"
       width="39.530746"
       height="59.374496"
       x="86.121872"
       y="237.49319"
       style="fill:#ffffff;fill-opacity:1;stroke:#000000;stroke-width:0.26458335;stroke-miterlimit:4;stroke-dasharray:none;stroke-opacity:1" />
    <g
       aria-label="0x2000_0000"
       transform="matrix(0.13229166,0,0,0.13229166,71.826277,156.25308)"
       style="font-style:normal;font-variant:normal;font-weight:normal;font-stretch:normal;font-size:32px;line-height:25px;font-family:'Fira Code';-inkscape-font-specification:'Fira Code';letter-spacing:0px;word-spacing:0px;fill:#000000;fill-opacity:1;stroke:none"
       id="flowRoot4491">
      <path
         d="m 424.77188,1035.6896 c -4.73601,0 -7.20001,4.064 -7.20001,11.36 0,7.328 2.464,11.392 7.20001,11.392 4.736,0 7.19999,-4.064 7.19999,-11.392 0,-7.296 -2.46399,-11.36 -7.19999,-11.36 z m 0,2.176 c 2.75199,0 4.38399,2.688 4.38399,9.184 0,6.528 -1.632,9.216 -4.38399,9.216 -2.72001,0 -4.38401,-2.688 -4.38401,-9.216 0,-6.496 1.664,-9.184 4.38401,-9.184 z m 0,7.104 c -1.18401,0 -2.08001,0.928 -2.08001,2.08 0,1.184 0.896,2.112 2.08001,2.112 1.21599,0 2.11199,-0.928 2.11199,-2.112 0,-1.152 -0.896,-2.08 -2.11199,-2.08 z"
         id="path5891"
         inkscape:connector-curvature="0" />
      <path
         d="m 448.69538,1041.2576 -4.736,4.736 -4.80001,-4.736 -1.696,1.696 4.76801,4.736 -4.76801,4.8 1.696,1.696 4.80001,-4.768 4.736,4.768 1.69599,-1.696 -4.704,-4.8 4.704,-4.736 z"
         id="path5893"
         inkscape:connector-curvature="0" />
      <path
         d="m 462.15487,1035.6896 c -2.976,0 -4.992,1.056 -6.72,3.168 l 1.85601,1.44 c 1.40799,-1.632 2.592,-2.336 4.736,-2.336 2.464,0 3.96799,1.504 3.96799,3.968 0,3.584 -1.792,6.016 -10.11199,13.984 v 2.176 h 13.12 l 0.31999,-2.304 h -10.36799 c 7.264,-6.624 9.85599,-9.888 9.85599,-13.952 0,-3.488 -2.49599,-6.144 -6.656,-6.144 z"
         id="path5895"
         inkscape:connector-curvature="0" />
      <path
         d="m 482.33438,1035.6896 c -4.73601,0 -7.20001,4.064 -7.20001,11.36 0,7.328 2.464,11.392 7.20001,11.392 4.736,0 7.19999,-4.064 7.19999,-11.392 0,-7.296 -2.46399,-11.36 -7.19999,-11.36 z m 0,2.176 c 2.75199,0 4.38399,2.688 4.38399,9.184 0,6.528 -1.632,9.216 -4.38399,9.216 -2.72001,0 -4.38401,-2.688 -4.38401,-9.216 0,-6.496 1.664,-9.184 4.38401,-9.184 z m 0,7.104 c -1.18401,0 -2.08001,0.928 -2.08001,2.08 0,1.184 0.896,2.112 2.08001,2.112 1.21599,0 2.11199,-0.928 2.11199,-2.112 0,-1.152 -0.896,-2.08 -2.11199,-2.08 z"
         id="path5897"
         inkscape:connector-curvature="0" />
      <path
         d="m 501.52188,1035.6896 c -4.73601,0 -7.20001,4.064 -7.20001,11.36 0,7.328 2.464,11.392 7.20001,11.392 4.736,0 7.19999,-4.064 7.19999,-11.392 0,-7.296 -2.46399,-11.36 -7.19999,-11.36 z m 0,2.176 c 2.75199,0 4.38399,2.688 4.38399,9.184 0,6.528 -1.632,9.216 -4.38399,9.216 -2.72001,0 -4.38401,-2.688 -4.38401,-9.216 0,-6.496 1.664,-9.184 4.38401,-9.184 z m 0,7.104 c -1.18401,0 -2.08001,0.928 -2.08001,2.08 0,1.184 0.896,2.112 2.08001,2.112 1.21599,0 2.11199,-0.928 2.11199,-2.112 0,-1.152 -0.896,-2.08 -2.11199,-2.08 z"
         id="path5899"
         inkscape:connector-curvature="0" />
      <path
         d="m 520.70938,1035.6896 c -4.736,0 -7.20001,4.064 -7.20001,11.36 0,7.328 2.46401,11.392 7.20001,11.392 4.736,0 7.19999,-4.064 7.19999,-11.392 0,-7.296 -2.46399,-11.36 -7.19999,-11.36 z m 0,2.176 c 2.75199,0 4.384,2.688 4.384,9.184 0,6.528 -1.63201,9.216 -4.384,9.216 -2.72001,0 -4.38401,-2.688 -4.38401,-9.216 0,-6.496 1.664,-9.184 4.38401,-9.184 z m 0,7.104 c -1.184,0 -2.08001,0.928 -2.08001,2.08 0,1.184 0.89601,2.112 2.08001,2.112 1.216,0 2.11199,-0.928 2.11199,-2.112 0,-1.152 -0.89599,-2.08 -2.11199,-2.08 z"
         id="path5901"
         inkscape:connector-curvature="0" />
      <path
         d="m 531.89688,1063.9136 h 16 v -2.368 h -16 z"
         id="path5903"
         inkscape:connector-curvature="0" />
      <path
         d="m 559.08438,1035.6896 c -4.736,0 -7.20001,4.064 -7.20001,11.36 0,7.328 2.46401,11.392 7.20001,11.392 4.736,0 7.19999,-4.064 7.19999,-11.392 0,-7.296 -2.46399,-11.36 -7.19999,-11.36 z m 0,2.176 c 2.75199,0 4.384,2.688 4.384,9.184 0,6.528 -1.63201,9.216 -4.384,9.216 -2.72001,0 -4.38401,-2.688 -4.38401,-9.216 0,-6.496 1.664,-9.184 4.38401,-9.184 z m 0,7.104 c -1.184,0 -2.08001,0.928 -2.08001,2.08 0,1.184 0.89601,2.112 2.08001,2.112 1.216,0 2.11199,-0.928 2.11199,-2.112 0,-1.152 -0.89599,-2.08 -2.11199,-2.08 z"
         id="path5905"
         inkscape:connector-curvature="0" />
      <path
         d="m 578.27188,1035.6896 c -4.736,0 -7.20001,4.064 -7.20001,11.36 0,7.328 2.46401,11.392 7.20001,11.392 4.736,0 7.19999,-4.064 7.19999,-11.392 0,-7.296 -2.46399,-11.36 -7.19999,-11.36 z m 0,2.176 c 2.75199,0 4.384,2.688 4.384,9.184 0,6.528 -1.63201,9.216 -4.384,9.216 -2.72001,0 -4.38401,-2.688 -4.38401,-9.216 0,-6.496 1.664,-9.184 4.38401,-9.184 z m 0,7.104 c -1.184,0 -2.08001,0.928 -2.08001,2.08 0,1.184 0.89601,2.112 2.08001,2.112 1.216,0 2.11199,-0.928 2.11199,-2.112 0,-1.152 -0.89599,-2.08 -2.11199,-2.08 z"
         id="path5907"
         inkscape:connector-curvature="0" />
      <path
         d="m 597.45938,1035.6896 c -4.736,0 -7.20001,4.064 -7.20001,11.36 0,7.328 2.46401,11.392 7.20001,11.392 4.736,0 7.19999,-4.064 7.19999,-11.392 0,-7.296 -2.46399,-11.36 -7.19999,-11.36 z m 0,2.176 c 2.75199,0 4.384,2.688 4.384,9.184 0,6.528 -1.63201,9.216 -4.384,9.216 -2.72001,0 -4.38401,-2.688 -4.38401,-9.216 0,-6.496 1.664,-9.184 4.38401,-9.184 z m 0,7.104 c -1.184,0 -2.08001,0.928 -2.08001,2.08 0,1.184 0.89601,2.112 2.08001,2.112 1.216,0 2.11199,-0.928 2.11199,-2.112 0,-1.152 -0.89599,-2.08 -2.11199,-2.08 z"
         id="path5909"
         inkscape:connector-curvature="0" />
      <path
         d="m 616.64688,1035.6896 c -4.736,0 -7.20001,4.064 -7.20001,11.36 0,7.328 2.46401,11.392 7.20001,11.392 4.736,0 7.19999,-4.064 7.19999,-11.392 0,-7.296 -2.46399,-11.36 -7.19999,-11.36 z m 0,2.176 c 2.75199,0 4.384,2.688 4.384,9.184 0,6.528 -1.63201,9.216 -4.384,9.216 -2.72001,0 -4.38401,-2.688 -4.38401,-9.216 0,-6.496 1.664,-9.184 4.38401,-9.184 z m 0,7.104 c -1.184,0 -2.08001,0.928 -2.08001,2.08 0,1.184 0.89601,2.112 2.08001,2.112 1.216,0 2.11199,-0.928 2.11199,-2.112 0,-1.152 -0.89599,-2.08 -2.11199,-2.08 z"
         id="path5911"
         inkscape:connector-curvature="0" />
    </g>
    <g
       aria-label=".bss + .data"
       transform="matrix(0.13229166,0,0,0.13229166,35.518152,148.63837)"
       style="font-style:normal;font-variant:normal;font-weight:normal;font-stretch:normal;font-size:32px;line-height:25px;font-family:'Fira Code';-inkscape-font-specification:'Fira Code';letter-spacing:0px;word-spacing:0px;fill:#000000;fill-opacity:1;stroke:none"
       id="flowRoot4491-0">
      <path
         d="m 421.92387,1055.6256 c 0,1.6 1.21601,2.816 2.816,2.816 1.632,0 2.81601,-1.216 2.81601,-2.816 0,-1.568 -1.18401,-2.816 -2.81601,-2.816 -1.59999,0 -2.816,1.248 -2.816,2.816 z"
         id="path5914"
         inkscape:connector-curvature="0" />
      <path
         d="m 440.24737,1043.4336 v -9.312 l -2.688,0.32 v 23.648 h 2.368 l 0.192,-1.76 c 1.152,1.472 2.656,2.112 4.57601,2.112 4.35199,0 6.68799,-3.68 6.68799,-8.8 0,-5.28 -1.824,-8.768 -6.30399,-8.768 -1.952,0 -3.584,0.928 -4.83201,2.56 z m 3.84,12.832 c -1.56799,0 -2.944,-0.8 -3.84,-2.176 v -8.352 c 0.928,-1.344 2.368,-2.688 4.22401,-2.688 2.62399,0 4,2.208 4,6.592 0,4.48 -1.60001,6.624 -4.38401,6.624 z"
         id="path5916"
         inkscape:connector-curvature="0" />
      <path
         d="m 462.50687,1056.2336 c -1.984,0 -3.77599,-0.736 -5.08799,-1.824 l -1.50401,1.76 c 1.44,1.248 3.52,2.272 6.592,2.272 3.584,0 7.072,-1.408 7.072,-5.024 0,-3.136 -2.176,-4.288 -5.472,-5.184 -3.392,-0.928 -4.44799,-1.44 -4.44799,-2.976 0,-1.28 0.95999,-2.208 3.64799,-2.208 2.176,0 3.616,0.672 4.86401,1.536 l 1.21599,-1.856 c -1.44,-1.024 -3.424,-1.856 -6.14399,-1.856 -3.80801,0 -6.40001,1.792 -6.40001,4.608 0,2.944 2.272,4 5.76,4.864 3.584,0.896 4.064,1.696 4.064,3.2 0,1.632 -1.56799,2.688 -4.16,2.688 z"
         id="path5918"
         inkscape:connector-curvature="0" />
      <path
         d="m 481.69437,1056.2336 c -1.984,0 -3.77599,-0.736 -5.08799,-1.824 l -1.50401,1.76 c 1.44,1.248 3.52,2.272 6.592,2.272 3.584,0 7.072,-1.408 7.072,-5.024 0,-3.136 -2.176,-4.288 -5.472,-5.184 -3.392,-0.928 -4.44799,-1.44 -4.44799,-2.976 0,-1.28 0.95999,-2.208 3.64799,-2.208 2.176,0 3.616,0.672 4.86401,1.536 l 1.21599,-1.856 c -1.44,-1.024 -3.424,-1.856 -6.14399,-1.856 -3.80801,0 -6.40001,1.792 -6.40001,4.608 0,2.944 2.272,4 5.76,4.864 3.584,0.896 4.064,1.696 4.064,3.2 0,1.632 -1.56799,2.688 -4.16,2.688 z"
         id="path5920"
         inkscape:connector-curvature="0" />
      <path
         d="m 521.92538,1040.6496 h -2.496 v 6.368 h -6.20801 v 2.24 h 6.20801 v 6.368 h 2.496 v -6.368 h 6.27199 v -2.24 h -6.27199 z"
         id="path5922"
         inkscape:connector-curvature="0" />
      <path
         d="m 556.23637,1055.6256 c 0,1.6 1.216,2.816 2.816,2.816 1.63201,0 2.81601,-1.216 2.81601,-2.816 0,-1.568 -1.184,-2.816 -2.81601,-2.816 -1.6,0 -2.816,1.248 -2.816,2.816 z"
         id="path5924"
         inkscape:connector-curvature="0" />
      <path
         d="m 581.98387,1034.1216 v 8.768 c -1.152,-1.312 -2.59199,-2.016 -4.54399,-2.016 -4.12801,0 -6.592,3.744 -6.592,8.8 0,5.248 2.01599,8.768 6.43199,8.768 1.82401,0 3.52001,-0.8 4.768,-2.56 l 0.256,2.208 h 2.368 v -23.648 z m -3.84,8.928 c 1.568,0 2.91201,0.8 3.84,2.176 v 8.384 c -0.92799,1.408 -2.24,2.688 -4.15999,2.688 -2.65601,0 -4.06401,-2.24 -4.06401,-6.624 0,-4.448 1.6,-6.624 4.384,-6.624 z"
         id="path5926"
         inkscape:connector-curvature="0" />
      <path
         d="m 603.15538,1054.4096 v -8.096 c 0,-3.328 -2.11201,-5.44 -6.30401,-5.44 -1.664,0 -3.456,0.32 -5.53599,1.056 l 0.73599,2.048 c 1.728,-0.608 3.26401,-0.864 4.38401,-0.864 2.49599,0 4,0.896 4,3.36 v 1.376 h -2.496 c -5.08801,0 -7.87201,1.952 -7.87201,5.408 0,3.136 2.048,5.184 5.44001,5.184 2.17599,0 4.06399,-0.8 5.27999,-2.368 0.448,1.536 1.632,2.208 3.072,2.4 l 0.67201,-1.92 c -0.96001,-0.288 -1.376,-0.8 -1.376,-2.144 z m -6.976,2.016 c -2.20801,0 -3.23201,-1.088 -3.23201,-3.2 0,-2.176 1.34401,-3.52 5.056,-3.52 h 2.43201 v 4.32 c -0.99201,1.504 -2.592,2.4 -4.256,2.4 z"
         id="path5928"
         inkscape:connector-curvature="0" />
      <path
         d="m 623.65487,1057.2256 -1.05599,-1.824 c -0.89601,0.48 -1.98401,0.8 -3.232,0.8 -2.30401,0 -3.23201,-0.992 -3.23201,-2.848 v -10.016 h 5.504 l 0.352,-2.112 h -5.856 v -4.128 l -2.688,0.32 v 3.808 h -3.87199 v 2.112 h 3.87199 v 10.048 c 0,2.944 2.048,5.056 5.664,5.056 1.6,0 3.36,-0.448 4.544,-1.216 z"
         id="path5930"
         inkscape:connector-curvature="0" />
      <path
         d="m 641.53038,1054.4096 v -8.096 c 0,-3.328 -2.11201,-5.44 -6.30401,-5.44 -1.664,0 -3.456,0.32 -5.53599,1.056 l 0.73599,2.048 c 1.728,-0.608 3.26401,-0.864 4.38401,-0.864 2.49599,0 4,0.896 4,3.36 v 1.376 h -2.496 c -5.08801,0 -7.87201,1.952 -7.87201,5.408 0,3.136 2.048,5.184 5.44001,5.184 2.17599,0 4.06399,-0.8 5.27999,-2.368 0.448,1.536 1.632,2.208 3.072,2.4 l 0.67201,-1.92 c -0.96001,-0.288 -1.376,-0.8 -1.376,-2.144 z m -6.976,2.016 c -2.20801,0 -3.23201,-1.088 -3.23201,-3.2 0,-2.176 1.34401,-3.52 5.056,-3.52 h 2.43201 v 4.32 c -0.99201,1.504 -2.592,2.4 -4.256,2.4 z"
         id="path5932"
         inkscape:connector-curvature="0" />
    </g>
    <flowRoot
       xml:space="preserve"
       id="flowRoot4523"
       style="font-style:normal;font-weight:normal;font-size:40px;line-height:25px;font-family:sans-serif;letter-spacing:0px;word-spacing:0px;fill:#000000;fill-opacity:1;stroke:none"
       transform="matrix(0.26458333,0,0,0.26458333,0,138.24998)"><flowRegion
         id="flowRegion4525"><rect
           id="rect4527"
           width="234.35539"
           height="68.690376"
           x="385.87827"
           y="171.69533" /></flowRegion><flowPara
         id="flowPara4529"></flowPara></flowRoot>    <g
       aria-label="Call stack"
       transform="matrix(0.13229166,0,0,0.13229166,38.261352,108.95087)"
       style="font-style:normal;font-variant:normal;font-weight:normal;font-stretch:normal;font-size:32px;line-height:25px;font-family:'Fira Code';-inkscape-font-specification:'Fira Code';letter-spacing:0px;word-spacing:0px;fill:#000000;fill-opacity:1;stroke:none"
       id="flowRoot4491-2">
      <path
         d="m 426.62788,1035.6896 c -5.08801,0 -9.44,3.936 -9.44,11.36 0,7.424 4.192,11.392 9.56799,11.392 3.13601,0 5.248,-1.088 6.592,-2.4 l -1.44,-1.792 c -1.18399,0.928 -2.656,1.824 -5.12,1.824 -3.776,0 -6.688,-2.464 -6.688,-9.024 0,-6.72 3.13601,-9.024 6.72001,-9.024 1.69599,0 3.23199,0.448 4.63999,1.632 l 1.568,-1.824 c -1.76,-1.376 -3.51999,-2.144 -6.39999,-2.144 z"
         id="path5935"
         inkscape:connector-curvature="0" />
      <path
         d="m 449.65537,1054.4096 v -8.096 c 0,-3.328 -2.11199,-5.44 -6.30399,-5.44 -1.66401,0 -3.45601,0.32 -5.536,1.056 l 0.73599,2.048 c 1.72801,-0.608 3.26401,-0.864 4.38401,-0.864 2.49599,0 4,0.896 4,3.36 v 1.376 h -2.49601 c -5.08799,0 -7.87199,1.952 -7.87199,5.408 0,3.136 2.04799,5.184 5.44,5.184 2.17599,0 4.06399,-0.8 5.27999,-2.368 0.448,1.536 1.632,2.208 3.072,2.4 l 0.67201,-1.92 c -0.96001,-0.288 -1.37601,-0.8 -1.37601,-2.144 z m -6.976,2.016 c -2.20799,0 -3.23199,-1.088 -3.23199,-3.2 0,-2.176 1.344,-3.52 5.05599,-3.52 h 2.43201 v 4.32 c -0.99201,1.504 -2.59201,2.4 -4.25601,2.4 z"
         id="path5937"
         inkscape:connector-curvature="0" />
      <path
         d="m 463.33887,1034.4416 h -7.87199 v 2.144 h 5.18399 v 17.216 c 0,2.912 2.016,4.64 4.992,4.64 1.728,0 3.104,-0.384 4,-0.864 l -0.704,-1.952 c -0.928,0.352 -1.824,0.576 -2.81599,0.576 -1.632,0 -2.78401,-0.608 -2.78401,-2.272 z"
         id="path5939"
         inkscape:connector-curvature="0" />
      <path
         d="m 482.52637,1034.4416 h -7.87199 v 2.144 h 5.18399 v 17.216 c 0,2.912 2.016,4.64 4.992,4.64 1.728,0 3.104,-0.384 4,-0.864 l -0.704,-1.952 c -0.928,0.352 -1.824,0.576 -2.81599,0.576 -1.632,0 -2.78401,-0.608 -2.78401,-2.272 z"
         id="path5941"
         inkscape:connector-curvature="0" />
      <path
         d="m 520.06938,1056.2336 c -1.98401,0 -3.77601,-0.736 -5.08801,-1.824 l -1.50399,1.76 c 1.43999,1.248 3.52,2.272 6.592,2.272 3.58399,0 7.072,-1.408 7.072,-5.024 0,-3.136 -2.17601,-4.288 -5.47201,-5.184 -3.392,-0.928 -4.448,-1.44 -4.448,-2.976 0,-1.28 0.96,-2.208 3.648,-2.208 2.17601,0 3.616,0.672 4.86401,1.536 l 1.216,-1.856 c -1.44001,-1.024 -3.424,-1.856 -6.144,-1.856 -3.808,0 -6.4,1.792 -6.4,4.608 0,2.944 2.27199,4 5.76,4.864 3.58399,0.896 4.06399,1.696 4.06399,3.2 0,1.632 -1.56799,2.688 -4.15999,2.688 z"
         id="path5943"
         inkscape:connector-curvature="0" />
      <path
         d="m 546.90487,1057.2256 -1.05599,-1.824 c -0.89601,0.48 -1.98401,0.8 -3.232,0.8 -2.30401,0 -3.23201,-0.992 -3.23201,-2.848 v -10.016 h 5.504 l 0.352,-2.112 h -5.856 v -4.128 l -2.688,0.32 v 3.808 h -3.87199 v 2.112 h 3.87199 v 10.048 c 0,2.944 2.048,5.056 5.664,5.056 1.6,0 3.36,-0.448 4.544,-1.216 z"
         id="path5945"
         inkscape:connector-curvature="0" />
      <path
         d="m 564.78038,1054.4096 v -8.096 c 0,-3.328 -2.11201,-5.44 -6.30401,-5.44 -1.664,0 -3.456,0.32 -5.53599,1.056 l 0.73599,2.048 c 1.728,-0.608 3.26401,-0.864 4.38401,-0.864 2.49599,0 4,0.896 4,3.36 v 1.376 h -2.496 c -5.08801,0 -7.87201,1.952 -7.87201,5.408 0,3.136 2.048,5.184 5.44001,5.184 2.17599,0 4.06399,-0.8 5.27999,-2.368 0.448,1.536 1.632,2.208 3.072,2.4 l 0.67201,-1.92 c -0.96001,-0.288 -1.376,-0.8 -1.376,-2.144 z m -6.976,2.016 c -2.20801,0 -3.23201,-1.088 -3.23201,-3.2 0,-2.176 1.34401,-3.52 5.056,-3.52 h 2.43201 v 4.32 c -0.99201,1.504 -2.592,2.4 -4.256,2.4 z"
         id="path5947"
         inkscape:connector-curvature="0" />
      <path
         d="m 579.51987,1056.1376 c -2.91199,0 -5.024,-1.888 -5.024,-6.4 0,-4.448 2.08,-6.592 4.99201,-6.592 1.504,0 2.91199,0.512 4.35199,1.472 l 1.31201,-1.76 c -1.568,-1.312 -3.45601,-1.984 -5.63201,-1.984 -5.024,0 -7.93599,3.808 -7.93599,8.864 0,5.28 2.88,8.704 7.93599,8.704 1.952,0 4.224,-0.768 5.664,-2.016 l -1.28,-1.76 c -1.28,0.864 -2.688,1.472 -4.384,1.472 z"
         id="path5949"
         inkscape:connector-curvature="0" />
      <path
         d="m 593.93938,1034.1216 -2.688,0.32 v 23.648 h 2.688 z m 11.23199,7.104 h -3.456 l -7.48799,7.648 8.28799,9.216 h 3.552 l -8.448,-9.248 z"
         id="path5951"
         inkscape:connector-curvature="0" />
    </g>
    <g
       aria-label="0x2000_A000"
       transform="matrix(0.13229166,0,0,0.13229166,71.812635,96.721832)"
       style="font-style:normal;font-variant:normal;font-weight:normal;font-stretch:normal;font-size:32px;line-height:25px;font-family:'Fira Code';-inkscape-font-specification:'Fira Code';letter-spacing:0px;word-spacing:0px;fill:#000000;fill-opacity:1;stroke:none"
       id="flowRoot4491-5">
      <path
         d="m 424.77188,1035.6896 c -4.73601,0 -7.20001,4.064 -7.20001,11.36 0,7.328 2.464,11.392 7.20001,11.392 4.736,0 7.19999,-4.064 7.19999,-11.392 0,-7.296 -2.46399,-11.36 -7.19999,-11.36 z m 0,2.176 c 2.75199,0 4.38399,2.688 4.38399,9.184 0,6.528 -1.632,9.216 -4.38399,9.216 -2.72001,0 -4.38401,-2.688 -4.38401,-9.216 0,-6.496 1.664,-9.184 4.38401,-9.184 z m 0,7.104 c -1.18401,0 -2.08001,0.928 -2.08001,2.08 0,1.184 0.896,2.112 2.08001,2.112 1.21599,0 2.11199,-0.928 2.11199,-2.112 0,-1.152 -0.896,-2.08 -2.11199,-2.08 z"
         id="path5868"
         inkscape:connector-curvature="0" />
      <path
         d="m 448.69538,1041.2576 -4.736,4.736 -4.80001,-4.736 -1.696,1.696 4.76801,4.736 -4.76801,4.8 1.696,1.696 4.80001,-4.768 4.736,4.768 1.69599,-1.696 -4.704,-4.8 4.704,-4.736 z"
         id="path5870"
         inkscape:connector-curvature="0" />
      <path
         d="m 462.15487,1035.6896 c -2.976,0 -4.992,1.056 -6.72,3.168 l 1.85601,1.44 c 1.40799,-1.632 2.592,-2.336 4.736,-2.336 2.464,0 3.96799,1.504 3.96799,3.968 0,3.584 -1.792,6.016 -10.11199,13.984 v 2.176 h 13.12 l 0.31999,-2.304 h -10.36799 c 7.264,-6.624 9.85599,-9.888 9.85599,-13.952 0,-3.488 -2.49599,-6.144 -6.656,-6.144 z"
         id="path5872"
         inkscape:connector-curvature="0" />
      <path
         d="m 482.33438,1035.6896 c -4.73601,0 -7.20001,4.064 -7.20001,11.36 0,7.328 2.464,11.392 7.20001,11.392 4.736,0 7.19999,-4.064 7.19999,-11.392 0,-7.296 -2.46399,-11.36 -7.19999,-11.36 z m 0,2.176 c 2.75199,0 4.38399,2.688 4.38399,9.184 0,6.528 -1.632,9.216 -4.38399,9.216 -2.72001,0 -4.38401,-2.688 -4.38401,-9.216 0,-6.496 1.664,-9.184 4.38401,-9.184 z m 0,7.104 c -1.18401,0 -2.08001,0.928 -2.08001,2.08 0,1.184 0.896,2.112 2.08001,2.112 1.21599,0 2.11199,-0.928 2.11199,-2.112 0,-1.152 -0.896,-2.08 -2.11199,-2.08 z"
         id="path5874"
         inkscape:connector-curvature="0" />
      <path
         d="m 501.52188,1035.6896 c -4.73601,0 -7.20001,4.064 -7.20001,11.36 0,7.328 2.464,11.392 7.20001,11.392 4.736,0 7.19999,-4.064 7.19999,-11.392 0,-7.296 -2.46399,-11.36 -7.19999,-11.36 z m 0,2.176 c 2.75199,0 4.38399,2.688 4.38399,9.184 0,6.528 -1.632,9.216 -4.38399,9.216 -2.72001,0 -4.38401,-2.688 -4.38401,-9.216 0,-6.496 1.664,-9.184 4.38401,-9.184 z m 0,7.104 c -1.18401,0 -2.08001,0.928 -2.08001,2.08 0,1.184 0.896,2.112 2.08001,2.112 1.21599,0 2.11199,-0.928 2.11199,-2.112 0,-1.152 -0.896,-2.08 -2.11199,-2.08 z"
         id="path5876"
         inkscape:connector-curvature="0" />
      <path
         d="m 520.70938,1035.6896 c -4.736,0 -7.20001,4.064 -7.20001,11.36 0,7.328 2.46401,11.392 7.20001,11.392 4.736,0 7.19999,-4.064 7.19999,-11.392 0,-7.296 -2.46399,-11.36 -7.19999,-11.36 z m 0,2.176 c 2.75199,0 4.384,2.688 4.384,9.184 0,6.528 -1.63201,9.216 -4.384,9.216 -2.72001,0 -4.38401,-2.688 -4.38401,-9.216 0,-6.496 1.664,-9.184 4.38401,-9.184 z m 0,7.104 c -1.184,0 -2.08001,0.928 -2.08001,2.08 0,1.184 0.89601,2.112 2.08001,2.112 1.216,0 2.11199,-0.928 2.11199,-2.112 0,-1.152 -0.89599,-2.08 -2.11199,-2.08 z"
         id="path5878"
         inkscape:connector-curvature="0" />
      <path
         d="m 531.89688,1063.9136 h 16 v -2.368 h -16 z"
         id="path5880"
         inkscape:connector-curvature="0" />
      <path
         d="m 563.37238,1052.4576 1.76,5.632 h 2.88 l -7.168,-22.048 h -3.52 l -7.20001,22.048 h 2.75201 l 1.76,-5.632 z m -8,-2.304 3.64799,-11.744 3.61601,11.744 z"
         id="path5882"
         inkscape:connector-curvature="0" />
      <path
         d="m 578.27188,1035.6896 c -4.736,0 -7.20001,4.064 -7.20001,11.36 0,7.328 2.46401,11.392 7.20001,11.392 4.736,0 7.19999,-4.064 7.19999,-11.392 0,-7.296 -2.46399,-11.36 -7.19999,-11.36 z m 0,2.176 c 2.75199,0 4.384,2.688 4.384,9.184 0,6.528 -1.63201,9.216 -4.384,9.216 -2.72001,0 -4.38401,-2.688 -4.38401,-9.216 0,-6.496 1.664,-9.184 4.38401,-9.184 z m 0,7.104 c -1.184,0 -2.08001,0.928 -2.08001,2.08 0,1.184 0.89601,2.112 2.08001,2.112 1.216,0 2.11199,-0.928 2.11199,-2.112 0,-1.152 -0.89599,-2.08 -2.11199,-2.08 z"
         id="path5884"
         inkscape:connector-curvature="0" />
      <path
         d="m 597.45938,1035.6896 c -4.736,0 -7.20001,4.064 -7.20001,11.36 0,7.328 2.46401,11.392 7.20001,11.392 4.736,0 7.19999,-4.064 7.19999,-11.392 0,-7.296 -2.46399,-11.36 -7.19999,-11.36 z m 0,2.176 c 2.75199,0 4.384,2.688 4.384,9.184 0,6.528 -1.63201,9.216 -4.384,9.216 -2.72001,0 -4.38401,-2.688 -4.38401,-9.216 0,-6.496 1.664,-9.184 4.38401,-9.184 z m 0,7.104 c -1.184,0 -2.08001,0.928 -2.08001,2.08 0,1.184 0.89601,2.112 2.08001,2.112 1.216,0 2.11199,-0.928 2.11199,-2.112 0,-1.152 -0.89599,-2.08 -2.11199,-2.08 z"
         id="path5886"
         inkscape:connector-curvature="0" />
      <path
         d="m 616.64688,1035.6896 c -4.736,0 -7.20001,4.064 -7.20001,11.36 0,7.328 2.46401,11.392 7.20001,11.392 4.736,0 7.19999,-4.064 7.19999,-11.392 0,-7.296 -2.46399,-11.36 -7.19999,-11.36 z m 0,2.176 c 2.75199,0 4.384,2.688 4.384,9.184 0,6.528 -1.63201,9.216 -4.384,9.216 -2.72001,0 -4.38401,-2.688 -4.38401,-9.216 0,-6.496 1.664,-9.184 4.38401,-9.184 z m 0,7.104 c -1.184,0 -2.08001,0.928 -2.08001,2.08 0,1.184 0.89601,2.112 2.08001,2.112 1.216,0 2.11199,-0.928 2.11199,-2.112 0,-1.152 -0.89599,-2.08 -2.11199,-2.08 z"
         id="path5888"
         inkscape:connector-curvature="0" />
    </g>
    <path
       style="fill:none;stroke:#000000;stroke-width:0.26449999;stroke-linecap:butt;stroke-linejoin:miter;stroke-miterlimit:4;stroke-dasharray:none;stroke-dashoffset:0;stroke-opacity:0.50196078"
       d="M 86.043497,257.24634 H 125.731"
       id="path4610"
       inkscape:connector-curvature="0" />
    <path
       style="fill:none;stroke:#000000;stroke-width:0.26458335;stroke-linecap:butt;stroke-linejoin:miter;stroke-miterlimit:4;stroke-dasharray:none;stroke-opacity:1"
       d="M 86.043497,277.02394 H 125.731"
       id="path4610-2"
       inkscape:connector-curvature="0" />
    <path
       style="fill:none;stroke:#000000;stroke-width:0.75;stroke-linecap:butt;stroke-linejoin:miter;stroke-miterlimit:2;stroke-dasharray:none;stroke-opacity:1;marker-start:url(#Arrow2Sstart);marker-end:url(#marker5551)"
       d="m 105.77998,253.61322 v 7.20559"
       id="path4627"
       inkscape:connector-curvature="0" />
    <g
       aria-label="ORIGIN(RAM)"
       transform="matrix(0.13229166,0,0,0.13229166,2.3487207,156.43088)"
       style="font-style:normal;font-variant:normal;font-weight:normal;font-stretch:normal;font-size:32px;line-height:25px;font-family:'Fira Code';-inkscape-font-specification:'Fira Code';letter-spacing:0px;word-spacing:0px;fill:#000000;fill-opacity:1;stroke:none"
       id="flowRoot4491-5-8-4">
      <path
         d="m 432.86788,1047.0816 c 0,-6.784 -2.752,-11.392 -8.096,-11.392 -5.34401,0 -8.096,4.768 -8.096,11.424 0,6.816 2.75199,11.328 8.096,11.328 5.344,0 8.096,-4.672 8.096,-11.36 z m -2.88001,0 c 0,5.888 -1.504,9.024 -5.21599,9.024 -3.61601,0 -5.216,-3.104 -5.216,-8.992 0,-5.856 1.50399,-9.088 5.216,-9.088 3.71199,0 5.21599,3.2 5.21599,9.056 z"
         id="path5845"
         inkscape:connector-curvature="0" />
      <path
         d="m 451.54338,1042.2496 c 0,-4.096 -2.848,-6.208 -8.288,-6.208 h -5.63201 v 22.048 h 2.75201 v -9.44 h 2.976 l 6.048,9.44 h 3.32799 l -6.56,-9.76 c 3.04001,-0.768 5.37601,-2.784 5.37601,-6.08 z m -2.94401,0 c 0,3.04 -1.824,4.224 -4.992,4.224 h -3.23199 v -8.192 h 3.19999 c 3.392,0 5.024,1.12 5.024,3.968 z"
         id="path5847"
         inkscape:connector-curvature="0" />
      <path
         d="m 469.45087,1036.0416 h -12.608 v 2.24 h 4.896 v 17.6 h -4.896 v 2.208 h 12.608 v -2.208 h -4.896 v -17.6 h 4.896 z"
         id="path5849"
         inkscape:connector-curvature="0" />
      <path
         d="m 482.78237,1058.4416 c 3.104,0 5.216,-0.8 7.2,-1.92 v -10.496 h -7.424 l 0.32,2.336 h 4.32 v 6.688 c -1.248,0.704 -2.656,1.056 -4.192,1.056 -3.83999,0 -5.856,-2.656 -5.856,-9.056 0,-6.784 3.072,-9.024 6.272,-9.024 1.824,0 3.264,0.576 4.608,1.824 l 1.664,-1.728 c -1.72799,-1.6 -3.392,-2.432 -6.272,-2.432 -4.76799,0 -9.248,3.776 -9.248,11.36 0,7.616 3.36,11.392 8.608,11.392 z"
         id="path5851"
         inkscape:connector-curvature="0" />
      <path
         d="m 507.82587,1036.0416 h -12.608 v 2.24 h 4.896 v 17.6 h -4.896 v 2.208 h 12.608 v -2.208 h -4.896 v -17.6 h 4.896 z"
         id="path5853"
         inkscape:connector-curvature="0" />
      <path
         d="m 523.74937,1058.0896 h 3.904 v -22.048 h -2.592 v 11.04 c 0,3.968 0.352,7.52 0.38401,8.416 l -7.904,-19.456 h -3.77601 v 22.048 h 2.59201 v -11.04 c 0,-3.392 -0.32001,-7.36 -0.384,-8.32 z"
         id="path5855"
         inkscape:connector-curvature="0" />
      <path
         d="m 537.11288,1046.8896 c 0,-6.72 2.20799,-10.112 6.81599,-14.208 l -1.376,-1.472 c -5.216,4.256 -8.256,8.384 -8.256,15.68 0,7.296 3.04,11.424 8.256,15.68 l 1.376,-1.472 c -4.544,-4.064 -6.81599,-7.52 -6.81599,-14.208 z"
         id="path5857"
         inkscape:connector-curvature="0" />
      <path
         d="m 566.66837,1042.2496 c 0,-4.096 -2.84799,-6.208 -8.288,-6.208 h -5.632 v 22.048 h 2.752 v -9.44 h 2.976 l 6.048,9.44 h 3.32801 l -6.56001,-9.76 c 3.04,-0.768 5.376,-2.784 5.376,-6.08 z m -2.944,0 c 0,3.04 -1.82399,4.224 -4.99199,4.224 h -3.23201 v -8.192 h 3.2 c 3.392,0 5.024,1.12 5.024,3.968 z"
         id="path5859"
         inkscape:connector-curvature="0" />
      <path
         d="m 582.55988,1052.4576 1.76,5.632 h 2.88 l -7.168,-22.048 h -3.52 l -7.20001,22.048 h 2.75201 l 1.76,-5.632 z m -8,-2.304 3.64799,-11.744 3.61601,11.744 z"
         id="path5861"
         inkscape:connector-curvature="0" />
      <path
         d="m 604.85137,1036.0416 h -3.904 l -3.424,15.104 -3.58399,-15.104 h -3.87201 l -1.24799,22.048 h 2.62399 l 0.576,-11.52 c 0.16001,-2.752 0.128,-6.752 0.064,-7.968 l 3.96799,15.52 h 2.784 l 3.712,-15.52 c 0,1.088 0,4.928 0.192,7.968 l 0.67201,11.52 h 2.68799 z"
         id="path5863"
         inkscape:connector-curvature="0" />
      <path
         d="m 619.43088,1046.8896 c 0,6.688 -2.27201,10.144 -6.81601,14.208 l 1.376,1.472 c 5.216,-4.256 8.25601,-8.384 8.25601,-15.68 0,-7.296 -3.04001,-11.424 -8.25601,-15.68 l -1.376,1.472 c 4.60801,4.096 6.81601,7.488 6.81601,14.208 z"
         id="path5865"
         inkscape:connector-curvature="0" />
    </g>
    <g
       aria-label="_stack_start"
       transform="matrix(0.13229166,0,0,0.13229166,-0.37595426,96.721832)"
       style="font-style:normal;font-variant:normal;font-weight:normal;font-stretch:normal;font-size:32px;line-height:25px;font-family:'Fira Code';-inkscape-font-specification:'Fira Code';letter-spacing:0px;word-spacing:0px;fill:#000000;fill-opacity:1;stroke:none"
       id="flowRoot4491-5-8">
      <path
         d="m 416.77188,1063.9136 h 16 v -2.368 h -16 z"
         id="path5820"
         inkscape:connector-curvature="0" />
      <path
         d="m 443.31937,1056.2336 c -1.984,0 -3.77599,-0.736 -5.08799,-1.824 l -1.50401,1.76 c 1.44,1.248 3.52,2.272 6.592,2.272 3.584,0 7.072,-1.408 7.072,-5.024 0,-3.136 -2.176,-4.288 -5.472,-5.184 -3.392,-0.928 -4.44799,-1.44 -4.44799,-2.976 0,-1.28 0.95999,-2.208 3.64799,-2.208 2.176,0 3.616,0.672 4.86401,1.536 l 1.21599,-1.856 c -1.44,-1.024 -3.424,-1.856 -6.14399,-1.856 -3.80801,0 -6.40001,1.792 -6.40001,4.608 0,2.944 2.272,4 5.76,4.864 3.584,0.896 4.064,1.696 4.064,3.2 0,1.632 -1.56799,2.688 -4.16,2.688 z"
         id="path5822"
         inkscape:connector-curvature="0" />
      <path
         d="m 470.15487,1057.2256 -1.05599,-1.824 c -0.89601,0.48 -1.98401,0.8 -3.23201,0.8 -2.30399,0 -3.23199,-0.992 -3.23199,-2.848 v -10.016 h 5.50399 l 0.35201,-2.112 h -5.856 v -4.128 l -2.68801,0.32 v 3.808 h -3.87199 v 2.112 h 3.87199 v 10.048 c 0,2.944 2.048,5.056 5.66401,5.056 1.59999,0 3.35999,-0.448 4.54399,-1.216 z"
         id="path5824"
         inkscape:connector-curvature="0" />
      <path
         d="m 488.03037,1054.4096 v -8.096 c 0,-3.328 -2.11199,-5.44 -6.30399,-5.44 -1.66401,0 -3.45601,0.32 -5.536,1.056 l 0.73599,2.048 c 1.72801,-0.608 3.26401,-0.864 4.38401,-0.864 2.49599,0 4,0.896 4,3.36 v 1.376 h -2.49601 c -5.08799,0 -7.87199,1.952 -7.87199,5.408 0,3.136 2.04799,5.184 5.44,5.184 2.17599,0 4.06399,-0.8 5.27999,-2.368 0.448,1.536 1.632,2.208 3.072,2.4 l 0.67201,-1.92 c -0.96001,-0.288 -1.37601,-0.8 -1.37601,-2.144 z m -6.976,2.016 c -2.20799,0 -3.23199,-1.088 -3.23199,-3.2 0,-2.176 1.344,-3.52 5.05599,-3.52 h 2.43201 v 4.32 c -0.99201,1.504 -2.59201,2.4 -4.25601,2.4 z"
         id="path5826"
         inkscape:connector-curvature="0" />
      <path
         d="m 502.76988,1056.1376 c -2.91201,0 -5.02401,-1.888 -5.02401,-6.4 0,-4.448 2.08,-6.592 4.992,-6.592 1.504,0 2.912,0.512 4.352,1.472 l 1.31201,-1.76 c -1.56801,-1.312 -3.45601,-1.984 -5.632,-1.984 -5.02401,0 -7.93601,3.808 -7.93601,8.864 0,5.28 2.88,8.704 7.93601,8.704 1.95199,0 4.22399,-0.768 5.66399,-2.016 l -1.27999,-1.76 c -1.28001,0.864 -2.68801,1.472 -4.384,1.472 z"
         id="path5828"
         inkscape:connector-curvature="0" />
      <path
         d="m 517.18938,1034.1216 -2.688,0.32 v 23.648 h 2.688 z m 11.23199,7.104 h -3.456 l -7.48799,7.648 8.28799,9.216 h 3.552 l -8.448,-9.248 z"
         id="path5830"
         inkscape:connector-curvature="0" />
      <path
         d="m 531.89688,1063.9136 h 16 v -2.368 h -16 z"
         id="path5832"
         inkscape:connector-curvature="0" />
      <path
         d="m 558.44438,1056.2336 c -1.98401,0 -3.77601,-0.736 -5.08801,-1.824 l -1.50399,1.76 c 1.43999,1.248 3.52,2.272 6.592,2.272 3.58399,0 7.072,-1.408 7.072,-5.024 0,-3.136 -2.17601,-4.288 -5.47201,-5.184 -3.392,-0.928 -4.448,-1.44 -4.448,-2.976 0,-1.28 0.96,-2.208 3.648,-2.208 2.17601,0 3.616,0.672 4.86401,1.536 l 1.216,-1.856 c -1.44001,-1.024 -3.424,-1.856 -6.144,-1.856 -3.808,0 -6.4,1.792 -6.4,4.608 0,2.944 2.27199,4 5.76,4.864 3.58399,0.896 4.06399,1.696 4.06399,3.2 0,1.632 -1.56799,2.688 -4.15999,2.688 z"
         id="path5834"
         inkscape:connector-curvature="0" />
      <path
         d="m 585.27987,1057.2256 -1.05599,-1.824 c -0.89601,0.48 -1.98401,0.8 -3.232,0.8 -2.30401,0 -3.23201,-0.992 -3.23201,-2.848 v -10.016 h 5.504 l 0.352,-2.112 h -5.856 v -4.128 l -2.688,0.32 v 3.808 h -3.87199 v 2.112 h 3.87199 v 10.048 c 0,2.944 2.048,5.056 5.664,5.056 1.6,0 3.36,-0.448 4.544,-1.216 z"
         id="path5836"
         inkscape:connector-curvature="0" />
      <path
         d="m 603.15538,1054.4096 v -8.096 c 0,-3.328 -2.11201,-5.44 -6.30401,-5.44 -1.664,0 -3.456,0.32 -5.53599,1.056 l 0.73599,2.048 c 1.728,-0.608 3.26401,-0.864 4.38401,-0.864 2.49599,0 4,0.896 4,3.36 v 1.376 h -2.496 c -5.08801,0 -7.87201,1.952 -7.87201,5.408 0,3.136 2.048,5.184 5.44001,5.184 2.17599,0 4.06399,-0.8 5.27999,-2.368 0.448,1.536 1.632,2.208 3.072,2.4 l 0.67201,-1.92 c -0.96001,-0.288 -1.376,-0.8 -1.376,-2.144 z m -6.976,2.016 c -2.20801,0 -3.23201,-1.088 -3.23201,-3.2 0,-2.176 1.34401,-3.52 5.056,-3.52 h 2.43201 v 4.32 c -0.99201,1.504 -2.592,2.4 -4.256,2.4 z"
         id="path5838"
         inkscape:connector-curvature="0" />
      <path
         d="m 621.63887,1040.8736 c -3.03999,0 -4.768,1.6 -6.048,4.352 l -0.51199,-4 h -4.672 v 2.08 h 2.65599 v 12.704 h -2.65599 v 2.08 h 8.768 v -2.08 h -3.42401 v -7.104 c 1.08801,-3.712 2.94401,-5.568 5.536,-5.568 h 0.16 v 3.616 h 2.17601 l 0.384,-5.728 c -0.736,-0.192 -1.44001,-0.352 -2.36801,-0.352 z"
         id="path5840"
         inkscape:connector-curvature="0" />
      <path
         d="m 642.84237,1057.2256 -1.05599,-1.824 c -0.89601,0.48 -1.98401,0.8 -3.232,0.8 -2.30401,0 -3.23201,-0.992 -3.23201,-2.848 v -10.016 h 5.504 l 0.352,-2.112 h -5.856 v -4.128 l -2.688,0.32 v 3.808 h -3.87199 v 2.112 h 3.87199 v 10.048 c 0,2.944 2.048,5.056 5.664,5.056 1.6,0 3.36,-0.448 4.544,-1.216 z"
         id="path5842"
         inkscape:connector-curvature="0" />
    </g>
  </g>
</svg>
