<?xml version="1.0" encoding="UTF-8" standalone="no"?>
<!DOCTYPE svg PUBLIC "-//W3C//DTD SVG 1.1//EN"
 "http://www.w3.org/Graphics/SVG/1.1/DTD/svg11.dtd">
<!-- Generated by graphviz version 2.40.1 (20161225.0304)
 -->
<!-- Title: %3 Pages: 1 -->
<svg width="852pt" height="328pt"
 viewBox="0.00 0.00 852.00 328.00" xmlns="http://www.w3.org/2000/svg" xmlns:xlink="http://www.w3.org/1999/xlink">
<g id="graph0" class="graph" transform="scale(1 1) rotate(0) translate(4 324)">
<title>%3</title>
<polygon fill="#ffffff" stroke="transparent" points="-4,4 -4,-324 848,-324 848,4 -4,4"/>
<!-- 0 -->
<g id="node1" class="node">
<title>0</title>
<polygon fill="none" stroke="#000000" points="467,-320 376,-320 376,-267 467,-267 467,-320"/>
<text text-anchor="middle" x="421.5" y="-304.8" font-family="monospace" font-size="14.00" fill="#000000">main</text>
<text text-anchor="middle" x="421.5" y="-289.8" font-family="monospace" font-size="14.00" fill="#000000">max = 16</text>
<text text-anchor="middle" x="421.5" y="-274.8" font-family="monospace" font-size="14.00" fill="#000000">local = 0</text>
</g>
<!-- 1 -->
<g id="node2" class="node">
<title>1</title>
<polygon fill="none" stroke="#000000" stroke-dasharray="5,2" points="483.5,-231 359.5,-231 359.5,-178 483.5,-178 483.5,-231"/>
<text text-anchor="middle" x="421.5" y="-215.8" font-family="monospace" font-size="14.00" fill="#000000">drop(dyn Foo)</text>
<text text-anchor="middle" x="421.5" y="-200.8" font-family="monospace" font-size="14.00" fill="#000000">max = 16</text>
<text text-anchor="middle" x="421.5" y="-185.8" font-family="monospace" font-size="14.00" fill="#000000">local = 0</text>
</g>
<!-- 0&#45;&gt;1 -->
<g id="edge1" class="edge">
<title>0&#45;&gt;1</title>
<path fill="none" stroke="#000000" d="M421.5,-266.7971C421.5,-258.7887 421.5,-249.8597 421.5,-241.3198"/>
<polygon fill="#000000" stroke="#000000" points="425.0001,-241.1841 421.5,-231.1841 418.0001,-241.1841 425.0001,-241.1841"/>
</g>
<!-- 2 -->
<g id="node3" class="node">
<title>2</title>
<polygon fill="none" stroke="#000000" points="413,-142 0,-142 0,-89 413,-89 413,-142"/>
<text text-anchor="middle" x="206.5" y="-126.8" font-family="monospace" font-size="14.00" fill="#000000">core::ptr::real_drop_in_place::hfa2e157a7c8b54b4</text>
<text text-anchor="middle" x="206.5" y="-111.8" font-family="monospace" font-size="14.00" fill="#000000">max = 8</text>
<text text-anchor="middle" x="206.5" y="-96.8" font-family="monospace" font-size="14.00" fill="#000000">local = 0</text>
</g>
<!-- 1&#45;&gt;2 -->
<g id="edge2" class="edge">
<title>1&#45;&gt;2</title>
<path fill="none" stroke="#000000" d="M359.3131,-178.7575C334.5713,-168.5156 305.9097,-156.651 280.1395,-145.9833"/>
<polygon fill="#000000" stroke="#000000" points="281.367,-142.7035 270.7886,-142.1125 278.6896,-149.1712 281.367,-142.7035"/>
</g>
<!-- 3 -->
<g id="node4" class="node">
<title>3</title>
<polygon fill="none" stroke="#000000" points="844,-142 431,-142 431,-89 844,-89 844,-142"/>
<text text-anchor="middle" x="637.5" y="-126.8" font-family="monospace" font-size="14.00" fill="#000000">core::ptr::real_drop_in_place::h7d740ebe6d682eb9</text>
<text text-anchor="middle" x="637.5" y="-111.8" font-family="monospace" font-size="14.00" fill="#000000">max = 16</text>
<text text-anchor="middle" x="637.5" y="-96.8" font-family="monospace" font-size="14.00" fill="#000000">local = 0</text>
</g>
<!-- 1&#45;&gt;3 -->
<g id="edge3" class="edge">
<title>1&#45;&gt;3</title>
<path fill="none" stroke="#000000" d="M483.6864,-178.8769C508.6611,-168.5864 537.6481,-156.6427 563.6809,-145.9162"/>
<polygon fill="#000000" stroke="#000000" points="565.2128,-149.0705 573.1253,-142.0247 562.546,-142.5984 565.2128,-149.0705"/>
</g>
<!-- 5 -->
<g id="node6" class="node">
<title>5</title>
<polygon fill="none" stroke="#000000" points="384,-53 29,-53 29,0 384,0 384,-53"/>
<text text-anchor="middle" x="206.5" y="-37.8" font-family="monospace" font-size="14.00" fill="#000000">&lt;app::Bar as core::ops::drop::Drop&gt;::drop</text>
<text text-anchor="middle" x="206.5" y="-22.8" font-family="monospace" font-size="14.00" fill="#000000">max = 8</text>
<text text-anchor="middle" x="206.5" y="-7.8" font-family="monospace" font-size="14.00" fill="#000000">local = 8</text>
</g>
<!-- 2&#45;&gt;5 -->
<g id="edge5" class="edge">
<title>2&#45;&gt;5</title>
<path fill="none" stroke="#000000" d="M206.5,-88.7971C206.5,-80.7887 206.5,-71.8597 206.5,-63.3198"/>
<polygon fill="#000000" stroke="#000000" points="210.0001,-63.1841 206.5,-53.1841 203.0001,-63.1841 210.0001,-63.1841"/>
</g>
<!-- 4 -->
<g id="node5" class="node">
<title>4</title>
<polygon fill="none" stroke="#000000" points="815,-53 460,-53 460,0 815,0 815,-53"/>
<text text-anchor="middle" x="637.5" y="-37.8" font-family="monospace" font-size="14.00" fill="#000000">&lt;app::Baz as core::ops::drop::Drop&gt;::drop</text>
<text text-anchor="middle" x="637.5" y="-22.8" font-family="monospace" font-size="14.00" fill="#000000">max = 16</text>
<text text-anchor="middle" x="637.5" y="-7.8" font-family="monospace" font-size="14.00" fill="#000000">local = 16</text>
</g>
<!-- 3&#45;&gt;4 -->
<g id="edge4" class="edge">
<title>3&#45;&gt;4</title>
<path fill="none" stroke="#000000" d="M637.5,-88.7971C637.5,-80.7887 637.5,-71.8597 637.5,-63.3198"/>
<polygon fill="#000000" stroke="#000000" points="641.0001,-63.1841 637.5,-53.1841 634.0001,-63.1841 641.0001,-63.1841"/>
</g>
</g>
</svg>
