<?xml version="1.0" encoding="UTF-8" standalone="no"?>
<!DOCTYPE svg PUBLIC "-//W3C//DTD SVG 1.1//EN"
 "http://www.w3.org/Graphics/SVG/1.1/DTD/svg11.dtd">
<!-- Generated by graphviz version 2.40.1 (20161225.0304)
 -->
<!-- Title: %3 Pages: 1 -->
<svg width="276pt" height="239pt"
 viewBox="0.00 0.00 276.00 239.00" xmlns="http://www.w3.org/2000/svg" xmlns:xlink="http://www.w3.org/1999/xlink">
<g id="graph0" class="graph" transform="scale(1 1) rotate(0) translate(4 235)">
<title>%3</title>
<polygon fill="#ffffff" stroke="transparent" points="-4,4 -4,-235 272,-235 272,4 -4,4"/>
<!-- 0 -->
<g id="node1" class="node">
<title>0</title>
<polygon fill="none" stroke="#000000" points="209,-231 118,-231 118,-178 209,-178 209,-231"/>
<text text-anchor="middle" x="163.5" y="-215.8" font-family="monospace" font-size="14.00" fill="#000000">main</text>
<text text-anchor="middle" x="163.5" y="-200.8" font-family="monospace" font-size="14.00" fill="#000000">max = 16</text>
<text text-anchor="middle" x="163.5" y="-185.8" font-family="monospace" font-size="14.00" fill="#000000">local = 0</text>
</g>
<!-- 1 -->
<g id="node2" class="node">
<title>1</title>
<polygon fill="none" stroke="#000000" stroke-dasharray="5,2" points="159,-142 52,-142 52,-89 159,-89 159,-142"/>
<text text-anchor="middle" x="105.5" y="-126.8" font-family="monospace" font-size="14.00" fill="#000000">fn() &#45;&gt; u32</text>
<text text-anchor="middle" x="105.5" y="-111.8" font-family="monospace" font-size="14.00" fill="#000000">max = 16</text>
<text text-anchor="middle" x="105.5" y="-96.8" font-family="monospace" font-size="14.00" fill="#000000">local = 0</text>
</g>
<!-- 0&#45;&gt;1 -->
<g id="edge1" class="edge">
<title>0&#45;&gt;1</title>
<path fill="none" stroke="#000000" d="M146.0981,-177.7971C140.5351,-169.2607 134.2903,-159.6782 128.3977,-150.6361"/>
<polygon fill="#000000" stroke="#000000" points="131.2818,-148.6511 122.8896,-142.1841 125.4172,-152.473 131.2818,-148.6511"/>
</g>
<!-- 2 -->
<g id="node3" class="node">
<title>2</title>
<polygon fill="none" stroke="#000000" points="268,-142 177,-142 177,-89 268,-89 268,-142"/>
<text text-anchor="middle" x="222.5" y="-126.8" font-family="monospace" font-size="14.00" fill="#000000">app::baz</text>
<text text-anchor="middle" x="222.5" y="-111.8" font-family="monospace" font-size="14.00" fill="#000000">max = 0</text>
<text text-anchor="middle" x="222.5" y="-96.8" font-family="monospace" font-size="14.00" fill="#000000">local = 0</text>
</g>
<!-- 0&#45;&gt;2 -->
<g id="edge2" class="edge">
<title>0&#45;&gt;2</title>
<path fill="none" stroke="#000000" d="M181.2019,-177.7971C186.8609,-169.2607 193.2133,-159.6782 199.2076,-150.6361"/>
<polygon fill="#000000" stroke="#000000" points="202.2023,-152.4529 204.8105,-142.1841 196.3679,-148.5851 202.2023,-152.4529"/>
</g>
<!-- 3 -->
<g id="node4" class="node">
<title>3</title>
<polygon fill="none" stroke="#000000" points="99,-53 0,-53 0,0 99,0 99,-53"/>
<text text-anchor="middle" x="49.5" y="-37.8" font-family="monospace" font-size="14.00" fill="#000000">app::bar</text>
<text text-anchor="middle" x="49.5" y="-22.8" font-family="monospace" font-size="14.00" fill="#000000">max = 16</text>
<text text-anchor="middle" x="49.5" y="-7.8" font-family="monospace" font-size="14.00" fill="#000000">local = 16</text>
</g>
<!-- 1&#45;&gt;3 -->
<g id="edge3" class="edge">
<title>1&#45;&gt;3</title>
<path fill="none" stroke="#000000" d="M88.6982,-88.7971C83.3823,-80.3487 77.4218,-70.8757 71.7842,-61.9159"/>
<polygon fill="#000000" stroke="#000000" points="74.578,-59.784 66.29,-53.1841 68.6533,-63.512 74.578,-59.784"/>
</g>
<!-- 4 -->
<g id="node5" class="node">
<title>4</title>
<polygon fill="none" stroke="#000000" points="208,-53 117,-53 117,0 208,0 208,-53"/>
<text text-anchor="middle" x="162.5" y="-37.8" font-family="monospace" font-size="14.00" fill="#000000">app::foo</text>
<text text-anchor="middle" x="162.5" y="-22.8" font-family="monospace" font-size="14.00" fill="#000000">max = 8</text>
<text text-anchor="middle" x="162.5" y="-7.8" font-family="monospace" font-size="14.00" fill="#000000">local = 8</text>
</g>
<!-- 1&#45;&gt;4 -->
<g id="edge4" class="edge">
<title>1&#45;&gt;4</title>
<path fill="none" stroke="#000000" d="M122.6019,-88.7971C128.069,-80.2607 134.2061,-70.6782 139.9971,-61.6361"/>
<polygon fill="#000000" stroke="#000000" points="142.9643,-63.4927 145.4102,-53.1841 137.0696,-59.7175 142.9643,-63.4927"/>
</g>
</g>
</svg>
