<?xml version="1.0" encoding="UTF-8" standalone="no"?>
<!-- Created with Inkscape (http://www.inkscape.org/) -->

<svg
   xmlns:dc="http://purl.org/dc/elements/1.1/"
   xmlns:cc="http://creativecommons.org/ns#"
   xmlns:rdf="http://www.w3.org/1999/02/22-rdf-syntax-ns#"
   xmlns:svg="http://www.w3.org/2000/svg"
   xmlns="http://www.w3.org/2000/svg"
   xmlns:sodipodi="http://sodipodi.sourceforge.net/DTD/sodipodi-0.dtd"
   xmlns:inkscape="http://www.inkscape.org/namespaces/inkscape"
   version="1.1"
   id="svg167"
   xml:space="preserve"
   width="159.24005"
   height="166.64676"
   viewBox="0 0 159.24005 166.64675"
   sodipodi:docname="l3gd20.svg"
   inkscape:version="0.92.2 5c3e80d, 2017-08-06"><metadata
     id="metadata173"><rdf:RDF><cc:Work
         rdf:about=""><dc:format>image/svg+xml</dc:format><dc:type
           rdf:resource="http://purl.org/dc/dcmitype/StillImage" /><dc:title></dc:title></cc:Work></rdf:RDF></metadata><defs
     id="defs171"><clipPath
       clipPathUnits="userSpaceOnUse"
       id="clipPath185"><path
         d="M 67.2,103.7 H 89.64 V 89.72 H 67.2 Z"
         id="path183"
         inkscape:connector-curvature="0"
         style="clip-rule:evenodd" /></clipPath><clipPath
       clipPathUnits="userSpaceOnUse"
       id="clipPath237"><path
         d="M 123.9,699.56 H 527.82 V 462.2 H 123.9 Z"
         id="path235"
         inkscape:connector-curvature="0"
         style="clip-rule:evenodd" /></clipPath><clipPath
       clipPathUnits="userSpaceOnUse"
       id="clipPath917"><path
         d="M 123.9,368.18 H 527.82 V 164.3 H 123.9 Z"
         id="path915"
         inkscape:connector-curvature="0"
         style="clip-rule:evenodd" /></clipPath></defs><sodipodi:namedview
     pagecolor="#ffffff"
     bordercolor="#666666"
     borderopacity="1"
     objecttolerance="10"
     gridtolerance="10"
     guidetolerance="10"
     inkscape:pageopacity="0"
     inkscape:pageshadow="2"
     inkscape:window-width="1920"
     inkscape:window-height="1080"
     id="namedview169"
     showgrid="false"
     fit-margin-top="0"
     fit-margin-left="0"
     fit-margin-right="0"
     fit-margin-bottom="0"
     inkscape:zoom="2.2422506"
     inkscape:cx="107.82193"
     inkscape:cy="86.30956"
     inkscape:window-x="0"
     inkscape:window-y="0"
     inkscape:window-maximized="1"
     inkscape:current-layer="g175" /><g
     id="g175"
     inkscape:groupmode="layer"
     inkscape:label="L3GD20"
     transform="matrix(1.3333333,0,0,-1.3333333,-221.75466,482.18132)"><path
       d="m 66.96,86.78 h 0.23999 v 0.48001 H 66.96 Z"
       style="fill:#000000;fill-opacity:1;fill-rule:nonzero;stroke:none"
       id="path201"
       inkscape:connector-curvature="0" /><path
       d="m 253.44,322.215 h -0.54 l -0.6,-0.12 -0.54,-0.18 -0.54,-0.3 -0.48,-0.36 -0.54,-0.42 -0.48,-0.54 -0.42,-0.601 -0.42,-0.659 -0.42,-0.721 -0.36,-0.779 -0.301,-0.841 -0.54,-1.8 -0.3,-1.92 -0.12,-1.92 0.12,-1.86 0.36,-1.68 0.24,-0.78 0.24,-0.72 0.361,-0.6 0.36,-0.6 0.36,-0.54 0.48,-0.42 0.42,-0.36 0.54,-0.3 0.48,-0.18 0.6,-0.06 h 0.54 l 0.54,0.12 0.6,0.18 0.54,0.3 0.48,0.36 0.54,0.48 0.48,0.48 0.42,0.6 0.42,0.66 0.42,0.72 0.36,0.78 0.3,0.84 0.54,1.8 0.3,1.92 0.12,1.98 -0.12,1.8 -0.36,1.68 -0.24,0.78 -0.24,0.72 -0.36,0.66 -0.36,0.54 -0.36,0.541 -0.48,0.419 -0.42,0.361 -0.54,0.3 -0.54,0.179 -0.54,0.061"
       style="fill:#ffffff;fill-opacity:1;fill-rule:evenodd;stroke:none"
       id="path921"
       inkscape:connector-curvature="0" /><path
       d="m 253.44,321.975 h -0.54 0.06 l -0.6,-0.12 h 0.06 l -0.54,-0.18 -0.54,-0.3 0.06,0.06 -0.48,-0.36 -0.54,-0.421 -0.48,-0.539 h 0.06 l -0.42,-0.6 v 0.06 l -0.42,-0.66 -0.42,-0.721 -0.36,-0.779 -0.3,-0.84 v 0.06 l -0.541,-1.8 -0.3,-1.92 v 0.059 l -0.12,-1.92 0.12,-1.86 v 0.06 l 0.36,-1.679 0.24,-0.781 0.241,-0.719 v 0.059 l 0.36,-0.599 0.36,-0.601 0.36,-0.54 -0.06,0.06 0.48,-0.42 0.42,-0.36 h -0.06 l 0.54,-0.3 0.48,-0.18 -0.06,0.06 0.6,-0.06 h -0.06 0.54 -0.06 l 0.54,0.12 0.6,0.18 -0.06,-0.06 0.54,0.3 0.48,0.36 0.54,0.48 h -0.06 l 0.48,0.48 v -0.06 l 0.42,0.6 0.42,0.66 0.42,0.72 v -0.06 l 0.36,0.78 h -0.06 l 0.3,0.841 0.54,1.8 v -0.061 l 0.3,1.92 h 0.48 v -0.06 l -0.3,-1.92 -0.54,-1.799 v -0.061 l -0.3,-0.84 -0.36,-0.78 -0.42,-0.72 -0.42,-0.66 v -0.06 l -0.42,-0.6 h -0.06 l -0.48,-0.48 -0.54,-0.48 -0.48,-0.36 -0.06,-0.06 -0.54,-0.3 h -0.06 l -0.6,-0.18 -0.54,-0.12 h -0.6 l -0.6,0.06 h -0.06 l -0.48,0.18 h -0.06 l -0.54,0.3 v 0.06 l -0.42,0.36 -0.48,0.42 -0.06,0.06 -0.36,0.54 -0.36,0.6 -0.361,0.6 h -0.06 l -0.24,0.721 v 0.059 l -0.24,0.781 -0.36,1.679 -0.12,1.861 v 0.059 l 0.12,1.92 0.3,1.92 v 0.061 l 0.54,1.8 0.3,0.84 h 0.06 l 0.361,0.78 v 0.059 l 0.42,0.72 0.42,0.66 0.42,0.601 0.48,0.54 0.06,0.06 0.54,0.42 0.48,0.36 0.54,0.3 0.06,0.059 0.54,0.181 0.6,0.12 h 0.6"
       style="fill:#231f20;fill-opacity:1;fill-rule:nonzero;stroke:none"
       id="path923"
       inkscape:connector-curvature="0" /><path
       d="m 257.64,312.194 0.12,1.98 v -0.059 l -0.12,1.8 -0.36,1.68 -0.24,0.78 v -0.061 l -0.24,0.721 h 0.06 l -0.36,0.659 -0.72,1.08 0.06,-0.059 -0.48,0.42 -0.42,0.36 v -0.06 l -0.54,0.299 h 0.06 l -0.54,0.181 h 0.06 l -0.54,0.06 v 0.48 h 0.06 l 0.54,-0.06 h 0.06 l 0.54,-0.18 v -0.061 l 0.54,-0.299 h 0.06 l 0.42,-0.36 0.48,-0.42 0.06,-0.06 0.36,-0.54 0.36,-0.54 0.36,-0.661 v -0.059 l 0.24,-0.72 0.24,-0.78 0.36,-1.68 v -0.061 l 0.12,-1.8 -0.12,-1.98"
       style="fill:#231f20;fill-opacity:1;fill-rule:nonzero;stroke:none"
       id="path925"
       inkscape:connector-curvature="0" /><path
       d="m 265.86,320.835 0.18,0.12 -0.24,0.42 -0.18,-0.12"
       style="fill:#231f20;fill-opacity:1;fill-rule:nonzero;stroke:none"
       id="path927"
       inkscape:connector-curvature="0" /><path
       d="m 232.439,303.314 -0.18,-0.12 -0.24,0.421 0.18,0.119"
       style="fill:#231f20;fill-opacity:1;fill-rule:nonzero;stroke:none"
       id="path929"
       inkscape:connector-curvature="0" /><path
       d="m 265.86,320.835 -0.24,0.42 -33.421,-17.521 0.24,-0.42"
       style="fill:#231f20;fill-opacity:1;fill-rule:nonzero;stroke:none"
       id="path931"
       inkscape:connector-curvature="0" /><path
       d="m 166.736,291.853 45.182,-24.841 44.042,25.261 -44.042,24.902"
       style="fill:#231f20;fill-opacity:1;fill-rule:evenodd;stroke:none"
       id="path933"
       inkscape:connector-curvature="0" /><path
       d="m 166.856,292.034 45.182,-24.842 v -0.42 l -0.24,0.42 44.042,25.262 h 0.24 l -0.24,-0.42 -44.042,24.9 v 0.42 l 0.12,0.061 0.12,-0.061 44.042,-24.9 0.3,-0.181 -0.3,-0.239 -44.042,-25.262 -0.12,-0.059 -0.12,0.059 -45.182,24.842"
       style="fill:#ffffff;fill-opacity:1;fill-rule:nonzero;stroke:none"
       id="path935"
       inkscape:connector-curvature="0" /><path
       d="m 212.038,316.934 -45.182,-25.32 h -0.24 l -0.3,0.18 0.3,0.24 45.182,25.32"
       style="fill:#ffffff;fill-opacity:1;fill-rule:nonzero;stroke:none"
       id="path937"
       inkscape:connector-curvature="0" /><path
       d="m 167.096,291.074 44.042,-24.062 v -13.08 l -44.042,24.481"
       style="fill:#231f20;fill-opacity:1;fill-rule:evenodd;stroke:none"
       id="path939"
       inkscape:connector-curvature="0" /><path
       d="m 167.216,291.254 44.042,-24.062 0.12,-0.059 v -13.621 l -0.36,0.18 -44.042,24.481 -0.12,0.06 v 0.18 l 0.36,0.18 44.042,-24.481 -0.24,-0.42 -0.12,0.24 v 13.08 h 0.48 l -0.36,-0.24 -44.042,24.062"
       style="fill:#ffffff;fill-opacity:1;fill-rule:nonzero;stroke:none"
       id="path941"
       inkscape:connector-curvature="0" /><path
       d="m 166.856,278.413 v 13.02 l 0.36,-0.179 0.12,-0.18 v -12.661"
       style="fill:#ffffff;fill-opacity:1;fill-rule:nonzero;stroke:none"
       id="path943"
       inkscape:connector-curvature="0" /><path
       d="m 211.558,267.012 44.402,24.841 v -14.28 l -44.822,-23.641"
       style="fill:#231f20;fill-opacity:1;fill-rule:evenodd;stroke:none"
       id="path945"
       inkscape:connector-curvature="0" /><path
       d="m 211.438,267.192 44.402,24.842 0.36,0.18 v -14.821 l -0.12,-0.06 -44.822,-23.641 -0.36,-0.18 v 0.42 l 0.12,0.18 44.822,23.641 0.24,-0.42 -0.36,0.24 v 14.28 h 0.48 l -0.12,-0.239 -44.402,-24.842"
       style="fill:#ffffff;fill-opacity:1;fill-rule:nonzero;stroke:none"
       id="path947"
       inkscape:connector-curvature="0" /><path
       d="m 210.898,253.932 0.42,13.08 v 0.121 l 0.12,0.059 0.36,-0.18 -0.42,-13.08"
       style="fill:#ffffff;fill-opacity:1;fill-rule:nonzero;stroke:none"
       id="path949"
       inkscape:connector-curvature="0" /><path
       d="m 180.477,271.633 7.56,-4.14 0.06,3 -7.68,3.96"
       style="fill:#ffffff;fill-opacity:1;fill-rule:evenodd;stroke:none"
       id="path951"
       inkscape:connector-curvature="0" /><path
       d="m 180.597,271.812 7.56,-4.139 0.12,-0.18 h -0.48 l 0.06,3 0.36,0.18 -0.24,-0.42 -7.68,3.96 -0.12,0.24 v 0.36 l 0.36,-0.18 7.68,-3.96 0.12,-0.06 v -0.12 l -0.06,-3 v -0.42 l -0.36,0.18 -7.56,4.14"
       style="fill:#231f20;fill-opacity:1;fill-rule:nonzero;stroke:none"
       id="path953"
       inkscape:connector-curvature="0" /><path
       d="m 180.657,274.453 0.06,-2.82 -0.36,-0.24 -0.12,0.06 v 0.18 l -0.06,2.82"
       style="fill:#231f20;fill-opacity:1;fill-rule:nonzero;stroke:none"
       id="path955"
       inkscape:connector-curvature="0" /><path
       d="m 243.899,274.993 -7.38,-4.08 0.18,-2.7 7.44,3.84"
       style="fill:#ffffff;fill-opacity:1;fill-rule:evenodd;stroke:none"
       id="path957"
       inkscape:connector-curvature="0" /><path
       d="m 244.019,274.753 -7.38,-4.08 -0.36,0.179 0.48,0.061 0.18,-2.7 -0.12,-0.241 -0.24,0.42 7.44,3.84 0.36,-0.179 v -0.18 l -0.12,-0.061 -7.44,-3.84 -0.36,-0.179 v 0.359 l -0.18,2.7 v 0.181 l 0.12,0.06 7.38,4.08"
       style="fill:#231f20;fill-opacity:1;fill-rule:nonzero;stroke:none"
       id="path959"
       inkscape:connector-curvature="0" /><path
       d="m 243.899,271.993 -0.24,2.94 0.12,0.24 0.3,0.18 0.06,-0.36 0.24,-2.94"
       style="fill:#231f20;fill-opacity:1;fill-rule:nonzero;stroke:none"
       id="path961"
       inkscape:connector-curvature="0" /><path
       d="m 223.679,264.132 -7.381,-4.08 0.18,-2.64 7.441,3.78"
       style="fill:#ffffff;fill-opacity:1;fill-rule:evenodd;stroke:none"
       id="path963"
       inkscape:connector-curvature="0" /><path
       d="m 223.799,263.892 -7.381,-4.08 -0.36,0.18 0.48,0.06 0.18,-2.64 -0.12,-0.24 -0.24,0.42 7.441,3.78 0.36,-0.18 v -0.18 l -0.12,-0.06 -7.441,-3.78 -0.36,-0.18 v 0.36 l -0.18,2.64 v 0.18 l 0.12,0.06 7.38,4.08"
       style="fill:#231f20;fill-opacity:1;fill-rule:nonzero;stroke:none"
       id="path965"
       inkscape:connector-curvature="0" /><path
       d="m 223.679,261.132 -0.24,2.94 0.119,0.24 0.301,0.18 0.06,-0.36 0.24,-2.94"
       style="fill:#231f20;fill-opacity:1;fill-rule:nonzero;stroke:none"
       id="path967"
       inkscape:connector-curvature="0" /><path
       d="m 233.459,269.293 -7.38,-4.081 0.18,-2.64 7.44,3.78"
       style="fill:#ffffff;fill-opacity:1;fill-rule:evenodd;stroke:none"
       id="path969"
       inkscape:connector-curvature="0" /><path
       d="m 233.579,269.053 -7.38,-4.081 -0.36,0.18 0.48,0.06 0.18,-2.64 -0.12,-0.24 -0.24,0.42 7.44,3.781 0.36,-0.181 v -0.179 l -0.12,-0.06 -7.44,-3.781 -0.36,-0.18 v 0.36 l -0.18,2.64 v 0.18 l 0.12,0.06 7.38,4.08"
       style="fill:#231f20;fill-opacity:1;fill-rule:nonzero;stroke:none"
       id="path971"
       inkscape:connector-curvature="0" /><path
       d="m 233.459,266.293 -0.24,2.939 0.12,0.24 0.3,0.18 0.06,-0.359 0.24,-2.941"
       style="fill:#231f20;fill-opacity:1;fill-rule:nonzero;stroke:none"
       id="path973"
       inkscape:connector-curvature="0" /><path
       d="m 253.68,280.153 -7.381,-4.08 0.18,-2.7 7.441,3.84"
       style="fill:#ffffff;fill-opacity:1;fill-rule:evenodd;stroke:none"
       id="path975"
       inkscape:connector-curvature="0" /><path
       d="m 253.8,279.913 -7.381,-4.08 -0.36,0.18 0.48,0.06 0.18,-2.7 -0.12,-0.24 -0.24,0.42 7.441,3.84 0.36,-0.18 v -0.18 l -0.12,-0.06 -7.441,-3.84 -0.36,-0.18 v 0.36 l -0.18,2.7 v 0.18 l 0.12,0.06 7.381,4.08"
       style="fill:#231f20;fill-opacity:1;fill-rule:nonzero;stroke:none"
       id="path977"
       inkscape:connector-curvature="0" /><path
       d="m 253.68,277.152 -0.24,2.941 0.12,0.24 0.3,0.18 0.06,-0.36 0.24,-2.94"
       style="fill:#231f20;fill-opacity:1;fill-rule:nonzero;stroke:none"
       id="path979"
       inkscape:connector-curvature="0" /><path
       d="m 190.497,266.293 8.04,-4.921 0.06,3.66 -8.16,4.74"
       style="fill:#ffffff;fill-opacity:1;fill-rule:evenodd;stroke:none"
       id="path981"
       inkscape:connector-curvature="0" /><path
       d="m 190.617,266.472 8.04,-4.92 0.121,-0.18 h -0.48 l 0.06,3.66 0.36,0.18 -0.241,-0.42 -8.16,4.741 -0.12,0.239 v 0.42 l 0.36,-0.239 8.161,-4.741 0.12,-0.06 v -0.12 l -0.06,-3.66 v -0.48 l -0.36,0.24 -8.041,4.92"
       style="fill:#231f20;fill-opacity:1;fill-rule:nonzero;stroke:none"
       id="path983"
       inkscape:connector-curvature="0" /><path
       d="m 190.677,269.772 0.06,-3.479 -0.36,-0.241 -0.12,0.061 v 0.18 l -0.06,3.479"
       style="fill:#231f20;fill-opacity:1;fill-rule:nonzero;stroke:none"
       id="path985"
       inkscape:connector-curvature="0" /><path
       d="m 170.397,277.633 7.5,-4.14 0.06,3 -7.68,3.96"
       style="fill:#ffffff;fill-opacity:1;fill-rule:evenodd;stroke:none"
       id="path987"
       inkscape:connector-curvature="0" /><path
       d="m 170.516,277.813 7.501,-4.14 0.12,-0.18 h -0.48 l 0.06,3 0.36,0.18 -0.24,-0.42 -7.681,3.96 -0.12,0.24 v 0.36 l 0.361,-0.18 7.68,-3.96 0.12,-0.06 v -0.12 l -0.06,-3 v -0.42 l -0.36,0.18 -7.5,4.14"
       style="fill:#231f20;fill-opacity:1;fill-rule:nonzero;stroke:none"
       id="path989"
       inkscape:connector-curvature="0" /><path
       d="m 170.516,280.453 0.12,-2.82 -0.359,-0.24 -0.121,0.06 v 0.18 l -0.12,2.82"
       style="fill:#231f20;fill-opacity:1;fill-rule:nonzero;stroke:none"
       id="path991"
       inkscape:connector-curvature="0" /><path
       d="m 200.458,261.612 8.1,-4.92 0.06,3.66 -8.22,4.74"
       style="fill:#ffffff;fill-opacity:1;fill-rule:evenodd;stroke:none"
       id="path993"
       inkscape:connector-curvature="0" /><path
       d="m 200.578,261.792 8.1,-4.92 0.12,-0.18 h -0.48 l 0.06,3.66 0.36,0.18 -0.24,-0.42 -8.22,4.74 -0.12,0.24 v 0.42 l 0.359,-0.24 8.221,-4.74 0.12,-0.06 v -0.12 l -0.06,-3.66 v -0.48 l -0.36,0.24 -8.1,4.92"
       style="fill:#231f20;fill-opacity:1;fill-rule:nonzero;stroke:none"
       id="path995"
       inkscape:connector-curvature="0" /><path
       d="m 200.638,265.092 0.06,-3.48 -0.36,-0.24 -0.12,0.06 v 0.18 l -0.06,3.48"
       style="fill:#231f20;fill-opacity:1;fill-rule:nonzero;stroke:none"
       id="path997"
       inkscape:connector-curvature="0" /><text
       transform="matrix(1,0,0,-1,242.5193,310.0347)"
       style="font-variant:normal;font-weight:normal;font-size:9.00039959px;font-family:Helvetica;-inkscape-font-specification:Helvetica;writing-mode:lr-tb;fill:#231f20;fill-opacity:1;fill-rule:nonzero;stroke:none"
       id="text1023"><tspan
         x="0"
         y="0"
         id="tspan1021">X</tspan></text>
<path
       d="m 209.698,312.915 -0.72,-0.061 -0.66,-0.18 -0.6,-0.36 -0.54,-0.42 -0.42,-0.54 -0.36,-0.6 -0.18,-0.66 -0.06,-0.719 0.06,-0.661 0.18,-0.719 0.36,-0.601 0.42,-0.48 0.54,-0.42 0.6,-0.36 0.66,-0.18 0.72,-0.06 h 0.9 l 0.72,0.06 0.66,0.18 0.6,0.36 0.54,0.42 0.42,0.48 0.3,0.601 0.24,0.719 0.06,0.661 -0.06,0.719 -0.24,0.66 -0.3,0.6 -0.42,0.54 -0.54,0.42 -0.6,0.36 -0.66,0.18 -0.72,0.061 h -0.9"
       style="fill:#ffffff;fill-opacity:1;fill-rule:evenodd;stroke:none"
       id="path1161"
       inkscape:connector-curvature="0" /><path
       d="m 209.758,312.674 -0.72,-0.059 -0.66,-0.181 h 0.06 l -0.6,-0.359 0.06,0.059 -0.54,-0.419 -0.42,-0.541 0.06,0.06 -0.36,-0.6 v 0.06 l -0.18,-0.659 -0.06,-0.721 v 0.061 l 0.06,-0.661 v 0.06 l 0.18,-0.72 v 0.061 l 0.36,-0.601 h -0.06 l 0.42,-0.479 v 0.059 l 0.54,-0.42 h -0.06 l 0.6,-0.36 -0.06,0.06 0.66,-0.18 0.72,-0.06 h -0.06 0.9 l 0.72,0.06 h -0.06 l 0.66,0.18 -0.06,-0.06 0.6,0.36 0.54,0.42 -0.06,-0.059 0.42,0.479 0.3,0.601 -0.06,-0.061 0.24,0.72 v -0.06 l 0.06,0.661 v -0.061 l -0.06,0.721 v -0.061 l -0.24,0.66 h 0.06 l -0.3,0.6 v -0.06 l -0.42,0.541 h 0.06 l -0.54,0.419 v -0.059 l -0.6,0.359 h 0.06 l -0.66,0.181 h 0.06 l -0.72,0.059 h -0.9 v 0.48 h 0.96 l 0.72,-0.06 0.66,-0.179 0.06,-0.061 0.6,-0.359 h 0.06 l 0.54,-0.42 v -0.061 l 0.42,-0.54 h 0.06 l 0.3,-0.599 v -0.061 l 0.24,-0.66 v -0.06 l 0.06,-0.719 v -0.061 l -0.06,-0.66 v -0.06 l -0.24,-0.72 -0.3,-0.6 -0.06,-0.06 -0.42,-0.48 -0.54,-0.42 -0.06,-0.06 -0.6,-0.36 h -0.06 l -0.66,-0.18 -0.72,-0.06 h -0.96 l -0.72,0.06 h -0.06 l -0.66,0.18 h -0.06 l -0.6,0.36 v 0.06 l -0.54,0.42 h -0.06 l -0.42,0.48 v 0.06 l -0.36,0.6 -0.06,0.06 -0.18,0.72 -0.06,0.66 v 0.061 l 0.06,0.719 v 0.06 l 0.18,0.66 0.06,0.061 0.36,0.599 0.42,0.54 0.06,0.061 0.54,0.42 0.6,0.359 0.06,0.061 0.66,0.179 h 0.06 l 0.72,0.06"
       style="fill:#231f20;fill-opacity:1;fill-rule:nonzero;stroke:none"
       id="path1163"
       inkscape:connector-curvature="0" /><path
       d="m 209.698,312.674 h 0.06 l -0.06,0.48"
       style="fill:#231f20;fill-opacity:1;fill-rule:nonzero;stroke:none"
       id="path1165"
       inkscape:connector-curvature="0" /><path
       d="m 227.159,339.735 -0.18,0.841 -0.36,0.84 -0.48,0.779 -0.72,0.721 -0.84,0.66 -0.961,0.6 -1.14,0.599 -1.199,0.481 -1.38,0.42 -1.44,0.36 -1.561,0.3 -1.62,0.24 -1.74,0.119 -1.74,0.061 -1.86,-0.061 -1.86,-0.119 -1.92,-0.18 -1.8,-0.3 -1.74,-0.361 -1.621,-0.42 -1.619,-0.479 -1.44,-0.601 -1.381,-0.599 -1.259,-0.661 -1.141,-0.719 -1.02,-0.72 -0.84,-0.78 -0.72,-0.84 -0.54,-0.84 -0.36,-0.841 -0.24,-0.84 v -0.899 l 0.18,-0.841 0.36,-0.84 0.54,-0.779 0.66,-0.721 0.84,-0.66 0.96,-0.6 1.14,-0.599 1.261,-0.481 1.32,-0.42 1.439,-0.36 1.561,-0.3 1.62,-0.24 1.74,-0.119 1.8,-0.061 1.8,0.061 1.86,0.119 1.92,0.18 1.8,0.3 1.74,0.36 1.68,0.42 1.56,0.48 1.44,0.601 1.38,0.599 1.261,0.66 1.14,0.72 1.02,0.72 0.84,0.78 0.72,0.84 0.54,0.78 0.36,0.901 0.24,0.84 v 0.899"
       style="fill:#ffffff;fill-opacity:1;fill-rule:evenodd;stroke:none"
       id="path1365"
       inkscape:connector-curvature="0" /><path
       d="m 226.919,339.676 -0.18,0.84 -0.36,0.839 0.06,-0.059 -0.48,0.78 v -0.06 l -0.72,0.719 h 0.06 l -0.84,0.661 -0.961,0.6 v -0.06 l -1.139,0.6 -1.201,0.48 h 0.06 l -1.379,0.42 -1.44,0.36 -1.561,0.3 -1.62,0.24 h 0.06 l -1.74,0.12 -1.74,0.06 -1.86,-0.06 -1.86,-0.12 -1.92,-0.181 h 0.06 l -1.8,-0.3 -1.74,-0.359 -1.62,-0.42 -1.62,-0.48 -1.441,-0.6 h 0.06 l -1.38,-0.6 -1.259,-0.661 -1.141,-0.719 -1.02,-0.72 0.06,0.12 -0.84,-0.78 -0.72,-0.84 -0.54,-0.84 0.06,0.059 -0.36,-0.84 -0.24,-0.839 v 0.059 -0.899 0.059 l 0.18,-0.84 v 0.06 l 0.36,-0.84 v 0.061 l 0.54,-0.781 h -0.06 l 0.66,-0.719 v 0.059 l 0.84,-0.66 0.96,-0.6 -0.06,-0.06 1.14,-0.6 1.26,-0.48 1.321,-0.42 v 0.06 l -0.181,-0.48 -1.319,0.42 -1.261,0.48 h -0.06 l -1.14,0.6 v 0.06 l -0.959,0.6 -0.841,0.66 h -0.06 l -0.66,0.72 v 0.061 l -0.54,0.779 -0.06,0.06 -0.36,0.84 -0.18,0.84 v 0.96 l 0.06,0.061 0.24,0.84 v 0.059 l 0.36,0.84 0.54,0.841 v 0.06 l 0.72,0.839 h 0.06 l 0.84,0.781 1.02,0.719 1.14,0.72 h 0.06 l 1.26,0.66 v 0.061 l 1.381,0.6 1.44,0.6 1.62,0.48 h 0.059 l 1.621,0.42 1.74,0.36 1.8,0.3 1.92,0.18 1.86,0.12 1.86,0.06 h 0.06 l 1.74,-0.06 1.74,-0.12 1.62,-0.24 1.56,-0.301 0.06,0.061 1.44,-0.36 v -0.06 l 1.381,-0.42 1.199,-0.48 1.141,-0.6 h 0.06 l 0.96,-0.601 0.84,-0.66 v -0.059 l 0.72,-0.72 h 0.06 l 0.48,-0.78 v -0.06 l 0.36,-0.841 v -0.059 l 0.18,-0.84"
       style="fill:#231f20;fill-opacity:1;fill-rule:nonzero;stroke:none"
       id="path1367"
       inkscape:connector-curvature="0" /><path
       d="m 197.818,330.795 1.44,-0.36 h -0.06 l 1.56,-0.3 1.62,-0.24 1.74,-0.12 1.8,-0.06 h -0.06 l 1.8,0.06 1.86,0.12 1.92,0.181 1.8,0.299 1.74,0.36 1.68,0.42 h -0.06 l 1.56,0.48 1.44,0.6 1.38,0.6 v -0.06 l 1.26,0.66 h -0.06 l 1.141,0.72 1.02,0.721 0.84,0.779 h -0.06 l 0.72,0.841 v -0.061 l 0.54,0.781 0.36,0.9 v -0.061 l 0.24,0.84 -0.06,-0.059 v 0.899 -0.059 l 0.48,0.12 v -1.021 l -0.24,-0.84 -0.36,-0.899 -0.06,-0.061 -0.54,-0.78 -0.72,-0.84 -0.84,-0.779 -0.06,-0.061 -1.021,-0.72 -1.139,-0.719 -1.261,-0.66 -1.38,-0.601 -0.06,-0.06 -1.44,-0.6 -1.56,-0.48 -1.68,-0.42 -1.74,-0.36 -1.8,-0.3 h -0.06 l -1.92,-0.18 -1.86,-0.12 -1.8,-0.06 -1.8,0.06 -1.74,0.12 h -0.06 l -1.62,0.24 -1.561,0.3 -1.44,0.36"
       style="fill:#231f20;fill-opacity:1;fill-rule:nonzero;stroke:none"
       id="path1369"
       inkscape:connector-curvature="0" /><path
       d="m 180.117,353.716 16.741,1.5 2.52,-28.321 -16.741,-1.5"
       style="fill:#ffffff;fill-opacity:1;fill-rule:evenodd;stroke:none"
       id="path1371"
       inkscape:connector-curvature="0" /><path
       d="m 180.117,353.956 16.741,1.5 0.239,0.06 v -0.24 l 2.52,-28.321 v -0.24 l -0.239,-0.06 -16.741,-1.501 h -0.24 v 0.241 l 0.24,0.24 16.741,1.5 v -0.48 l -0.241,0.24 -2.52,28.321 0.48,0.06 -0.239,-0.3 -16.741,-1.5"
       style="fill:#ffffff;fill-opacity:1;fill-rule:nonzero;stroke:none"
       id="path1373"
       inkscape:connector-curvature="0" /><path
       d="m 182.397,325.395 -2.52,28.321 v 0.24 h 0.24 l 0.24,-0.18 2.52,-28.321"
       style="fill:#ffffff;fill-opacity:1;fill-rule:nonzero;stroke:none"
       id="path1375"
       inkscape:connector-curvature="0" /><path
       d="m 197.097,344.836 -0.179,-0.181 0.36,-0.359 0.18,0.18"
       style="fill:#231f20;fill-opacity:1;fill-rule:nonzero;stroke:none"
       id="path1377"
       inkscape:connector-curvature="0" /><path
       d="m 201.118,348.916 0.18,0.18 0.36,-0.36 -0.181,-0.18"
       style="fill:#231f20;fill-opacity:1;fill-rule:nonzero;stroke:none"
       id="path1379"
       inkscape:connector-curvature="0" /><path
       d="m 197.097,344.836 0.361,-0.36 4.019,4.08 -0.359,0.36"
       style="fill:#231f20;fill-opacity:1;fill-rule:nonzero;stroke:none"
       id="path1381"
       inkscape:connector-curvature="0" /><text
       transform="matrix(1,0,0,-1,224.9986,350.176)"
       style="font-variant:normal;font-weight:normal;font-size:9.96039963px;font-family:Symbol;-inkscape-font-specification:Symbol;writing-mode:lr-tb;fill:#231f20;fill-opacity:1;fill-rule:nonzero;stroke:none"
       id="text1385"><tspan
         x="0 5.4602914"
         y="0"
         sodipodi:role="line"
         id="tspan1383">+Ω</tspan></text>
<text
       transform="matrix(1,0,0,-1,239.1593,344.53642)"
       style="font-variant:normal;font-weight:bold;font-size:9.96039963px;font-family:Helvetica;-inkscape-font-specification:Helvetica-Bold;writing-mode:lr-tb;fill:#231f20;fill-opacity:1;fill-rule:nonzero;stroke:none"
       id="text1389"><tspan
         x="0"
         y="0"
         id="tspan1387">Z</tspan></text>
<path
       d="m 209.098,286.574 h 0.48001 v 72.423 H 209.098 Z"
       style="fill:#231f20;fill-opacity:1;fill-rule:nonzero;stroke:none"
       id="path1391"
       inkscape:connector-curvature="0" /><path
       d="m 197.458,344.836 -0.18,0.18 -0.36,-0.361 0.179,-0.179"
       style="fill:#231f20;fill-opacity:1;fill-rule:nonzero;stroke:none"
       id="path1393"
       inkscape:connector-curvature="0" /><path
       d="m 202.138,340.395 0.18,-0.179 -0.36,-0.361 -0.18,0.181"
       style="fill:#231f20;fill-opacity:1;fill-rule:nonzero;stroke:none"
       id="path1395"
       inkscape:connector-curvature="0" /><path
       d="m 197.458,344.836 -0.361,-0.36 4.681,-4.44 0.36,0.359"
       style="fill:#231f20;fill-opacity:1;fill-rule:nonzero;stroke:none"
       id="path1397"
       inkscape:connector-curvature="0" /><path
       d="m 233.999,359.537 h 1.3801 v 0.17969 h -1.3801 z"
       style="fill:#231f20;fill-opacity:1;fill-rule:nonzero;stroke:none"
       id="path1399"
       inkscape:connector-curvature="0" /><path
       d="m 235.019,359.297 -0.84,1.019 -1.08,1.32 1.62,-0.48 3.42,-1.02 1.74,-0.48 -1.74,-0.48 -3.42,-0.96 -1.62,-0.48 1.08,1.261 0.24,0.179 3.42,0.96 0.3,-0.96 h -0.3 l -3.42,1.02 0.3,0.96 0.24,-0.18 0.84,-1.019"
       style="fill:#231f20;fill-opacity:1;fill-rule:nonzero;stroke:none"
       id="path1401"
       inkscape:connector-curvature="0" /><path
       d="m 234.179,358.997 0.84,0.96 h 0.78 l 0.3,-0.361 -0.3,-0.299 -0.84,-0.96"
       style="fill:#231f20;fill-opacity:1;fill-rule:nonzero;stroke:none"
       id="path1403"
       inkscape:connector-curvature="0" /><path
       d="m 235.379,359.656 -0.84,1.02 3.42,-1.02 -3.42,-0.96"
       style="fill:#231f20;fill-opacity:1;fill-rule:evenodd;stroke:none"
       id="path1405"
       inkscape:connector-curvature="0" /><path
       d="m 228.539,359.537 h 5.5202 v 0.17969 h -5.5202 z"
       style="fill:#231f20;fill-opacity:1;fill-rule:nonzero;stroke:none"
       id="path1407"
       inkscape:connector-curvature="0" /><text
       transform="matrix(1,0,0,-1,265.0802,242.2915)"
       style="font-variant:normal;font-weight:normal;font-size:9.96039963px;font-family:Symbol;-inkscape-font-specification:Symbol;writing-mode:lr-tb;fill:#231f20;fill-opacity:1;fill-rule:nonzero;stroke:none"
       id="text1411"><tspan
         x="0 6.5200777"
         y="0"
         sodipodi:role="line"
         id="tspan1409">+Ω</tspan></text>
<text
       transform="matrix(1,0,0,-1,279.2419,236.65093)"
       style="font-variant:normal;font-weight:bold;font-size:9.96039963px;font-family:Helvetica;-inkscape-font-specification:Helvetica-Bold;writing-mode:lr-tb;fill:#231f20;fill-opacity:1;fill-rule:nonzero;stroke:none"
       id="text1415"><tspan
         x="0"
         y="0"
         id="tspan1413">X</tspan></text>
<path
       d="m 274.141,251.652 h 1.32 v 0.18002 h -1.32 z"
       style="fill:#231f20;fill-opacity:1;fill-rule:nonzero;stroke:none"
       id="path1417"
       inkscape:connector-curvature="0" /><path
       d="m 275.101,251.412 -0.84,0.96 -1.201,1.32 5.221,-1.44 1.62,-0.48 -1.62,-0.48 -3.48,-1.02 -1.561,-0.48 1.021,1.26 0.24,0.18 3.48,1.02 0.3,-0.96 h -0.3 l -3.48,0.96 0.3,0.96 0.24,-0.18 0.84,-0.96"
       style="fill:#231f20;fill-opacity:1;fill-rule:nonzero;stroke:none"
       id="path1419"
       inkscape:connector-curvature="0" /><path
       d="m 274.261,251.052 0.84,1.02 h 0.78 l 0.24,-0.3 -0.24,-0.36 -0.84,-1.02"
       style="fill:#231f20;fill-opacity:1;fill-rule:nonzero;stroke:none"
       id="path1421"
       inkscape:connector-curvature="0" /><path
       d="m 275.461,251.772 -0.84,0.96 3.48,-0.96 -3.48,-1.02"
       style="fill:#231f20;fill-opacity:1;fill-rule:evenodd;stroke:none"
       id="path1423"
       inkscape:connector-curvature="0" /><path
       d="m 268.62,251.652 h 5.5802 v 0.18002 H 268.62 Z"
       style="fill:#231f20;fill-opacity:1;fill-rule:nonzero;stroke:none"
       id="path1425"
       inkscape:connector-curvature="0" /><path
       d="m 242.159,327.195 1.56,-17.16 -8.76,-0.54 -1.56,17.16"
       style="fill:#ffffff;fill-opacity:1;fill-rule:evenodd;stroke:none"
       id="path1427"
       inkscape:connector-curvature="0" /><path
       d="m 242.399,327.195 1.56,-17.16 -0.24,-0.241 -8.76,-0.54 h -0.24 v 0.18 l -1.56,17.161 0.24,0.3 0.24,-0.24 1.56,-17.16 -0.48,-0.061 0.24,0.3 8.76,0.54 v -0.48 l -0.24,0.18 -1.56,17.161"
       style="fill:#ffffff;fill-opacity:1;fill-rule:nonzero;stroke:none"
       id="path1429"
       inkscape:connector-curvature="0" /><path
       d="m 233.399,326.895 8.76,0.54 h 0.24 v -0.24 l -0.24,-0.24 -8.76,-0.54"
       style="fill:#ffffff;fill-opacity:1;fill-rule:nonzero;stroke:none"
       id="path1431"
       inkscape:connector-curvature="0" /><path
       d="m 243.419,257.652 0.54,4.56 20.701,-1.5 -0.48,-4.56"
       style="fill:#ffffff;fill-opacity:1;fill-rule:evenodd;stroke:none"
       id="path1433"
       inkscape:connector-curvature="0" /><path
       d="m 243.179,257.652 0.54,4.56 0.3,0.24 20.701,-1.5 h 0.24 l -0.06,-0.3 -0.48,-4.56 -0.24,-0.18 -0.24,0.24 0.48,4.56 0.48,-0.06 -0.24,-0.18 -20.701,1.5 0.06,0.48 0.18,-0.3 -0.54,-4.56"
       style="fill:#ffffff;fill-opacity:1;fill-rule:nonzero;stroke:none"
       id="path1435"
       inkscape:connector-curvature="0" /><path
       d="m 264.18,255.912 -20.761,1.5 h -0.24 v 0.24 l 0.3,0.24 20.761,-1.5"
       style="fill:#ffffff;fill-opacity:1;fill-rule:nonzero;stroke:none"
       id="path1437"
       inkscape:connector-curvature="0" /><path
       d="m 244.079,248.592 0.6,5.64 7.501,-0.54 -0.6,-5.64"
       style="fill:#ffffff;fill-opacity:1;fill-rule:evenodd;stroke:none"
       id="path1439"
       inkscape:connector-curvature="0" /><path
       d="m 243.839,248.592 0.6,5.64 0.3,0.24 7.501,-0.54 h 0.24 l -0.06,-0.3 -0.6,-5.64 -0.24,-0.18 -0.24,0.24 0.6,5.64 0.48,-0.06 -0.24,-0.18 -7.501,0.54 0.06,0.48 0.18,-0.3 -0.6,-5.64"
       style="fill:#ffffff;fill-opacity:1;fill-rule:nonzero;stroke:none"
       id="path1441"
       inkscape:connector-curvature="0" /><path
       d="m 251.58,247.812 -7.501,0.54 h -0.24 v 0.24 l 0.3,0.24 7.501,-0.54"
       style="fill:#ffffff;fill-opacity:1;fill-rule:nonzero;stroke:none"
       id="path1443"
       inkscape:connector-curvature="0" /><path
       d="m 251.76,254.652 0.24,2.28 3.78,-0.3 -0.24,-2.22"
       style="fill:#ffffff;fill-opacity:1;fill-rule:evenodd;stroke:none"
       id="path1445"
       inkscape:connector-curvature="0" /><path
       d="m 251.52,254.652 0.24,2.28 0.3,0.24 3.78,-0.3 h 0.24 l -0.06,-0.3 -0.24,-2.22 -0.24,-0.18 -0.24,0.24 0.24,2.22 0.48,-0.06 -0.24,-0.18 -3.78,0.3 0.06,0.48 0.18,-0.3 -0.24,-2.28"
       style="fill:#ffffff;fill-opacity:1;fill-rule:nonzero;stroke:none"
       id="path1447"
       inkscape:connector-curvature="0" /><path
       d="m 255.54,254.172 -3.78,0.24 h -0.24 v 0.24 l 0.3,0.24 3.78,-0.24"
       style="fill:#ffffff;fill-opacity:1;fill-rule:nonzero;stroke:none"
       id="path1449"
       inkscape:connector-curvature="0" /><path
       d="m 248.76,251.592 0.6,-5.76 -10.381,-0.78 -0.66,5.76"
       style="fill:#ffffff;fill-opacity:1;fill-rule:evenodd;stroke:none"
       id="path1451"
       inkscape:connector-curvature="0" /><path
       d="m 249,251.592 0.6,-5.76 -0.18,-0.24 -10.381,-0.78 h -0.3 v 0.18 l -0.66,5.76 0.24,0.3 0.24,-0.24 0.66,-5.76 -0.48,-0.06 0.24,0.3 10.381,0.78 0.06,-0.48 -0.3,0.18 -0.6,5.76"
       style="fill:#ffffff;fill-opacity:1;fill-rule:nonzero;stroke:none"
       id="path1453"
       inkscape:connector-curvature="0" /><path
       d="m 238.319,251.052 10.441,0.78 H 249 v -0.24 l -0.18,-0.24 -10.441,-0.78"
       style="fill:#ffffff;fill-opacity:1;fill-rule:nonzero;stroke:none"
       id="path1455"
       inkscape:connector-curvature="0" /><path
       d="m 248.22,266.953 h -0.601 l -0.54,-0.12 -0.54,-0.181 -0.54,-0.3 -0.54,-0.359 -0.48,-0.481 -0.48,-0.54 -0.48,-0.6 -0.42,-0.66 -0.36,-0.72 -0.72,-1.56 -0.48,-1.8 -0.36,-1.92 -0.06,-1.98 0.12,-1.86 0.3,-1.62 0.24,-0.78 0.3,-0.72 0.3,-0.66 0.36,-0.6 0.42,-0.48 0.42,-0.48 0.48,-0.36 0.48,-0.24 0.54,-0.18 0.54,-0.12 h 0.6 l 0.54,0.12 1.081,0.48 0.54,0.42 0.48,0.42 0.48,0.54 0.48,0.6 0.42,0.66 0.36,0.72 0.72,1.56 0.48,1.8 0.36,1.98 0.06,1.92 -0.12,1.86 -0.3,1.68 -0.24,0.72 -0.3,0.72 -0.3,0.66 -0.36,0.6 -0.42,0.481 -0.42,0.479 -0.48,0.361 -0.48,0.239 -0.54,0.181 -0.54,0.12"
       style="fill:#ffffff;fill-opacity:1;fill-rule:evenodd;stroke:none"
       id="path1457"
       inkscape:connector-curvature="0" /><path
       d="m 248.22,266.713 h -0.601 0.061 l -0.541,-0.12 h 0.06 l -0.54,-0.18 -0.54,-0.3 -0.54,-0.36 0.06,0.059 -0.48,-0.48 -0.48,-0.54 -0.48,-0.6 0.06,0.06 -0.42,-0.66 -0.36,-0.72 -0.72,-1.56 v 0.06 l -0.48,-1.8 -0.36,-1.92 v 0.06 l -0.06,-1.98 0.12,-1.86 0.3,-1.62 v 0.06 l 0.24,-0.78 0.3,-0.72 0.3,-0.66 v 0.06 l 0.36,-0.6 h -0.06 l 0.42,-0.48 0.42,-0.48 v 0.06 l 0.48,-0.36 h -0.06 l 0.48,-0.24 v 0.06 l 0.54,-0.18 h -0.06 l 0.54,-0.12 h -0.06 0.6 -0.06 l 0.54,0.12 v -0.06 l 0.541,0.24 0.54,0.24 h -0.06 l 0.54,0.42 0.48,0.42 -0.06,-0.06 0.48,0.54 0.48,0.6 0.42,0.66 0.36,0.72 v -0.06 l 0.36,0.78 0.36,0.78 h -0.06 l 0.48,1.8 v -0.06 l 0.36,1.98 h 0.48 v -0.06 l -0.36,-1.98 -0.48,-1.8 v -0.06 l -0.72,-1.56 -0.36,-0.72 -0.42,-0.66 -0.06,-0.06 -0.48,-0.6 -0.48,-0.54 -0.48,-0.42 -0.54,-0.42 -0.06,-0.06 -1.081,-0.48 h -0.06 l -0.54,-0.12 h -0.72 l -0.54,0.12 -0.54,0.18 h -0.06 l -0.48,0.24 v 0.06 l -0.48,0.36 h -0.06 l -0.42,0.48 -0.42,0.48 v 0.06 l -0.36,0.6 -0.3,0.66 -0.3,0.72 -0.06,0.06 -0.24,0.78 -0.3,1.62 -0.12,1.86 v 0.06 l 0.06,1.98 0.36,1.92 v 0.06 l 0.48,1.8 h 0.06 l 0.72,1.56 v 0.06 l 0.36,0.72 0.42,0.66 0.48,0.6 0.48,0.541 v 0.059 l 0.48,0.481 h 0.06 l 0.54,0.36 0.54,0.3 0.06,0.059 0.54,0.181 0.54,0.119 h 0.661"
       style="fill:#231f20;fill-opacity:1;fill-rule:nonzero;stroke:none"
       id="path1459"
       inkscape:connector-curvature="0" /><path
       d="m 252.42,256.932 0.06,1.92 v -0.06 l -0.12,1.86 -0.3,1.68 v -0.06 l -0.24,0.72 h 0.06 l -0.3,0.72 -0.3,0.66 -0.36,0.6 v -0.06 l -0.42,0.48 -0.42,0.481 h 0.06 l -0.48,0.359 v -0.059 l -0.48,0.24 h 0.06 l -0.54,0.18 -0.54,0.12 h 0.06 v 0.479 h 0.06 l 0.54,-0.119 h 0.06 l 0.54,-0.181 v -0.059 l 0.48,-0.24 h 0.06 l 0.48,-0.361 v -0.059 l 0.42,-0.481 0.42,-0.48 h 0.06 l 0.36,-0.6 v -0.06 l 0.3,-0.66 0.3,-0.72 0.24,-0.72 v -0.06 l 0.3,-1.68 0.12,-1.86 -0.06,-1.92"
       style="fill:#231f20;fill-opacity:1;fill-rule:nonzero;stroke:none"
       id="path1461"
       inkscape:connector-curvature="0" /><path
       d="m 234.119,245.412 0.96,8.76 18.241,-1.26 -0.96,-8.82"
       style="fill:#ffffff;fill-opacity:1;fill-rule:evenodd;stroke:none"
       id="path1463"
       inkscape:connector-curvature="0" /><path
       d="m 233.879,245.412 0.96,8.76 0.3,0.24 18.241,-1.26 h 0.24 l -0.06,-0.3 -0.96,-8.82 -0.24,-0.18 -0.24,0.24 0.96,8.82 0.48,-0.06 -0.24,-0.18 -18.241,1.26 0.06,0.48 0.18,-0.3 -0.96,-8.76"
       style="fill:#ffffff;fill-opacity:1;fill-rule:nonzero;stroke:none"
       id="path1465"
       inkscape:connector-curvature="0" /><path
       d="m 252.36,243.852 -18.241,1.32 h -0.24 v 0.24 l 0.3,0.24 18.241,-1.32"
       style="fill:#ffffff;fill-opacity:1;fill-rule:nonzero;stroke:none"
       id="path1467"
       inkscape:connector-curvature="0" /><path
       d="m 242.039,250.452 0.12,-0.18 0.36,0.3 -0.12,0.18"
       style="fill:#231f20;fill-opacity:1;fill-rule:nonzero;stroke:none"
       id="path1469"
       inkscape:connector-curvature="0" /><path
       d="m 239.939,252.912 -0.12,0.18 0.36,0.3 0.12,-0.18"
       style="fill:#231f20;fill-opacity:1;fill-rule:nonzero;stroke:none"
       id="path1471"
       inkscape:connector-curvature="0" /><path
       d="m 242.039,250.452 0.36,0.3 -2.1,2.46 -0.36,-0.3"
       style="fill:#231f20;fill-opacity:1;fill-rule:nonzero;stroke:none"
       id="path1473"
       inkscape:connector-curvature="0" /><path
       d="m 242.099,250.812 -0.18,-0.12 0.24,-0.42 0.18,0.12"
       style="fill:#231f20;fill-opacity:1;fill-rule:nonzero;stroke:none"
       id="path1475"
       inkscape:connector-curvature="0" /><path
       d="m 245.459,252.852 0.18,0.12 0.24,-0.42 -0.18,-0.12"
       style="fill:#231f20;fill-opacity:1;fill-rule:nonzero;stroke:none"
       id="path1477"
       inkscape:connector-curvature="0" /><path
       d="m 242.099,250.812 0.24,-0.42 3.36,2.04 -0.24,0.42"
       style="fill:#231f20;fill-opacity:1;fill-rule:nonzero;stroke:none"
       id="path1479"
       inkscape:connector-curvature="0" /><path
       d="m 262.44,250.092 0.18,-0.12 0.24,0.42 -0.18,0.12"
       style="fill:#231f20;fill-opacity:1;fill-rule:nonzero;stroke:none"
       id="path1481"
       inkscape:connector-curvature="0" /><path
       d="m 227.279,268.573 -0.18,0.119 0.24,0.421 0.18,-0.12"
       style="fill:#231f20;fill-opacity:1;fill-rule:nonzero;stroke:none"
       id="path1483"
       inkscape:connector-curvature="0" /><path
       d="m 262.44,250.092 0.24,0.42 -35.161,18.481 -0.24,-0.42"
       style="fill:#231f20;fill-opacity:1;fill-rule:nonzero;stroke:none"
       id="path1485"
       inkscape:connector-curvature="0" /><path
       d="m 223.979,313.215 0.48,4.559 13.8,-0.899 -0.42,-4.561"
       style="fill:#ffffff;fill-opacity:1;fill-rule:evenodd;stroke:none"
       id="path1487"
       inkscape:connector-curvature="0" /><path
       d="m 223.739,313.215 0.48,4.559 0.3,0.241 13.8,-0.9 h 0.18 v -0.301 l -0.42,-4.559 -0.24,-0.18 -0.24,0.239 0.42,4.561 0.48,-0.061 -0.24,-0.179 -13.8,0.9 0.06,0.48 0.18,-0.3 -0.48,-4.561"
       style="fill:#ffffff;fill-opacity:1;fill-rule:nonzero;stroke:none"
       id="path1489"
       inkscape:connector-curvature="0" /><path
       d="m 237.839,312.075 -13.86,0.899 h -0.24 v 0.241 l 0.3,0.24 13.86,-0.901"
       style="fill:#ffffff;fill-opacity:1;fill-rule:nonzero;stroke:none"
       id="path1491"
       inkscape:connector-curvature="0" /><path
       d="m 249.3,303.854 0.6,5.7 7.5,-0.54 -0.6,-5.64"
       style="fill:#ffffff;fill-opacity:1;fill-rule:evenodd;stroke:none"
       id="path1493"
       inkscape:connector-curvature="0" /><path
       d="m 249.06,303.854 0.6,5.7 0.3,0.24 7.5,-0.54 h 0.24 l -0.06,-0.299 -0.6,-5.641 -0.24,-0.18 -0.24,0.24 0.6,5.64 0.48,-0.059 -0.24,-0.181 -7.5,0.54 0.06,0.48 0.18,-0.299 -0.6,-5.701"
       style="fill:#ffffff;fill-opacity:1;fill-rule:nonzero;stroke:none"
       id="path1495"
       inkscape:connector-curvature="0" /><path
       d="m 256.8,303.134 -7.5,0.481 h -0.24 v 0.239 l 0.3,0.24 7.5,-0.479"
       style="fill:#ffffff;fill-opacity:1;fill-rule:nonzero;stroke:none"
       id="path1497"
       inkscape:connector-curvature="0" /><path
       d="m 246.299,307.874 0.24,2.28 3.781,-0.3 -0.24,-2.22"
       style="fill:#ffffff;fill-opacity:1;fill-rule:evenodd;stroke:none"
       id="path1499"
       inkscape:connector-curvature="0" /><path
       d="m 246.059,307.874 0.24,2.28 0.3,0.24 3.781,-0.3 h 0.24 l -0.06,-0.3 -0.24,-2.219 -0.24,-0.181 -0.24,0.24 0.24,2.22 0.48,-0.06 -0.24,-0.179 -3.781,0.3 0.06,0.479 0.18,-0.3 -0.24,-2.28"
       style="fill:#ffffff;fill-opacity:1;fill-rule:nonzero;stroke:none"
       id="path1501"
       inkscape:connector-curvature="0" /><path
       d="m 250.08,307.394 -3.781,0.24 h -0.24 v 0.24 l 0.3,0.241 3.781,-0.241"
       style="fill:#ffffff;fill-opacity:1;fill-rule:nonzero;stroke:none"
       id="path1503"
       inkscape:connector-curvature="0" /><path
       d="m 253.98,306.854 0.6,-5.76 -10.381,-0.72 -0.66,5.76"
       style="fill:#ffffff;fill-opacity:1;fill-rule:evenodd;stroke:none"
       id="path1505"
       inkscape:connector-curvature="0" /><path
       d="m 254.22,306.854 0.6,-5.76 -0.18,-0.24 -10.381,-0.72 h -0.3 v 0.18 l -0.66,5.761 0.24,0.299 0.24,-0.24 0.66,-5.76 -0.48,-0.06 0.24,0.3 10.381,0.72 0.06,-0.48 -0.3,0.18 -0.6,5.76"
       style="fill:#ffffff;fill-opacity:1;fill-rule:nonzero;stroke:none"
       id="path1507"
       inkscape:connector-curvature="0" /><path
       d="m 243.539,306.374 10.441,0.72 h 0.24 v -0.24 l -0.18,-0.239 -10.441,-0.721"
       style="fill:#ffffff;fill-opacity:1;fill-rule:nonzero;stroke:none"
       id="path1509"
       inkscape:connector-curvature="0" /><path
       d="m 246.659,301.754 0.96,9 18.241,-1.32 -0.96,-9"
       style="fill:#ffffff;fill-opacity:1;fill-rule:evenodd;stroke:none"
       id="path1511"
       inkscape:connector-curvature="0" /><path
       d="m 246.419,301.754 0.96,9 0.301,0.241 18.24,-1.321 h 0.24 l -0.06,-0.299 -0.96,-9.001 -0.24,-0.18 -0.24,0.24 0.96,9 0.48,-0.059 -0.24,-0.181 -18.241,1.32 0.061,0.481 0.179,-0.301 -0.96,-9"
       style="fill:#ffffff;fill-opacity:1;fill-rule:nonzero;stroke:none"
       id="path1513"
       inkscape:connector-curvature="0" /><path
       d="m 264.9,300.194 -18.241,1.32 h -0.24 v 0.24 l 0.3,0.24 18.241,-1.32"
       style="fill:#ffffff;fill-opacity:1;fill-rule:nonzero;stroke:none"
       id="path1515"
       inkscape:connector-curvature="0" /><path
       d="m 241.319,315.675 5.1,2.28 2.581,-5.101 -5.101,-2.34"
       style="fill:#ffffff;fill-opacity:1;fill-rule:evenodd;stroke:none"
       id="path1517"
       inkscape:connector-curvature="0" /><path
       d="m 241.259,315.854 5.1,2.281 0.18,0.12 0.12,-0.18 2.581,-5.101 0.12,-0.24 -0.24,-0.119 -5.101,-2.341 -0.18,-0.06 -0.12,0.18 0.12,0.3 5.101,2.341 0.18,-0.42 -0.3,0.119 -2.581,5.101 0.42,0.24 -0.12,-0.36 -5.1,-2.281"
       style="fill:#ffffff;fill-opacity:1;fill-rule:nonzero;stroke:none"
       id="path1519"
       inkscape:connector-curvature="0" /><path
       d="m 243.719,310.394 -2.58,5.16 -0.12,0.18 0.24,0.12 0.3,-0.059 2.58,-5.161"
       style="fill:#ffffff;fill-opacity:1;fill-rule:nonzero;stroke:none"
       id="path1521"
       inkscape:connector-curvature="0" /><path
       d="m 255.48,306.794 0.12,-0.179 0.36,0.299 -0.12,0.18"
       style="fill:#231f20;fill-opacity:1;fill-rule:nonzero;stroke:none"
       id="path1523"
       inkscape:connector-curvature="0" /><path
       d="m 253.38,309.254 -0.12,0.18 0.36,0.3 0.12,-0.18"
       style="fill:#231f20;fill-opacity:1;fill-rule:nonzero;stroke:none"
       id="path1525"
       inkscape:connector-curvature="0" /><path
       d="m 255.48,306.794 0.36,0.3 -2.1,2.46 -0.36,-0.3"
       style="fill:#231f20;fill-opacity:1;fill-rule:nonzero;stroke:none"
       id="path1527"
       inkscape:connector-curvature="0" /><path
       d="m 255.54,307.154 -0.18,-0.119 0.24,-0.42 0.18,0.119"
       style="fill:#231f20;fill-opacity:1;fill-rule:nonzero;stroke:none"
       id="path1529"
       inkscape:connector-curvature="0" /><path
       d="m 258.9,309.194 0.18,0.12 0.24,-0.42 -0.18,-0.12"
       style="fill:#231f20;fill-opacity:1;fill-rule:nonzero;stroke:none"
       id="path1531"
       inkscape:connector-curvature="0" /><path
       d="m 255.54,307.154 0.24,-0.42 3.36,2.04 -0.24,0.42"
       style="fill:#231f20;fill-opacity:1;fill-rule:nonzero;stroke:none"
       id="path1533"
       inkscape:connector-curvature="0" /><path
       d="m 204.118,317.774 h 0.30031 v 5.5804 H 204.118 Z"
       style="fill:#ffffff;fill-opacity:1;fill-rule:nonzero;stroke:none"
       id="path1541"
       inkscape:connector-curvature="0" /><path
       d="m 196.378,317.774 h 7.8601 v 0.30084 h -7.8601 z"
       style="fill:#ffffff;fill-opacity:1;fill-rule:nonzero;stroke:none"
       id="path1543"
       inkscape:connector-curvature="0" /><path
       d="m 196.378,317.955 h 0.29982 v 5.5197 H 196.378 Z"
       style="fill:#ffffff;fill-opacity:1;fill-rule:nonzero;stroke:none"
       id="path1545"
       inkscape:connector-curvature="0" /><text
       transform="matrix(1,0,0,-1,265.0802,302.3547)"
       style="font-variant:normal;font-weight:normal;font-size:9.96039963px;font-family:Symbol;-inkscape-font-specification:Symbol;writing-mode:lr-tb;fill:#231f20;fill-opacity:1;fill-rule:nonzero;stroke:none"
       id="text1559"><tspan
         x="0 5.5200539"
         y="0"
         sodipodi:role="line"
         id="tspan1557">+Ω</tspan></text>
<text
       transform="matrix(1,0,0,-1,279.2419,296.65436)"
       style="font-variant:normal;font-weight:bold;font-size:9.96039963px;font-family:Helvetica;-inkscape-font-specification:Helvetica-Bold;writing-mode:lr-tb;fill:#231f20;fill-opacity:1;fill-rule:nonzero;stroke:none"
       id="text1563"><tspan
         x="0"
         y="0"
         id="tspan1561">Y</tspan></text>
<path
       d="m 274.141,311.654 h 1.32 v 0.18069 h -1.32 z"
       style="fill:#231f20;fill-opacity:1;fill-rule:nonzero;stroke:none"
       id="path1565"
       inkscape:connector-curvature="0" /><path
       d="m 275.101,311.415 -0.84,1.019 -1.081,1.321 1.621,-0.481 3.48,-1.019 1.74,-0.481 -1.74,-0.48 -3.48,-0.959 -1.621,-0.42 1.081,1.2 0.24,0.179 3.48,0.961 0.3,-0.961 h -0.3 l -3.48,1.02 0.3,0.96 0.24,-0.18 0.84,-1.019"
       style="fill:#231f20;fill-opacity:1;fill-rule:nonzero;stroke:none"
       id="path1567"
       inkscape:connector-curvature="0" /><path
       d="m 274.261,311.115 0.84,0.96 h 0.78 l 0.3,-0.36 -0.3,-0.3 -0.84,-0.96"
       style="fill:#231f20;fill-opacity:1;fill-rule:nonzero;stroke:none"
       id="path1569"
       inkscape:connector-curvature="0" /><path
       d="m 275.461,311.774 -0.84,1.021 3.48,-1.021 -3.48,-0.96"
       style="fill:#231f20;fill-opacity:1;fill-rule:evenodd;stroke:none"
       id="path1571"
       inkscape:connector-curvature="0" /><path
       d="m 268.62,311.654 h 5.5802 v 0.18069 H 268.62 Z"
       style="fill:#231f20;fill-opacity:1;fill-rule:nonzero;stroke:none"
       id="path1573"
       inkscape:connector-curvature="0" /><path
       d="m 244.799,309.615 5.101,2.279 2.58,-5.16 -5.041,-2.28"
       style="fill:#ffffff;fill-opacity:1;fill-rule:evenodd;stroke:none"
       id="path1575"
       inkscape:connector-curvature="0" /><path
       d="m 244.739,309.794 5.101,2.281 0.18,0.119 0.12,-0.18 2.58,-5.16 0.12,-0.239 -0.24,-0.121 -5.041,-2.28 -0.18,-0.06 -0.12,0.18 0.12,0.3 5.041,2.28 0.18,-0.42 -0.3,0.121 -2.58,5.159 0.42,0.24 -0.12,-0.36 -5.101,-2.279"
       style="fill:#ffffff;fill-opacity:1;fill-rule:nonzero;stroke:none"
       id="path1577"
       inkscape:connector-curvature="0" /><path
       d="m 247.259,304.334 -2.64,5.161 -0.12,0.179 0.24,0.12 0.3,-0.06 2.641,-5.16"
       style="fill:#ffffff;fill-opacity:1;fill-rule:nonzero;stroke:none"
       id="path1579"
       inkscape:connector-curvature="0" /><path
       d="m 209.458,359.056 0.12,0.18 -0.36,0.301 -0.12,-0.181"
       style="fill:#231f20;fill-opacity:1;fill-rule:nonzero;stroke:none"
       id="path1581"
       inkscape:connector-curvature="0" /><path
       d="m 206.278,355.636 -0.12,-0.18 -0.36,0.3 0.12,0.18"
       style="fill:#231f20;fill-opacity:1;fill-rule:nonzero;stroke:none"
       id="path1583"
       inkscape:connector-curvature="0" /><path
       d="m 209.458,359.056 -0.36,0.3 -3.18,-3.42 0.36,-0.3"
       style="fill:#231f20;fill-opacity:1;fill-rule:nonzero;stroke:none"
       id="path1585"
       inkscape:connector-curvature="0" /><path
       d="m 209.518,359.117 -0.12,0.18 -0.36,-0.3 0.12,-0.181"
       style="fill:#231f20;fill-opacity:1;fill-rule:nonzero;stroke:none"
       id="path1587"
       inkscape:connector-curvature="0" /><path
       d="m 212.698,355.756 0.12,-0.179 -0.36,-0.301 -0.12,0.18"
       style="fill:#231f20;fill-opacity:1;fill-rule:nonzero;stroke:none"
       id="path1589"
       inkscape:connector-curvature="0" /><path
       d="m 209.518,359.117 -0.36,-0.301 3.18,-3.36 0.36,0.3"
       style="fill:#231f20;fill-opacity:1;fill-rule:nonzero;stroke:none"
       id="path1591"
       inkscape:connector-curvature="0" /><path
       d="m 266.94,321.975 h 0.24002 v 0.48053 H 266.94 Z"
       style="fill:#231f20;fill-opacity:1;fill-rule:nonzero;stroke:none"
       id="path1593"
       inkscape:connector-curvature="0" /><path
       d="m 262.02,321.855 h 0.24002 v 0.4805 H 262.02 Z"
       style="fill:#231f20;fill-opacity:1;fill-rule:nonzero;stroke:none"
       id="path1595"
       inkscape:connector-curvature="0" /><path
       d="m 266.94,321.975 v 0.48 l -4.68,-0.12 v -0.48"
       style="fill:#231f20;fill-opacity:1;fill-rule:nonzero;stroke:none"
       id="path1597"
       inkscape:connector-curvature="0" /><path
       d="m 266.58,322.035 h 0.48001 v 0.2392 H 266.58 Z"
       style="fill:#231f20;fill-opacity:1;fill-rule:nonzero;stroke:none"
       id="path1599"
       inkscape:connector-curvature="0" /><path
       d="m 266.46,317.175 h 0.48001 v 0.2403 H 266.46 Z"
       style="fill:#231f20;fill-opacity:1;fill-rule:nonzero;stroke:none"
       id="path1601"
       inkscape:connector-curvature="0" /><path
       d="m 267.06,322.035 h -0.48 l -0.12,-4.62 h 0.48"
       style="fill:#231f20;fill-opacity:1;fill-rule:nonzero;stroke:none"
       id="path1603"
       inkscape:connector-curvature="0" /><path
       d="m 262.74,249.732 0.06,-0.24 0.48,0.12 -0.06,0.24"
       style="fill:#231f20;fill-opacity:1;fill-rule:nonzero;stroke:none"
       id="path1605"
       inkscape:connector-curvature="0" /><path
       d="m 261.42,254.172 -0.06,0.24 0.48,0.12 0.06,-0.24"
       style="fill:#231f20;fill-opacity:1;fill-rule:nonzero;stroke:none"
       id="path1607"
       inkscape:connector-curvature="0" /><path
       d="m 262.74,249.732 0.48,0.12 -1.32,4.44 -0.48,-0.12"
       style="fill:#231f20;fill-opacity:1;fill-rule:nonzero;stroke:none"
       id="path1609"
       inkscape:connector-curvature="0" /><path
       d="m 262.86,249.612 0.24,0.06 -0.12,0.48 -0.24,-0.06"
       style="fill:#231f20;fill-opacity:1;fill-rule:nonzero;stroke:none"
       id="path1611"
       inkscape:connector-curvature="0" /><path
       d="m 258.36,248.532 -0.24,-0.06 -0.12,0.48 0.24,0.06"
       style="fill:#231f20;fill-opacity:1;fill-rule:nonzero;stroke:none"
       id="path1613"
       inkscape:connector-curvature="0" /><path
       d="m 262.86,249.612 -0.12,0.48 -4.5,-1.08 0.12,-0.48"
       style="fill:#231f20;fill-opacity:1;fill-rule:nonzero;stroke:none"
       id="path1615"
       inkscape:connector-curvature="0" /></g></svg>