<?xml version="1.0" encoding="UTF-8" standalone="no"?>
<!DOCTYPE svg PUBLIC "-//W3C//DTD SVG 1.1//EN"
 "http://www.w3.org/Graphics/SVG/1.1/DTD/svg11.dtd">
<!-- Generated by graphviz version 2.40.1 (20161225.0304)
 -->
<!-- Title: %3 Pages: 1 -->
<svg width="3131pt" height="417pt"
 viewBox="0.00 0.00 3131.07 417.00" xmlns="http://www.w3.org/2000/svg" xmlns:xlink="http://www.w3.org/1999/xlink">
<g id="graph0" class="graph" transform="scale(1 1) rotate(0) translate(4 413)">
<title>%3</title>
<polygon fill="#ffffff" stroke="transparent" points="-4,4 -4,-413 3127.0656,-413 3127.0656,4 -4,4"/>
<!-- 0 -->
<g id="node1" class="node">
<title>0</title>
<polygon fill="none" stroke="#000000" points="1743.5,-409 1644.5,-409 1644.5,-356 1743.5,-356 1743.5,-409"/>
<text text-anchor="middle" x="1694" y="-393.8" font-family="monospace" font-size="14.00" fill="#000000">main</text>
<text text-anchor="middle" x="1694" y="-378.8" font-family="monospace" font-size="14.00" fill="#000000">max = 1152</text>
<text text-anchor="middle" x="1694" y="-363.8" font-family="monospace" font-size="14.00" fill="#000000">local = 0</text>
</g>
<!-- 1 -->
<g id="node2" class="node">
<title>1</title>
<polygon fill="none" stroke="#000000" points="1584,-320 1452,-320 1452,-267 1584,-267 1584,-320"/>
<text text-anchor="middle" x="1518" y="-304.8" font-family="monospace" font-size="14.00" fill="#000000">sixlowpan::run</text>
<text text-anchor="middle" x="1518" y="-289.8" font-family="monospace" font-size="14.00" fill="#000000">max = 1152</text>
<text text-anchor="middle" x="1518" y="-274.8" font-family="monospace" font-size="14.00" fill="#000000">local = 1072</text>
</g>
<!-- 0&#45;&gt;1 -->
<g id="edge1" class="edge">
<title>0&#45;&gt;1</title>
<path fill="none" stroke="#000000" d="M1644.0362,-357.2342C1624.0291,-347.117 1600.7739,-335.3572 1579.7263,-324.7139"/>
<polygon fill="#000000" stroke="#000000" points="1581.0484,-321.4604 1570.5451,-320.0711 1577.8895,-327.7072 1581.0484,-321.4604"/>
</g>
<!-- 2 -->
<g id="node3" class="node">
<title>2</title>
<polygon fill="none" stroke="#000000" points="2138,-320 1602,-320 1602,-267 2138,-267 2138,-320"/>
<text text-anchor="middle" x="1870" y="-304.8" font-family="monospace" font-size="14.00" fill="#000000">&lt;mrf24j40::Mrf24j40&lt;SPI, NCS, INT, RESET&gt;&gt;::long_write_register</text>
<text text-anchor="middle" x="1870" y="-289.8" font-family="monospace" font-size="14.00" fill="#000000">max = 8</text>
<text text-anchor="middle" x="1870" y="-274.8" font-family="monospace" font-size="14.00" fill="#000000">local = 8</text>
</g>
<!-- 0&#45;&gt;2 -->
<g id="edge2" class="edge">
<title>0&#45;&gt;2</title>
<path fill="none" stroke="#000000" d="M1743.9638,-357.2342C1763.9709,-347.117 1787.2261,-335.3572 1808.2737,-324.7139"/>
<polygon fill="#000000" stroke="#000000" points="1810.1105,-327.7072 1817.4549,-320.0711 1806.9516,-321.4604 1810.1105,-327.7072"/>
</g>
<!-- 3 -->
<g id="node4" class="node">
<title>3</title>
<polygon fill="none" stroke="#000000" points="132,-231 0,-231 0,-178 132,-178 132,-231"/>
<text text-anchor="middle" x="66" y="-215.8" font-family="monospace" font-size="14.00" fill="#000000">__aeabi_memcpy</text>
<text text-anchor="middle" x="66" y="-200.8" font-family="monospace" font-size="14.00" fill="#000000">max = 16</text>
<text text-anchor="middle" x="66" y="-185.8" font-family="monospace" font-size="14.00" fill="#000000">local = 16</text>
</g>
<!-- 1&#45;&gt;3 -->
<g id="edge3" class="edge">
<title>1&#45;&gt;3</title>
<path fill="none" stroke="#000000" d="M1451.6798,-293.0661C1215.6544,-291.1261 416.4274,-281.0672 142.2934,-230.9675"/>
<polygon fill="#000000" stroke="#000000" points="142.849,-227.5106 132.3729,-229.0917 141.5485,-234.3888 142.849,-227.5106"/>
</g>
<!-- 4 -->
<g id="node5" class="node">
<title>4</title>
<polygon fill="none" stroke="#000000" points="290,-231 150,-231 150,-178 290,-178 290,-231"/>
<text text-anchor="middle" x="220" y="-215.8" font-family="monospace" font-size="14.00" fill="#000000">__aeabi_memclr4</text>
<text text-anchor="middle" x="220" y="-200.8" font-family="monospace" font-size="14.00" fill="#000000">max = 16</text>
<text text-anchor="middle" x="220" y="-185.8" font-family="monospace" font-size="14.00" fill="#000000">local = 0</text>
</g>
<!-- 1&#45;&gt;4 -->
<g id="edge4" class="edge">
<title>1&#45;&gt;4</title>
<path fill="none" stroke="#000000" d="M1451.7372,-292.3041C1231.7946,-287.9875 527.2659,-271.2853 304,-231 302.7303,-230.7709 301.453,-230.5281 300.17,-230.2728"/>
<polygon fill="#000000" stroke="#000000" points="300.7729,-226.8217 290.2541,-228.0889 299.2672,-233.6579 300.7729,-226.8217"/>
</g>
<!-- 5 -->
<g id="node6" class="node">
<title>5</title>
<polygon fill="none" stroke="#000000" points="1867,-231 1421,-231 1421,-178 1867,-178 1867,-231"/>
<text text-anchor="middle" x="1644" y="-215.8" font-family="monospace" font-size="14.00" fill="#000000">&lt;mrf24j40::Mrf24j40&lt;SPI, NCS, INT, RESET&gt;&gt;::transmit</text>
<text text-anchor="middle" x="1644" y="-200.8" font-family="monospace" font-size="14.00" fill="#000000">max = 24</text>
<text text-anchor="middle" x="1644" y="-185.8" font-family="monospace" font-size="14.00" fill="#000000">local = 24</text>
</g>
<!-- 1&#45;&gt;5 -->
<g id="edge5" class="edge">
<title>1&#45;&gt;5</title>
<path fill="none" stroke="#000000" d="M1555.8042,-266.7971C1569.0106,-257.4687 1583.9857,-246.8911 1597.7985,-237.1344"/>
<polygon fill="#000000" stroke="#000000" points="1600.0739,-239.8123 1606.2225,-231.1841 1596.0353,-234.0947 1600.0739,-239.8123"/>
</g>
<!-- 6 -->
<g id="node7" class="node">
<title>6</title>
<polygon fill="none" stroke="#000000" points="940.5,-142 701.5,-142 701.5,-89 940.5,-89 940.5,-142"/>
<text text-anchor="middle" x="821" y="-126.8" font-family="monospace" font-size="14.00" fill="#000000">core::result::unwrap_failed</text>
<text text-anchor="middle" x="821" y="-111.8" font-family="monospace" font-size="14.00" fill="#000000">max = 0</text>
<text text-anchor="middle" x="821" y="-96.8" font-family="monospace" font-size="14.00" fill="#000000">local = 0</text>
</g>
<!-- 1&#45;&gt;6 -->
<g id="edge6" class="edge">
<title>1&#45;&gt;6</title>
<path fill="none" stroke="#000000" d="M1451.884,-292.4888C1208.6515,-288.4508 375.5915,-271.6878 337,-231 320.7898,-213.9093 321.4468,-195.6907 337,-178 360.1609,-151.656 555.8988,-133.241 691.2422,-123.5208"/>
<polygon fill="#000000" stroke="#000000" points="691.5592,-127.0072 701.286,-122.8074 691.0631,-120.0248 691.5592,-127.0072"/>
</g>
<!-- 7 -->
<g id="node8" class="node">
<title>7</title>
<polygon fill="none" stroke="#000000" points="892.5,-231 661.5,-231 661.5,-178 892.5,-178 892.5,-231"/>
<text text-anchor="middle" x="777" y="-215.8" font-family="monospace" font-size="14.00" fill="#000000">jnet::coap::Option::number</text>
<text text-anchor="middle" x="777" y="-200.8" font-family="monospace" font-size="14.00" fill="#000000">max = 0</text>
<text text-anchor="middle" x="777" y="-185.8" font-family="monospace" font-size="14.00" fill="#000000">local = 0</text>
</g>
<!-- 1&#45;&gt;7 -->
<g id="edge7" class="edge">
<title>1&#45;&gt;7</title>
<path fill="none" stroke="#000000" d="M1451.6094,-289.122C1340.206,-281.2583 1108.4901,-262.6872 902.7786,-231.0503"/>
<polygon fill="#000000" stroke="#000000" points="903.1117,-227.5602 892.6932,-229.4855 902.0383,-234.4774 903.1117,-227.5602"/>
</g>
<!-- 8 -->
<g id="node9" class="node">
<title>8</title>
<polygon fill="none" stroke="#000000" points="1365,-231 911,-231 911,-178 1365,-178 1365,-231"/>
<text text-anchor="middle" x="1138" y="-215.8" font-family="monospace" font-size="14.00" fill="#000000">&lt;jnet::sixlowpan::nhc::UdpPacket&lt;B&gt;&gt;::update_checksum</text>
<text text-anchor="middle" x="1138" y="-200.8" font-family="monospace" font-size="14.00" fill="#000000">max = 60</text>
<text text-anchor="middle" x="1138" y="-185.8" font-family="monospace" font-size="14.00" fill="#000000">local = 60</text>
</g>
<!-- 1&#45;&gt;8 -->
<g id="edge8" class="edge">
<title>1&#45;&gt;8</title>
<path fill="none" stroke="#000000" d="M1451.8091,-277.9974C1399.4307,-265.7298 1324.8178,-248.2547 1261.4876,-233.4221"/>
<polygon fill="#000000" stroke="#000000" points="1261.9602,-229.9381 1251.4255,-231.0654 1260.3638,-236.7537 1261.9602,-229.9381"/>
</g>
<!-- 9 -->
<g id="node10" class="node">
<title>9</title>
<polygon fill="none" stroke="#000000" points="2327,-231 1923,-231 1923,-178 2327,-178 2327,-231"/>
<text text-anchor="middle" x="2125" y="-215.8" font-family="monospace" font-size="14.00" fill="#000000">&lt;heapless::indexmap::IndexMap&lt;K, V, N, S&gt;&gt;::get</text>
<text text-anchor="middle" x="2125" y="-200.8" font-family="monospace" font-size="14.00" fill="#000000">max = 48</text>
<text text-anchor="middle" x="2125" y="-185.8" font-family="monospace" font-size="14.00" fill="#000000">local = 32</text>
</g>
<!-- 1&#45;&gt;9 -->
<g id="edge9" class="edge">
<title>1&#45;&gt;9</title>
<path fill="none" stroke="#000000" d="M1584.0129,-269.2639C1587.0339,-268.4432 1590.0395,-267.6824 1593,-267 1730.7413,-235.2514 1768.626,-247.6066 1909,-231 1910.2927,-230.8471 1911.5897,-230.6935 1912.8906,-230.5392"/>
<polygon fill="#000000" stroke="#000000" points="1913.42,-234.001 1922.9368,-229.3449 1912.5936,-227.05 1913.42,-234.001"/>
</g>
<!-- 10 -->
<g id="node11" class="node">
<title>10</title>
<polygon fill="none" stroke="#000000" points="1521,-142 1323,-142 1323,-89 1521,-89 1521,-142"/>
<text text-anchor="middle" x="1422" y="-126.8" font-family="monospace" font-size="14.00" fill="#000000">core::panicking::panic</text>
<text text-anchor="middle" x="1422" y="-111.8" font-family="monospace" font-size="14.00" fill="#000000">max = 0</text>
<text text-anchor="middle" x="1422" y="-96.8" font-family="monospace" font-size="14.00" fill="#000000">local = 0</text>
</g>
<!-- 1&#45;&gt;10 -->
<g id="edge10" class="edge">
<title>1&#45;&gt;10</title>
<path fill="none" stroke="#000000" d="M1451.9067,-268.526C1436.0662,-259.241 1421.1134,-246.953 1412,-231 1398.3723,-207.1446 1402.1203,-175.8915 1408.5889,-151.9118"/>
<polygon fill="#000000" stroke="#000000" points="1412.0042,-152.705 1411.485,-142.1229 1405.2918,-150.7191 1412.0042,-152.705"/>
</g>
<!-- 11 -->
<g id="node12" class="node">
<title>11</title>
<polygon fill="none" stroke="#000000" points="2683,-231 2345,-231 2345,-178 2683,-178 2683,-231"/>
<text text-anchor="middle" x="2514" y="-215.8" font-family="monospace" font-size="14.00" fill="#000000">&lt;jnet::sixlowpan::iphc::Packet&lt;B&gt;&gt;::new</text>
<text text-anchor="middle" x="2514" y="-200.8" font-family="monospace" font-size="14.00" fill="#000000">max = 80</text>
<text text-anchor="middle" x="2514" y="-185.8" font-family="monospace" font-size="14.00" fill="#000000">local = 64</text>
</g>
<!-- 1&#45;&gt;11 -->
<g id="edge11" class="edge">
<title>1&#45;&gt;11</title>
<path fill="none" stroke="#000000" d="M1584.375,-268.9193C1587.2709,-268.2049 1590.1544,-267.5592 1593,-267 1914.0795,-203.9079 2005.1184,-262.1616 2334.615,-231.0797"/>
<polygon fill="#000000" stroke="#000000" points="2335.3154,-234.5284 2344.9332,-230.0846 2334.6434,-227.5608 2335.3154,-234.5284"/>
</g>
<!-- 12 -->
<g id="node13" class="node">
<title>12</title>
<polygon fill="none" stroke="#000000" points="2764.5,-142 2475.5,-142 2475.5,-89 2764.5,-89 2764.5,-142"/>
<text text-anchor="middle" x="2620" y="-126.8" font-family="monospace" font-size="14.00" fill="#000000">core::slice::slice_index_len_fail</text>
<text text-anchor="middle" x="2620" y="-111.8" font-family="monospace" font-size="14.00" fill="#000000">max = 0</text>
<text text-anchor="middle" x="2620" y="-96.8" font-family="monospace" font-size="14.00" fill="#000000">local = 0</text>
</g>
<!-- 1&#45;&gt;12 -->
<g id="edge12" class="edge">
<title>1&#45;&gt;12</title>
<path fill="none" stroke="#000000" d="M1584.3581,-268.8303C1587.2586,-268.1403 1590.1477,-267.524 1593,-267 1675.9687,-251.7585 3052.0619,-291.3524 3111,-231 3127.4577,-214.1474 3126.5692,-195.6767 3111,-178 3088.7841,-152.7769 2910.3208,-135.0395 2774.8959,-125.0592"/>
<polygon fill="#000000" stroke="#000000" points="2775.0408,-121.5606 2764.8129,-124.3245 2774.532,-128.5421 2775.0408,-121.5606"/>
</g>
<!-- 13 -->
<g id="node14" class="node">
<title>13</title>
<polygon fill="none" stroke="#000000" points="643.5,-231 346.5,-231 346.5,-178 643.5,-178 643.5,-231"/>
<text text-anchor="middle" x="495" y="-215.8" font-family="monospace" font-size="14.00" fill="#000000">&lt;jnet::ieee802154::Frame&lt;B&gt;&gt;::data</text>
<text text-anchor="middle" x="495" y="-200.8" font-family="monospace" font-size="14.00" fill="#000000">max = 40</text>
<text text-anchor="middle" x="495" y="-185.8" font-family="monospace" font-size="14.00" fill="#000000">local = 40</text>
</g>
<!-- 1&#45;&gt;13 -->
<g id="edge13" class="edge">
<title>1&#45;&gt;13</title>
<path fill="none" stroke="#000000" d="M1451.795,-290.8736C1308.1989,-284.711 957.2626,-267.133 654.0114,-231.1995"/>
<polygon fill="#000000" stroke="#000000" points="654.0417,-227.6783 643.6972,-229.968 653.2117,-234.6289 654.0417,-227.6783"/>
</g>
<!-- 14 -->
<g id="node15" class="node">
<title>14</title>
<polygon fill="none" stroke="#000000" points="2457.5,-142 2358.5,-142 2358.5,-89 2457.5,-89 2457.5,-142"/>
<text text-anchor="middle" x="2408" y="-126.8" font-family="monospace" font-size="14.00" fill="#000000">memcmp</text>
<text text-anchor="middle" x="2408" y="-111.8" font-family="monospace" font-size="14.00" fill="#000000">max = 16</text>
<text text-anchor="middle" x="2408" y="-96.8" font-family="monospace" font-size="14.00" fill="#000000">local = 16</text>
</g>
<!-- 1&#45;&gt;14 -->
<g id="edge14" class="edge">
<title>1&#45;&gt;14</title>
<path fill="none" stroke="#000000" d="M1584.3642,-268.8629C1587.263,-268.164 1590.1501,-267.5369 1593,-267 1653.0325,-255.6914 2649.517,-274.8974 2692,-231 2708.3814,-214.0732 2707.284,-195.9238 2692,-178 2660.8775,-141.5021 2530.3561,-154.8575 2467.3983,-141.3724"/>
<polygon fill="#000000" stroke="#000000" points="2468.0955,-137.9382 2457.5406,-138.8575 2466.365,-144.721 2468.0955,-137.9382"/>
</g>
<!-- 15 -->
<g id="node16" class="node">
<title>15</title>
<polygon fill="none" stroke="#000000" points="3101.5,-231 2738.5,-231 2738.5,-178 3101.5,-178 3101.5,-231"/>
<text text-anchor="middle" x="2920" y="-215.8" font-family="monospace" font-size="14.00" fill="#000000">&lt;jnet::ieee802154::Frame&lt;B&gt;&gt;::get_src_addr</text>
<text text-anchor="middle" x="2920" y="-200.8" font-family="monospace" font-size="14.00" fill="#000000">max = 8</text>
<text text-anchor="middle" x="2920" y="-185.8" font-family="monospace" font-size="14.00" fill="#000000">local = 8</text>
</g>
<!-- 1&#45;&gt;15 -->
<g id="edge15" class="edge">
<title>1&#45;&gt;15</title>
<path fill="none" stroke="#000000" d="M1584.3635,-268.8594C1587.2626,-268.1615 1590.1498,-267.5355 1593,-267 1840.3549,-220.5266 2474.1927,-251.9737 2725,-231 2726.1065,-230.9075 2727.2164,-230.813 2728.3293,-230.7167"/>
<polygon fill="#000000" stroke="#000000" points="2728.7783,-234.1904 2738.4213,-229.8015 2728.146,-227.219 2728.7783,-234.1904"/>
</g>
<!-- 16 -->
<g id="node17" class="node">
<title>16</title>
<polygon fill="none" stroke="#000000" points="2105,-142 1569,-142 1569,-89 2105,-89 2105,-142"/>
<text text-anchor="middle" x="1837" y="-126.8" font-family="monospace" font-size="14.00" fill="#000000">&lt;mrf24j40::Mrf24j40&lt;SPI, NCS, INT, RESET&gt;&gt;::short_read_register</text>
<text text-anchor="middle" x="1837" y="-111.8" font-family="monospace" font-size="14.00" fill="#000000">max = 0</text>
<text text-anchor="middle" x="1837" y="-96.8" font-family="monospace" font-size="14.00" fill="#000000">local = 0</text>
</g>
<!-- 1&#45;&gt;16 -->
<g id="edge16" class="edge">
<title>1&#45;&gt;16</title>
<path fill="none" stroke="#000000" d="M1584.0243,-269.3124C1587.0422,-268.4786 1590.044,-267.7018 1593,-267 1654.6814,-252.3568 1834.0963,-278.5719 1876,-231 1895.772,-208.5535 1881.8245,-175.6869 1865.3636,-150.7478"/>
<polygon fill="#000000" stroke="#000000" points="1868.0666,-148.504 1859.4874,-142.2872 1862.3172,-152.4972 1868.0666,-148.504"/>
</g>
<!-- 18 -->
<g id="node19" class="node">
<title>18</title>
<polygon fill="none" stroke="#000000" points="290,-142 150,-142 150,-89 290,-89 290,-142"/>
<text text-anchor="middle" x="220" y="-126.8" font-family="monospace" font-size="14.00" fill="#000000">__aeabi_memset4</text>
<text text-anchor="middle" x="220" y="-111.8" font-family="monospace" font-size="14.00" fill="#000000">max = 16</text>
<text text-anchor="middle" x="220" y="-96.8" font-family="monospace" font-size="14.00" fill="#000000">local = 8</text>
</g>
<!-- 4&#45;&gt;18 -->
<g id="edge27" class="edge">
<title>4&#45;&gt;18</title>
<path fill="none" stroke="#000000" d="M220,-177.7971C220,-169.7887 220,-160.8597 220,-152.3198"/>
<polygon fill="#000000" stroke="#000000" points="223.5001,-152.1841 220,-142.1841 216.5001,-152.1841 223.5001,-152.1841"/>
</g>
<!-- 5&#45;&gt;10 -->
<g id="edge26" class="edge">
<title>5&#45;&gt;10</title>
<path fill="none" stroke="#000000" d="M1577.6934,-177.9176C1552.5456,-167.8358 1523.7235,-156.2811 1497.7687,-145.8758"/>
<polygon fill="#000000" stroke="#000000" points="1498.9326,-142.5716 1488.3483,-142.0991 1496.3278,-149.0689 1498.9326,-142.5716"/>
</g>
<!-- 5&#45;&gt;16 -->
<g id="edge25" class="edge">
<title>5&#45;&gt;16</title>
<path fill="none" stroke="#000000" d="M1701.6449,-177.9176C1723.22,-167.9685 1747.9058,-156.5849 1770.237,-146.2871"/>
<polygon fill="#000000" stroke="#000000" points="1771.7035,-149.4651 1779.3188,-142.0991 1768.7722,-143.1084 1771.7035,-149.4651"/>
</g>
<!-- 17 -->
<g id="node18" class="node">
<title>17</title>
<polygon fill="none" stroke="#000000" points="1537.5,-53 1306.5,-53 1306.5,0 1537.5,0 1537.5,-53"/>
<text text-anchor="middle" x="1422" y="-37.8" font-family="monospace" font-size="14.00" fill="#000000">core::panicking::panic_fmt</text>
<text text-anchor="middle" x="1422" y="-22.8" font-family="monospace" font-size="14.00" fill="#000000">max = 0</text>
<text text-anchor="middle" x="1422" y="-7.8" font-family="monospace" font-size="14.00" fill="#000000">local = 0</text>
</g>
<!-- 6&#45;&gt;17 -->
<g id="edge24" class="edge">
<title>6&#45;&gt;17</title>
<path fill="none" stroke="#000000" d="M940.8167,-97.7568C1043.8212,-82.5032 1191.8767,-60.5782 1296.4968,-45.0853"/>
<polygon fill="#000000" stroke="#000000" points="1297.1034,-48.5338 1306.4828,-43.6065 1296.0779,-41.6093 1297.1034,-48.5338"/>
</g>
<!-- 9&#45;&gt;14 -->
<g id="edge23" class="edge">
<title>9&#45;&gt;14</title>
<path fill="none" stroke="#000000" d="M2209.526,-177.9176C2254.3648,-163.8164 2308.3667,-146.8335 2348.7139,-134.1447"/>
<polygon fill="#000000" stroke="#000000" points="2349.9135,-137.4366 2358.4028,-131.0977 2347.8134,-130.759 2349.9135,-137.4366"/>
</g>
<!-- 10&#45;&gt;17 -->
<g id="edge22" class="edge">
<title>10&#45;&gt;17</title>
<path fill="none" stroke="#000000" d="M1422,-88.7971C1422,-80.7887 1422,-71.8597 1422,-63.3198"/>
<polygon fill="#000000" stroke="#000000" points="1425.5001,-63.1841 1422,-53.1841 1418.5001,-63.1841 1425.5001,-63.1841"/>
</g>
<!-- 11&#45;&gt;10 -->
<g id="edge21" class="edge">
<title>11&#45;&gt;10</title>
<path fill="none" stroke="#000000" d="M2344.9341,-178.9069C2341.9342,-178.5905 2338.9541,-178.2877 2336,-178 1992.3657,-144.5366 1902.8573,-182.6596 1560,-142 1550.6502,-140.8912 1540.983,-139.5144 1531.3067,-137.9757"/>
<polygon fill="#000000" stroke="#000000" points="1531.6683,-134.4882 1521.2326,-136.318 1530.5316,-141.3953 1531.6683,-134.4882"/>
</g>
<!-- 11&#45;&gt;12 -->
<g id="edge19" class="edge">
<title>11&#45;&gt;12</title>
<path fill="none" stroke="#000000" d="M2545.8035,-177.7971C2556.7041,-168.6447 2569.0369,-158.2898 2580.4733,-148.6875"/>
<polygon fill="#000000" stroke="#000000" points="2582.811,-151.2948 2588.219,-142.1841 2578.3099,-145.9339 2582.811,-151.2948"/>
</g>
<!-- 11&#45;&gt;14 -->
<g id="edge20" class="edge">
<title>11&#45;&gt;14</title>
<path fill="none" stroke="#000000" d="M2482.1965,-177.7971C2471.2959,-168.6447 2458.9631,-158.2898 2447.5267,-148.6875"/>
<polygon fill="#000000" stroke="#000000" points="2449.6901,-145.9339 2439.781,-142.1841 2445.189,-151.2948 2449.6901,-145.9339"/>
</g>
<!-- 12&#45;&gt;17 -->
<g id="edge18" class="edge">
<title>12&#45;&gt;17</title>
<path fill="none" stroke="#000000" d="M2475.1002,-89.9797C2472.3799,-89.6381 2469.6778,-89.311 2467,-89 2136.5011,-50.6168 1744.2976,-35.1687 1547.6492,-29.4819"/>
<polygon fill="#000000" stroke="#000000" points="1547.6664,-25.981 1537.5705,-29.194 1547.4665,-32.9782 1547.6664,-25.981"/>
</g>
<!-- 13&#45;&gt;10 -->
<g id="edge17" class="edge">
<title>13&#45;&gt;10</title>
<path fill="none" stroke="#000000" d="M643.7014,-179.066C646.4888,-178.698 649.257,-178.3422 652,-178 886.6668,-148.7268 1163.3584,-130.1285 1312.8594,-121.3872"/>
<polygon fill="#000000" stroke="#000000" points="1313.1811,-124.8745 1322.9612,-120.8003 1312.775,-117.8863 1313.1811,-124.8745"/>
</g>
<!-- 19 -->
<g id="node20" class="node">
<title>19</title>
<polygon fill="none" stroke="#000000" points="286,-53 154,-53 154,0 286,0 286,-53"/>
<text text-anchor="middle" x="220" y="-37.8" font-family="monospace" font-size="14.00" fill="#000000">__aeabi_memset</text>
<text text-anchor="middle" x="220" y="-22.8" font-family="monospace" font-size="14.00" fill="#000000">max = 8</text>
<text text-anchor="middle" x="220" y="-7.8" font-family="monospace" font-size="14.00" fill="#000000">local = 8</text>
</g>
<!-- 18&#45;&gt;19 -->
<g id="edge28" class="edge">
<title>18&#45;&gt;19</title>
<path fill="none" stroke="#000000" d="M220,-88.7971C220,-80.7887 220,-71.8597 220,-63.3198"/>
<polygon fill="#000000" stroke="#000000" points="223.5001,-63.1841 220,-53.1841 216.5001,-63.1841 223.5001,-63.1841"/>
</g>
</g>
</svg>
