<?xml version="1.0" encoding="UTF-8" standalone="no"?>
<!DOCTYPE svg PUBLIC "-//W3C//DTD SVG 1.1//EN"
 "http://www.w3.org/Graphics/SVG/1.1/DTD/svg11.dtd">
<!-- Generated by graphviz version 2.40.1 (20161225.0304)
 -->
<!-- Title: %3 Pages: 1 -->
<svg width="124pt" height="239pt"
 viewBox="0.00 0.00 124.00 239.00" xmlns="http://www.w3.org/2000/svg" xmlns:xlink="http://www.w3.org/1999/xlink">
<g id="graph0" class="graph" transform="scale(1 1) rotate(0) translate(4 235)">
<title>%3</title>
<polygon fill="#ffffff" stroke="transparent" points="-4,4 -4,-235 120,-235 120,4 -4,4"/>
<!-- 0 -->
<g id="node1" class="node">
<title>0</title>
<polygon fill="none" stroke="#000000" points="103.5,-231 12.5,-231 12.5,-178 103.5,-178 103.5,-231"/>
<text text-anchor="middle" x="58" y="-215.8" font-family="monospace" font-size="14.00" fill="#000000">main</text>
<text text-anchor="middle" x="58" y="-200.8" font-family="monospace" font-size="14.00" fill="#000000">max = 16</text>
<text text-anchor="middle" x="58" y="-185.8" font-family="monospace" font-size="14.00" fill="#000000">local = 0</text>
</g>
<!-- 1 -->
<g id="node2" class="node">
<title>1</title>
<polygon fill="none" stroke="#000000" points="116,-142 0,-142 0,-89 116,-89 116,-142"/>
<text text-anchor="middle" x="58" y="-126.8" font-family="monospace" font-size="14.00" fill="#000000">__aeabi_fmul</text>
<text text-anchor="middle" x="58" y="-111.8" font-family="monospace" font-size="14.00" fill="#000000">max = 16</text>
<text text-anchor="middle" x="58" y="-96.8" font-family="monospace" font-size="14.00" fill="#000000">local = 0</text>
</g>
<!-- 0&#45;&gt;1 -->
<g id="edge1" class="edge">
<title>0&#45;&gt;1</title>
<path fill="none" stroke="#000000" d="M58,-177.7971C58,-169.7887 58,-160.8597 58,-152.3198"/>
<polygon fill="#000000" stroke="#000000" points="61.5001,-152.1841 58,-142.1841 54.5001,-152.1841 61.5001,-152.1841"/>
</g>
<!-- 2 -->
<g id="node3" class="node">
<title>2</title>
<polygon fill="none" stroke="#000000" points="107.5,-53 8.5,-53 8.5,0 107.5,0 107.5,-53"/>
<text text-anchor="middle" x="58" y="-37.8" font-family="monospace" font-size="14.00" fill="#000000">__mulsf3</text>
<text text-anchor="middle" x="58" y="-22.8" font-family="monospace" font-size="14.00" fill="#000000">max = 16</text>
<text text-anchor="middle" x="58" y="-7.8" font-family="monospace" font-size="14.00" fill="#000000">local = 16</text>
</g>
<!-- 1&#45;&gt;2 -->
<g id="edge2" class="edge">
<title>1&#45;&gt;2</title>
<path fill="none" stroke="#000000" d="M58,-88.7971C58,-80.7887 58,-71.8597 58,-63.3198"/>
<polygon fill="#000000" stroke="#000000" points="61.5001,-63.1841 58,-53.1841 54.5001,-63.1841 61.5001,-63.1841"/>
</g>
</g>
</svg>
