<?xml version="1.0" encoding="UTF-8" standalone="no"?>
<!DOCTYPE svg PUBLIC "-//W3C//DTD SVG 1.1//EN"
 "http://www.w3.org/Graphics/SVG/1.1/DTD/svg11.dtd">
<!-- Generated by graphviz version 2.40.1 (20161225.0304)
 -->
<!-- Title: %3 Pages: 1 -->
<svg width="208pt" height="239pt"
 viewBox="0.00 0.00 208.00 239.00" xmlns="http://www.w3.org/2000/svg" xmlns:xlink="http://www.w3.org/1999/xlink">
<g id="graph0" class="graph" transform="scale(1 1) rotate(0) translate(4 235)">
<title>%3</title>
<polygon fill="#ffffff" stroke="transparent" points="-4,4 -4,-235 204,-235 204,4 -4,4"/>
<!-- 0 -->
<g id="node1" class="node">
<title>0</title>
<polygon fill="none" stroke="#000000" points="145,-231 54,-231 54,-178 145,-178 145,-231"/>
<text text-anchor="middle" x="99.5" y="-215.8" font-family="monospace" font-size="14.00" fill="#000000">main</text>
<text text-anchor="middle" x="99.5" y="-200.8" font-family="monospace" font-size="14.00" fill="#000000">max = 8</text>
<text text-anchor="middle" x="99.5" y="-185.8" font-family="monospace" font-size="14.00" fill="#000000">local = 0</text>
</g>
<!-- 1 -->
<g id="node2" class="node">
<title>1</title>
<polygon fill="none" stroke="#000000" stroke-dasharray="5,2" points="145,-142 54,-142 54,-89 145,-89 145,-142"/>
<text text-anchor="middle" x="99.5" y="-126.8" font-family="monospace" font-size="14.00" fill="#000000">i1 ()*</text>
<text text-anchor="middle" x="99.5" y="-111.8" font-family="monospace" font-size="14.00" fill="#000000">max = 8</text>
<text text-anchor="middle" x="99.5" y="-96.8" font-family="monospace" font-size="14.00" fill="#000000">local = 0</text>
</g>
<!-- 0&#45;&gt;1 -->
<g id="edge1" class="edge">
<title>0&#45;&gt;1</title>
<path fill="none" stroke="#000000" d="M99.5,-177.7971C99.5,-169.7887 99.5,-160.8597 99.5,-152.3198"/>
<polygon fill="#000000" stroke="#000000" points="103.0001,-152.1841 99.5,-142.1841 96.0001,-152.1841 103.0001,-152.1841"/>
</g>
<!-- 2 -->
<g id="node3" class="node">
<title>2</title>
<polygon fill="none" stroke="#000000" points="91,-53 0,-53 0,0 91,0 91,-53"/>
<text text-anchor="middle" x="45.5" y="-37.8" font-family="monospace" font-size="14.00" fill="#000000">app::foo</text>
<text text-anchor="middle" x="45.5" y="-22.8" font-family="monospace" font-size="14.00" fill="#000000">max = 0</text>
<text text-anchor="middle" x="45.5" y="-7.8" font-family="monospace" font-size="14.00" fill="#000000">local = 0</text>
</g>
<!-- 1&#45;&gt;2 -->
<g id="edge2" class="edge">
<title>1&#45;&gt;2</title>
<path fill="none" stroke="#000000" d="M83.2982,-88.7971C78.1723,-80.3487 72.4246,-70.8757 66.9883,-61.9159"/>
<polygon fill="#000000" stroke="#000000" points="69.87,-59.9179 61.6903,-53.1841 63.8854,-63.5491 69.87,-59.9179"/>
</g>
<!-- 3 -->
<g id="node4" class="node">
<title>3</title>
<polygon fill="none" stroke="#000000" points="200,-53 109,-53 109,0 200,0 200,-53"/>
<text text-anchor="middle" x="154.5" y="-37.8" font-family="monospace" font-size="14.00" fill="#000000">app::bar</text>
<text text-anchor="middle" x="154.5" y="-22.8" font-family="monospace" font-size="14.00" fill="#000000">max = 8</text>
<text text-anchor="middle" x="154.5" y="-7.8" font-family="monospace" font-size="14.00" fill="#000000">local = 8</text>
</g>
<!-- 1&#45;&gt;3 -->
<g id="edge3" class="edge">
<title>1&#45;&gt;3</title>
<path fill="none" stroke="#000000" d="M116.0018,-88.7971C121.2227,-80.3487 127.0768,-70.8757 132.6138,-61.9159"/>
<polygon fill="#000000" stroke="#000000" points="135.7302,-63.5308 138.0098,-53.1841 129.7755,-59.8509 135.7302,-63.5308"/>
</g>
</g>
</svg>
