<?xml version="1.0" encoding="UTF-8" standalone="no"?>
<!DOCTYPE svg PUBLIC "-//W3C//DTD SVG 1.1//EN"
 "http://www.w3.org/Graphics/SVG/1.1/DTD/svg11.dtd">
<!-- Generated by graphviz version 2.40.1 (20161225.0304)
 -->
<!-- Title: %3 Pages: 1 -->
<svg width="148pt" height="328pt"
 viewBox="0.00 0.00 148.00 328.00" xmlns="http://www.w3.org/2000/svg" xmlns:xlink="http://www.w3.org/1999/xlink">
<g id="graph0" class="graph" transform="scale(1 1) rotate(0) translate(4 324)">
<title>%3</title>
<polygon fill="#ffffff" stroke="transparent" points="-4,4 -4,-324 144,-324 144,4 -4,4"/>
<!-- 0 -->
<g id="node1" class="node">
<title>0</title>
<polygon fill="none" stroke="#000000" points="119.5,-320 20.5,-320 20.5,-267 119.5,-267 119.5,-320"/>
<text text-anchor="middle" x="70" y="-304.8" font-family="Fira Code" font-size="14.00" fill="#000000">main</text>
<text text-anchor="middle" x="70" y="-289.8" font-family="Fira Code" font-size="14.00" fill="#000000">max = 88</text>
<text text-anchor="middle" x="70" y="-274.8" font-family="Fira Code" font-size="14.00" fill="#000000">local = 72</text>
</g>
<!-- 1 -->
<g id="node2" class="node">
<title>1</title>
<polygon fill="none" stroke="#000000" points="140,-231 0,-231 0,-178 140,-178 140,-231"/>
<text text-anchor="middle" x="70" y="-215.8" font-family="Fira Code" font-size="14.00" fill="#000000">__aeabi_memclr4</text>
<text text-anchor="middle" x="70" y="-200.8" font-family="Fira Code" font-size="14.00" fill="#000000">max = 16</text>
<text text-anchor="middle" x="70" y="-185.8" font-family="Fira Code" font-size="14.00" fill="#000000">local = 0</text>
</g>
<!-- 0&#45;&gt;1 -->
<g id="edge1" class="edge">
<title>0&#45;&gt;1</title>
<path fill="none" stroke="#000000" d="M70,-266.7971C70,-258.7887 70,-249.8597 70,-241.3198"/>
<polygon fill="#000000" stroke="#000000" points="73.5001,-241.1841 70,-231.1841 66.5001,-241.1841 73.5001,-241.1841"/>
</g>
<!-- 2 -->
<g id="node3" class="node">
<title>2</title>
<polygon fill="none" stroke="#000000" points="140,-142 0,-142 0,-89 140,-89 140,-142"/>
<text text-anchor="middle" x="70" y="-126.8" font-family="Fira Code" font-size="14.00" fill="#000000">__aeabi_memset4</text>
<text text-anchor="middle" x="70" y="-111.8" font-family="Fira Code" font-size="14.00" fill="#000000">max = 16</text>
<text text-anchor="middle" x="70" y="-96.8" font-family="Fira Code" font-size="14.00" fill="#000000">local = 8</text>
</g>
<!-- 1&#45;&gt;2 -->
<g id="edge2" class="edge">
<title>1&#45;&gt;2</title>
<path fill="none" stroke="#000000" d="M70,-177.7971C70,-169.7887 70,-160.8597 70,-152.3198"/>
<polygon fill="#000000" stroke="#000000" points="73.5001,-152.1841 70,-142.1841 66.5001,-152.1841 73.5001,-152.1841"/>
</g>
<!-- 3 -->
<g id="node4" class="node">
<title>3</title>
<polygon fill="none" stroke="#000000" points="136,-53 4,-53 4,0 136,0 136,-53"/>
<text text-anchor="middle" x="70" y="-37.8" font-family="Fira Code" font-size="14.00" fill="#000000">__aeabi_memset</text>
<text text-anchor="middle" x="70" y="-22.8" font-family="Fira Code" font-size="14.00" fill="#000000">max = 8</text>
<text text-anchor="middle" x="70" y="-7.8" font-family="Fira Code" font-size="14.00" fill="#000000">local = 8</text>
</g>
<!-- 2&#45;&gt;3 -->
<g id="edge3" class="edge">
<title>2&#45;&gt;3</title>
<path fill="none" stroke="#000000" d="M70,-88.7971C70,-80.7887 70,-71.8597 70,-63.3198"/>
<polygon fill="#000000" stroke="#000000" points="73.5001,-63.1841 70,-53.1841 66.5001,-63.1841 73.5001,-63.1841"/>
</g>
</g>
</svg>
