<?xml version="1.0" encoding="UTF-8" standalone="no"?>
<!DOCTYPE svg PUBLIC "-//W3C//DTD SVG 1.1//EN"
 "http://www.w3.org/Graphics/SVG/1.1/DTD/svg11.dtd">
<!-- Generated by graphviz version 2.40.1 (20161225.0304)
 -->
<!-- Title: %3 Pages: 1 -->
<svg width="99pt" height="150pt"
 viewBox="0.00 0.00 99.00 150.00" xmlns="http://www.w3.org/2000/svg" xmlns:xlink="http://www.w3.org/1999/xlink">
<g id="graph0" class="graph" transform="scale(1 1) rotate(0) translate(4 146)">
<title>%3</title>
<polygon fill="#ffffff" stroke="transparent" points="-4,4 -4,-146 95,-146 95,4 -4,4"/>
<!-- 0 -->
<g id="node1" class="node">
<title>0</title>
<polygon fill="none" stroke="#000000" points="91,-142 0,-142 0,-89 91,-89 91,-142"/>
<text text-anchor="middle" x="45.5" y="-126.8" font-family="Fira Code" font-size="14.00" fill="#000000">main</text>
<text text-anchor="middle" x="45.5" y="-111.8" font-family="Fira Code" font-size="14.00" fill="#000000">max &gt;= 0</text>
<text text-anchor="middle" x="45.5" y="-96.8" font-family="Fira Code" font-size="14.00" fill="#000000">local = 0</text>
</g>
<!-- 1 -->
<g id="node2" class="node">
<title>1</title>
<polygon fill="none" stroke="#000000" points="91,-53 0,-53 0,0 91,0 91,-53"/>
<text text-anchor="middle" x="45.5" y="-37.8" font-family="Fira Code" font-size="14.00" fill="#000000">__nop</text>
<text text-anchor="middle" x="45.5" y="-22.8" font-family="Fira Code" font-size="14.00" fill="#000000">max &gt;= 0</text>
<text text-anchor="middle" x="45.5" y="-7.8" font-family="Fira Code" font-size="14.00" fill="#000000">local = ?</text>
</g>
<!-- 0&#45;&gt;1 -->
<g id="edge1" class="edge">
<title>0&#45;&gt;1</title>
<path fill="none" stroke="#000000" d="M45.5,-88.7971C45.5,-80.7887 45.5,-71.8597 45.5,-63.3198"/>
<polygon fill="#000000" stroke="#000000" points="49.0001,-63.1841 45.5,-53.1841 42.0001,-63.1841 49.0001,-63.1841"/>
</g>
</g>
</svg>
