<?xml version="1.0" encoding="UTF-8" standalone="no"?>
<!DOCTYPE svg PUBLIC "-//W3C//DTD SVG 1.1//EN"
 "http://www.w3.org/Graphics/SVG/1.1/DTD/svg11.dtd">
<!-- Generated by graphviz version 2.40.1 (20161225.0304)
 -->
<!-- Title: %3 Pages: 1 -->
<svg width="623pt" height="239pt"
 viewBox="0.00 0.00 622.50 239.00" xmlns="http://www.w3.org/2000/svg" xmlns:xlink="http://www.w3.org/1999/xlink">
<g id="graph0" class="graph" transform="scale(1 1) rotate(0) translate(4 235)">
<title>%3</title>
<polygon fill="#ffffff" stroke="transparent" points="-4,4 -4,-235 618.5,-235 618.5,4 -4,4"/>
<!-- 0 -->
<g id="node1" class="node">
<title>0</title>
<polygon fill="none" stroke="#000000" points="275,-231 184,-231 184,-178 275,-178 275,-231"/>
<text text-anchor="middle" x="229.5" y="-215.8" font-family="monospace" font-size="14.00" fill="#000000">main</text>
<text text-anchor="middle" x="229.5" y="-200.8" font-family="monospace" font-size="14.00" fill="#000000">max = 24</text>
<text text-anchor="middle" x="229.5" y="-185.8" font-family="monospace" font-size="14.00" fill="#000000">local = 8</text>
</g>
<!-- 1 -->
<g id="node2" class="node">
<title>1</title>
<polygon fill="none" stroke="#000000" stroke-dasharray="5,2" points="355,-142 264,-142 264,-89 355,-89 355,-142"/>
<text text-anchor="middle" x="309.5" y="-126.8" font-family="monospace" font-size="14.00" fill="#000000">i1 ({}*)</text>
<text text-anchor="middle" x="309.5" y="-111.8" font-family="monospace" font-size="14.00" fill="#000000">max = 16</text>
<text text-anchor="middle" x="309.5" y="-96.8" font-family="monospace" font-size="14.00" fill="#000000">local = 0</text>
</g>
<!-- 0&#45;&gt;1 -->
<g id="edge1" class="edge">
<title>0&#45;&gt;1</title>
<path fill="none" stroke="#000000" d="M253.5026,-177.7971C261.4131,-168.9967 270.3229,-159.0845 278.6697,-149.7987"/>
<polygon fill="#000000" stroke="#000000" points="281.4322,-151.961 285.5143,-142.1841 276.2262,-147.2814 281.4322,-151.961"/>
</g>
<!-- 2 -->
<g id="node3" class="node">
<title>2</title>
<polygon fill="none" stroke="#000000" points="215,-53 0,-53 0,0 215,0 215,-53"/>
<text text-anchor="middle" x="107.5" y="-37.8" font-family="monospace" font-size="14.00" fill="#000000">&lt;i32 as app::Quux&gt;::quux</text>
<text text-anchor="middle" x="107.5" y="-22.8" font-family="monospace" font-size="14.00" fill="#000000">max = 0</text>
<text text-anchor="middle" x="107.5" y="-7.8" font-family="monospace" font-size="14.00" fill="#000000">local = 0</text>
</g>
<!-- 0&#45;&gt;2 -->
<g id="edge2" class="edge">
<title>0&#45;&gt;2</title>
<path fill="none" stroke="#000000" d="M211.2354,-177.8516C189.9714,-146.8272 154.7844,-95.4887 131.3727,-61.3307"/>
<polygon fill="#000000" stroke="#000000" points="134.2305,-59.3093 125.69,-53.0395 128.4565,-63.2667 134.2305,-59.3093"/>
</g>
<!-- 1&#45;&gt;2 -->
<g id="edge3" class="edge">
<title>1&#45;&gt;2</title>
<path fill="none" stroke="#000000" d="M263.9154,-95.4157C238.2955,-84.1277 205.7856,-69.8041 177.049,-57.1429"/>
<polygon fill="#000000" stroke="#000000" points="178.4274,-53.9256 167.8651,-53.0965 175.605,-60.3314 178.4274,-53.9256"/>
</g>
<!-- 3 -->
<g id="node4" class="node">
<title>3</title>
<polygon fill="none" stroke="#000000" points="472,-53 233,-53 233,0 472,0 472,-53"/>
<text text-anchor="middle" x="352.5" y="-37.8" font-family="monospace" font-size="14.00" fill="#000000">&lt;app::Baz as app::Foo&gt;::foo</text>
<text text-anchor="middle" x="352.5" y="-22.8" font-family="monospace" font-size="14.00" fill="#000000">max = 16</text>
<text text-anchor="middle" x="352.5" y="-7.8" font-family="monospace" font-size="14.00" fill="#000000">local = 16</text>
</g>
<!-- 1&#45;&gt;3 -->
<g id="edge4" class="edge">
<title>1&#45;&gt;3</title>
<path fill="none" stroke="#000000" d="M322.4014,-88.7971C326.4407,-80.4367 330.9648,-71.073 335.2536,-62.1961"/>
<polygon fill="#000000" stroke="#000000" points="338.4088,-63.7109 339.6077,-53.1841 332.1059,-60.6656 338.4088,-63.7109"/>
</g>
<!-- 4 -->
<g id="node5" class="node">
<title>4</title>
<polygon fill="none" stroke="#000000" points="614.5,-53 490.5,-53 490.5,0 614.5,0 614.5,-53"/>
<text text-anchor="middle" x="552.5" y="-37.8" font-family="monospace" font-size="14.00" fill="#000000">app::Foo::foo</text>
<text text-anchor="middle" x="552.5" y="-22.8" font-family="monospace" font-size="14.00" fill="#000000">max = 8</text>
<text text-anchor="middle" x="552.5" y="-7.8" font-family="monospace" font-size="14.00" fill="#000000">local = 8</text>
</g>
<!-- 1&#45;&gt;4 -->
<g id="edge5" class="edge">
<title>1&#45;&gt;4</title>
<path fill="none" stroke="#000000" d="M355.1688,-99.0273C387.6857,-87.2708 432.6648,-70.9528 480.5585,-53.3371"/>
<polygon fill="#000000" stroke="#000000" points="481.9981,-56.5369 490.1733,-49.7977 479.5798,-49.9678 481.9981,-56.5369"/>
</g>
</g>
</svg>
