<?xml version="1.0" encoding="utf-8" standalone="no"?>
<!DOCTYPE svg PUBLIC "-//W3C//DTD SVG 1.1//EN"
  "http://www.w3.org/Graphics/SVG/1.1/DTD/svg11.dtd">
<!-- Created with matplotlib (http://matplotlib.org/) -->
<svg height="345pt" version="1.1" viewBox="0 0 460 345" width="460pt" xmlns="http://www.w3.org/2000/svg" xmlns:xlink="http://www.w3.org/1999/xlink">
 <defs>
  <style type="text/css">
*{stroke-linecap:butt;stroke-linejoin:round;}
  </style>
 </defs>
 <g id="figure_1">
  <g id="patch_1">
   <path d="M 0 345.6 
L 460.8 345.6 
L 460.8 0 
L 0 0 
z
" style="fill:#ffffff;"/>
  </g>
  <g id="axes_1">
   <g id="patch_2">
    <path d="M 65.27 148.351621 
L 227.495 148.351621 
L 227.495 41.472 
L 65.27 41.472 
z
" style="fill:#eaeaf2;"/>
   </g>
   <g id="matplotlib.axis_1">
    <g id="xtick_1">
     <g id="line2d_1">
      <path clip-path="url(#pafd1691735)" d="M 65.27 148.351621 
L 65.27 41.472 
" style="fill:none;stroke:#ffffff;stroke-linecap:round;"/>
     </g>
     <g id="line2d_2"/>
     <g id="text_1">
      <!-- 0.0 -->
      <defs>
       <path d="M 31.78125 66.40625 
Q 24.171875 66.40625 20.328125 58.90625 
Q 16.5 51.421875 16.5 36.375 
Q 16.5 21.390625 20.328125 13.890625 
Q 24.171875 6.390625 31.78125 6.390625 
Q 39.453125 6.390625 43.28125 13.890625 
Q 47.125 21.390625 47.125 36.375 
Q 47.125 51.421875 43.28125 58.90625 
Q 39.453125 66.40625 31.78125 66.40625 
z
M 31.78125 74.21875 
Q 44.046875 74.21875 50.515625 64.515625 
Q 56.984375 54.828125 56.984375 36.375 
Q 56.984375 17.96875 50.515625 8.265625 
Q 44.046875 -1.421875 31.78125 -1.421875 
Q 19.53125 -1.421875 13.0625 8.265625 
Q 6.59375 17.96875 6.59375 36.375 
Q 6.59375 54.828125 13.0625 64.515625 
Q 19.53125 74.21875 31.78125 74.21875 
z
" id="DejaVuSans-30"/>
       <path d="M 10.6875 12.40625 
L 21 12.40625 
L 21 0 
L 10.6875 0 
z
" id="DejaVuSans-2e"/>
      </defs>
      <g style="fill:#262626;" transform="translate(57.318438 162.950058)scale(0.1 -0.1)">
       <use xlink:href="#DejaVuSans-30"/>
       <use x="63.623047" xlink:href="#DejaVuSans-2e"/>
       <use x="95.410156" xlink:href="#DejaVuSans-30"/>
      </g>
     </g>
    </g>
    <g id="xtick_2">
     <g id="line2d_3">
      <path clip-path="url(#pafd1691735)" d="M 97.715 148.351621 
L 97.715 41.472 
" style="fill:none;stroke:#ffffff;stroke-linecap:round;"/>
     </g>
     <g id="line2d_4"/>
     <g id="text_2">
      <!-- 0.2 -->
      <defs>
       <path d="M 19.1875 8.296875 
L 53.609375 8.296875 
L 53.609375 0 
L 7.328125 0 
L 7.328125 8.296875 
Q 12.9375 14.109375 22.625 23.890625 
Q 32.328125 33.6875 34.8125 36.53125 
Q 39.546875 41.84375 41.421875 45.53125 
Q 43.3125 49.21875 43.3125 52.78125 
Q 43.3125 58.59375 39.234375 62.25 
Q 35.15625 65.921875 28.609375 65.921875 
Q 23.96875 65.921875 18.8125 64.3125 
Q 13.671875 62.703125 7.8125 59.421875 
L 7.8125 69.390625 
Q 13.765625 71.78125 18.9375 73 
Q 24.125 74.21875 28.421875 74.21875 
Q 39.75 74.21875 46.484375 68.546875 
Q 53.21875 62.890625 53.21875 53.421875 
Q 53.21875 48.921875 51.53125 44.890625 
Q 49.859375 40.875 45.40625 35.40625 
Q 44.1875 33.984375 37.640625 27.21875 
Q 31.109375 20.453125 19.1875 8.296875 
z
" id="DejaVuSans-32"/>
      </defs>
      <g style="fill:#262626;" transform="translate(89.763438 162.950058)scale(0.1 -0.1)">
       <use xlink:href="#DejaVuSans-30"/>
       <use x="63.623047" xlink:href="#DejaVuSans-2e"/>
       <use x="95.410156" xlink:href="#DejaVuSans-32"/>
      </g>
     </g>
    </g>
    <g id="xtick_3">
     <g id="line2d_5">
      <path clip-path="url(#pafd1691735)" d="M 130.16 148.351621 
L 130.16 41.472 
" style="fill:none;stroke:#ffffff;stroke-linecap:round;"/>
     </g>
     <g id="line2d_6"/>
     <g id="text_3">
      <!-- 0.4 -->
      <defs>
       <path d="M 37.796875 64.3125 
L 12.890625 25.390625 
L 37.796875 25.390625 
z
M 35.203125 72.90625 
L 47.609375 72.90625 
L 47.609375 25.390625 
L 58.015625 25.390625 
L 58.015625 17.1875 
L 47.609375 17.1875 
L 47.609375 0 
L 37.796875 0 
L 37.796875 17.1875 
L 4.890625 17.1875 
L 4.890625 26.703125 
z
" id="DejaVuSans-34"/>
      </defs>
      <g style="fill:#262626;" transform="translate(122.208438 162.950058)scale(0.1 -0.1)">
       <use xlink:href="#DejaVuSans-30"/>
       <use x="63.623047" xlink:href="#DejaVuSans-2e"/>
       <use x="95.410156" xlink:href="#DejaVuSans-34"/>
      </g>
     </g>
    </g>
    <g id="xtick_4">
     <g id="line2d_7">
      <path clip-path="url(#pafd1691735)" d="M 162.605 148.351621 
L 162.605 41.472 
" style="fill:none;stroke:#ffffff;stroke-linecap:round;"/>
     </g>
     <g id="line2d_8"/>
     <g id="text_4">
      <!-- 0.6 -->
      <defs>
       <path d="M 33.015625 40.375 
Q 26.375 40.375 22.484375 35.828125 
Q 18.609375 31.296875 18.609375 23.390625 
Q 18.609375 15.53125 22.484375 10.953125 
Q 26.375 6.390625 33.015625 6.390625 
Q 39.65625 6.390625 43.53125 10.953125 
Q 47.40625 15.53125 47.40625 23.390625 
Q 47.40625 31.296875 43.53125 35.828125 
Q 39.65625 40.375 33.015625 40.375 
z
M 52.59375 71.296875 
L 52.59375 62.3125 
Q 48.875 64.0625 45.09375 64.984375 
Q 41.3125 65.921875 37.59375 65.921875 
Q 27.828125 65.921875 22.671875 59.328125 
Q 17.53125 52.734375 16.796875 39.40625 
Q 19.671875 43.65625 24.015625 45.921875 
Q 28.375 48.1875 33.59375 48.1875 
Q 44.578125 48.1875 50.953125 41.515625 
Q 57.328125 34.859375 57.328125 23.390625 
Q 57.328125 12.15625 50.6875 5.359375 
Q 44.046875 -1.421875 33.015625 -1.421875 
Q 20.359375 -1.421875 13.671875 8.265625 
Q 6.984375 17.96875 6.984375 36.375 
Q 6.984375 53.65625 15.1875 63.9375 
Q 23.390625 74.21875 37.203125 74.21875 
Q 40.921875 74.21875 44.703125 73.484375 
Q 48.484375 72.75 52.59375 71.296875 
z
" id="DejaVuSans-36"/>
      </defs>
      <g style="fill:#262626;" transform="translate(154.653438 162.950058)scale(0.1 -0.1)">
       <use xlink:href="#DejaVuSans-30"/>
       <use x="63.623047" xlink:href="#DejaVuSans-2e"/>
       <use x="95.410156" xlink:href="#DejaVuSans-36"/>
      </g>
     </g>
    </g>
    <g id="xtick_5">
     <g id="line2d_9">
      <path clip-path="url(#pafd1691735)" d="M 195.05 148.351621 
L 195.05 41.472 
" style="fill:none;stroke:#ffffff;stroke-linecap:round;"/>
     </g>
     <g id="line2d_10"/>
     <g id="text_5">
      <!-- 0.8 -->
      <defs>
       <path d="M 31.78125 34.625 
Q 24.75 34.625 20.71875 30.859375 
Q 16.703125 27.09375 16.703125 20.515625 
Q 16.703125 13.921875 20.71875 10.15625 
Q 24.75 6.390625 31.78125 6.390625 
Q 38.8125 6.390625 42.859375 10.171875 
Q 46.921875 13.96875 46.921875 20.515625 
Q 46.921875 27.09375 42.890625 30.859375 
Q 38.875 34.625 31.78125 34.625 
z
M 21.921875 38.8125 
Q 15.578125 40.375 12.03125 44.71875 
Q 8.5 49.078125 8.5 55.328125 
Q 8.5 64.0625 14.71875 69.140625 
Q 20.953125 74.21875 31.78125 74.21875 
Q 42.671875 74.21875 48.875 69.140625 
Q 55.078125 64.0625 55.078125 55.328125 
Q 55.078125 49.078125 51.53125 44.71875 
Q 48 40.375 41.703125 38.8125 
Q 48.828125 37.15625 52.796875 32.3125 
Q 56.78125 27.484375 56.78125 20.515625 
Q 56.78125 9.90625 50.3125 4.234375 
Q 43.84375 -1.421875 31.78125 -1.421875 
Q 19.734375 -1.421875 13.25 4.234375 
Q 6.78125 9.90625 6.78125 20.515625 
Q 6.78125 27.484375 10.78125 32.3125 
Q 14.796875 37.15625 21.921875 38.8125 
z
M 18.3125 54.390625 
Q 18.3125 48.734375 21.84375 45.5625 
Q 25.390625 42.390625 31.78125 42.390625 
Q 38.140625 42.390625 41.71875 45.5625 
Q 45.3125 48.734375 45.3125 54.390625 
Q 45.3125 60.0625 41.71875 63.234375 
Q 38.140625 66.40625 31.78125 66.40625 
Q 25.390625 66.40625 21.84375 63.234375 
Q 18.3125 60.0625 18.3125 54.390625 
z
" id="DejaVuSans-38"/>
      </defs>
      <g style="fill:#262626;" transform="translate(187.098438 162.950058)scale(0.1 -0.1)">
       <use xlink:href="#DejaVuSans-30"/>
       <use x="63.623047" xlink:href="#DejaVuSans-2e"/>
       <use x="95.410156" xlink:href="#DejaVuSans-38"/>
      </g>
     </g>
    </g>
    <g id="xtick_6">
     <g id="line2d_11">
      <path clip-path="url(#pafd1691735)" d="M 227.495 148.351621 
L 227.495 41.472 
" style="fill:none;stroke:#ffffff;stroke-linecap:round;"/>
     </g>
     <g id="line2d_12"/>
     <g id="text_6">
      <!-- 1.0 -->
      <defs>
       <path d="M 12.40625 8.296875 
L 28.515625 8.296875 
L 28.515625 63.921875 
L 10.984375 60.40625 
L 10.984375 69.390625 
L 28.421875 72.90625 
L 38.28125 72.90625 
L 38.28125 8.296875 
L 54.390625 8.296875 
L 54.390625 0 
L 12.40625 0 
z
" id="DejaVuSans-31"/>
      </defs>
      <g style="fill:#262626;" transform="translate(219.543438 162.950058)scale(0.1 -0.1)">
       <use xlink:href="#DejaVuSans-31"/>
       <use x="63.623047" xlink:href="#DejaVuSans-2e"/>
       <use x="95.410156" xlink:href="#DejaVuSans-30"/>
      </g>
     </g>
    </g>
   </g>
   <g id="matplotlib.axis_2">
    <g id="ytick_1">
     <g id="line2d_13">
      <path clip-path="url(#pafd1691735)" d="M 65.27 119.202633 
L 227.495 119.202633 
" style="fill:none;stroke:#ffffff;stroke-linecap:round;"/>
     </g>
     <g id="line2d_14"/>
     <g id="text_7">
      <!-- 0.00 -->
      <g style="fill:#262626;" transform="translate(36.004375 123.001852)scale(0.1 -0.1)">
       <use xlink:href="#DejaVuSans-30"/>
       <use x="63.623047" xlink:href="#DejaVuSans-2e"/>
       <use x="95.410156" xlink:href="#DejaVuSans-30"/>
       <use x="159.033203" xlink:href="#DejaVuSans-30"/>
      </g>
     </g>
    </g>
    <g id="ytick_2">
     <g id="line2d_15">
      <path clip-path="url(#pafd1691735)" d="M 65.27 77.746296 
L 227.495 77.746296 
" style="fill:none;stroke:#ffffff;stroke-linecap:round;"/>
     </g>
     <g id="line2d_16"/>
     <g id="text_8">
      <!-- 0.02 -->
      <g style="fill:#262626;" transform="translate(36.004375 81.545514)scale(0.1 -0.1)">
       <use xlink:href="#DejaVuSans-30"/>
       <use x="63.623047" xlink:href="#DejaVuSans-2e"/>
       <use x="95.410156" xlink:href="#DejaVuSans-30"/>
       <use x="159.033203" xlink:href="#DejaVuSans-32"/>
      </g>
     </g>
    </g>
    <g id="text_9">
     <!-- Acceleration (g) -->
     <defs>
      <path d="M 34.1875 63.1875 
L 20.796875 26.90625 
L 47.609375 26.90625 
z
M 28.609375 72.90625 
L 39.796875 72.90625 
L 67.578125 0 
L 57.328125 0 
L 50.6875 18.703125 
L 17.828125 18.703125 
L 11.1875 0 
L 0.78125 0 
z
" id="DejaVuSans-41"/>
      <path d="M 48.78125 52.59375 
L 48.78125 44.1875 
Q 44.96875 46.296875 41.140625 47.34375 
Q 37.3125 48.390625 33.40625 48.390625 
Q 24.65625 48.390625 19.8125 42.84375 
Q 14.984375 37.3125 14.984375 27.296875 
Q 14.984375 17.28125 19.8125 11.734375 
Q 24.65625 6.203125 33.40625 6.203125 
Q 37.3125 6.203125 41.140625 7.25 
Q 44.96875 8.296875 48.78125 10.40625 
L 48.78125 2.09375 
Q 45.015625 0.34375 40.984375 -0.53125 
Q 36.96875 -1.421875 32.421875 -1.421875 
Q 20.0625 -1.421875 12.78125 6.34375 
Q 5.515625 14.109375 5.515625 27.296875 
Q 5.515625 40.671875 12.859375 48.328125 
Q 20.21875 56 33.015625 56 
Q 37.15625 56 41.109375 55.140625 
Q 45.0625 54.296875 48.78125 52.59375 
z
" id="DejaVuSans-63"/>
      <path d="M 56.203125 29.59375 
L 56.203125 25.203125 
L 14.890625 25.203125 
Q 15.484375 15.921875 20.484375 11.0625 
Q 25.484375 6.203125 34.421875 6.203125 
Q 39.59375 6.203125 44.453125 7.46875 
Q 49.3125 8.734375 54.109375 11.28125 
L 54.109375 2.78125 
Q 49.265625 0.734375 44.1875 -0.34375 
Q 39.109375 -1.421875 33.890625 -1.421875 
Q 20.796875 -1.421875 13.15625 6.1875 
Q 5.515625 13.8125 5.515625 26.8125 
Q 5.515625 40.234375 12.765625 48.109375 
Q 20.015625 56 32.328125 56 
Q 43.359375 56 49.78125 48.890625 
Q 56.203125 41.796875 56.203125 29.59375 
z
M 47.21875 32.234375 
Q 47.125 39.59375 43.09375 43.984375 
Q 39.0625 48.390625 32.421875 48.390625 
Q 24.90625 48.390625 20.390625 44.140625 
Q 15.875 39.890625 15.1875 32.171875 
z
" id="DejaVuSans-65"/>
      <path d="M 9.421875 75.984375 
L 18.40625 75.984375 
L 18.40625 0 
L 9.421875 0 
z
" id="DejaVuSans-6c"/>
      <path d="M 41.109375 46.296875 
Q 39.59375 47.171875 37.8125 47.578125 
Q 36.03125 48 33.890625 48 
Q 26.265625 48 22.1875 43.046875 
Q 18.109375 38.09375 18.109375 28.8125 
L 18.109375 0 
L 9.078125 0 
L 9.078125 54.6875 
L 18.109375 54.6875 
L 18.109375 46.1875 
Q 20.953125 51.171875 25.484375 53.578125 
Q 30.03125 56 36.53125 56 
Q 37.453125 56 38.578125 55.875 
Q 39.703125 55.765625 41.0625 55.515625 
z
" id="DejaVuSans-72"/>
      <path d="M 34.28125 27.484375 
Q 23.390625 27.484375 19.1875 25 
Q 14.984375 22.515625 14.984375 16.5 
Q 14.984375 11.71875 18.140625 8.90625 
Q 21.296875 6.109375 26.703125 6.109375 
Q 34.1875 6.109375 38.703125 11.40625 
Q 43.21875 16.703125 43.21875 25.484375 
L 43.21875 27.484375 
z
M 52.203125 31.203125 
L 52.203125 0 
L 43.21875 0 
L 43.21875 8.296875 
Q 40.140625 3.328125 35.546875 0.953125 
Q 30.953125 -1.421875 24.3125 -1.421875 
Q 15.921875 -1.421875 10.953125 3.296875 
Q 6 8.015625 6 15.921875 
Q 6 25.140625 12.171875 29.828125 
Q 18.359375 34.515625 30.609375 34.515625 
L 43.21875 34.515625 
L 43.21875 35.40625 
Q 43.21875 41.609375 39.140625 45 
Q 35.0625 48.390625 27.6875 48.390625 
Q 23 48.390625 18.546875 47.265625 
Q 14.109375 46.140625 10.015625 43.890625 
L 10.015625 52.203125 
Q 14.9375 54.109375 19.578125 55.046875 
Q 24.21875 56 28.609375 56 
Q 40.484375 56 46.34375 49.84375 
Q 52.203125 43.703125 52.203125 31.203125 
z
" id="DejaVuSans-61"/>
      <path d="M 18.3125 70.21875 
L 18.3125 54.6875 
L 36.8125 54.6875 
L 36.8125 47.703125 
L 18.3125 47.703125 
L 18.3125 18.015625 
Q 18.3125 11.328125 20.140625 9.421875 
Q 21.96875 7.515625 27.59375 7.515625 
L 36.8125 7.515625 
L 36.8125 0 
L 27.59375 0 
Q 17.1875 0 13.234375 3.875 
Q 9.28125 7.765625 9.28125 18.015625 
L 9.28125 47.703125 
L 2.6875 47.703125 
L 2.6875 54.6875 
L 9.28125 54.6875 
L 9.28125 70.21875 
z
" id="DejaVuSans-74"/>
      <path d="M 9.421875 54.6875 
L 18.40625 54.6875 
L 18.40625 0 
L 9.421875 0 
z
M 9.421875 75.984375 
L 18.40625 75.984375 
L 18.40625 64.59375 
L 9.421875 64.59375 
z
" id="DejaVuSans-69"/>
      <path d="M 30.609375 48.390625 
Q 23.390625 48.390625 19.1875 42.75 
Q 14.984375 37.109375 14.984375 27.296875 
Q 14.984375 17.484375 19.15625 11.84375 
Q 23.34375 6.203125 30.609375 6.203125 
Q 37.796875 6.203125 41.984375 11.859375 
Q 46.1875 17.53125 46.1875 27.296875 
Q 46.1875 37.015625 41.984375 42.703125 
Q 37.796875 48.390625 30.609375 48.390625 
z
M 30.609375 56 
Q 42.328125 56 49.015625 48.375 
Q 55.71875 40.765625 55.71875 27.296875 
Q 55.71875 13.875 49.015625 6.21875 
Q 42.328125 -1.421875 30.609375 -1.421875 
Q 18.84375 -1.421875 12.171875 6.21875 
Q 5.515625 13.875 5.515625 27.296875 
Q 5.515625 40.765625 12.171875 48.375 
Q 18.84375 56 30.609375 56 
z
" id="DejaVuSans-6f"/>
      <path d="M 54.890625 33.015625 
L 54.890625 0 
L 45.90625 0 
L 45.90625 32.71875 
Q 45.90625 40.484375 42.875 44.328125 
Q 39.84375 48.1875 33.796875 48.1875 
Q 26.515625 48.1875 22.3125 43.546875 
Q 18.109375 38.921875 18.109375 30.90625 
L 18.109375 0 
L 9.078125 0 
L 9.078125 54.6875 
L 18.109375 54.6875 
L 18.109375 46.1875 
Q 21.34375 51.125 25.703125 53.5625 
Q 30.078125 56 35.796875 56 
Q 45.21875 56 50.046875 50.171875 
Q 54.890625 44.34375 54.890625 33.015625 
z
" id="DejaVuSans-6e"/>
      <path id="DejaVuSans-20"/>
      <path d="M 31 75.875 
Q 24.46875 64.65625 21.28125 53.65625 
Q 18.109375 42.671875 18.109375 31.390625 
Q 18.109375 20.125 21.3125 9.0625 
Q 24.515625 -2 31 -13.1875 
L 23.1875 -13.1875 
Q 15.875 -1.703125 12.234375 9.375 
Q 8.59375 20.453125 8.59375 31.390625 
Q 8.59375 42.28125 12.203125 53.3125 
Q 15.828125 64.359375 23.1875 75.875 
z
" id="DejaVuSans-28"/>
      <path d="M 45.40625 27.984375 
Q 45.40625 37.75 41.375 43.109375 
Q 37.359375 48.484375 30.078125 48.484375 
Q 22.859375 48.484375 18.828125 43.109375 
Q 14.796875 37.75 14.796875 27.984375 
Q 14.796875 18.265625 18.828125 12.890625 
Q 22.859375 7.515625 30.078125 7.515625 
Q 37.359375 7.515625 41.375 12.890625 
Q 45.40625 18.265625 45.40625 27.984375 
z
M 54.390625 6.78125 
Q 54.390625 -7.171875 48.1875 -13.984375 
Q 42 -20.796875 29.203125 -20.796875 
Q 24.46875 -20.796875 20.265625 -20.09375 
Q 16.0625 -19.390625 12.109375 -17.921875 
L 12.109375 -9.1875 
Q 16.0625 -11.328125 19.921875 -12.34375 
Q 23.78125 -13.375 27.78125 -13.375 
Q 36.625 -13.375 41.015625 -8.765625 
Q 45.40625 -4.15625 45.40625 5.171875 
L 45.40625 9.625 
Q 42.625 4.78125 38.28125 2.390625 
Q 33.9375 0 27.875 0 
Q 17.828125 0 11.671875 7.65625 
Q 5.515625 15.328125 5.515625 27.984375 
Q 5.515625 40.671875 11.671875 48.328125 
Q 17.828125 56 27.875 56 
Q 33.9375 56 38.28125 53.609375 
Q 42.625 51.21875 45.40625 46.390625 
L 45.40625 54.6875 
L 54.390625 54.6875 
z
" id="DejaVuSans-67"/>
      <path d="M 8.015625 75.875 
L 15.828125 75.875 
Q 23.140625 64.359375 26.78125 53.3125 
Q 30.421875 42.28125 30.421875 31.390625 
Q 30.421875 20.453125 26.78125 9.375 
Q 23.140625 -1.703125 15.828125 -13.1875 
L 8.015625 -13.1875 
Q 14.5 -2 17.703125 9.0625 
Q 20.90625 20.125 20.90625 31.390625 
Q 20.90625 42.671875 17.703125 53.65625 
Q 14.5 64.65625 8.015625 75.875 
z
" id="DejaVuSans-29"/>
     </defs>
     <g style="fill:#262626;" transform="translate(29.716719 138.715873)rotate(-90)scale(0.11 -0.11)">
      <use xlink:href="#DejaVuSans-41"/>
      <use x="68.392578" xlink:href="#DejaVuSans-63"/>
      <use x="123.373047" xlink:href="#DejaVuSans-63"/>
      <use x="178.353516" xlink:href="#DejaVuSans-65"/>
      <use x="239.876953" xlink:href="#DejaVuSans-6c"/>
      <use x="267.660156" xlink:href="#DejaVuSans-65"/>
      <use x="329.183594" xlink:href="#DejaVuSans-72"/>
      <use x="370.296875" xlink:href="#DejaVuSans-61"/>
      <use x="431.576172" xlink:href="#DejaVuSans-74"/>
      <use x="470.785156" xlink:href="#DejaVuSans-69"/>
      <use x="498.568359" xlink:href="#DejaVuSans-6f"/>
      <use x="559.75" xlink:href="#DejaVuSans-6e"/>
      <use x="623.128906" xlink:href="#DejaVuSans-20"/>
      <use x="654.916016" xlink:href="#DejaVuSans-28"/>
      <use x="693.929688" xlink:href="#DejaVuSans-67"/>
      <use x="757.40625" xlink:href="#DejaVuSans-29"/>
     </g>
    </g>
   </g>
   <g id="line2d_17">
    <path clip-path="url(#pafd1691735)" d="M 65.27 78.717929 
L 66.007386 111.105692 
L 66.744773 111.105692 
L 67.482159 70.620988 
L 68.219545 111.105692 
L 68.956932 78.717929 
L 70.431705 94.91181 
L 71.169091 111.105692 
L 71.906477 103.008751 
L 72.643864 86.81487 
L 73.38125 103.008751 
L 74.118636 94.91181 
L 74.856023 78.717929 
L 75.593409 111.105692 
L 76.330795 94.91181 
L 77.068182 111.105692 
L 77.805568 94.91181 
L 78.542955 119.202633 
L 79.280341 119.202633 
L 80.017727 103.008751 
L 80.755114 78.717929 
L 82.967273 103.008751 
L 83.704659 103.008751 
L 84.442045 94.91181 
L 85.179432 62.524047 
L 85.916818 94.91181 
L 86.654205 78.717929 
L 87.391591 94.91181 
L 88.128977 46.330165 
L 88.866364 103.008751 
L 89.60375 86.81487 
L 90.341136 78.717929 
L 91.078523 127.299574 
L 91.815909 94.91181 
L 93.290682 94.91181 
L 94.028068 103.008751 
L 94.765455 94.91181 
L 95.502841 94.91181 
L 96.240227 78.717929 
L 97.715 62.524047 
L 98.452386 86.81487 
L 100.664545 86.81487 
L 101.401932 103.008751 
L 102.139318 70.620988 
L 102.876705 119.202633 
L 103.614091 94.91181 
L 104.351477 86.81487 
L 105.088864 94.91181 
L 105.82625 94.91181 
L 106.563636 103.008751 
L 107.301023 103.008751 
L 108.038409 111.105692 
L 108.775795 46.330165 
L 109.513182 94.91181 
L 110.250568 103.008751 
L 110.987955 103.008751 
L 111.725341 94.91181 
L 113.9375 94.91181 
L 114.674886 103.008751 
L 116.149659 86.81487 
L 116.887045 103.008751 
L 117.624432 103.008751 
L 118.361818 111.105692 
L 119.836591 111.105692 
L 120.573977 119.202633 
L 121.311364 86.81487 
L 122.04875 86.81487 
L 123.523523 103.008751 
L 124.260909 86.81487 
L 124.998295 86.81487 
L 125.735682 94.91181 
L 126.473068 86.81487 
L 127.210455 103.008751 
L 127.947841 94.91181 
L 128.685227 119.202633 
L 129.422614 78.717929 
L 130.16 78.717929 
L 130.897386 62.524047 
L 131.634773 111.105692 
L 132.372159 70.620988 
L 133.109545 94.91181 
L 133.846932 103.008751 
L 134.584318 78.717929 
L 135.321705 78.717929 
L 136.796477 94.91181 
L 137.533864 86.81487 
L 139.008636 103.008751 
L 139.746023 94.91181 
L 141.220795 94.91181 
L 141.958182 103.008751 
L 142.695568 86.81487 
L 143.432955 86.81487 
L 144.170341 111.105692 
L 144.907727 103.008751 
L 145.645114 86.81487 
L 146.3825 111.105692 
L 147.119886 86.81487 
L 147.857273 103.008751 
L 148.594659 94.91181 
L 149.332045 111.105692 
L 150.806818 94.91181 
L 151.544205 103.008751 
L 152.281591 103.008751 
L 153.018977 119.202633 
L 155.231136 94.91181 
L 155.968523 119.202633 
L 156.705909 119.202633 
L 157.443295 86.81487 
L 158.180682 94.91181 
L 158.918068 86.81487 
L 159.655455 94.91181 
L 160.392841 94.91181 
L 161.130227 103.008751 
L 161.867614 127.299574 
L 162.605 94.91181 
L 163.342386 78.717929 
L 164.079773 78.717929 
L 164.817159 103.008751 
L 165.554545 78.717929 
L 166.291932 70.620988 
L 167.029318 103.008751 
L 167.766705 111.105692 
L 168.504091 78.717929 
L 169.241477 103.008751 
L 169.978864 78.717929 
L 170.71625 70.620988 
L 171.453636 103.008751 
L 172.191023 86.81487 
L 172.928409 119.202633 
L 173.665795 94.91181 
L 175.140568 111.105692 
L 175.877955 78.717929 
L 176.615341 103.008751 
L 177.352727 103.008751 
L 178.090114 94.91181 
L 178.8275 143.493456 
L 179.564886 94.91181 
L 181.039659 111.105692 
L 183.251818 86.81487 
L 183.989205 94.91181 
L 184.726591 86.81487 
L 185.463977 111.105692 
L 186.201364 94.91181 
L 186.93875 86.81487 
L 187.676136 103.008751 
L 188.413523 103.008751 
L 189.150909 86.81487 
L 189.888295 86.81487 
L 190.625682 103.008751 
L 191.363068 103.008751 
L 192.100455 111.105692 
L 192.837841 78.717929 
L 193.575227 111.105692 
L 194.312614 86.81487 
L 195.05 94.91181 
L 195.787386 111.105692 
L 196.524773 94.91181 
L 197.999545 111.105692 
L 198.736932 70.620988 
L 199.474318 86.81487 
L 200.949091 70.620988 
L 201.686477 111.105692 
L 202.423864 111.105692 
L 203.16125 70.620988 
L 203.898636 86.81487 
L 204.636023 94.91181 
L 205.373409 70.620988 
L 206.110795 78.717929 
L 206.848182 127.299574 
L 207.585568 94.91181 
L 208.322955 94.91181 
L 209.060341 111.105692 
L 209.797727 135.396515 
L 210.535114 86.81487 
L 211.2725 94.91181 
L 213.484659 94.91181 
L 214.222045 103.008751 
L 214.959432 119.202633 
L 215.696818 70.620988 
L 216.434205 103.008751 
L 217.171591 143.493456 
L 217.908977 103.008751 
L 218.646364 119.202633 
L 219.38375 111.105692 
L 220.121136 78.717929 
L 220.858523 94.91181 
L 221.595909 103.008751 
L 222.333295 86.81487 
L 223.070682 103.008751 
L 223.808068 103.008751 
L 224.545455 111.105692 
L 225.282841 86.81487 
L 226.020227 111.105692 
L 226.020227 111.105692 
" style="fill:none;stroke:#4c72b0;stroke-linecap:round;stroke-width:1.75;"/>
   </g>
   <g id="line2d_18">
    <path clip-path="url(#pafd1691735)" d="M 65.27 96.131897 
L 226.020227 96.131897 
" style="fill:none;stroke:#55a868;stroke-linecap:round;stroke-width:1.75;"/>
   </g>
   <g id="patch_3">
    <path d="M 65.27 148.351621 
L 65.27 41.472 
" style="fill:none;"/>
   </g>
   <g id="patch_4">
    <path d="M 227.495 148.351621 
L 227.495 41.472 
" style="fill:none;"/>
   </g>
   <g id="patch_5">
    <path d="M 65.27 148.351621 
L 227.495 148.351621 
" style="fill:none;"/>
   </g>
   <g id="patch_6">
    <path d="M 65.27 41.472 
L 227.495 41.472 
" style="fill:none;"/>
   </g>
   <g id="text_10">
    <!-- $G_x$ -->
    <defs>
     <path d="M 54.59375 10.890625 
L 58.40625 29.984375 
L 42.1875 29.984375 
L 43.703125 38.09375 
L 69.578125 38.09375 
L 63.28125 6 
Q 56.78125 2.4375 49.109375 0.5 
Q 41.453125 -1.421875 33.6875 -1.421875 
Q 19.96875 -1.421875 12.234375 6.1875 
Q 4.5 13.8125 4.5 27.390625 
Q 4.5 38.671875 9.203125 48.84375 
Q 13.921875 59.03125 22.21875 65.828125 
Q 27.4375 70.0625 33.640625 72.140625 
Q 39.84375 74.21875 47.40625 74.21875 
Q 54.25 74.21875 60.515625 72.484375 
Q 66.796875 70.75 72.515625 67.28125 
L 70.515625 56.78125 
Q 66.109375 61.375 60.203125 63.796875 
Q 54.296875 66.21875 47.609375 66.21875 
Q 39.84375 66.21875 33.9375 63.25 
Q 28.03125 60.296875 23.390625 54.109375 
Q 19.4375 48.828125 17.15625 41.671875 
Q 14.890625 34.515625 14.890625 27.09375 
Q 14.890625 16.890625 20.109375 11.734375 
Q 25.34375 6.59375 35.6875 6.59375 
Q 40.875 6.59375 45.703125 7.6875 
Q 50.53125 8.796875 54.59375 10.890625 
z
" id="DejaVuSans-Oblique-47"/>
     <path d="M 60.015625 54.6875 
L 34.90625 27.875 
L 50.296875 0 
L 39.984375 0 
L 28.421875 21.6875 
L 8.296875 0 
L -2.59375 0 
L 24.3125 28.8125 
L 10.015625 54.6875 
L 20.3125 54.6875 
L 30.8125 34.90625 
L 49.125 54.6875 
z
" id="DejaVuSans-Oblique-78"/>
    </defs>
    <g style="fill:#262626;" transform="translate(139.0625 35.472)scale(0.12 -0.12)">
     <use transform="translate(0 0.78125)" xlink:href="#DejaVuSans-Oblique-47"/>
     <use transform="translate(77.490234 -15.625)scale(0.7)" xlink:href="#DejaVuSans-Oblique-78"/>
    </g>
   </g>
   <g id="legend_1">
    <g id="line2d_19">
     <path d="M 162.135625 54.570437 
L 182.135625 54.570437 
" style="fill:none;stroke:#55a868;stroke-linecap:round;stroke-width:1.75;"/>
    </g>
    <g id="line2d_20"/>
    <g id="text_11">
     <!-- mean -->
     <defs>
      <path d="M 52 44.1875 
Q 55.375 50.25 60.0625 53.125 
Q 64.75 56 71.09375 56 
Q 79.640625 56 84.28125 50.015625 
Q 88.921875 44.046875 88.921875 33.015625 
L 88.921875 0 
L 79.890625 0 
L 79.890625 32.71875 
Q 79.890625 40.578125 77.09375 44.375 
Q 74.3125 48.1875 68.609375 48.1875 
Q 61.625 48.1875 57.5625 43.546875 
Q 53.515625 38.921875 53.515625 30.90625 
L 53.515625 0 
L 44.484375 0 
L 44.484375 32.71875 
Q 44.484375 40.625 41.703125 44.40625 
Q 38.921875 48.1875 33.109375 48.1875 
Q 26.21875 48.1875 22.15625 43.53125 
Q 18.109375 38.875 18.109375 30.90625 
L 18.109375 0 
L 9.078125 0 
L 9.078125 54.6875 
L 18.109375 54.6875 
L 18.109375 46.1875 
Q 21.1875 51.21875 25.484375 53.609375 
Q 29.78125 56 35.6875 56 
Q 41.65625 56 45.828125 52.96875 
Q 50 49.953125 52 44.1875 
z
" id="DejaVuSans-6d"/>
     </defs>
     <g style="fill:#262626;" transform="translate(190.135625 58.070437)scale(0.1 -0.1)">
      <use xlink:href="#DejaVuSans-6d"/>
      <use x="97.412109" xlink:href="#DejaVuSans-65"/>
      <use x="158.935547" xlink:href="#DejaVuSans-61"/>
      <use x="220.214844" xlink:href="#DejaVuSans-6e"/>
     </g>
    </g>
   </g>
  </g>
  <g id="axes_2">
   <g id="patch_7">
    <path d="M 277.695 148.351621 
L 439.92 148.351621 
L 439.92 41.472 
L 277.695 41.472 
z
" style="fill:#eaeaf2;"/>
   </g>
   <g id="matplotlib.axis_3">
    <g id="xtick_7">
     <g id="line2d_21">
      <path clip-path="url(#pe4baebd01f)" d="M 277.695 148.351621 
L 277.695 41.472 
" style="fill:none;stroke:#ffffff;stroke-linecap:round;"/>
     </g>
     <g id="line2d_22"/>
     <g id="text_12">
      <!-- 0.0 -->
      <g style="fill:#262626;" transform="translate(269.743437 162.950058)scale(0.1 -0.1)">
       <use xlink:href="#DejaVuSans-30"/>
       <use x="63.623047" xlink:href="#DejaVuSans-2e"/>
       <use x="95.410156" xlink:href="#DejaVuSans-30"/>
      </g>
     </g>
    </g>
    <g id="xtick_8">
     <g id="line2d_23">
      <path clip-path="url(#pe4baebd01f)" d="M 310.14 148.351621 
L 310.14 41.472 
" style="fill:none;stroke:#ffffff;stroke-linecap:round;"/>
     </g>
     <g id="line2d_24"/>
     <g id="text_13">
      <!-- 0.2 -->
      <g style="fill:#262626;" transform="translate(302.188437 162.950058)scale(0.1 -0.1)">
       <use xlink:href="#DejaVuSans-30"/>
       <use x="63.623047" xlink:href="#DejaVuSans-2e"/>
       <use x="95.410156" xlink:href="#DejaVuSans-32"/>
      </g>
     </g>
    </g>
    <g id="xtick_9">
     <g id="line2d_25">
      <path clip-path="url(#pe4baebd01f)" d="M 342.585 148.351621 
L 342.585 41.472 
" style="fill:none;stroke:#ffffff;stroke-linecap:round;"/>
     </g>
     <g id="line2d_26"/>
     <g id="text_14">
      <!-- 0.4 -->
      <g style="fill:#262626;" transform="translate(334.633437 162.950058)scale(0.1 -0.1)">
       <use xlink:href="#DejaVuSans-30"/>
       <use x="63.623047" xlink:href="#DejaVuSans-2e"/>
       <use x="95.410156" xlink:href="#DejaVuSans-34"/>
      </g>
     </g>
    </g>
    <g id="xtick_10">
     <g id="line2d_27">
      <path clip-path="url(#pe4baebd01f)" d="M 375.03 148.351621 
L 375.03 41.472 
" style="fill:none;stroke:#ffffff;stroke-linecap:round;"/>
     </g>
     <g id="line2d_28"/>
     <g id="text_15">
      <!-- 0.6 -->
      <g style="fill:#262626;" transform="translate(367.078437 162.950058)scale(0.1 -0.1)">
       <use xlink:href="#DejaVuSans-30"/>
       <use x="63.623047" xlink:href="#DejaVuSans-2e"/>
       <use x="95.410156" xlink:href="#DejaVuSans-36"/>
      </g>
     </g>
    </g>
    <g id="xtick_11">
     <g id="line2d_29">
      <path clip-path="url(#pe4baebd01f)" d="M 407.475 148.351621 
L 407.475 41.472 
" style="fill:none;stroke:#ffffff;stroke-linecap:round;"/>
     </g>
     <g id="line2d_30"/>
     <g id="text_16">
      <!-- 0.8 -->
      <g style="fill:#262626;" transform="translate(399.523437 162.950058)scale(0.1 -0.1)">
       <use xlink:href="#DejaVuSans-30"/>
       <use x="63.623047" xlink:href="#DejaVuSans-2e"/>
       <use x="95.410156" xlink:href="#DejaVuSans-38"/>
      </g>
     </g>
    </g>
    <g id="xtick_12">
     <g id="line2d_31">
      <path clip-path="url(#pe4baebd01f)" d="M 439.92 148.351621 
L 439.92 41.472 
" style="fill:none;stroke:#ffffff;stroke-linecap:round;"/>
     </g>
     <g id="line2d_32"/>
     <g id="text_17">
      <!-- 1.0 -->
      <g style="fill:#262626;" transform="translate(431.968437 162.950058)scale(0.1 -0.1)">
       <use xlink:href="#DejaVuSans-31"/>
       <use x="63.623047" xlink:href="#DejaVuSans-2e"/>
       <use x="95.410156" xlink:href="#DejaVuSans-30"/>
      </g>
     </g>
    </g>
   </g>
   <g id="matplotlib.axis_4">
    <g id="ytick_3">
     <g id="line2d_33">
      <path clip-path="url(#pe4baebd01f)" d="M 277.695 124.060798 
L 439.92 124.060798 
" style="fill:none;stroke:#ffffff;stroke-linecap:round;"/>
     </g>
     <g id="line2d_34"/>
     <g id="text_18">
      <!-- 0.00 -->
      <g style="fill:#262626;" transform="translate(248.429375 127.860017)scale(0.1 -0.1)">
       <use xlink:href="#DejaVuSans-30"/>
       <use x="63.623047" xlink:href="#DejaVuSans-2e"/>
       <use x="95.410156" xlink:href="#DejaVuSans-30"/>
       <use x="159.033203" xlink:href="#DejaVuSans-30"/>
      </g>
     </g>
    </g>
    <g id="ytick_4">
     <g id="line2d_35">
      <path clip-path="url(#pe4baebd01f)" d="M 277.695 99.186995 
L 439.92 99.186995 
" style="fill:none;stroke:#ffffff;stroke-linecap:round;"/>
     </g>
     <g id="line2d_36"/>
     <g id="text_19">
      <!-- 0.01 -->
      <g style="fill:#262626;" transform="translate(248.429375 102.986214)scale(0.1 -0.1)">
       <use xlink:href="#DejaVuSans-30"/>
       <use x="63.623047" xlink:href="#DejaVuSans-2e"/>
       <use x="95.410156" xlink:href="#DejaVuSans-30"/>
       <use x="159.033203" xlink:href="#DejaVuSans-31"/>
      </g>
     </g>
    </g>
    <g id="ytick_5">
     <g id="line2d_37">
      <path clip-path="url(#pe4baebd01f)" d="M 277.695 74.313193 
L 439.92 74.313193 
" style="fill:none;stroke:#ffffff;stroke-linecap:round;"/>
     </g>
     <g id="line2d_38"/>
     <g id="text_20">
      <!-- 0.02 -->
      <g style="fill:#262626;" transform="translate(248.429375 78.112411)scale(0.1 -0.1)">
       <use xlink:href="#DejaVuSans-30"/>
       <use x="63.623047" xlink:href="#DejaVuSans-2e"/>
       <use x="95.410156" xlink:href="#DejaVuSans-30"/>
       <use x="159.033203" xlink:href="#DejaVuSans-32"/>
      </g>
     </g>
    </g>
    <g id="ytick_6">
     <g id="line2d_39">
      <path clip-path="url(#pe4baebd01f)" d="M 277.695 49.43939 
L 439.92 49.43939 
" style="fill:none;stroke:#ffffff;stroke-linecap:round;"/>
     </g>
     <g id="line2d_40"/>
     <g id="text_21">
      <!-- 0.03 -->
      <defs>
       <path d="M 40.578125 39.3125 
Q 47.65625 37.796875 51.625 33 
Q 55.609375 28.21875 55.609375 21.1875 
Q 55.609375 10.40625 48.1875 4.484375 
Q 40.765625 -1.421875 27.09375 -1.421875 
Q 22.515625 -1.421875 17.65625 -0.515625 
Q 12.796875 0.390625 7.625 2.203125 
L 7.625 11.71875 
Q 11.71875 9.328125 16.59375 8.109375 
Q 21.484375 6.890625 26.8125 6.890625 
Q 36.078125 6.890625 40.9375 10.546875 
Q 45.796875 14.203125 45.796875 21.1875 
Q 45.796875 27.640625 41.28125 31.265625 
Q 36.765625 34.90625 28.71875 34.90625 
L 20.21875 34.90625 
L 20.21875 43.015625 
L 29.109375 43.015625 
Q 36.375 43.015625 40.234375 45.921875 
Q 44.09375 48.828125 44.09375 54.296875 
Q 44.09375 59.90625 40.109375 62.90625 
Q 36.140625 65.921875 28.71875 65.921875 
Q 24.65625 65.921875 20.015625 65.03125 
Q 15.375 64.15625 9.8125 62.3125 
L 9.8125 71.09375 
Q 15.4375 72.65625 20.34375 73.4375 
Q 25.25 74.21875 29.59375 74.21875 
Q 40.828125 74.21875 47.359375 69.109375 
Q 53.90625 64.015625 53.90625 55.328125 
Q 53.90625 49.265625 50.4375 45.09375 
Q 46.96875 40.921875 40.578125 39.3125 
z
" id="DejaVuSans-33"/>
      </defs>
      <g style="fill:#262626;" transform="translate(248.429375 53.238609)scale(0.1 -0.1)">
       <use xlink:href="#DejaVuSans-30"/>
       <use x="63.623047" xlink:href="#DejaVuSans-2e"/>
       <use x="95.410156" xlink:href="#DejaVuSans-30"/>
       <use x="159.033203" xlink:href="#DejaVuSans-33"/>
      </g>
     </g>
    </g>
   </g>
   <g id="line2d_41">
    <path clip-path="url(#pe4baebd01f)" d="M 277.695 46.330165 
L 278.432386 143.493456 
L 279.907159 65.762823 
L 280.644545 85.195481 
L 281.381932 65.762823 
L 282.119318 104.62814 
L 282.856705 85.195481 
L 284.331477 85.195481 
L 285.068864 65.762823 
L 285.80625 114.344469 
L 286.543636 104.62814 
L 287.281023 104.62814 
L 288.018409 65.762823 
L 288.755795 94.91181 
L 289.493182 104.62814 
L 290.230568 94.91181 
L 290.967955 104.62814 
L 291.705341 94.91181 
L 292.442727 94.91181 
L 293.180114 75.479152 
L 293.9175 104.62814 
L 295.392273 65.762823 
L 296.129659 85.195481 
L 296.867045 94.91181 
L 297.604432 65.762823 
L 298.341818 104.62814 
L 299.079205 46.330165 
L 299.816591 85.195481 
L 300.553977 65.762823 
L 301.291364 94.91181 
L 302.766136 94.91181 
L 303.503523 104.62814 
L 304.240909 85.195481 
L 304.978295 114.344469 
L 305.715682 85.195481 
L 306.453068 85.195481 
L 307.190455 75.479152 
L 307.927841 104.62814 
L 309.402614 65.762823 
L 310.14 85.195481 
L 310.877386 85.195481 
L 311.614773 104.62814 
L 312.352159 114.344469 
L 313.089545 75.479152 
L 313.826932 75.479152 
L 314.564318 104.62814 
L 316.039091 65.762823 
L 317.513864 104.62814 
L 318.25125 114.344469 
L 318.988636 85.195481 
L 320.463409 65.762823 
L 321.200795 65.762823 
L 321.938182 75.479152 
L 322.675568 104.62814 
L 323.412955 46.330165 
L 324.150341 104.62814 
L 324.887727 114.344469 
L 325.625114 94.91181 
L 326.3625 85.195481 
L 327.099886 94.91181 
L 327.837273 85.195481 
L 328.574659 85.195481 
L 329.312045 94.91181 
L 330.049432 85.195481 
L 330.786818 85.195481 
L 331.524205 65.762823 
L 332.261591 65.762823 
L 332.998977 114.344469 
L 333.736364 94.91181 
L 334.47375 65.762823 
L 335.211136 85.195481 
L 335.948523 94.91181 
L 336.685909 85.195481 
L 337.423295 94.91181 
L 338.160682 94.91181 
L 339.635455 75.479152 
L 340.372841 104.62814 
L 341.110227 94.91181 
L 341.847614 114.344469 
L 342.585 114.344469 
L 343.322386 85.195481 
L 344.059773 65.762823 
L 344.797159 104.62814 
L 345.534545 114.344469 
L 347.746705 85.195481 
L 348.484091 85.195481 
L 349.221477 56.046494 
L 349.958864 94.91181 
L 350.69625 94.91181 
L 351.433636 114.344469 
L 352.171023 85.195481 
L 352.908409 85.195481 
L 353.645795 104.62814 
L 354.383182 85.195481 
L 355.120568 94.91181 
L 355.857955 94.91181 
L 356.595341 114.344469 
L 357.332727 104.62814 
L 358.070114 114.344469 
L 359.544886 94.91181 
L 360.282273 104.62814 
L 361.019659 85.195481 
L 361.757045 104.62814 
L 362.494432 85.195481 
L 363.969205 65.762823 
L 365.443977 104.62814 
L 366.181364 65.762823 
L 367.656136 85.195481 
L 368.393523 85.195481 
L 369.130909 65.762823 
L 369.868295 75.479152 
L 370.605682 94.91181 
L 371.343068 85.195481 
L 372.080455 104.62814 
L 372.817841 114.344469 
L 373.555227 114.344469 
L 374.292614 85.195481 
L 375.03 75.479152 
L 375.767386 46.330165 
L 376.504773 85.195481 
L 377.242159 104.62814 
L 377.979545 114.344469 
L 378.716932 114.344469 
L 379.454318 56.046494 
L 380.191705 85.195481 
L 380.929091 94.91181 
L 382.403864 75.479152 
L 383.14125 75.479152 
L 383.878636 65.762823 
L 384.616023 85.195481 
L 385.353409 85.195481 
L 386.090795 65.762823 
L 386.828182 94.91181 
L 387.565568 104.62814 
L 388.302955 94.91181 
L 389.040341 75.479152 
L 389.777727 85.195481 
L 390.515114 104.62814 
L 391.2525 75.479152 
L 391.989886 56.046494 
L 392.727273 124.060798 
L 393.464659 75.479152 
L 394.202045 75.479152 
L 394.939432 114.344469 
L 396.414205 56.046494 
L 397.151591 85.195481 
L 397.888977 124.060798 
L 398.626364 65.762823 
L 399.36375 94.91181 
L 400.838523 94.91181 
L 401.575909 85.195481 
L 402.313295 65.762823 
L 403.050682 75.479152 
L 404.525455 75.479152 
L 406.000227 94.91181 
L 406.737614 56.046494 
L 407.475 75.479152 
L 408.212386 104.62814 
L 408.949773 85.195481 
L 409.687159 94.91181 
L 410.424545 65.762823 
L 411.161932 94.91181 
L 411.899318 85.195481 
L 412.636705 104.62814 
L 413.374091 85.195481 
L 414.111477 94.91181 
L 415.58625 75.479152 
L 417.798409 104.62814 
L 418.535795 85.195481 
L 419.273182 75.479152 
L 420.010568 85.195481 
L 420.747955 75.479152 
L 421.485341 94.91181 
L 422.222727 75.479152 
L 422.960114 94.91181 
L 423.6975 94.91181 
L 424.434886 104.62814 
L 425.172273 65.762823 
L 425.909659 85.195481 
L 426.647045 124.060798 
L 427.384432 104.62814 
L 428.121818 65.762823 
L 428.859205 85.195481 
L 429.596591 65.762823 
L 430.333977 104.62814 
L 431.071364 75.479152 
L 431.80875 94.91181 
L 432.546136 85.195481 
L 434.020909 85.195481 
L 434.758295 104.62814 
L 435.495682 85.195481 
L 436.233068 94.91181 
L 436.970455 94.91181 
L 437.707841 114.344469 
L 438.445227 94.91181 
L 438.445227 94.91181 
" style="fill:none;stroke:#4c72b0;stroke-linecap:round;stroke-width:1.75;"/>
   </g>
   <g id="line2d_42">
    <path clip-path="url(#pe4baebd01f)" d="M 277.695 88.478625 
L 438.445227 88.478625 
" style="fill:none;stroke:#55a868;stroke-linecap:round;stroke-width:1.75;"/>
   </g>
   <g id="patch_8">
    <path d="M 277.695 148.351621 
L 277.695 41.472 
" style="fill:none;"/>
   </g>
   <g id="patch_9">
    <path d="M 439.92 148.351621 
L 439.92 41.472 
" style="fill:none;"/>
   </g>
   <g id="patch_10">
    <path d="M 277.695 148.351621 
L 439.92 148.351621 
" style="fill:none;"/>
   </g>
   <g id="patch_11">
    <path d="M 277.695 41.472 
L 439.92 41.472 
" style="fill:none;"/>
   </g>
   <g id="text_22">
    <!-- $G_y$ -->
    <defs>
     <path d="M 24.8125 -5.078125 
Q 18.5625 -15.578125 14.625 -18.1875 
Q 10.6875 -20.796875 4.59375 -20.796875 
L -2.484375 -20.796875 
L -0.984375 -13.28125 
L 4.203125 -13.28125 
Q 7.953125 -13.28125 10.59375 -11.234375 
Q 13.234375 -9.1875 16.5 -3.21875 
L 19.28125 2 
L 7.171875 54.6875 
L 16.703125 54.6875 
L 25.78125 12.796875 
L 50.875 54.6875 
L 60.296875 54.6875 
z
" id="DejaVuSans-Oblique-79"/>
    </defs>
    <g style="fill:#262626;" transform="translate(351.4875 35.472)scale(0.12 -0.12)">
     <use transform="translate(0 0.78125)" xlink:href="#DejaVuSans-Oblique-47"/>
     <use transform="translate(77.490234 -15.625)scale(0.7)" xlink:href="#DejaVuSans-Oblique-79"/>
    </g>
   </g>
   <g id="legend_2">
    <g id="line2d_43">
     <path d="M 286.695 133.771933 
L 306.695 133.771933 
" style="fill:none;stroke:#55a868;stroke-linecap:round;stroke-width:1.75;"/>
    </g>
    <g id="line2d_44"/>
    <g id="text_23">
     <!-- mean -->
     <g style="fill:#262626;" transform="translate(314.695 137.271933)scale(0.1 -0.1)">
      <use xlink:href="#DejaVuSans-6d"/>
      <use x="97.412109" xlink:href="#DejaVuSans-65"/>
      <use x="158.935547" xlink:href="#DejaVuSans-61"/>
      <use x="220.214844" xlink:href="#DejaVuSans-6e"/>
     </g>
    </g>
   </g>
  </g>
  <g id="axes_3">
   <g id="patch_12">
    <path d="M 65.27 300.76 
L 227.495 300.76 
L 227.495 193.880379 
L 65.27 193.880379 
z
" style="fill:#eaeaf2;"/>
   </g>
   <g id="matplotlib.axis_5">
    <g id="xtick_13">
     <g id="line2d_45">
      <path clip-path="url(#paee4645752)" d="M 65.27 300.76 
L 65.27 193.880379 
" style="fill:none;stroke:#ffffff;stroke-linecap:round;"/>
     </g>
     <g id="line2d_46"/>
     <g id="text_24">
      <!-- 0.0 -->
      <g style="fill:#262626;" transform="translate(57.318438 315.358437)scale(0.1 -0.1)">
       <use xlink:href="#DejaVuSans-30"/>
       <use x="63.623047" xlink:href="#DejaVuSans-2e"/>
       <use x="95.410156" xlink:href="#DejaVuSans-30"/>
      </g>
     </g>
    </g>
    <g id="xtick_14">
     <g id="line2d_47">
      <path clip-path="url(#paee4645752)" d="M 97.715 300.76 
L 97.715 193.880379 
" style="fill:none;stroke:#ffffff;stroke-linecap:round;"/>
     </g>
     <g id="line2d_48"/>
     <g id="text_25">
      <!-- 0.2 -->
      <g style="fill:#262626;" transform="translate(89.763438 315.358437)scale(0.1 -0.1)">
       <use xlink:href="#DejaVuSans-30"/>
       <use x="63.623047" xlink:href="#DejaVuSans-2e"/>
       <use x="95.410156" xlink:href="#DejaVuSans-32"/>
      </g>
     </g>
    </g>
    <g id="xtick_15">
     <g id="line2d_49">
      <path clip-path="url(#paee4645752)" d="M 130.16 300.76 
L 130.16 193.880379 
" style="fill:none;stroke:#ffffff;stroke-linecap:round;"/>
     </g>
     <g id="line2d_50"/>
     <g id="text_26">
      <!-- 0.4 -->
      <g style="fill:#262626;" transform="translate(122.208438 315.358437)scale(0.1 -0.1)">
       <use xlink:href="#DejaVuSans-30"/>
       <use x="63.623047" xlink:href="#DejaVuSans-2e"/>
       <use x="95.410156" xlink:href="#DejaVuSans-34"/>
      </g>
     </g>
    </g>
    <g id="xtick_16">
     <g id="line2d_51">
      <path clip-path="url(#paee4645752)" d="M 162.605 300.76 
L 162.605 193.880379 
" style="fill:none;stroke:#ffffff;stroke-linecap:round;"/>
     </g>
     <g id="line2d_52"/>
     <g id="text_27">
      <!-- 0.6 -->
      <g style="fill:#262626;" transform="translate(154.653438 315.358437)scale(0.1 -0.1)">
       <use xlink:href="#DejaVuSans-30"/>
       <use x="63.623047" xlink:href="#DejaVuSans-2e"/>
       <use x="95.410156" xlink:href="#DejaVuSans-36"/>
      </g>
     </g>
    </g>
    <g id="xtick_17">
     <g id="line2d_53">
      <path clip-path="url(#paee4645752)" d="M 195.05 300.76 
L 195.05 193.880379 
" style="fill:none;stroke:#ffffff;stroke-linecap:round;"/>
     </g>
     <g id="line2d_54"/>
     <g id="text_28">
      <!-- 0.8 -->
      <g style="fill:#262626;" transform="translate(187.098438 315.358437)scale(0.1 -0.1)">
       <use xlink:href="#DejaVuSans-30"/>
       <use x="63.623047" xlink:href="#DejaVuSans-2e"/>
       <use x="95.410156" xlink:href="#DejaVuSans-38"/>
      </g>
     </g>
    </g>
    <g id="xtick_18">
     <g id="line2d_55">
      <path clip-path="url(#paee4645752)" d="M 227.495 300.76 
L 227.495 193.880379 
" style="fill:none;stroke:#ffffff;stroke-linecap:round;"/>
     </g>
     <g id="line2d_56"/>
     <g id="text_29">
      <!-- 1.0 -->
      <g style="fill:#262626;" transform="translate(219.543438 315.358437)scale(0.1 -0.1)">
       <use xlink:href="#DejaVuSans-31"/>
       <use x="63.623047" xlink:href="#DejaVuSans-2e"/>
       <use x="95.410156" xlink:href="#DejaVuSans-30"/>
      </g>
     </g>
    </g>
    <g id="text_30">
     <!-- Time (s) -->
     <defs>
      <path d="M -0.296875 72.90625 
L 61.375 72.90625 
L 61.375 64.59375 
L 35.5 64.59375 
L 35.5 0 
L 25.59375 0 
L 25.59375 64.59375 
L -0.296875 64.59375 
z
" id="DejaVuSans-54"/>
      <path d="M 44.28125 53.078125 
L 44.28125 44.578125 
Q 40.484375 46.53125 36.375 47.5 
Q 32.28125 48.484375 27.875 48.484375 
Q 21.1875 48.484375 17.84375 46.4375 
Q 14.5 44.390625 14.5 40.28125 
Q 14.5 37.15625 16.890625 35.375 
Q 19.28125 33.59375 26.515625 31.984375 
L 29.59375 31.296875 
Q 39.15625 29.25 43.1875 25.515625 
Q 47.21875 21.78125 47.21875 15.09375 
Q 47.21875 7.46875 41.1875 3.015625 
Q 35.15625 -1.421875 24.609375 -1.421875 
Q 20.21875 -1.421875 15.453125 -0.5625 
Q 10.6875 0.296875 5.421875 2 
L 5.421875 11.28125 
Q 10.40625 8.6875 15.234375 7.390625 
Q 20.0625 6.109375 24.8125 6.109375 
Q 31.15625 6.109375 34.5625 8.28125 
Q 37.984375 10.453125 37.984375 14.40625 
Q 37.984375 18.0625 35.515625 20.015625 
Q 33.0625 21.96875 24.703125 23.78125 
L 21.578125 24.515625 
Q 13.234375 26.265625 9.515625 29.90625 
Q 5.8125 33.546875 5.8125 39.890625 
Q 5.8125 47.609375 11.28125 51.796875 
Q 16.75 56 26.8125 56 
Q 31.78125 56 36.171875 55.265625 
Q 40.578125 54.546875 44.28125 53.078125 
z
" id="DejaVuSans-73"/>
     </defs>
     <g style="fill:#262626;" transform="translate(123.851406 329.796406)scale(0.11 -0.11)">
      <use xlink:href="#DejaVuSans-54"/>
      <use x="61.037109" xlink:href="#DejaVuSans-69"/>
      <use x="88.820312" xlink:href="#DejaVuSans-6d"/>
      <use x="186.232422" xlink:href="#DejaVuSans-65"/>
      <use x="247.755859" xlink:href="#DejaVuSans-20"/>
      <use x="279.542969" xlink:href="#DejaVuSans-28"/>
      <use x="318.556641" xlink:href="#DejaVuSans-73"/>
      <use x="370.65625" xlink:href="#DejaVuSans-29"/>
     </g>
    </g>
   </g>
   <g id="matplotlib.axis_6">
    <g id="ytick_7">
     <g id="line2d_57">
      <path clip-path="url(#paee4645752)" d="M 65.27 292.314268 
L 227.495 292.314268 
" style="fill:none;stroke:#ffffff;stroke-linecap:round;"/>
     </g>
     <g id="line2d_58"/>
     <g id="text_31">
      <!-- 1.08 -->
      <g style="fill:#262626;" transform="translate(36.004375 296.113486)scale(0.1 -0.1)">
       <use xlink:href="#DejaVuSans-31"/>
       <use x="63.623047" xlink:href="#DejaVuSans-2e"/>
       <use x="95.410156" xlink:href="#DejaVuSans-30"/>
       <use x="159.033203" xlink:href="#DejaVuSans-38"/>
      </g>
     </g>
    </g>
    <g id="ytick_8">
     <g id="line2d_59">
      <path clip-path="url(#paee4645752)" d="M 65.27 254.046879 
L 227.495 254.046879 
" style="fill:none;stroke:#ffffff;stroke-linecap:round;"/>
     </g>
     <g id="line2d_60"/>
     <g id="text_32">
      <!-- 1.10 -->
      <g style="fill:#262626;" transform="translate(36.004375 257.846098)scale(0.1 -0.1)">
       <use xlink:href="#DejaVuSans-31"/>
       <use x="63.623047" xlink:href="#DejaVuSans-2e"/>
       <use x="95.410156" xlink:href="#DejaVuSans-31"/>
       <use x="159.033203" xlink:href="#DejaVuSans-30"/>
      </g>
     </g>
    </g>
    <g id="ytick_9">
     <g id="line2d_61">
      <path clip-path="url(#paee4645752)" d="M 65.27 215.77949 
L 227.495 215.77949 
" style="fill:none;stroke:#ffffff;stroke-linecap:round;"/>
     </g>
     <g id="line2d_62"/>
     <g id="text_33">
      <!-- 1.12 -->
      <g style="fill:#262626;" transform="translate(36.004375 219.578709)scale(0.1 -0.1)">
       <use xlink:href="#DejaVuSans-31"/>
       <use x="63.623047" xlink:href="#DejaVuSans-2e"/>
       <use x="95.410156" xlink:href="#DejaVuSans-31"/>
       <use x="159.033203" xlink:href="#DejaVuSans-32"/>
      </g>
     </g>
    </g>
    <g id="text_34">
     <!-- Acceleration (g) -->
     <g style="fill:#262626;" transform="translate(29.716719 291.124252)rotate(-90)scale(0.11 -0.11)">
      <use xlink:href="#DejaVuSans-41"/>
      <use x="68.392578" xlink:href="#DejaVuSans-63"/>
      <use x="123.373047" xlink:href="#DejaVuSans-63"/>
      <use x="178.353516" xlink:href="#DejaVuSans-65"/>
      <use x="239.876953" xlink:href="#DejaVuSans-6c"/>
      <use x="267.660156" xlink:href="#DejaVuSans-65"/>
      <use x="329.183594" xlink:href="#DejaVuSans-72"/>
      <use x="370.296875" xlink:href="#DejaVuSans-61"/>
      <use x="431.576172" xlink:href="#DejaVuSans-74"/>
      <use x="470.785156" xlink:href="#DejaVuSans-69"/>
      <use x="498.568359" xlink:href="#DejaVuSans-6f"/>
      <use x="559.75" xlink:href="#DejaVuSans-6e"/>
      <use x="623.128906" xlink:href="#DejaVuSans-20"/>
      <use x="654.916016" xlink:href="#DejaVuSans-28"/>
      <use x="693.929688" xlink:href="#DejaVuSans-67"/>
      <use x="757.40625" xlink:href="#DejaVuSans-29"/>
     </g>
    </g>
   </g>
   <g id="line2d_63">
    <path clip-path="url(#paee4645752)" d="M 65.27 228.634941 
L 66.744773 228.634941 
L 67.482159 213.686742 
L 68.219545 243.58314 
L 68.956932 266.005438 
L 69.694318 273.479537 
L 70.431705 221.160842 
L 71.169091 236.10904 
L 71.906477 236.10904 
L 73.38125 251.057239 
L 74.118636 228.634941 
L 74.856023 258.531339 
L 75.593409 273.479537 
L 76.330795 266.005438 
L 77.068182 228.634941 
L 77.805568 243.58314 
L 78.542955 273.479537 
L 79.280341 266.005438 
L 80.017727 236.10904 
L 80.755114 198.738544 
L 82.229886 295.901835 
L 82.967273 251.057239 
L 83.704659 228.634941 
L 84.442045 228.634941 
L 85.179432 258.531339 
L 85.916818 243.58314 
L 86.654205 221.160842 
L 87.391591 228.634941 
L 88.128977 228.634941 
L 88.866364 243.58314 
L 89.60375 221.160842 
L 90.341136 243.58314 
L 91.078523 221.160842 
L 91.815909 243.58314 
L 92.553295 273.479537 
L 93.290682 221.160842 
L 94.028068 228.634941 
L 94.765455 266.005438 
L 95.502841 266.005438 
L 96.240227 236.10904 
L 96.977614 251.057239 
L 97.715 251.057239 
L 98.452386 258.531339 
L 99.189773 258.531339 
L 99.927159 273.479537 
L 100.664545 228.634941 
L 102.139318 258.531339 
L 102.876705 258.531339 
L 103.614091 243.58314 
L 104.351477 251.057239 
L 105.088864 236.10904 
L 105.82625 236.10904 
L 106.563636 221.160842 
L 107.301023 221.160842 
L 108.038409 251.057239 
L 108.775795 273.479537 
L 110.987955 228.634941 
L 111.725341 266.005438 
L 112.462727 236.10904 
L 113.200114 221.160842 
L 113.9375 228.634941 
L 114.674886 258.531339 
L 115.412273 258.531339 
L 116.149659 266.005438 
L 116.887045 243.58314 
L 117.624432 213.686742 
L 118.361818 236.10904 
L 119.099205 236.10904 
L 120.573977 206.212643 
L 121.311364 243.58314 
L 122.04875 251.057239 
L 123.523523 206.212643 
L 124.260909 258.531339 
L 124.998295 258.531339 
L 125.735682 251.057239 
L 127.947841 251.057239 
L 128.685227 266.005438 
L 129.422614 251.057239 
L 130.16 206.212643 
L 130.897386 243.58314 
L 131.634773 266.005438 
L 132.372159 273.479537 
L 133.109545 228.634941 
L 133.846932 228.634941 
L 134.584318 258.531339 
L 135.321705 273.479537 
L 136.059091 258.531339 
L 136.796477 228.634941 
L 137.533864 266.005438 
L 138.27125 258.531339 
L 139.008636 243.58314 
L 139.746023 258.531339 
L 140.483409 251.057239 
L 141.220795 258.531339 
L 141.958182 273.479537 
L 142.695568 243.58314 
L 143.432955 228.634941 
L 144.170341 258.531339 
L 144.907727 258.531339 
L 145.645114 251.057239 
L 146.3825 228.634941 
L 147.119886 236.10904 
L 147.857273 266.005438 
L 148.594659 266.005438 
L 149.332045 251.057239 
L 150.069432 228.634941 
L 150.806818 213.686742 
L 151.544205 280.953637 
L 152.281591 228.634941 
L 153.018977 228.634941 
L 153.756364 258.531339 
L 154.49375 251.057239 
L 155.231136 251.057239 
L 155.968523 266.005438 
L 156.705909 251.057239 
L 158.180682 251.057239 
L 158.918068 236.10904 
L 159.655455 243.58314 
L 160.392841 273.479537 
L 161.867614 243.58314 
L 162.605 258.531339 
L 163.342386 236.10904 
L 164.817159 280.953637 
L 165.554545 243.58314 
L 166.291932 228.634941 
L 167.029318 266.005438 
L 169.241477 266.005438 
L 169.978864 243.58314 
L 170.71625 243.58314 
L 171.453636 273.479537 
L 172.191023 251.057239 
L 172.928409 251.057239 
L 173.665795 243.58314 
L 174.403182 266.005438 
L 175.140568 243.58314 
L 175.877955 236.10904 
L 176.615341 221.160842 
L 177.352727 236.10904 
L 178.090114 266.005438 
L 178.8275 228.634941 
L 179.564886 228.634941 
L 180.302273 251.057239 
L 181.039659 243.58314 
L 181.777045 266.005438 
L 182.514432 258.531339 
L 183.251818 228.634941 
L 183.989205 236.10904 
L 184.726591 266.005438 
L 185.463977 221.160842 
L 186.201364 228.634941 
L 186.93875 243.58314 
L 188.413523 258.531339 
L 189.150909 236.10904 
L 189.888295 243.58314 
L 190.625682 243.58314 
L 191.363068 266.005438 
L 192.100455 251.057239 
L 192.837841 228.634941 
L 193.575227 258.531339 
L 195.05 258.531339 
L 195.787386 266.005438 
L 196.524773 228.634941 
L 197.999545 273.479537 
L 198.736932 251.057239 
L 199.474318 251.057239 
L 200.211705 243.58314 
L 200.949091 266.005438 
L 201.686477 251.057239 
L 202.423864 213.686742 
L 203.16125 236.10904 
L 203.898636 243.58314 
L 204.636023 243.58314 
L 205.373409 266.005438 
L 206.110795 251.057239 
L 206.848182 221.160842 
L 207.585568 258.531339 
L 208.322955 228.634941 
L 209.060341 236.10904 
L 209.797727 213.686742 
L 210.535114 251.057239 
L 211.2725 258.531339 
L 212.009886 228.634941 
L 212.747273 228.634941 
L 213.484659 266.005438 
L 214.222045 288.427736 
L 214.959432 251.057239 
L 215.696818 228.634941 
L 216.434205 236.10904 
L 217.171591 251.057239 
L 217.908977 280.953637 
L 218.646364 243.58314 
L 220.121136 258.531339 
L 220.858523 258.531339 
L 221.595909 288.427736 
L 223.070682 213.686742 
L 223.808068 258.531339 
L 224.545455 258.531339 
L 225.282841 236.10904 
L 226.020227 236.10904 
L 226.020227 236.10904 
" style="fill:none;stroke:#4c72b0;stroke-linecap:round;stroke-width:1.75;"/>
   </g>
   <g id="line2d_64">
    <path clip-path="url(#paee4645752)" d="M 65.27 246.791201 
L 226.020227 246.791201 
" style="fill:none;stroke:#55a868;stroke-linecap:round;stroke-width:1.75;"/>
   </g>
   <g id="patch_13">
    <path d="M 65.27 300.76 
L 65.27 193.880379 
" style="fill:none;"/>
   </g>
   <g id="patch_14">
    <path d="M 227.495 300.76 
L 227.495 193.880379 
" style="fill:none;"/>
   </g>
   <g id="patch_15">
    <path d="M 65.27 300.76 
L 227.495 300.76 
" style="fill:none;"/>
   </g>
   <g id="patch_16">
    <path d="M 65.27 193.880379 
L 227.495 193.880379 
" style="fill:none;"/>
   </g>
   <g id="text_35">
    <!-- $G_z$ -->
    <defs>
     <path d="M 11.625 54.6875 
L 54.296875 54.6875 
L 52.6875 46.484375 
L 11.53125 7.171875 
L 45.515625 7.171875 
L 44.09375 0 
L -0.296875 0 
L 1.3125 8.203125 
L 42.484375 47.515625 
L 10.203125 47.515625 
z
" id="DejaVuSans-Oblique-7a"/>
    </defs>
    <g style="fill:#262626;" transform="translate(139.3625 187.880379)scale(0.12 -0.12)">
     <use transform="translate(0 0.78125)" xlink:href="#DejaVuSans-Oblique-47"/>
     <use transform="translate(77.490234 -15.625)scale(0.7)" xlink:href="#DejaVuSans-Oblique-7a"/>
    </g>
   </g>
   <g id="legend_3">
    <g id="line2d_65">
     <path d="M 74.27 286.180312 
L 94.27 286.180312 
" style="fill:none;stroke:#55a868;stroke-linecap:round;stroke-width:1.75;"/>
    </g>
    <g id="line2d_66"/>
    <g id="text_36">
     <!-- mean -->
     <g style="fill:#262626;" transform="translate(102.27 289.680312)scale(0.1 -0.1)">
      <use xlink:href="#DejaVuSans-6d"/>
      <use x="97.412109" xlink:href="#DejaVuSans-65"/>
      <use x="158.935547" xlink:href="#DejaVuSans-61"/>
      <use x="220.214844" xlink:href="#DejaVuSans-6e"/>
     </g>
    </g>
   </g>
  </g>
  <g id="axes_4">
   <g id="patch_17">
    <path d="M 277.695 300.76 
L 439.92 300.76 
L 439.92 193.880379 
L 277.695 193.880379 
z
" style="fill:#eaeaf2;"/>
   </g>
   <g id="matplotlib.axis_7">
    <g id="xtick_19">
     <g id="line2d_67">
      <path clip-path="url(#p60e004c033)" d="M 277.695 300.76 
L 277.695 193.880379 
" style="fill:none;stroke:#ffffff;stroke-linecap:round;"/>
     </g>
     <g id="line2d_68"/>
     <g id="text_37">
      <!-- 0.0 -->
      <g style="fill:#262626;" transform="translate(269.743437 315.358437)scale(0.1 -0.1)">
       <use xlink:href="#DejaVuSans-30"/>
       <use x="63.623047" xlink:href="#DejaVuSans-2e"/>
       <use x="95.410156" xlink:href="#DejaVuSans-30"/>
      </g>
     </g>
    </g>
    <g id="xtick_20">
     <g id="line2d_69">
      <path clip-path="url(#p60e004c033)" d="M 310.14 300.76 
L 310.14 193.880379 
" style="fill:none;stroke:#ffffff;stroke-linecap:round;"/>
     </g>
     <g id="line2d_70"/>
     <g id="text_38">
      <!-- 0.2 -->
      <g style="fill:#262626;" transform="translate(302.188437 315.358437)scale(0.1 -0.1)">
       <use xlink:href="#DejaVuSans-30"/>
       <use x="63.623047" xlink:href="#DejaVuSans-2e"/>
       <use x="95.410156" xlink:href="#DejaVuSans-32"/>
      </g>
     </g>
    </g>
    <g id="xtick_21">
     <g id="line2d_71">
      <path clip-path="url(#p60e004c033)" d="M 342.585 300.76 
L 342.585 193.880379 
" style="fill:none;stroke:#ffffff;stroke-linecap:round;"/>
     </g>
     <g id="line2d_72"/>
     <g id="text_39">
      <!-- 0.4 -->
      <g style="fill:#262626;" transform="translate(334.633437 315.358437)scale(0.1 -0.1)">
       <use xlink:href="#DejaVuSans-30"/>
       <use x="63.623047" xlink:href="#DejaVuSans-2e"/>
       <use x="95.410156" xlink:href="#DejaVuSans-34"/>
      </g>
     </g>
    </g>
    <g id="xtick_22">
     <g id="line2d_73">
      <path clip-path="url(#p60e004c033)" d="M 375.03 300.76 
L 375.03 193.880379 
" style="fill:none;stroke:#ffffff;stroke-linecap:round;"/>
     </g>
     <g id="line2d_74"/>
     <g id="text_40">
      <!-- 0.6 -->
      <g style="fill:#262626;" transform="translate(367.078437 315.358437)scale(0.1 -0.1)">
       <use xlink:href="#DejaVuSans-30"/>
       <use x="63.623047" xlink:href="#DejaVuSans-2e"/>
       <use x="95.410156" xlink:href="#DejaVuSans-36"/>
      </g>
     </g>
    </g>
    <g id="xtick_23">
     <g id="line2d_75">
      <path clip-path="url(#p60e004c033)" d="M 407.475 300.76 
L 407.475 193.880379 
" style="fill:none;stroke:#ffffff;stroke-linecap:round;"/>
     </g>
     <g id="line2d_76"/>
     <g id="text_41">
      <!-- 0.8 -->
      <g style="fill:#262626;" transform="translate(399.523437 315.358437)scale(0.1 -0.1)">
       <use xlink:href="#DejaVuSans-30"/>
       <use x="63.623047" xlink:href="#DejaVuSans-2e"/>
       <use x="95.410156" xlink:href="#DejaVuSans-38"/>
      </g>
     </g>
    </g>
    <g id="xtick_24">
     <g id="line2d_77">
      <path clip-path="url(#p60e004c033)" d="M 439.92 300.76 
L 439.92 193.880379 
" style="fill:none;stroke:#ffffff;stroke-linecap:round;"/>
     </g>
     <g id="line2d_78"/>
     <g id="text_42">
      <!-- 1.0 -->
      <g style="fill:#262626;" transform="translate(431.968437 315.358437)scale(0.1 -0.1)">
       <use xlink:href="#DejaVuSans-31"/>
       <use x="63.623047" xlink:href="#DejaVuSans-2e"/>
       <use x="95.410156" xlink:href="#DejaVuSans-30"/>
      </g>
     </g>
    </g>
    <g id="text_43">
     <!-- Time (s) -->
     <g style="fill:#262626;" transform="translate(336.276406 329.796406)scale(0.11 -0.11)">
      <use xlink:href="#DejaVuSans-54"/>
      <use x="61.037109" xlink:href="#DejaVuSans-69"/>
      <use x="88.820312" xlink:href="#DejaVuSans-6d"/>
      <use x="186.232422" xlink:href="#DejaVuSans-65"/>
      <use x="247.755859" xlink:href="#DejaVuSans-20"/>
      <use x="279.542969" xlink:href="#DejaVuSans-28"/>
      <use x="318.556641" xlink:href="#DejaVuSans-73"/>
      <use x="370.65625" xlink:href="#DejaVuSans-29"/>
     </g>
    </g>
   </g>
   <g id="matplotlib.axis_8">
    <g id="ytick_10">
     <g id="line2d_79">
      <path clip-path="url(#p60e004c033)" d="M 277.695 292.663007 
L 439.92 292.663007 
" style="fill:none;stroke:#ffffff;stroke-linecap:round;"/>
     </g>
     <g id="line2d_80"/>
     <g id="text_44">
      <!-- 1.08 -->
      <g style="fill:#262626;" transform="translate(248.429375 296.462226)scale(0.1 -0.1)">
       <use xlink:href="#DejaVuSans-31"/>
       <use x="63.623047" xlink:href="#DejaVuSans-2e"/>
       <use x="95.410156" xlink:href="#DejaVuSans-30"/>
       <use x="159.033203" xlink:href="#DejaVuSans-38"/>
      </g>
     </g>
    </g>
    <g id="ytick_11">
     <g id="line2d_81">
      <path clip-path="url(#p60e004c033)" d="M 277.695 254.516531 
L 439.92 254.516531 
" style="fill:none;stroke:#ffffff;stroke-linecap:round;"/>
     </g>
     <g id="line2d_82"/>
     <g id="text_45">
      <!-- 1.10 -->
      <g style="fill:#262626;" transform="translate(248.429375 258.31575)scale(0.1 -0.1)">
       <use xlink:href="#DejaVuSans-31"/>
       <use x="63.623047" xlink:href="#DejaVuSans-2e"/>
       <use x="95.410156" xlink:href="#DejaVuSans-31"/>
       <use x="159.033203" xlink:href="#DejaVuSans-30"/>
      </g>
     </g>
    </g>
    <g id="ytick_12">
     <g id="line2d_83">
      <path clip-path="url(#p60e004c033)" d="M 277.695 216.370055 
L 439.92 216.370055 
" style="fill:none;stroke:#ffffff;stroke-linecap:round;"/>
     </g>
     <g id="line2d_84"/>
     <g id="text_46">
      <!-- 1.12 -->
      <g style="fill:#262626;" transform="translate(248.429375 220.169274)scale(0.1 -0.1)">
       <use xlink:href="#DejaVuSans-31"/>
       <use x="63.623047" xlink:href="#DejaVuSans-2e"/>
       <use x="95.410156" xlink:href="#DejaVuSans-31"/>
       <use x="159.033203" xlink:href="#DejaVuSans-32"/>
      </g>
     </g>
    </g>
   </g>
   <g id="line2d_85">
    <path clip-path="url(#p60e004c033)" d="M 277.695 228.021884 
L 278.432386 229.119533 
L 279.169773 229.119533 
L 279.907159 213.349569 
L 280.644545 243.862088 
L 281.381932 265.625892 
L 282.119318 273.620763 
L 282.856705 221.408795 
L 283.594091 236.412392 
L 284.331477 236.373046 
L 285.80625 251.470288 
L 286.543636 229.01497 
L 287.281023 258.602401 
L 288.018409 273.393819 
L 288.755795 266.197839 
L 289.493182 229.119533 
L 290.230568 243.848926 
L 290.967955 273.834381 
L 291.705341 266.317568 
L 292.442727 236.464856 
L 293.180114 198.738544 
L 294.654886 295.901835 
L 295.392273 251.008001 
L 296.129659 228.923483 
L 296.867045 228.949622 
L 297.604432 257.860272 
L 298.341818 243.914737 
L 299.079205 220.575465 
L 299.816591 228.858136 
L 300.553977 227.656127 
L 301.291364 243.914737 
L 302.02875 221.408795 
L 302.766136 243.638346 
L 303.503523 221.669278 
L 304.240909 243.756795 
L 304.978295 273.754271 
L 305.715682 221.408795 
L 306.453068 228.923483 
L 307.190455 265.985003 
L 307.927841 266.264354 
L 308.665227 236.09764 
L 309.402614 250.585427 
L 310.14 250.677858 
L 310.877386 258.562637 
L 311.614773 258.721696 
L 312.352159 273.660815 
L 313.089545 228.649043 
L 314.564318 258.456605 
L 315.301705 258.774719 
L 316.039091 243.493584 
L 316.776477 251.113658 
L 317.513864 236.464856 
L 318.25125 236.504204 
L 318.988636 221.473913 
L 319.726023 221.356703 
L 320.463409 251.047622 
L 321.200795 272.326177 
L 322.675568 243.98055 
L 323.412955 228.296243 
L 324.150341 266.264354 
L 324.887727 236.504204 
L 325.625114 221.49996 
L 326.3625 228.858136 
L 327.099886 258.814486 
L 327.837273 258.65542 
L 328.574659 266.011606 
L 329.312045 243.914737 
L 330.049432 214.024337 
L 330.786818 236.412392 
L 331.524205 236.150095 
L 332.998977 206.820501 
L 333.736364 243.756795 
L 334.47375 250.849526 
L 335.948523 206.66529 
L 336.685909 258.562637 
L 337.423295 258.65542 
L 338.160682 251.29857 
L 338.898068 251.113658 
L 339.635455 251.15328 
L 340.372841 251.364614 
L 341.110227 266.317568 
L 341.847614 251.192904 
L 342.585 206.497156 
L 343.322386 243.230407 
L 344.059773 265.945099 
L 344.797159 273.353772 
L 345.534545 229.054181 
L 346.271932 229.080321 
L 347.009318 258.536129 
L 347.746705 273.340423 
L 348.484091 258.562637 
L 349.221477 228.426903 
L 349.958864 266.10472 
L 350.69625 258.748207 
L 351.433636 244.020038 
L 352.171023 258.65542 
L 352.908409 251.206112 
L 353.645795 258.814486 
L 354.383182 273.620763 
L 355.120568 243.756795 
L 355.857955 228.858136 
L 356.595341 258.960307 
L 357.332727 258.880767 
L 358.070114 251.311778 
L 358.8075 229.119533 
L 359.544886 236.30747 
L 360.282273 266.330872 
L 361.019659 266.10472 
L 361.757045 251.470288 
L 362.494432 228.923483 
L 363.231818 213.842647 
L 363.969205 280.802335 
L 364.706591 228.923483 
L 365.443977 229.132603 
L 366.181364 258.496366 
L 366.91875 251.15328 
L 367.656136 251.206112 
L 368.393523 266.224445 
L 369.130909 251.060829 
L 369.868295 250.994794 
L 370.605682 251.29857 
L 371.343068 236.215667 
L 372.080455 243.914737 
L 372.817841 273.754271 
L 374.292614 243.862088 
L 375.03 258.536129 
L 375.767386 235.468275 
L 377.242159 281.231073 
L 377.979545 243.743633 
L 378.716932 228.701314 
L 379.454318 265.732289 
L 380.191705 266.211142 
L 380.929091 265.985003 
L 381.666477 266.171233 
L 382.403864 243.427787 
L 383.14125 243.28304 
L 383.878636 273.353772 
L 384.616023 251.113658 
L 385.353409 251.324987 
L 386.090795 243.493584 
L 386.828182 266.264354 
L 387.565568 244.020038 
L 388.302955 236.189438 
L 389.040341 221.356703 
L 389.777727 236.373046 
L 390.515114 266.264354 
L 391.2525 228.740519 
L 391.989886 228.426903 
L 392.727273 251.483498 
L 393.464659 243.743633 
L 394.202045 266.051512 
L 394.939432 258.854255 
L 395.676818 228.766655 
L 396.414205 235.874718 
L 397.151591 266.011606 
L 397.888977 221.721378 
L 398.626364 228.596772 
L 399.36375 243.756795 
L 400.838523 258.814486 
L 401.575909 236.215667 
L 402.313295 243.401468 
L 403.050682 243.70415 
L 403.788068 266.051512 
L 404.525455 251.192904 
L 405.262841 228.649043 
L 406.000227 258.854255 
L 406.737614 258.125288 
L 407.475 258.536129 
L 408.212386 266.370784 
L 408.949773 228.858136 
L 410.424545 273.393819 
L 411.161932 250.941968 
L 411.899318 251.113658 
L 412.636705 243.70415 
L 413.374091 265.745589 
L 414.111477 251.404241 
L 414.848864 214.063272 
L 415.58625 235.835382 
L 416.323636 243.664667 
L 417.061023 243.848926 
L 417.798409 265.905195 
L 418.535795 250.994794 
L 419.273182 221.395772 
L 420.010568 258.65542 
L 420.747955 228.740519 
L 421.485341 236.504204 
L 422.222727 213.907535 
L 422.960114 251.206112 
L 423.6975 258.748207 
L 424.434886 229.01497 
L 425.172273 228.596772 
L 425.909659 266.10472 
L 426.647045 288.734962 
L 427.384432 251.483498 
L 428.121818 228.243982 
L 428.859205 236.373046 
L 429.596591 250.941968 
L 430.333977 281.231073 
L 431.071364 243.756795 
L 432.546136 258.443351 
L 433.283523 258.65542 
L 434.020909 288.519802 
L 435.495682 214.024337 
L 436.233068 258.814486 
L 436.970455 258.854255 
L 437.707841 236.412392 
L 438.445227 236.504204 
L 438.445227 236.504204 
" style="fill:none;stroke:#4c72b0;stroke-linecap:round;stroke-width:1.75;"/>
   </g>
   <g id="patch_18">
    <path d="M 277.695 300.76 
L 277.695 193.880379 
" style="fill:none;"/>
   </g>
   <g id="patch_19">
    <path d="M 439.92 300.76 
L 439.92 193.880379 
" style="fill:none;"/>
   </g>
   <g id="patch_20">
    <path d="M 277.695 300.76 
L 439.92 300.76 
" style="fill:none;"/>
   </g>
   <g id="patch_21">
    <path d="M 277.695 193.880379 
L 439.92 193.880379 
" style="fill:none;"/>
   </g>
   <g id="text_47">
    <!-- $\|G\|$ -->
    <defs>
     <path d="M 21 76.421875 
L 21 -23.578125 
L 12.703125 -23.578125 
L 12.703125 76.421875 
z
" id="DejaVuSans-7c"/>
    </defs>
    <g style="fill:#262626;" transform="translate(350.1075 187.880379)scale(0.12 -0.12)">
     <use transform="translate(0 0.578125)" xlink:href="#DejaVuSans-7c"/>
     <use transform="translate(33.691406 0.578125)" xlink:href="#DejaVuSans-Oblique-47"/>
     <use transform="translate(111.181641 0.578125)" xlink:href="#DejaVuSans-7c"/>
    </g>
   </g>
  </g>
  <g id="text_48">
   <!-- Accelerometer data -->
   <defs>
    <path d="M 45.40625 46.390625 
L 45.40625 75.984375 
L 54.390625 75.984375 
L 54.390625 0 
L 45.40625 0 
L 45.40625 8.203125 
Q 42.578125 3.328125 38.25 0.953125 
Q 33.9375 -1.421875 27.875 -1.421875 
Q 17.96875 -1.421875 11.734375 6.484375 
Q 5.515625 14.40625 5.515625 27.296875 
Q 5.515625 40.1875 11.734375 48.09375 
Q 17.96875 56 27.875 56 
Q 33.9375 56 38.25 53.625 
Q 42.578125 51.265625 45.40625 46.390625 
z
M 14.796875 27.296875 
Q 14.796875 17.390625 18.875 11.75 
Q 22.953125 6.109375 30.078125 6.109375 
Q 37.203125 6.109375 41.296875 11.75 
Q 45.40625 17.390625 45.40625 27.296875 
Q 45.40625 37.203125 41.296875 42.84375 
Q 37.203125 48.484375 30.078125 48.484375 
Q 22.953125 48.484375 18.875 42.84375 
Q 14.796875 37.203125 14.796875 27.296875 
z
" id="DejaVuSans-64"/>
   </defs>
   <g style="fill:#262626;" transform="translate(159.17175 17.85375)scale(0.144 -0.144)">
    <use xlink:href="#DejaVuSans-41"/>
    <use x="68.392578" xlink:href="#DejaVuSans-63"/>
    <use x="123.373047" xlink:href="#DejaVuSans-63"/>
    <use x="178.353516" xlink:href="#DejaVuSans-65"/>
    <use x="239.876953" xlink:href="#DejaVuSans-6c"/>
    <use x="267.660156" xlink:href="#DejaVuSans-65"/>
    <use x="329.183594" xlink:href="#DejaVuSans-72"/>
    <use x="370.265625" xlink:href="#DejaVuSans-6f"/>
    <use x="431.447266" xlink:href="#DejaVuSans-6d"/>
    <use x="528.859375" xlink:href="#DejaVuSans-65"/>
    <use x="590.382812" xlink:href="#DejaVuSans-74"/>
    <use x="629.591797" xlink:href="#DejaVuSans-65"/>
    <use x="691.115234" xlink:href="#DejaVuSans-72"/>
    <use x="732.228516" xlink:href="#DejaVuSans-20"/>
    <use x="764.015625" xlink:href="#DejaVuSans-64"/>
    <use x="827.492188" xlink:href="#DejaVuSans-61"/>
    <use x="888.771484" xlink:href="#DejaVuSans-74"/>
    <use x="927.980469" xlink:href="#DejaVuSans-61"/>
   </g>
  </g>
 </g>
 <defs>
  <clipPath id="pafd1691735">
   <rect height="106.879621" width="162.225" x="65.27" y="41.472"/>
  </clipPath>
  <clipPath id="pe4baebd01f">
   <rect height="106.879621" width="162.225" x="277.695" y="41.472"/>
  </clipPath>
  <clipPath id="paee4645752">
   <rect height="106.879621" width="162.225" x="65.27" y="193.880379"/>
  </clipPath>
  <clipPath id="p60e004c033">
   <rect height="106.879621" width="162.225" x="277.695" y="193.880379"/>
  </clipPath>
 </defs>
</svg>
