<?xml version="1.0" encoding="utf-8" standalone="no"?>
<!DOCTYPE svg PUBLIC "-//W3C//DTD SVG 1.1//EN"
  "http://www.w3.org/Graphics/SVG/1.1/DTD/svg11.dtd">
<!-- Created with matplotlib (http://matplotlib.org/) -->
<svg height="345pt" version="1.1" viewBox="0 0 460 345" width="460pt" xmlns="http://www.w3.org/2000/svg" xmlns:xlink="http://www.w3.org/1999/xlink">
 <defs>
  <style type="text/css">
*{stroke-linecap:butt;stroke-linejoin:round;}
  </style>
 </defs>
 <g id="figure_1">
  <g id="patch_1">
   <path d="M 0 345.6 
L 460.8 345.6 
L 460.8 0 
L 0 0 
z
" style="fill:#ffffff;"/>
  </g>
  <g id="axes_1">
   <g id="patch_2">
    <path d="M 65.18 148.351621 
L 223.4 148.351621 
L 223.4 41.472 
L 65.18 41.472 
z
" style="fill:#eaeaf2;"/>
   </g>
   <g id="matplotlib.axis_1">
    <g id="xtick_1">
     <g id="line2d_1">
      <path clip-path="url(#p73f1a8788b)" d="M 65.18 148.351621 
L 65.18 41.472 
" style="fill:none;stroke:#ffffff;stroke-linecap:round;"/>
     </g>
     <g id="line2d_2"/>
     <g id="text_1">
      <!-- 0.0 -->
      <defs>
       <path d="M 31.78125 66.40625 
Q 24.171875 66.40625 20.328125 58.90625 
Q 16.5 51.421875 16.5 36.375 
Q 16.5 21.390625 20.328125 13.890625 
Q 24.171875 6.390625 31.78125 6.390625 
Q 39.453125 6.390625 43.28125 13.890625 
Q 47.125 21.390625 47.125 36.375 
Q 47.125 51.421875 43.28125 58.90625 
Q 39.453125 66.40625 31.78125 66.40625 
z
M 31.78125 74.21875 
Q 44.046875 74.21875 50.515625 64.515625 
Q 56.984375 54.828125 56.984375 36.375 
Q 56.984375 17.96875 50.515625 8.265625 
Q 44.046875 -1.421875 31.78125 -1.421875 
Q 19.53125 -1.421875 13.0625 8.265625 
Q 6.59375 17.96875 6.59375 36.375 
Q 6.59375 54.828125 13.0625 64.515625 
Q 19.53125 74.21875 31.78125 74.21875 
z
" id="DejaVuSans-30"/>
       <path d="M 10.6875 12.40625 
L 21 12.40625 
L 21 0 
L 10.6875 0 
z
" id="DejaVuSans-2e"/>
      </defs>
      <g style="fill:#262626;" transform="translate(57.228438 162.950058)scale(0.1 -0.1)">
       <use xlink:href="#DejaVuSans-30"/>
       <use x="63.623047" xlink:href="#DejaVuSans-2e"/>
       <use x="95.410156" xlink:href="#DejaVuSans-30"/>
      </g>
     </g>
    </g>
    <g id="xtick_2">
     <g id="line2d_3">
      <path clip-path="url(#p73f1a8788b)" d="M 96.824 148.351621 
L 96.824 41.472 
" style="fill:none;stroke:#ffffff;stroke-linecap:round;"/>
     </g>
     <g id="line2d_4"/>
     <g id="text_2">
      <!-- 0.2 -->
      <defs>
       <path d="M 19.1875 8.296875 
L 53.609375 8.296875 
L 53.609375 0 
L 7.328125 0 
L 7.328125 8.296875 
Q 12.9375 14.109375 22.625 23.890625 
Q 32.328125 33.6875 34.8125 36.53125 
Q 39.546875 41.84375 41.421875 45.53125 
Q 43.3125 49.21875 43.3125 52.78125 
Q 43.3125 58.59375 39.234375 62.25 
Q 35.15625 65.921875 28.609375 65.921875 
Q 23.96875 65.921875 18.8125 64.3125 
Q 13.671875 62.703125 7.8125 59.421875 
L 7.8125 69.390625 
Q 13.765625 71.78125 18.9375 73 
Q 24.125 74.21875 28.421875 74.21875 
Q 39.75 74.21875 46.484375 68.546875 
Q 53.21875 62.890625 53.21875 53.421875 
Q 53.21875 48.921875 51.53125 44.890625 
Q 49.859375 40.875 45.40625 35.40625 
Q 44.1875 33.984375 37.640625 27.21875 
Q 31.109375 20.453125 19.1875 8.296875 
z
" id="DejaVuSans-32"/>
      </defs>
      <g style="fill:#262626;" transform="translate(88.872438 162.950058)scale(0.1 -0.1)">
       <use xlink:href="#DejaVuSans-30"/>
       <use x="63.623047" xlink:href="#DejaVuSans-2e"/>
       <use x="95.410156" xlink:href="#DejaVuSans-32"/>
      </g>
     </g>
    </g>
    <g id="xtick_3">
     <g id="line2d_5">
      <path clip-path="url(#p73f1a8788b)" d="M 128.468 148.351621 
L 128.468 41.472 
" style="fill:none;stroke:#ffffff;stroke-linecap:round;"/>
     </g>
     <g id="line2d_6"/>
     <g id="text_3">
      <!-- 0.4 -->
      <defs>
       <path d="M 37.796875 64.3125 
L 12.890625 25.390625 
L 37.796875 25.390625 
z
M 35.203125 72.90625 
L 47.609375 72.90625 
L 47.609375 25.390625 
L 58.015625 25.390625 
L 58.015625 17.1875 
L 47.609375 17.1875 
L 47.609375 0 
L 37.796875 0 
L 37.796875 17.1875 
L 4.890625 17.1875 
L 4.890625 26.703125 
z
" id="DejaVuSans-34"/>
      </defs>
      <g style="fill:#262626;" transform="translate(120.516438 162.950058)scale(0.1 -0.1)">
       <use xlink:href="#DejaVuSans-30"/>
       <use x="63.623047" xlink:href="#DejaVuSans-2e"/>
       <use x="95.410156" xlink:href="#DejaVuSans-34"/>
      </g>
     </g>
    </g>
    <g id="xtick_4">
     <g id="line2d_7">
      <path clip-path="url(#p73f1a8788b)" d="M 160.112 148.351621 
L 160.112 41.472 
" style="fill:none;stroke:#ffffff;stroke-linecap:round;"/>
     </g>
     <g id="line2d_8"/>
     <g id="text_4">
      <!-- 0.6 -->
      <defs>
       <path d="M 33.015625 40.375 
Q 26.375 40.375 22.484375 35.828125 
Q 18.609375 31.296875 18.609375 23.390625 
Q 18.609375 15.53125 22.484375 10.953125 
Q 26.375 6.390625 33.015625 6.390625 
Q 39.65625 6.390625 43.53125 10.953125 
Q 47.40625 15.53125 47.40625 23.390625 
Q 47.40625 31.296875 43.53125 35.828125 
Q 39.65625 40.375 33.015625 40.375 
z
M 52.59375 71.296875 
L 52.59375 62.3125 
Q 48.875 64.0625 45.09375 64.984375 
Q 41.3125 65.921875 37.59375 65.921875 
Q 27.828125 65.921875 22.671875 59.328125 
Q 17.53125 52.734375 16.796875 39.40625 
Q 19.671875 43.65625 24.015625 45.921875 
Q 28.375 48.1875 33.59375 48.1875 
Q 44.578125 48.1875 50.953125 41.515625 
Q 57.328125 34.859375 57.328125 23.390625 
Q 57.328125 12.15625 50.6875 5.359375 
Q 44.046875 -1.421875 33.015625 -1.421875 
Q 20.359375 -1.421875 13.671875 8.265625 
Q 6.984375 17.96875 6.984375 36.375 
Q 6.984375 53.65625 15.1875 63.9375 
Q 23.390625 74.21875 37.203125 74.21875 
Q 40.921875 74.21875 44.703125 73.484375 
Q 48.484375 72.75 52.59375 71.296875 
z
" id="DejaVuSans-36"/>
      </defs>
      <g style="fill:#262626;" transform="translate(152.160438 162.950058)scale(0.1 -0.1)">
       <use xlink:href="#DejaVuSans-30"/>
       <use x="63.623047" xlink:href="#DejaVuSans-2e"/>
       <use x="95.410156" xlink:href="#DejaVuSans-36"/>
      </g>
     </g>
    </g>
    <g id="xtick_5">
     <g id="line2d_9">
      <path clip-path="url(#p73f1a8788b)" d="M 191.756 148.351621 
L 191.756 41.472 
" style="fill:none;stroke:#ffffff;stroke-linecap:round;"/>
     </g>
     <g id="line2d_10"/>
     <g id="text_5">
      <!-- 0.8 -->
      <defs>
       <path d="M 31.78125 34.625 
Q 24.75 34.625 20.71875 30.859375 
Q 16.703125 27.09375 16.703125 20.515625 
Q 16.703125 13.921875 20.71875 10.15625 
Q 24.75 6.390625 31.78125 6.390625 
Q 38.8125 6.390625 42.859375 10.171875 
Q 46.921875 13.96875 46.921875 20.515625 
Q 46.921875 27.09375 42.890625 30.859375 
Q 38.875 34.625 31.78125 34.625 
z
M 21.921875 38.8125 
Q 15.578125 40.375 12.03125 44.71875 
Q 8.5 49.078125 8.5 55.328125 
Q 8.5 64.0625 14.71875 69.140625 
Q 20.953125 74.21875 31.78125 74.21875 
Q 42.671875 74.21875 48.875 69.140625 
Q 55.078125 64.0625 55.078125 55.328125 
Q 55.078125 49.078125 51.53125 44.71875 
Q 48 40.375 41.703125 38.8125 
Q 48.828125 37.15625 52.796875 32.3125 
Q 56.78125 27.484375 56.78125 20.515625 
Q 56.78125 9.90625 50.3125 4.234375 
Q 43.84375 -1.421875 31.78125 -1.421875 
Q 19.734375 -1.421875 13.25 4.234375 
Q 6.78125 9.90625 6.78125 20.515625 
Q 6.78125 27.484375 10.78125 32.3125 
Q 14.796875 37.15625 21.921875 38.8125 
z
M 18.3125 54.390625 
Q 18.3125 48.734375 21.84375 45.5625 
Q 25.390625 42.390625 31.78125 42.390625 
Q 38.140625 42.390625 41.71875 45.5625 
Q 45.3125 48.734375 45.3125 54.390625 
Q 45.3125 60.0625 41.71875 63.234375 
Q 38.140625 66.40625 31.78125 66.40625 
Q 25.390625 66.40625 21.84375 63.234375 
Q 18.3125 60.0625 18.3125 54.390625 
z
" id="DejaVuSans-38"/>
      </defs>
      <g style="fill:#262626;" transform="translate(183.804438 162.950058)scale(0.1 -0.1)">
       <use xlink:href="#DejaVuSans-30"/>
       <use x="63.623047" xlink:href="#DejaVuSans-2e"/>
       <use x="95.410156" xlink:href="#DejaVuSans-38"/>
      </g>
     </g>
    </g>
    <g id="xtick_6">
     <g id="line2d_11">
      <path clip-path="url(#p73f1a8788b)" d="M 223.4 148.351621 
L 223.4 41.472 
" style="fill:none;stroke:#ffffff;stroke-linecap:round;"/>
     </g>
     <g id="line2d_12"/>
     <g id="text_6">
      <!-- 1.0 -->
      <defs>
       <path d="M 12.40625 8.296875 
L 28.515625 8.296875 
L 28.515625 63.921875 
L 10.984375 60.40625 
L 10.984375 69.390625 
L 28.421875 72.90625 
L 38.28125 72.90625 
L 38.28125 8.296875 
L 54.390625 8.296875 
L 54.390625 0 
L 12.40625 0 
z
" id="DejaVuSans-31"/>
      </defs>
      <g style="fill:#262626;" transform="translate(215.448438 162.950058)scale(0.1 -0.1)">
       <use xlink:href="#DejaVuSans-31"/>
       <use x="63.623047" xlink:href="#DejaVuSans-2e"/>
       <use x="95.410156" xlink:href="#DejaVuSans-30"/>
      </g>
     </g>
    </g>
   </g>
   <g id="matplotlib.axis_2">
    <g id="ytick_1">
     <g id="line2d_13">
      <path clip-path="url(#p73f1a8788b)" d="M 65.18 133.500085 
L 223.4 133.500085 
" style="fill:none;stroke:#ffffff;stroke-linecap:round;"/>
     </g>
     <g id="line2d_14"/>
     <g id="text_7">
      <!-- −0.5 -->
      <defs>
       <path d="M 10.59375 35.5 
L 73.1875 35.5 
L 73.1875 27.203125 
L 10.59375 27.203125 
z
" id="DejaVuSans-2212"/>
       <path d="M 10.796875 72.90625 
L 49.515625 72.90625 
L 49.515625 64.59375 
L 19.828125 64.59375 
L 19.828125 46.734375 
Q 21.96875 47.46875 24.109375 47.828125 
Q 26.265625 48.1875 28.421875 48.1875 
Q 40.625 48.1875 47.75 41.5 
Q 54.890625 34.8125 54.890625 23.390625 
Q 54.890625 11.625 47.5625 5.09375 
Q 40.234375 -1.421875 26.90625 -1.421875 
Q 22.3125 -1.421875 17.546875 -0.640625 
Q 12.796875 0.140625 7.71875 1.703125 
L 7.71875 11.625 
Q 12.109375 9.234375 16.796875 8.0625 
Q 21.484375 6.890625 26.703125 6.890625 
Q 35.15625 6.890625 40.078125 11.328125 
Q 45.015625 15.765625 45.015625 23.390625 
Q 45.015625 31 40.078125 35.4375 
Q 35.15625 39.890625 26.703125 39.890625 
Q 22.75 39.890625 18.8125 39.015625 
Q 14.890625 38.140625 10.796875 36.28125 
z
" id="DejaVuSans-35"/>
      </defs>
      <g style="fill:#262626;" transform="translate(33.897188 137.299304)scale(0.1 -0.1)">
       <use xlink:href="#DejaVuSans-2212"/>
       <use x="83.789062" xlink:href="#DejaVuSans-30"/>
       <use x="147.412109" xlink:href="#DejaVuSans-2e"/>
       <use x="179.199219" xlink:href="#DejaVuSans-35"/>
      </g>
     </g>
    </g>
    <g id="ytick_2">
     <g id="line2d_15">
      <path clip-path="url(#p73f1a8788b)" d="M 65.18 96.972532 
L 223.4 96.972532 
" style="fill:none;stroke:#ffffff;stroke-linecap:round;"/>
     </g>
     <g id="line2d_16"/>
     <g id="text_8">
      <!-- 0.0 -->
      <g style="fill:#262626;" transform="translate(42.276875 100.77175)scale(0.1 -0.1)">
       <use xlink:href="#DejaVuSans-30"/>
       <use x="63.623047" xlink:href="#DejaVuSans-2e"/>
       <use x="95.410156" xlink:href="#DejaVuSans-30"/>
      </g>
     </g>
    </g>
    <g id="ytick_3">
     <g id="line2d_17">
      <path clip-path="url(#p73f1a8788b)" d="M 65.18 60.444978 
L 223.4 60.444978 
" style="fill:none;stroke:#ffffff;stroke-linecap:round;"/>
     </g>
     <g id="line2d_18"/>
     <g id="text_9">
      <!-- 0.5 -->
      <g style="fill:#262626;" transform="translate(42.276875 64.244197)scale(0.1 -0.1)">
       <use xlink:href="#DejaVuSans-30"/>
       <use x="63.623047" xlink:href="#DejaVuSans-2e"/>
       <use x="95.410156" xlink:href="#DejaVuSans-35"/>
      </g>
     </g>
    </g>
    <g id="text_10">
     <!-- Angular rate (dps) -->
     <defs>
      <path d="M 34.1875 63.1875 
L 20.796875 26.90625 
L 47.609375 26.90625 
z
M 28.609375 72.90625 
L 39.796875 72.90625 
L 67.578125 0 
L 57.328125 0 
L 50.6875 18.703125 
L 17.828125 18.703125 
L 11.1875 0 
L 0.78125 0 
z
" id="DejaVuSans-41"/>
      <path d="M 54.890625 33.015625 
L 54.890625 0 
L 45.90625 0 
L 45.90625 32.71875 
Q 45.90625 40.484375 42.875 44.328125 
Q 39.84375 48.1875 33.796875 48.1875 
Q 26.515625 48.1875 22.3125 43.546875 
Q 18.109375 38.921875 18.109375 30.90625 
L 18.109375 0 
L 9.078125 0 
L 9.078125 54.6875 
L 18.109375 54.6875 
L 18.109375 46.1875 
Q 21.34375 51.125 25.703125 53.5625 
Q 30.078125 56 35.796875 56 
Q 45.21875 56 50.046875 50.171875 
Q 54.890625 44.34375 54.890625 33.015625 
z
" id="DejaVuSans-6e"/>
      <path d="M 45.40625 27.984375 
Q 45.40625 37.75 41.375 43.109375 
Q 37.359375 48.484375 30.078125 48.484375 
Q 22.859375 48.484375 18.828125 43.109375 
Q 14.796875 37.75 14.796875 27.984375 
Q 14.796875 18.265625 18.828125 12.890625 
Q 22.859375 7.515625 30.078125 7.515625 
Q 37.359375 7.515625 41.375 12.890625 
Q 45.40625 18.265625 45.40625 27.984375 
z
M 54.390625 6.78125 
Q 54.390625 -7.171875 48.1875 -13.984375 
Q 42 -20.796875 29.203125 -20.796875 
Q 24.46875 -20.796875 20.265625 -20.09375 
Q 16.0625 -19.390625 12.109375 -17.921875 
L 12.109375 -9.1875 
Q 16.0625 -11.328125 19.921875 -12.34375 
Q 23.78125 -13.375 27.78125 -13.375 
Q 36.625 -13.375 41.015625 -8.765625 
Q 45.40625 -4.15625 45.40625 5.171875 
L 45.40625 9.625 
Q 42.625 4.78125 38.28125 2.390625 
Q 33.9375 0 27.875 0 
Q 17.828125 0 11.671875 7.65625 
Q 5.515625 15.328125 5.515625 27.984375 
Q 5.515625 40.671875 11.671875 48.328125 
Q 17.828125 56 27.875 56 
Q 33.9375 56 38.28125 53.609375 
Q 42.625 51.21875 45.40625 46.390625 
L 45.40625 54.6875 
L 54.390625 54.6875 
z
" id="DejaVuSans-67"/>
      <path d="M 8.5 21.578125 
L 8.5 54.6875 
L 17.484375 54.6875 
L 17.484375 21.921875 
Q 17.484375 14.15625 20.5 10.265625 
Q 23.53125 6.390625 29.59375 6.390625 
Q 36.859375 6.390625 41.078125 11.03125 
Q 45.3125 15.671875 45.3125 23.6875 
L 45.3125 54.6875 
L 54.296875 54.6875 
L 54.296875 0 
L 45.3125 0 
L 45.3125 8.40625 
Q 42.046875 3.421875 37.71875 1 
Q 33.40625 -1.421875 27.6875 -1.421875 
Q 18.265625 -1.421875 13.375 4.4375 
Q 8.5 10.296875 8.5 21.578125 
z
M 31.109375 56 
z
" id="DejaVuSans-75"/>
      <path d="M 9.421875 75.984375 
L 18.40625 75.984375 
L 18.40625 0 
L 9.421875 0 
z
" id="DejaVuSans-6c"/>
      <path d="M 34.28125 27.484375 
Q 23.390625 27.484375 19.1875 25 
Q 14.984375 22.515625 14.984375 16.5 
Q 14.984375 11.71875 18.140625 8.90625 
Q 21.296875 6.109375 26.703125 6.109375 
Q 34.1875 6.109375 38.703125 11.40625 
Q 43.21875 16.703125 43.21875 25.484375 
L 43.21875 27.484375 
z
M 52.203125 31.203125 
L 52.203125 0 
L 43.21875 0 
L 43.21875 8.296875 
Q 40.140625 3.328125 35.546875 0.953125 
Q 30.953125 -1.421875 24.3125 -1.421875 
Q 15.921875 -1.421875 10.953125 3.296875 
Q 6 8.015625 6 15.921875 
Q 6 25.140625 12.171875 29.828125 
Q 18.359375 34.515625 30.609375 34.515625 
L 43.21875 34.515625 
L 43.21875 35.40625 
Q 43.21875 41.609375 39.140625 45 
Q 35.0625 48.390625 27.6875 48.390625 
Q 23 48.390625 18.546875 47.265625 
Q 14.109375 46.140625 10.015625 43.890625 
L 10.015625 52.203125 
Q 14.9375 54.109375 19.578125 55.046875 
Q 24.21875 56 28.609375 56 
Q 40.484375 56 46.34375 49.84375 
Q 52.203125 43.703125 52.203125 31.203125 
z
" id="DejaVuSans-61"/>
      <path d="M 41.109375 46.296875 
Q 39.59375 47.171875 37.8125 47.578125 
Q 36.03125 48 33.890625 48 
Q 26.265625 48 22.1875 43.046875 
Q 18.109375 38.09375 18.109375 28.8125 
L 18.109375 0 
L 9.078125 0 
L 9.078125 54.6875 
L 18.109375 54.6875 
L 18.109375 46.1875 
Q 20.953125 51.171875 25.484375 53.578125 
Q 30.03125 56 36.53125 56 
Q 37.453125 56 38.578125 55.875 
Q 39.703125 55.765625 41.0625 55.515625 
z
" id="DejaVuSans-72"/>
      <path id="DejaVuSans-20"/>
      <path d="M 18.3125 70.21875 
L 18.3125 54.6875 
L 36.8125 54.6875 
L 36.8125 47.703125 
L 18.3125 47.703125 
L 18.3125 18.015625 
Q 18.3125 11.328125 20.140625 9.421875 
Q 21.96875 7.515625 27.59375 7.515625 
L 36.8125 7.515625 
L 36.8125 0 
L 27.59375 0 
Q 17.1875 0 13.234375 3.875 
Q 9.28125 7.765625 9.28125 18.015625 
L 9.28125 47.703125 
L 2.6875 47.703125 
L 2.6875 54.6875 
L 9.28125 54.6875 
L 9.28125 70.21875 
z
" id="DejaVuSans-74"/>
      <path d="M 56.203125 29.59375 
L 56.203125 25.203125 
L 14.890625 25.203125 
Q 15.484375 15.921875 20.484375 11.0625 
Q 25.484375 6.203125 34.421875 6.203125 
Q 39.59375 6.203125 44.453125 7.46875 
Q 49.3125 8.734375 54.109375 11.28125 
L 54.109375 2.78125 
Q 49.265625 0.734375 44.1875 -0.34375 
Q 39.109375 -1.421875 33.890625 -1.421875 
Q 20.796875 -1.421875 13.15625 6.1875 
Q 5.515625 13.8125 5.515625 26.8125 
Q 5.515625 40.234375 12.765625 48.109375 
Q 20.015625 56 32.328125 56 
Q 43.359375 56 49.78125 48.890625 
Q 56.203125 41.796875 56.203125 29.59375 
z
M 47.21875 32.234375 
Q 47.125 39.59375 43.09375 43.984375 
Q 39.0625 48.390625 32.421875 48.390625 
Q 24.90625 48.390625 20.390625 44.140625 
Q 15.875 39.890625 15.1875 32.171875 
z
" id="DejaVuSans-65"/>
      <path d="M 31 75.875 
Q 24.46875 64.65625 21.28125 53.65625 
Q 18.109375 42.671875 18.109375 31.390625 
Q 18.109375 20.125 21.3125 9.0625 
Q 24.515625 -2 31 -13.1875 
L 23.1875 -13.1875 
Q 15.875 -1.703125 12.234375 9.375 
Q 8.59375 20.453125 8.59375 31.390625 
Q 8.59375 42.28125 12.203125 53.3125 
Q 15.828125 64.359375 23.1875 75.875 
z
" id="DejaVuSans-28"/>
      <path d="M 45.40625 46.390625 
L 45.40625 75.984375 
L 54.390625 75.984375 
L 54.390625 0 
L 45.40625 0 
L 45.40625 8.203125 
Q 42.578125 3.328125 38.25 0.953125 
Q 33.9375 -1.421875 27.875 -1.421875 
Q 17.96875 -1.421875 11.734375 6.484375 
Q 5.515625 14.40625 5.515625 27.296875 
Q 5.515625 40.1875 11.734375 48.09375 
Q 17.96875 56 27.875 56 
Q 33.9375 56 38.25 53.625 
Q 42.578125 51.265625 45.40625 46.390625 
z
M 14.796875 27.296875 
Q 14.796875 17.390625 18.875 11.75 
Q 22.953125 6.109375 30.078125 6.109375 
Q 37.203125 6.109375 41.296875 11.75 
Q 45.40625 17.390625 45.40625 27.296875 
Q 45.40625 37.203125 41.296875 42.84375 
Q 37.203125 48.484375 30.078125 48.484375 
Q 22.953125 48.484375 18.875 42.84375 
Q 14.796875 37.203125 14.796875 27.296875 
z
" id="DejaVuSans-64"/>
      <path d="M 18.109375 8.203125 
L 18.109375 -20.796875 
L 9.078125 -20.796875 
L 9.078125 54.6875 
L 18.109375 54.6875 
L 18.109375 46.390625 
Q 20.953125 51.265625 25.265625 53.625 
Q 29.59375 56 35.59375 56 
Q 45.5625 56 51.78125 48.09375 
Q 58.015625 40.1875 58.015625 27.296875 
Q 58.015625 14.40625 51.78125 6.484375 
Q 45.5625 -1.421875 35.59375 -1.421875 
Q 29.59375 -1.421875 25.265625 0.953125 
Q 20.953125 3.328125 18.109375 8.203125 
z
M 48.6875 27.296875 
Q 48.6875 37.203125 44.609375 42.84375 
Q 40.53125 48.484375 33.40625 48.484375 
Q 26.265625 48.484375 22.1875 42.84375 
Q 18.109375 37.203125 18.109375 27.296875 
Q 18.109375 17.390625 22.1875 11.75 
Q 26.265625 6.109375 33.40625 6.109375 
Q 40.53125 6.109375 44.609375 11.75 
Q 48.6875 17.390625 48.6875 27.296875 
z
" id="DejaVuSans-70"/>
      <path d="M 44.28125 53.078125 
L 44.28125 44.578125 
Q 40.484375 46.53125 36.375 47.5 
Q 32.28125 48.484375 27.875 48.484375 
Q 21.1875 48.484375 17.84375 46.4375 
Q 14.5 44.390625 14.5 40.28125 
Q 14.5 37.15625 16.890625 35.375 
Q 19.28125 33.59375 26.515625 31.984375 
L 29.59375 31.296875 
Q 39.15625 29.25 43.1875 25.515625 
Q 47.21875 21.78125 47.21875 15.09375 
Q 47.21875 7.46875 41.1875 3.015625 
Q 35.15625 -1.421875 24.609375 -1.421875 
Q 20.21875 -1.421875 15.453125 -0.5625 
Q 10.6875 0.296875 5.421875 2 
L 5.421875 11.28125 
Q 10.40625 8.6875 15.234375 7.390625 
Q 20.0625 6.109375 24.8125 6.109375 
Q 31.15625 6.109375 34.5625 8.28125 
Q 37.984375 10.453125 37.984375 14.40625 
Q 37.984375 18.0625 35.515625 20.015625 
Q 33.0625 21.96875 24.703125 23.78125 
L 21.578125 24.515625 
Q 13.234375 26.265625 9.515625 29.90625 
Q 5.8125 33.546875 5.8125 39.890625 
Q 5.8125 47.609375 11.28125 51.796875 
Q 16.75 56 26.8125 56 
Q 31.78125 56 36.171875 55.265625 
Q 40.578125 54.546875 44.28125 53.078125 
z
" id="DejaVuSans-73"/>
      <path d="M 8.015625 75.875 
L 15.828125 75.875 
Q 23.140625 64.359375 26.78125 53.3125 
Q 30.421875 42.28125 30.421875 31.390625 
Q 30.421875 20.453125 26.78125 9.375 
Q 23.140625 -1.703125 15.828125 -13.1875 
L 8.015625 -13.1875 
Q 14.5 -2 17.703125 9.0625 
Q 20.90625 20.125 20.90625 31.390625 
Q 20.90625 42.671875 17.703125 53.65625 
Q 14.5 64.65625 8.015625 75.875 
z
" id="DejaVuSans-29"/>
     </defs>
     <g style="fill:#262626;" transform="translate(27.609531 145.104467)rotate(-90)scale(0.11 -0.11)">
      <use xlink:href="#DejaVuSans-41"/>
      <use x="68.408203" xlink:href="#DejaVuSans-6e"/>
      <use x="131.787109" xlink:href="#DejaVuSans-67"/>
      <use x="195.263672" xlink:href="#DejaVuSans-75"/>
      <use x="258.642578" xlink:href="#DejaVuSans-6c"/>
      <use x="286.425781" xlink:href="#DejaVuSans-61"/>
      <use x="347.705078" xlink:href="#DejaVuSans-72"/>
      <use x="388.818359" xlink:href="#DejaVuSans-20"/>
      <use x="420.605469" xlink:href="#DejaVuSans-72"/>
      <use x="461.71875" xlink:href="#DejaVuSans-61"/>
      <use x="522.998047" xlink:href="#DejaVuSans-74"/>
      <use x="562.207031" xlink:href="#DejaVuSans-65"/>
      <use x="623.730469" xlink:href="#DejaVuSans-20"/>
      <use x="655.517578" xlink:href="#DejaVuSans-28"/>
      <use x="694.53125" xlink:href="#DejaVuSans-64"/>
      <use x="758.007812" xlink:href="#DejaVuSans-70"/>
      <use x="821.484375" xlink:href="#DejaVuSans-73"/>
      <use x="873.583984" xlink:href="#DejaVuSans-29"/>
     </g>
    </g>
   </g>
   <g id="line2d_19">
    <path clip-path="url(#p73f1a8788b)" d="M 65.18 93.633346 
L 65.899182 100.025668 
L 66.618364 85.96256 
L 67.337545 129.430348 
L 68.056727 121.759562 
L 68.775909 80.20947 
L 69.495091 83.405631 
L 70.214273 100.6649 
L 70.933455 102.582597 
L 71.652636 74.456381 
L 72.371818 118.563401 
L 73.091 104.500293 
L 73.810182 124.955723 
L 74.529364 119.202633 
L 75.248545 63.589434 
L 75.967727 90.437185 
L 76.686909 78.291774 
L 77.406091 132.626509 
L 78.125273 96.190275 
L 78.844455 77.013309 
L 79.563636 92.994114 
L 80.282818 116.006473 
L 81.002 123.038027 
L 81.721182 77.013309 
L 82.440364 92.994114 
L 83.159545 114.088776 
L 83.878727 102.582597 
L 84.597909 81.487935 
L 85.317091 119.202633 
L 86.036273 98.747204 
L 86.755455 128.791116 
L 87.474636 87.880256 
L 88.193818 110.892615 
L 88.913 108.974919 
L 89.632182 79.570238 
L 90.351364 106.41799 
L 91.070545 100.6649 
L 91.789727 97.468739 
L 92.508909 92.994114 
L 93.228091 105.139525 
L 93.947273 101.943365 
L 94.666455 112.171079 
L 95.385636 68.703291 
L 96.104818 95.551043 
L 96.824 97.468739 
L 97.543182 101.304132 
L 98.262364 87.880256 
L 98.981545 119.841866 
L 99.700727 119.841866 
L 100.419909 85.323328 
L 101.139091 83.405631 
L 101.858273 84.684096 
L 102.577455 116.645705 
L 103.296636 105.778758 
L 104.015818 92.354882 
L 104.735 84.044863 
L 105.454182 94.91181 
L 106.173364 85.96256 
L 106.892545 104.500293 
L 107.611727 101.304132 
L 108.330909 108.974919 
L 109.050091 90.437185 
L 109.769273 75.095613 
L 110.488455 80.20947 
L 111.207636 92.994114 
L 111.926818 133.904974 
L 112.646 121.759562 
L 113.365182 105.778758 
L 114.084364 77.652542 
L 114.803545 110.253383 
L 116.241909 78.931006 
L 116.961091 96.829507 
L 117.680273 59.75404 
L 118.399455 126.234187 
L 119.118636 112.171079 
L 119.837818 106.41799 
L 120.557 62.310969 
L 121.276182 121.12033 
L 121.995364 104.500293 
L 122.714545 64.228666 
L 123.433727 46.969397 
L 124.872091 138.379599 
L 125.591273 119.202633 
L 126.310455 71.26022 
L 127.029636 80.848702 
L 127.748818 71.26022 
L 128.468 82.127167 
L 129.187182 108.974919 
L 129.906364 69.342523 
L 130.625545 77.652542 
L 131.344727 79.570238 
L 132.063909 98.747204 
L 132.783091 100.025668 
L 133.502273 105.139525 
L 134.221455 103.861061 
L 134.940636 80.20947 
L 135.659818 94.272578 
L 136.379 92.994114 
L 137.098182 57.197112 
L 137.817364 120.481098 
L 138.536545 65.50713 
L 139.255727 92.994114 
L 139.974909 46.330165 
L 140.694091 105.778758 
L 141.413273 133.904974 
L 142.132455 143.493456 
L 142.851636 73.177916 
L 143.570818 143.493456 
L 144.29 120.481098 
L 145.009182 88.519489 
L 145.728364 100.025668 
L 146.447545 92.994114 
L 147.166727 105.778758 
L 147.885909 107.696454 
L 149.324273 84.044863 
L 150.043455 105.778758 
L 150.762636 117.284937 
L 151.481818 115.36724 
L 152.201 86.601792 
L 152.920182 106.41799 
L 153.639364 115.36724 
L 154.358545 99.386436 
L 155.077727 93.633346 
L 155.796909 94.91181 
L 156.516091 105.139525 
L 157.235273 103.861061 
L 157.954455 96.190275 
L 158.673636 81.487935 
L 159.392818 70.620988 
L 160.112 107.057222 
L 161.550364 67.424827 
L 162.269545 71.26022 
L 162.988727 95.551043 
L 163.707909 92.994114 
L 164.427091 125.594955 
L 165.146273 108.335686 
L 165.865455 86.601792 
L 166.584636 107.696454 
L 167.303818 82.766399 
L 168.023 91.076417 
L 168.742182 92.994114 
L 169.461364 65.50713 
L 170.180545 103.221829 
L 170.899727 87.241024 
L 171.618909 79.570238 
L 172.338091 98.107971 
L 173.057273 138.379599 
L 173.776455 139.018831 
L 174.495636 63.589434 
L 175.214818 72.538684 
L 175.934 91.71565 
L 176.653182 87.880256 
L 177.372364 116.006473 
L 178.091545 81.487935 
L 178.810727 57.197112 
L 179.529909 116.006473 
L 180.249091 85.323328 
L 180.968273 92.994114 
L 181.687455 87.241024 
L 182.406636 101.304132 
L 183.125818 117.924169 
L 183.845 95.551043 
L 184.564182 104.500293 
L 185.283364 123.038027 
L 186.002545 110.253383 
L 186.721727 100.6649 
L 187.440909 92.994114 
L 188.160091 82.127167 
L 188.879273 98.107971 
L 189.598455 110.892615 
L 190.317636 65.50713 
L 191.036818 112.810312 
L 191.756 124.316491 
L 192.475182 124.316491 
L 193.194364 114.728008 
L 193.913545 113.449544 
L 194.632727 73.817148 
L 195.351909 69.981755 
L 196.071091 112.171079 
L 196.790273 113.449544 
L 197.509455 78.931006 
L 198.228636 99.386436 
L 198.947818 107.057222 
L 199.667 118.563401 
L 200.386182 66.785594 
L 201.105364 93.633346 
L 202.543727 85.96256 
L 203.262909 97.468739 
L 203.982091 68.064059 
L 204.701273 63.589434 
L 206.139636 98.747204 
L 206.858818 85.96256 
L 207.578 89.158721 
L 208.297182 87.880256 
L 209.016364 106.41799 
L 209.735545 66.146362 
L 210.454727 87.880256 
L 211.173909 96.190275 
L 211.893091 94.272578 
L 212.612273 98.107971 
L 213.331455 121.759562 
L 214.050636 80.20947 
L 214.769818 107.057222 
L 215.489 111.531847 
L 216.208182 80.848702 
L 216.927364 63.589434 
L 217.646545 115.36724 
L 218.365727 112.810312 
L 219.084909 103.861061 
L 220.523273 123.677259 
L 221.242455 112.171079 
L 221.961636 123.038027 
L 221.961636 123.038027 
" style="fill:none;stroke:#4c72b0;stroke-linecap:round;stroke-width:1.75;"/>
   </g>
   <g id="line2d_20">
    <path clip-path="url(#p73f1a8788b)" d="M 65.18 96.972532 
L 221.961636 96.972532 
" style="fill:none;stroke:#55a868;stroke-linecap:round;stroke-width:1.75;"/>
   </g>
   <g id="patch_3">
    <path d="M 65.18 148.351621 
L 65.18 41.472 
" style="fill:none;"/>
   </g>
   <g id="patch_4">
    <path d="M 223.4 148.351621 
L 223.4 41.472 
" style="fill:none;"/>
   </g>
   <g id="patch_5">
    <path d="M 65.18 148.351621 
L 223.4 148.351621 
" style="fill:none;"/>
   </g>
   <g id="patch_6">
    <path d="M 65.18 41.472 
L 223.4 41.472 
" style="fill:none;"/>
   </g>
   <g id="text_11">
    <!-- $AR_x$ -->
    <defs>
     <path d="M 36.8125 72.90625 
L 48 72.90625 
L 61.53125 0 
L 51.21875 0 
L 48.1875 18.703125 
L 15.375 18.703125 
L 5.078125 0 
L -5.328125 0 
z
M 40.375 63.1875 
L 19.921875 26.90625 
L 46.6875 26.90625 
z
" id="DejaVuSans-Oblique-41"/>
     <path d="M 25.203125 64.796875 
L 20.21875 38.921875 
L 32.90625 38.921875 
Q 40.375 38.921875 44.984375 43.046875 
Q 49.609375 47.171875 49.609375 53.8125 
Q 49.609375 59.125 46.5 61.953125 
Q 43.40625 64.796875 37.59375 64.796875 
z
M 43.3125 35.015625 
Q 46.4375 34.28125 48.515625 31.390625 
Q 50.59375 28.515625 53.328125 19.921875 
L 59.515625 0 
L 49.125 0 
L 43.40625 18.703125 
Q 41.21875 25.921875 38.328125 28.359375 
Q 35.453125 30.8125 29.5 30.8125 
L 18.609375 30.8125 
L 12.59375 0 
L 2.6875 0 
L 16.890625 72.90625 
L 39.109375 72.90625 
Q 49.21875 72.90625 54.609375 68.328125 
Q 60.015625 63.765625 60.015625 55.171875 
Q 60.015625 47.5625 55.421875 41.984375 
Q 50.828125 36.421875 43.3125 35.015625 
z
" id="DejaVuSans-Oblique-52"/>
     <path d="M 60.015625 54.6875 
L 34.90625 27.875 
L 50.296875 0 
L 39.984375 0 
L 28.421875 21.6875 
L 8.296875 0 
L -2.59375 0 
L 24.3125 28.8125 
L 10.015625 54.6875 
L 20.3125 54.6875 
L 30.8125 34.90625 
L 49.125 54.6875 
z
" id="DejaVuSans-Oblique-78"/>
    </defs>
    <g style="fill:#262626;" transform="translate(133.31 35.472)scale(0.12 -0.12)">
     <use transform="translate(0 0.09375)" xlink:href="#DejaVuSans-Oblique-41"/>
     <use transform="translate(68.408203 0.09375)" xlink:href="#DejaVuSans-Oblique-52"/>
     <use transform="translate(137.890625 -16.3125)scale(0.7)" xlink:href="#DejaVuSans-Oblique-78"/>
    </g>
   </g>
   <g id="legend_1">
    <g id="line2d_21">
     <path d="M 158.040625 133.771933 
L 178.040625 133.771933 
" style="fill:none;stroke:#55a868;stroke-linecap:round;stroke-width:1.75;"/>
    </g>
    <g id="line2d_22"/>
    <g id="text_12">
     <!-- mean -->
     <defs>
      <path d="M 52 44.1875 
Q 55.375 50.25 60.0625 53.125 
Q 64.75 56 71.09375 56 
Q 79.640625 56 84.28125 50.015625 
Q 88.921875 44.046875 88.921875 33.015625 
L 88.921875 0 
L 79.890625 0 
L 79.890625 32.71875 
Q 79.890625 40.578125 77.09375 44.375 
Q 74.3125 48.1875 68.609375 48.1875 
Q 61.625 48.1875 57.5625 43.546875 
Q 53.515625 38.921875 53.515625 30.90625 
L 53.515625 0 
L 44.484375 0 
L 44.484375 32.71875 
Q 44.484375 40.625 41.703125 44.40625 
Q 38.921875 48.1875 33.109375 48.1875 
Q 26.21875 48.1875 22.15625 43.53125 
Q 18.109375 38.875 18.109375 30.90625 
L 18.109375 0 
L 9.078125 0 
L 9.078125 54.6875 
L 18.109375 54.6875 
L 18.109375 46.1875 
Q 21.1875 51.21875 25.484375 53.609375 
Q 29.78125 56 35.6875 56 
Q 41.65625 56 45.828125 52.96875 
Q 50 49.953125 52 44.1875 
z
" id="DejaVuSans-6d"/>
     </defs>
     <g style="fill:#262626;" transform="translate(186.040625 137.271933)scale(0.1 -0.1)">
      <use xlink:href="#DejaVuSans-6d"/>
      <use x="97.412109" xlink:href="#DejaVuSans-65"/>
      <use x="158.935547" xlink:href="#DejaVuSans-61"/>
      <use x="220.214844" xlink:href="#DejaVuSans-6e"/>
     </g>
    </g>
   </g>
  </g>
  <g id="axes_2">
   <g id="patch_7">
    <path d="M 281.7 148.351621 
L 439.92 148.351621 
L 439.92 41.472 
L 281.7 41.472 
z
" style="fill:#eaeaf2;"/>
   </g>
   <g id="matplotlib.axis_3">
    <g id="xtick_7">
     <g id="line2d_23">
      <path clip-path="url(#p06eb6453c2)" d="M 281.7 148.351621 
L 281.7 41.472 
" style="fill:none;stroke:#ffffff;stroke-linecap:round;"/>
     </g>
     <g id="line2d_24"/>
     <g id="text_13">
      <!-- 0.0 -->
      <g style="fill:#262626;" transform="translate(273.748437 162.950058)scale(0.1 -0.1)">
       <use xlink:href="#DejaVuSans-30"/>
       <use x="63.623047" xlink:href="#DejaVuSans-2e"/>
       <use x="95.410156" xlink:href="#DejaVuSans-30"/>
      </g>
     </g>
    </g>
    <g id="xtick_8">
     <g id="line2d_25">
      <path clip-path="url(#p06eb6453c2)" d="M 313.344 148.351621 
L 313.344 41.472 
" style="fill:none;stroke:#ffffff;stroke-linecap:round;"/>
     </g>
     <g id="line2d_26"/>
     <g id="text_14">
      <!-- 0.2 -->
      <g style="fill:#262626;" transform="translate(305.392437 162.950058)scale(0.1 -0.1)">
       <use xlink:href="#DejaVuSans-30"/>
       <use x="63.623047" xlink:href="#DejaVuSans-2e"/>
       <use x="95.410156" xlink:href="#DejaVuSans-32"/>
      </g>
     </g>
    </g>
    <g id="xtick_9">
     <g id="line2d_27">
      <path clip-path="url(#p06eb6453c2)" d="M 344.988 148.351621 
L 344.988 41.472 
" style="fill:none;stroke:#ffffff;stroke-linecap:round;"/>
     </g>
     <g id="line2d_28"/>
     <g id="text_15">
      <!-- 0.4 -->
      <g style="fill:#262626;" transform="translate(337.036437 162.950058)scale(0.1 -0.1)">
       <use xlink:href="#DejaVuSans-30"/>
       <use x="63.623047" xlink:href="#DejaVuSans-2e"/>
       <use x="95.410156" xlink:href="#DejaVuSans-34"/>
      </g>
     </g>
    </g>
    <g id="xtick_10">
     <g id="line2d_29">
      <path clip-path="url(#p06eb6453c2)" d="M 376.632 148.351621 
L 376.632 41.472 
" style="fill:none;stroke:#ffffff;stroke-linecap:round;"/>
     </g>
     <g id="line2d_30"/>
     <g id="text_16">
      <!-- 0.6 -->
      <g style="fill:#262626;" transform="translate(368.680437 162.950058)scale(0.1 -0.1)">
       <use xlink:href="#DejaVuSans-30"/>
       <use x="63.623047" xlink:href="#DejaVuSans-2e"/>
       <use x="95.410156" xlink:href="#DejaVuSans-36"/>
      </g>
     </g>
    </g>
    <g id="xtick_11">
     <g id="line2d_31">
      <path clip-path="url(#p06eb6453c2)" d="M 408.276 148.351621 
L 408.276 41.472 
" style="fill:none;stroke:#ffffff;stroke-linecap:round;"/>
     </g>
     <g id="line2d_32"/>
     <g id="text_17">
      <!-- 0.8 -->
      <g style="fill:#262626;" transform="translate(400.324437 162.950058)scale(0.1 -0.1)">
       <use xlink:href="#DejaVuSans-30"/>
       <use x="63.623047" xlink:href="#DejaVuSans-2e"/>
       <use x="95.410156" xlink:href="#DejaVuSans-38"/>
      </g>
     </g>
    </g>
    <g id="xtick_12">
     <g id="line2d_33">
      <path clip-path="url(#p06eb6453c2)" d="M 439.92 148.351621 
L 439.92 41.472 
" style="fill:none;stroke:#ffffff;stroke-linecap:round;"/>
     </g>
     <g id="line2d_34"/>
     <g id="text_18">
      <!-- 1.0 -->
      <g style="fill:#262626;" transform="translate(431.968437 162.950058)scale(0.1 -0.1)">
       <use xlink:href="#DejaVuSans-31"/>
       <use x="63.623047" xlink:href="#DejaVuSans-2e"/>
       <use x="95.410156" xlink:href="#DejaVuSans-30"/>
      </g>
     </g>
    </g>
   </g>
   <g id="matplotlib.axis_4">
    <g id="ytick_4">
     <g id="line2d_35">
      <path clip-path="url(#p06eb6453c2)" d="M 281.7 129.935255 
L 439.92 129.935255 
" style="fill:none;stroke:#ffffff;stroke-linecap:round;"/>
     </g>
     <g id="line2d_36"/>
     <g id="text_19">
      <!-- −0.5 -->
      <g style="fill:#262626;" transform="translate(250.417187 133.734474)scale(0.1 -0.1)">
       <use xlink:href="#DejaVuSans-2212"/>
       <use x="83.789062" xlink:href="#DejaVuSans-30"/>
       <use x="147.412109" xlink:href="#DejaVuSans-2e"/>
       <use x="179.199219" xlink:href="#DejaVuSans-35"/>
      </g>
     </g>
    </g>
    <g id="ytick_5">
     <g id="line2d_37">
      <path clip-path="url(#p06eb6453c2)" d="M 281.7 87.226116 
L 439.92 87.226116 
" style="fill:none;stroke:#ffffff;stroke-linecap:round;"/>
     </g>
     <g id="line2d_38"/>
     <g id="text_20">
      <!-- 0.0 -->
      <g style="fill:#262626;" transform="translate(258.796875 91.025334)scale(0.1 -0.1)">
       <use xlink:href="#DejaVuSans-30"/>
       <use x="63.623047" xlink:href="#DejaVuSans-2e"/>
       <use x="95.410156" xlink:href="#DejaVuSans-30"/>
      </g>
     </g>
    </g>
    <g id="ytick_6">
     <g id="line2d_39">
      <path clip-path="url(#p06eb6453c2)" d="M 281.7 44.516976 
L 439.92 44.516976 
" style="fill:none;stroke:#ffffff;stroke-linecap:round;"/>
     </g>
     <g id="line2d_40"/>
     <g id="text_21">
      <!-- 0.5 -->
      <g style="fill:#262626;" transform="translate(258.796875 48.316195)scale(0.1 -0.1)">
       <use xlink:href="#DejaVuSans-30"/>
       <use x="63.623047" xlink:href="#DejaVuSans-2e"/>
       <use x="95.410156" xlink:href="#DejaVuSans-35"/>
      </g>
     </g>
    </g>
   </g>
   <g id="line2d_41">
    <path clip-path="url(#p06eb6453c2)" d="M 281.7 102.38591 
L 282.419182 103.88073 
L 283.138364 92.669581 
L 283.857545 110.607419 
L 284.576727 82.205842 
L 285.295909 88.932531 
L 286.015091 86.690301 
L 286.734273 85.195481 
L 287.453455 91.922171 
L 288.172636 92.669581 
L 288.891818 76.226562 
L 289.611 68.752463 
L 291.049364 67.257643 
L 291.768545 107.617779 
L 292.487727 100.14368 
L 293.206909 103.13332 
L 293.926091 59.036134 
L 294.645273 65.762823 
L 295.364455 70.994693 
L 296.083636 90.427351 
L 296.802818 76.973972 
L 297.522 104.62814 
L 298.241182 51.562034 
L 298.960364 108.365189 
L 299.679545 74.731742 
L 300.398727 75.479152 
L 301.117909 91.174761 
L 301.837091 85.195481 
L 302.556273 81.458432 
L 303.275455 82.953252 
L 303.994636 68.005053 
L 304.713818 74.731742 
L 305.433 75.479152 
L 306.152182 89.679941 
L 306.871364 91.174761 
L 308.309727 102.38591 
L 309.028909 129.292668 
L 309.748091 86.690301 
L 310.467273 85.195481 
L 311.186455 46.330165 
L 311.905636 107.617779 
L 312.624818 103.88073 
L 313.344 100.89109 
L 314.063182 81.458432 
L 314.782364 73.984332 
L 315.501545 97.15404 
L 316.220727 88.185121 
L 316.939909 69.499873 
L 317.659091 119.576338 
L 318.378273 98.64886 
L 319.097455 53.804264 
L 319.816636 116.586699 
L 320.535818 76.973972 
L 321.255 68.005053 
L 321.974182 92.669581 
L 322.693364 72.489512 
L 323.412545 99.39627 
L 324.131727 90.427351 
L 324.850909 68.752463 
L 325.570091 90.427351 
L 326.289273 103.88073 
L 327.727636 69.499873 
L 328.446818 83.700661 
L 329.166 102.38591 
L 329.885182 85.195481 
L 330.604364 96.40663 
L 331.323545 70.247283 
L 332.042727 82.205842 
L 332.761909 101.6385 
L 333.481091 89.679941 
L 334.200273 103.88073 
L 334.919455 70.247283 
L 335.638636 89.679941 
L 336.357818 83.700661 
L 337.077 95.65922 
L 337.796182 80.711022 
L 338.515364 79.216202 
L 339.234545 109.860009 
L 339.953727 109.112599 
L 340.672909 106.870369 
L 341.392091 94.164401 
L 342.111273 91.922171 
L 342.830455 85.195481 
L 343.549636 70.247283 
L 344.268818 105.37555 
L 344.988 108.365189 
L 345.707182 68.752463 
L 346.426364 98.64886 
L 347.145545 112.102239 
L 347.864727 84.448071 
L 348.583909 73.984332 
L 349.303091 106.12296 
L 350.741455 77.721382 
L 351.460636 94.164401 
L 352.179818 97.15404 
L 352.899 112.849649 
L 353.618182 59.783543 
L 354.337364 86.690301 
L 355.056545 118.828928 
L 355.775727 116.586699 
L 356.494909 132.282307 
L 357.214091 78.468792 
L 357.933273 68.005053 
L 358.652455 71.742102 
L 359.371636 80.711022 
L 360.090818 121.818568 
L 360.81 96.40663 
L 361.529182 101.6385 
L 362.248364 72.489512 
L 362.967545 99.39627 
L 363.686727 90.427351 
L 364.405909 91.922171 
L 365.125091 87.437711 
L 365.844273 101.6385 
L 366.563455 68.752463 
L 367.282636 65.762823 
L 368.721 99.39627 
L 369.440182 55.299084 
L 370.159364 72.489512 
L 370.878545 96.40663 
L 371.597727 107.617779 
L 372.316909 82.205842 
L 373.036091 102.38591 
L 373.755273 107.617779 
L 374.474455 91.922171 
L 375.193636 87.437711 
L 375.912818 85.942891 
L 376.632 125.555618 
L 377.351182 143.493456 
L 378.070364 82.205842 
L 378.789545 82.205842 
L 379.508727 78.468792 
L 380.227909 77.721382 
L 380.947091 82.953252 
L 381.666273 91.922171 
L 382.385455 103.13332 
L 383.823818 60.530953 
L 384.543 72.489512 
L 385.262182 87.437711 
L 385.981364 99.39627 
L 386.700545 51.562034 
L 387.419727 56.793904 
L 388.138909 73.236922 
L 388.858091 112.849649 
L 390.296455 68.005053 
L 391.015636 97.90145 
L 391.734818 75.479152 
L 392.454 58.288724 
L 393.892364 73.984332 
L 394.611545 48.572394 
L 395.330727 88.185121 
L 396.769091 127.050438 
L 397.488273 102.38591 
L 398.207455 97.90145 
L 398.926636 68.752463 
L 399.645818 76.973972 
L 400.365 94.164401 
L 401.084182 97.90145 
L 401.803364 52.309444 
L 402.522545 68.005053 
L 403.241727 71.742102 
L 403.960909 73.984332 
L 404.680091 87.437711 
L 405.399273 98.64886 
L 406.118455 78.468792 
L 406.837636 98.64886 
L 407.556818 106.12296 
L 408.276 97.15404 
L 408.995182 79.963612 
L 409.714364 72.489512 
L 410.433545 67.257643 
L 411.152727 112.849649 
L 411.871909 135.271947 
L 412.591091 59.783543 
L 413.310273 66.510233 
L 414.029455 114.344469 
L 414.748636 97.90145 
L 416.187 53.804264 
L 416.906182 82.953252 
L 417.625364 94.164401 
L 418.344545 70.247283 
L 419.063727 87.437711 
L 420.502091 109.112599 
L 421.221273 117.334109 
L 421.940455 100.14368 
L 422.659636 56.046494 
L 423.378818 82.953252 
L 424.098 84.448071 
L 424.817182 80.711022 
L 425.536364 88.932531 
L 426.255545 88.185121 
L 426.974727 98.64886 
L 427.693909 59.783543 
L 428.413091 93.416991 
L 429.132273 82.953252 
L 429.851455 60.530953 
L 430.570636 87.437711 
L 431.289818 68.005053 
L 432.009 63.520593 
L 432.728182 79.216202 
L 433.447364 109.860009 
L 434.166545 79.216202 
L 434.885727 79.963612 
L 435.604909 82.953252 
L 436.324091 68.005053 
L 437.043273 103.88073 
L 437.762455 80.711022 
L 438.481636 67.257643 
L 438.481636 67.257643 
" style="fill:none;stroke:#4c72b0;stroke-linecap:round;stroke-width:1.75;"/>
   </g>
   <g id="line2d_42">
    <path clip-path="url(#p06eb6453c2)" d="M 281.7 87.226116 
L 438.481636 87.226116 
" style="fill:none;stroke:#55a868;stroke-linecap:round;stroke-width:1.75;"/>
   </g>
   <g id="patch_8">
    <path d="M 281.7 148.351621 
L 281.7 41.472 
" style="fill:none;"/>
   </g>
   <g id="patch_9">
    <path d="M 439.92 148.351621 
L 439.92 41.472 
" style="fill:none;"/>
   </g>
   <g id="patch_10">
    <path d="M 281.7 148.351621 
L 439.92 148.351621 
" style="fill:none;"/>
   </g>
   <g id="patch_11">
    <path d="M 281.7 41.472 
L 439.92 41.472 
" style="fill:none;"/>
   </g>
   <g id="text_22">
    <!-- $AR_y$ -->
    <defs>
     <path d="M 24.8125 -5.078125 
Q 18.5625 -15.578125 14.625 -18.1875 
Q 10.6875 -20.796875 4.59375 -20.796875 
L -2.484375 -20.796875 
L -0.984375 -13.28125 
L 4.203125 -13.28125 
Q 7.953125 -13.28125 10.59375 -11.234375 
Q 13.234375 -9.1875 16.5 -3.21875 
L 19.28125 2 
L 7.171875 54.6875 
L 16.703125 54.6875 
L 25.78125 12.796875 
L 50.875 54.6875 
L 60.296875 54.6875 
z
" id="DejaVuSans-Oblique-79"/>
    </defs>
    <g style="fill:#262626;" transform="translate(349.83 35.472)scale(0.12 -0.12)">
     <use transform="translate(0 0.09375)" xlink:href="#DejaVuSans-Oblique-41"/>
     <use transform="translate(68.408203 0.09375)" xlink:href="#DejaVuSans-Oblique-52"/>
     <use transform="translate(137.890625 -16.3125)scale(0.7)" xlink:href="#DejaVuSans-Oblique-79"/>
    </g>
   </g>
   <g id="legend_2">
    <g id="line2d_43">
     <path d="M 290.7 133.771933 
L 310.7 133.771933 
" style="fill:none;stroke:#55a868;stroke-linecap:round;stroke-width:1.75;"/>
    </g>
    <g id="line2d_44"/>
    <g id="text_23">
     <!-- mean -->
     <g style="fill:#262626;" transform="translate(318.7 137.271933)scale(0.1 -0.1)">
      <use xlink:href="#DejaVuSans-6d"/>
      <use x="97.412109" xlink:href="#DejaVuSans-65"/>
      <use x="158.935547" xlink:href="#DejaVuSans-61"/>
      <use x="220.214844" xlink:href="#DejaVuSans-6e"/>
     </g>
    </g>
   </g>
  </g>
  <g id="axes_3">
   <g id="patch_12">
    <path d="M 65.18 300.76 
L 223.4 300.76 
L 223.4 193.880379 
L 65.18 193.880379 
z
" style="fill:#eaeaf2;"/>
   </g>
   <g id="matplotlib.axis_5">
    <g id="xtick_13">
     <g id="line2d_45">
      <path clip-path="url(#p63b6e03a23)" d="M 65.18 300.76 
L 65.18 193.880379 
" style="fill:none;stroke:#ffffff;stroke-linecap:round;"/>
     </g>
     <g id="line2d_46"/>
     <g id="text_24">
      <!-- 0.0 -->
      <g style="fill:#262626;" transform="translate(57.228438 315.358437)scale(0.1 -0.1)">
       <use xlink:href="#DejaVuSans-30"/>
       <use x="63.623047" xlink:href="#DejaVuSans-2e"/>
       <use x="95.410156" xlink:href="#DejaVuSans-30"/>
      </g>
     </g>
    </g>
    <g id="xtick_14">
     <g id="line2d_47">
      <path clip-path="url(#p63b6e03a23)" d="M 96.824 300.76 
L 96.824 193.880379 
" style="fill:none;stroke:#ffffff;stroke-linecap:round;"/>
     </g>
     <g id="line2d_48"/>
     <g id="text_25">
      <!-- 0.2 -->
      <g style="fill:#262626;" transform="translate(88.872438 315.358437)scale(0.1 -0.1)">
       <use xlink:href="#DejaVuSans-30"/>
       <use x="63.623047" xlink:href="#DejaVuSans-2e"/>
       <use x="95.410156" xlink:href="#DejaVuSans-32"/>
      </g>
     </g>
    </g>
    <g id="xtick_15">
     <g id="line2d_49">
      <path clip-path="url(#p63b6e03a23)" d="M 128.468 300.76 
L 128.468 193.880379 
" style="fill:none;stroke:#ffffff;stroke-linecap:round;"/>
     </g>
     <g id="line2d_50"/>
     <g id="text_26">
      <!-- 0.4 -->
      <g style="fill:#262626;" transform="translate(120.516438 315.358437)scale(0.1 -0.1)">
       <use xlink:href="#DejaVuSans-30"/>
       <use x="63.623047" xlink:href="#DejaVuSans-2e"/>
       <use x="95.410156" xlink:href="#DejaVuSans-34"/>
      </g>
     </g>
    </g>
    <g id="xtick_16">
     <g id="line2d_51">
      <path clip-path="url(#p63b6e03a23)" d="M 160.112 300.76 
L 160.112 193.880379 
" style="fill:none;stroke:#ffffff;stroke-linecap:round;"/>
     </g>
     <g id="line2d_52"/>
     <g id="text_27">
      <!-- 0.6 -->
      <g style="fill:#262626;" transform="translate(152.160438 315.358437)scale(0.1 -0.1)">
       <use xlink:href="#DejaVuSans-30"/>
       <use x="63.623047" xlink:href="#DejaVuSans-2e"/>
       <use x="95.410156" xlink:href="#DejaVuSans-36"/>
      </g>
     </g>
    </g>
    <g id="xtick_17">
     <g id="line2d_53">
      <path clip-path="url(#p63b6e03a23)" d="M 191.756 300.76 
L 191.756 193.880379 
" style="fill:none;stroke:#ffffff;stroke-linecap:round;"/>
     </g>
     <g id="line2d_54"/>
     <g id="text_28">
      <!-- 0.8 -->
      <g style="fill:#262626;" transform="translate(183.804438 315.358437)scale(0.1 -0.1)">
       <use xlink:href="#DejaVuSans-30"/>
       <use x="63.623047" xlink:href="#DejaVuSans-2e"/>
       <use x="95.410156" xlink:href="#DejaVuSans-38"/>
      </g>
     </g>
    </g>
    <g id="xtick_18">
     <g id="line2d_55">
      <path clip-path="url(#p63b6e03a23)" d="M 223.4 300.76 
L 223.4 193.880379 
" style="fill:none;stroke:#ffffff;stroke-linecap:round;"/>
     </g>
     <g id="line2d_56"/>
     <g id="text_29">
      <!-- 1.0 -->
      <g style="fill:#262626;" transform="translate(215.448438 315.358437)scale(0.1 -0.1)">
       <use xlink:href="#DejaVuSans-31"/>
       <use x="63.623047" xlink:href="#DejaVuSans-2e"/>
       <use x="95.410156" xlink:href="#DejaVuSans-30"/>
      </g>
     </g>
    </g>
    <g id="text_30">
     <!-- Time (s) -->
     <defs>
      <path d="M -0.296875 72.90625 
L 61.375 72.90625 
L 61.375 64.59375 
L 35.5 64.59375 
L 35.5 0 
L 25.59375 0 
L 25.59375 64.59375 
L -0.296875 64.59375 
z
" id="DejaVuSans-54"/>
      <path d="M 9.421875 54.6875 
L 18.40625 54.6875 
L 18.40625 0 
L 9.421875 0 
z
M 9.421875 75.984375 
L 18.40625 75.984375 
L 18.40625 64.59375 
L 9.421875 64.59375 
z
" id="DejaVuSans-69"/>
     </defs>
     <g style="fill:#262626;" transform="translate(121.758906 329.796406)scale(0.11 -0.11)">
      <use xlink:href="#DejaVuSans-54"/>
      <use x="61.037109" xlink:href="#DejaVuSans-69"/>
      <use x="88.820312" xlink:href="#DejaVuSans-6d"/>
      <use x="186.232422" xlink:href="#DejaVuSans-65"/>
      <use x="247.755859" xlink:href="#DejaVuSans-20"/>
      <use x="279.542969" xlink:href="#DejaVuSans-28"/>
      <use x="318.556641" xlink:href="#DejaVuSans-73"/>
      <use x="370.65625" xlink:href="#DejaVuSans-29"/>
     </g>
    </g>
   </g>
   <g id="matplotlib.axis_6">
    <g id="ytick_7">
     <g id="line2d_57">
      <path clip-path="url(#p63b6e03a23)" d="M 65.18 287.538134 
L 223.4 287.538134 
" style="fill:none;stroke:#ffffff;stroke-linecap:round;"/>
     </g>
     <g id="line2d_58"/>
     <g id="text_31">
      <!-- −0.5 -->
      <g style="fill:#262626;" transform="translate(33.897188 291.337353)scale(0.1 -0.1)">
       <use xlink:href="#DejaVuSans-2212"/>
       <use x="83.789062" xlink:href="#DejaVuSans-30"/>
       <use x="147.412109" xlink:href="#DejaVuSans-2e"/>
       <use x="179.199219" xlink:href="#DejaVuSans-35"/>
      </g>
     </g>
    </g>
    <g id="ytick_8">
     <g id="line2d_59">
      <path clip-path="url(#p63b6e03a23)" d="M 65.18 254.878204 
L 223.4 254.878204 
" style="fill:none;stroke:#ffffff;stroke-linecap:round;"/>
     </g>
     <g id="line2d_60"/>
     <g id="text_32">
      <!-- 0.0 -->
      <g style="fill:#262626;" transform="translate(42.276875 258.677423)scale(0.1 -0.1)">
       <use xlink:href="#DejaVuSans-30"/>
       <use x="63.623047" xlink:href="#DejaVuSans-2e"/>
       <use x="95.410156" xlink:href="#DejaVuSans-30"/>
      </g>
     </g>
    </g>
    <g id="ytick_9">
     <g id="line2d_61">
      <path clip-path="url(#p63b6e03a23)" d="M 65.18 222.218274 
L 223.4 222.218274 
" style="fill:none;stroke:#ffffff;stroke-linecap:round;"/>
     </g>
     <g id="line2d_62"/>
     <g id="text_33">
      <!-- 0.5 -->
      <g style="fill:#262626;" transform="translate(42.276875 226.017493)scale(0.1 -0.1)">
       <use xlink:href="#DejaVuSans-30"/>
       <use x="63.623047" xlink:href="#DejaVuSans-2e"/>
       <use x="95.410156" xlink:href="#DejaVuSans-35"/>
      </g>
     </g>
    </g>
    <g id="text_34">
     <!-- Angular rate (dps) -->
     <g style="fill:#262626;" transform="translate(27.609531 297.512846)rotate(-90)scale(0.11 -0.11)">
      <use xlink:href="#DejaVuSans-41"/>
      <use x="68.408203" xlink:href="#DejaVuSans-6e"/>
      <use x="131.787109" xlink:href="#DejaVuSans-67"/>
      <use x="195.263672" xlink:href="#DejaVuSans-75"/>
      <use x="258.642578" xlink:href="#DejaVuSans-6c"/>
      <use x="286.425781" xlink:href="#DejaVuSans-61"/>
      <use x="347.705078" xlink:href="#DejaVuSans-72"/>
      <use x="388.818359" xlink:href="#DejaVuSans-20"/>
      <use x="420.605469" xlink:href="#DejaVuSans-72"/>
      <use x="461.71875" xlink:href="#DejaVuSans-61"/>
      <use x="522.998047" xlink:href="#DejaVuSans-74"/>
      <use x="562.207031" xlink:href="#DejaVuSans-65"/>
      <use x="623.730469" xlink:href="#DejaVuSans-20"/>
      <use x="655.517578" xlink:href="#DejaVuSans-28"/>
      <use x="694.53125" xlink:href="#DejaVuSans-64"/>
      <use x="758.007812" xlink:href="#DejaVuSans-70"/>
      <use x="821.484375" xlink:href="#DejaVuSans-73"/>
      <use x="873.583984" xlink:href="#DejaVuSans-29"/>
     </g>
    </g>
   </g>
   <g id="line2d_63">
    <path clip-path="url(#p63b6e03a23)" d="M 65.18 241.604702 
L 65.899182 269.610592 
L 66.618364 246.748641 
L 67.337545 245.033994 
L 68.056727 266.181299 
L 68.775909 266.752848 
L 69.495091 269.610592 
L 70.214273 244.462446 
L 70.933455 235.889214 
L 71.652636 242.176251 
L 72.371818 265.60975 
L 73.091 263.323555 
L 73.810182 270.753689 
L 74.529364 270.182141 
L 75.248545 255.893421 
L 75.967727 221.600495 
L 76.686909 233.603019 
L 77.406091 254.178775 
L 78.125273 269.610592 
L 78.844455 249.034836 
L 79.563636 255.321872 
L 80.282818 265.038202 
L 81.002 253.035677 
L 81.721182 273.039884 
L 82.440364 267.324397 
L 83.159545 274.182982 
L 83.878727 267.895945 
L 84.597909 233.03147 
L 85.317091 254.178775 
L 86.036273 259.322714 
L 86.755455 250.177933 
L 87.474636 282.184665 
L 88.193818 270.182141 
L 88.913 261.03736 
L 89.632182 253.607226 
L 90.351364 278.183823 
L 91.070545 257.608067 
L 91.789727 240.461604 
L 92.508909 262.180458 
L 93.228091 251.321031 
L 93.947273 254.750324 
L 94.666455 256.46497 
L 95.385636 247.32019 
L 96.104818 274.182982 
L 96.824 266.181299 
L 97.543182 241.033153 
L 98.262364 285.042409 
L 98.981545 262.752006 
L 99.700727 245.033994 
L 100.419909 265.038202 
L 101.858273 235.317665 
L 102.577455 261.03736 
L 103.296636 231.316824 
L 105.454182 276.469177 
L 106.173364 295.901835 
L 106.892545 265.038202 
L 107.611727 262.180458 
L 108.330909 281.613116 
L 109.050091 215.885007 
L 109.769273 231.888373 
L 110.488455 253.035677 
L 111.207636 243.890897 
L 111.926818 230.745275 
L 112.646 235.317665 
L 113.365182 256.46497 
L 114.084364 241.604702 
L 114.803545 267.324397 
L 115.522727 275.897628 
L 116.241909 231.888373 
L 116.961091 263.895104 
L 117.680273 265.60975 
L 118.399455 249.606385 
L 119.118636 257.608067 
L 119.837818 244.462446 
L 120.557 246.177092 
L 121.276182 249.034836 
L 121.995364 261.608909 
L 122.714545 222.172043 
L 123.433727 211.884165 
L 124.152909 263.323555 
L 124.872091 258.751165 
L 125.591273 208.454873 
L 126.310455 217.028104 
L 127.029636 266.752848 
L 127.748818 237.032312 
L 128.468 231.888373 
L 129.187182 250.177933 
L 129.906364 222.743592 
L 130.625545 255.321872 
L 131.344727 252.464128 
L 132.063909 270.182141 
L 132.783091 254.750324 
L 133.502273 253.035677 
L 134.221455 264.466653 
L 134.940636 237.032312 
L 135.659818 262.180458 
L 136.379 240.461604 
L 137.098182 291.900994 
L 137.817364 281.041567 
L 138.536545 234.174568 
L 139.255727 227.315982 
L 139.974909 198.738544 
L 140.694091 224.458238 
L 141.413273 246.177092 
L 142.132455 241.604702 
L 142.851636 259.894263 
L 143.570818 256.46497 
L 144.29 275.326079 
L 145.009182 233.03147 
L 145.728364 273.039884 
L 146.447545 283.899311 
L 147.166727 253.035677 
L 147.885909 242.747799 
L 148.605091 244.462446 
L 149.324273 245.605543 
L 150.043455 289.614799 
L 150.762636 264.466653 
L 151.481818 271.325238 
L 152.201 241.033153 
L 152.920182 254.178775 
L 153.639364 255.321872 
L 154.358545 268.467494 
L 155.077727 267.324397 
L 155.796909 242.747799 
L 156.516091 269.039043 
L 157.235273 227.315982 
L 157.954455 246.177092 
L 158.673636 243.319348 
L 159.392818 277.612275 
L 160.112 234.174568 
L 160.831182 222.172043 
L 161.550364 277.040726 
L 162.269545 246.177092 
L 162.988727 250.177933 
L 163.707909 291.900994 
L 164.427091 263.323555 
L 165.146273 254.750324 
L 165.865455 247.891738 
L 166.584636 267.324397 
L 167.303818 267.895945 
L 168.023 274.754531 
L 168.742182 255.893421 
L 169.461364 222.743592 
L 170.180545 279.326921 
L 170.899727 269.039043 
L 171.618909 274.182982 
L 172.338091 248.463287 
L 173.057273 234.746116 
L 173.776455 275.326079 
L 174.495636 255.893421 
L 175.214818 285.042409 
L 175.934 262.180458 
L 176.653182 263.895104 
L 177.372364 262.752006 
L 178.091545 271.325238 
L 178.810727 278.183823 
L 179.529909 245.033994 
L 180.968273 270.753689 
L 181.687455 249.606385 
L 182.406636 258.179616 
L 183.125818 281.613116 
L 183.845 242.747799 
L 184.564182 250.177933 
L 185.283364 227.887531 
L 186.002545 293.044092 
L 186.721727 294.758738 
L 187.440909 271.325238 
L 188.160091 267.895945 
L 188.879273 227.315982 
L 189.598455 229.030629 
L 190.317636 249.034836 
L 191.036818 252.464128 
L 191.756 261.608909 
L 192.475182 239.318507 
L 193.194364 273.611433 
L 193.913545 280.470018 
L 194.632727 273.039884 
L 195.351909 246.748641 
L 196.071091 269.039043 
L 196.790273 256.46497 
L 197.509455 213.598812 
L 198.228636 250.177933 
L 198.947818 248.463287 
L 199.667 231.316824 
L 200.386182 269.039043 
L 201.105364 248.463287 
L 201.824545 279.326921 
L 202.543727 281.613116 
L 203.262909 268.467494 
L 203.982091 222.743592 
L 204.701273 230.745275 
L 205.420455 210.741068 
L 206.858818 270.753689 
L 207.578 282.184665 
L 208.297182 257.608067 
L 209.016364 283.327762 
L 209.735545 259.322714 
L 210.454727 249.606385 
L 211.173909 275.326079 
L 211.893091 248.463287 
L 212.612273 269.039043 
L 213.331455 260.465811 
L 214.050636 234.174568 
L 214.769818 258.751165 
L 215.489 271.896787 
L 216.208182 259.894263 
L 216.927364 222.172043 
L 217.646545 237.032312 
L 218.365727 217.028104 
L 219.084909 242.747799 
L 219.804091 240.461604 
L 220.523273 258.179616 
L 221.242455 279.326921 
L 221.961636 253.035677 
L 221.961636 253.035677 
" style="fill:none;stroke:#4c72b0;stroke-linecap:round;stroke-width:1.75;"/>
   </g>
   <g id="line2d_64">
    <path clip-path="url(#p63b6e03a23)" d="M 65.18 254.878204 
L 221.961636 254.878204 
" style="fill:none;stroke:#55a868;stroke-linecap:round;stroke-width:1.75;"/>
   </g>
   <g id="patch_13">
    <path d="M 65.18 300.76 
L 65.18 193.880379 
" style="fill:none;"/>
   </g>
   <g id="patch_14">
    <path d="M 223.4 300.76 
L 223.4 193.880379 
" style="fill:none;"/>
   </g>
   <g id="patch_15">
    <path d="M 65.18 300.76 
L 223.4 300.76 
" style="fill:none;"/>
   </g>
   <g id="patch_16">
    <path d="M 65.18 193.880379 
L 223.4 193.880379 
" style="fill:none;"/>
   </g>
   <g id="text_35">
    <!-- $AR_z$ -->
    <defs>
     <path d="M 11.625 54.6875 
L 54.296875 54.6875 
L 52.6875 46.484375 
L 11.53125 7.171875 
L 45.515625 7.171875 
L 44.09375 0 
L -0.296875 0 
L 1.3125 8.203125 
L 42.484375 47.515625 
L 10.203125 47.515625 
z
" id="DejaVuSans-Oblique-7a"/>
    </defs>
    <g style="fill:#262626;" transform="translate(133.61 187.880379)scale(0.12 -0.12)">
     <use transform="translate(0 0.09375)" xlink:href="#DejaVuSans-Oblique-41"/>
     <use transform="translate(68.408203 0.09375)" xlink:href="#DejaVuSans-Oblique-52"/>
     <use transform="translate(137.890625 -16.3125)scale(0.7)" xlink:href="#DejaVuSans-Oblique-7a"/>
    </g>
   </g>
   <g id="legend_3">
    <g id="line2d_65">
     <path d="M 158.040625 206.978817 
L 178.040625 206.978817 
" style="fill:none;stroke:#55a868;stroke-linecap:round;stroke-width:1.75;"/>
    </g>
    <g id="line2d_66"/>
    <g id="text_36">
     <!-- mean -->
     <g style="fill:#262626;" transform="translate(186.040625 210.478817)scale(0.1 -0.1)">
      <use xlink:href="#DejaVuSans-6d"/>
      <use x="97.412109" xlink:href="#DejaVuSans-65"/>
      <use x="158.935547" xlink:href="#DejaVuSans-61"/>
      <use x="220.214844" xlink:href="#DejaVuSans-6e"/>
     </g>
    </g>
   </g>
  </g>
  <g id="axes_4">
   <g id="patch_17">
    <path d="M 281.7 300.76 
L 439.92 300.76 
L 439.92 193.880379 
L 281.7 193.880379 
z
" style="fill:#eaeaf2;"/>
   </g>
   <g id="matplotlib.axis_7">
    <g id="xtick_19">
     <g id="line2d_67">
      <path clip-path="url(#paed4c6a2c7)" d="M 281.7 300.76 
L 281.7 193.880379 
" style="fill:none;stroke:#ffffff;stroke-linecap:round;"/>
     </g>
     <g id="line2d_68"/>
     <g id="text_37">
      <!-- 0.0 -->
      <g style="fill:#262626;" transform="translate(273.748437 315.358437)scale(0.1 -0.1)">
       <use xlink:href="#DejaVuSans-30"/>
       <use x="63.623047" xlink:href="#DejaVuSans-2e"/>
       <use x="95.410156" xlink:href="#DejaVuSans-30"/>
      </g>
     </g>
    </g>
    <g id="xtick_20">
     <g id="line2d_69">
      <path clip-path="url(#paed4c6a2c7)" d="M 313.344 300.76 
L 313.344 193.880379 
" style="fill:none;stroke:#ffffff;stroke-linecap:round;"/>
     </g>
     <g id="line2d_70"/>
     <g id="text_38">
      <!-- 0.2 -->
      <g style="fill:#262626;" transform="translate(305.392437 315.358437)scale(0.1 -0.1)">
       <use xlink:href="#DejaVuSans-30"/>
       <use x="63.623047" xlink:href="#DejaVuSans-2e"/>
       <use x="95.410156" xlink:href="#DejaVuSans-32"/>
      </g>
     </g>
    </g>
    <g id="xtick_21">
     <g id="line2d_71">
      <path clip-path="url(#paed4c6a2c7)" d="M 344.988 300.76 
L 344.988 193.880379 
" style="fill:none;stroke:#ffffff;stroke-linecap:round;"/>
     </g>
     <g id="line2d_72"/>
     <g id="text_39">
      <!-- 0.4 -->
      <g style="fill:#262626;" transform="translate(337.036437 315.358437)scale(0.1 -0.1)">
       <use xlink:href="#DejaVuSans-30"/>
       <use x="63.623047" xlink:href="#DejaVuSans-2e"/>
       <use x="95.410156" xlink:href="#DejaVuSans-34"/>
      </g>
     </g>
    </g>
    <g id="xtick_22">
     <g id="line2d_73">
      <path clip-path="url(#paed4c6a2c7)" d="M 376.632 300.76 
L 376.632 193.880379 
" style="fill:none;stroke:#ffffff;stroke-linecap:round;"/>
     </g>
     <g id="line2d_74"/>
     <g id="text_40">
      <!-- 0.6 -->
      <g style="fill:#262626;" transform="translate(368.680437 315.358437)scale(0.1 -0.1)">
       <use xlink:href="#DejaVuSans-30"/>
       <use x="63.623047" xlink:href="#DejaVuSans-2e"/>
       <use x="95.410156" xlink:href="#DejaVuSans-36"/>
      </g>
     </g>
    </g>
    <g id="xtick_23">
     <g id="line2d_75">
      <path clip-path="url(#paed4c6a2c7)" d="M 408.276 300.76 
L 408.276 193.880379 
" style="fill:none;stroke:#ffffff;stroke-linecap:round;"/>
     </g>
     <g id="line2d_76"/>
     <g id="text_41">
      <!-- 0.8 -->
      <g style="fill:#262626;" transform="translate(400.324437 315.358437)scale(0.1 -0.1)">
       <use xlink:href="#DejaVuSans-30"/>
       <use x="63.623047" xlink:href="#DejaVuSans-2e"/>
       <use x="95.410156" xlink:href="#DejaVuSans-38"/>
      </g>
     </g>
    </g>
    <g id="xtick_24">
     <g id="line2d_77">
      <path clip-path="url(#paed4c6a2c7)" d="M 439.92 300.76 
L 439.92 193.880379 
" style="fill:none;stroke:#ffffff;stroke-linecap:round;"/>
     </g>
     <g id="line2d_78"/>
     <g id="text_42">
      <!-- 1.0 -->
      <g style="fill:#262626;" transform="translate(431.968437 315.358437)scale(0.1 -0.1)">
       <use xlink:href="#DejaVuSans-31"/>
       <use x="63.623047" xlink:href="#DejaVuSans-2e"/>
       <use x="95.410156" xlink:href="#DejaVuSans-30"/>
      </g>
     </g>
    </g>
    <g id="text_43">
     <!-- Time (s) -->
     <g style="fill:#262626;" transform="translate(338.278906 329.796406)scale(0.11 -0.11)">
      <use xlink:href="#DejaVuSans-54"/>
      <use x="61.037109" xlink:href="#DejaVuSans-69"/>
      <use x="88.820312" xlink:href="#DejaVuSans-6d"/>
      <use x="186.232422" xlink:href="#DejaVuSans-65"/>
      <use x="247.755859" xlink:href="#DejaVuSans-20"/>
      <use x="279.542969" xlink:href="#DejaVuSans-28"/>
      <use x="318.556641" xlink:href="#DejaVuSans-73"/>
      <use x="370.65625" xlink:href="#DejaVuSans-29"/>
     </g>
    </g>
   </g>
   <g id="matplotlib.axis_8">
    <g id="ytick_10">
     <g id="line2d_79">
      <path clip-path="url(#paed4c6a2c7)" d="M 281.7 300.621441 
L 439.92 300.621441 
" style="fill:none;stroke:#ffffff;stroke-linecap:round;"/>
     </g>
     <g id="line2d_80"/>
     <g id="text_44">
      <!-- 0.0 -->
      <g style="fill:#262626;" transform="translate(258.796875 304.42066)scale(0.1 -0.1)">
       <use xlink:href="#DejaVuSans-30"/>
       <use x="63.623047" xlink:href="#DejaVuSans-2e"/>
       <use x="95.410156" xlink:href="#DejaVuSans-30"/>
      </g>
     </g>
    </g>
    <g id="ytick_11">
     <g id="line2d_81">
      <path clip-path="url(#paed4c6a2c7)" d="M 281.7 258.99234 
L 439.92 258.99234 
" style="fill:none;stroke:#ffffff;stroke-linecap:round;"/>
     </g>
     <g id="line2d_82"/>
     <g id="text_45">
      <!-- 0.5 -->
      <g style="fill:#262626;" transform="translate(258.796875 262.791558)scale(0.1 -0.1)">
       <use xlink:href="#DejaVuSans-30"/>
       <use x="63.623047" xlink:href="#DejaVuSans-2e"/>
       <use x="95.410156" xlink:href="#DejaVuSans-35"/>
      </g>
     </g>
    </g>
    <g id="ytick_12">
     <g id="line2d_83">
      <path clip-path="url(#paed4c6a2c7)" d="M 281.7 217.363238 
L 439.92 217.363238 
" style="fill:none;stroke:#ffffff;stroke-linecap:round;"/>
     </g>
     <g id="line2d_84"/>
     <g id="text_46">
      <!-- 1.0 -->
      <g style="fill:#262626;" transform="translate(258.796875 221.162457)scale(0.1 -0.1)">
       <use xlink:href="#DejaVuSans-31"/>
       <use x="63.623047" xlink:href="#DejaVuSans-2e"/>
       <use x="95.410156" xlink:href="#DejaVuSans-30"/>
      </g>
     </g>
    </g>
   </g>
   <g id="line2d_85">
    <path clip-path="url(#paed4c6a2c7)" d="M 281.7 277.838379 
L 282.419182 275.556437 
L 283.138364 283.505102 
L 283.857545 255.397981 
L 284.576727 268.535466 
L 285.295909 276.191383 
L 286.015091 276.291231 
L 286.734273 286.554391 
L 287.453455 275.172398 
L 288.172636 269.819619 
L 288.891818 270.496281 
L 289.611 277.956221 
L 290.330182 258.460704 
L 291.049364 263.188905 
L 291.768545 257.677427 
L 292.487727 255.753105 
L 293.206909 262.818864 
L 293.926091 251.561588 
L 294.645273 272.495199 
L 295.364455 271.930098 
L 296.083636 295.088484 
L 296.802818 273.453086 
L 297.522 266.3335 
L 298.241182 253.06393 
L 298.960364 274.224922 
L 299.679545 266.942103 
L 300.398727 279.472059 
L 301.117909 267.430223 
L 301.837091 275.193785 
L 302.556273 292.388055 
L 303.275455 263.632187 
L 303.994636 259.758342 
L 304.713818 272.68401 
L 305.433 281.131997 
L 306.152182 280.57941 
L 306.871364 268.791738 
L 307.590545 289.510334 
L 308.309727 277.034788 
L 309.028909 258.331772 
L 309.748091 290.255043 
L 310.467273 294.618342 
L 311.186455 257.111951 
L 311.905636 261.559654 
L 313.344 280.992546 
L 314.063182 281.453784 
L 314.782364 258.762028 
L 315.501545 271.06365 
L 316.220727 271.679864 
L 316.939909 275.274016 
L 317.659091 264.721383 
L 318.378273 269.934071 
L 319.097455 260.303166 
L 319.816636 257.94084 
L 320.535818 284.792524 
L 321.255 275.74593 
L 321.974182 272.496061 
L 322.693364 244.961977 
L 323.412545 281.075998 
L 324.131727 289.633373 
L 324.850909 259.724285 
L 325.570091 250.268067 
L 326.289273 258.862218 
L 327.008455 281.372282 
L 327.727636 277.923046 
L 328.446818 248.375646 
L 329.166 260.149705 
L 329.885182 290.193973 
L 330.604364 271.447472 
L 331.323545 273.150599 
L 332.042727 273.213128 
L 332.761909 262.166311 
L 333.481091 288.88093 
L 334.200273 253.18945 
L 334.919455 262.790828 
L 335.638636 282.793021 
L 336.357818 283.187502 
L 337.077 258.776301 
L 337.796182 271.412355 
L 338.515364 286.193789 
L 339.234545 240.478619 
L 339.953727 218.732766 
L 340.672909 277.427094 
L 341.392091 252.694295 
L 342.111273 236.091135 
L 342.830455 244.140049 
L 343.549636 271.62762 
L 344.268818 259.523308 
L 344.988 261.004828 
L 345.707182 277.228435 
L 346.426364 247.770743 
L 347.145545 267.864093 
L 347.864727 280.36957 
L 348.583909 277.14395 
L 349.303091 281.875975 
L 350.022273 289.653351 
L 350.741455 283.3927 
L 351.460636 270.15631 
L 352.179818 286.846766 
L 352.899 269.284502 
L 353.618182 229.93018 
L 354.337364 257.840684 
L 355.056545 246.48091 
L 355.775727 255.082753 
L 356.494909 198.738544 
L 357.214091 259.670161 
L 357.933273 253.233512 
L 358.652455 242.959044 
L 359.371636 272.04554 
L 360.090818 237.757309 
L 360.81 262.187428 
L 362.248364 273.156555 
L 362.967545 261.511262 
L 363.686727 289.852242 
L 364.405909 280.388186 
L 365.125091 287.313777 
L 365.844273 277.082047 
L 366.563455 251.781626 
L 367.282636 267.111335 
L 368.001818 270.775714 
L 368.721 276.293821 
L 369.440182 267.680507 
L 370.159364 275.202507 
L 370.878545 280.932205 
L 371.597727 274.907431 
L 372.316909 284.234734 
L 373.036091 275.506356 
L 373.755273 259.500819 
L 374.474455 288.590284 
L 375.193636 277.631579 
L 375.912818 258.870198 
L 376.632 253.459218 
L 377.351182 230.956686 
L 378.070364 256.395772 
L 378.789545 268.909702 
L 379.508727 290.067843 
L 380.227909 252.317278 
L 380.947091 266.019676 
L 381.666273 286.885173 
L 382.385455 279.187906 
L 383.104636 280.166917 
L 383.823818 265.771966 
L 384.543 270.732832 
L 385.262182 295.901835 
L 385.981364 244.904882 
L 386.700545 253.395801 
L 387.419727 264.170556 
L 388.138909 266.20148 
L 388.858091 274.309659 
L 389.577273 246.852451 
L 390.296455 242.945702 
L 391.015636 261.15747 
L 391.734818 251.787358 
L 392.454 270.32158 
L 393.173182 275.181636 
L 393.892364 273.457725 
L 394.611545 254.033857 
L 395.330727 246.416514 
L 396.049909 268.636228 
L 396.769091 259.381386 
L 397.488273 275.158403 
L 398.207455 283.995351 
L 398.926636 281.482189 
L 399.645818 257.828393 
L 400.365 283.667849 
L 401.084182 285.864547 
L 401.803364 243.838578 
L 402.522545 246.338554 
L 403.241727 247.428885 
L 403.960909 275.588944 
L 404.680091 276.923265 
L 405.399273 263.745212 
L 406.837636 262.34124 
L 407.556818 274.649924 
L 408.276 266.881714 
L 408.995182 263.010614 
L 409.714364 266.183988 
L 410.433545 258.247989 
L 411.152727 257.539363 
L 411.871909 243.641596 
L 412.591091 263.997608 
L 413.310273 272.973106 
L 414.029455 238.252738 
L 414.748636 288.303447 
L 415.467818 283.335405 
L 416.187 249.939845 
L 416.906182 261.548426 
L 417.625364 289.348693 
L 418.344545 264.401723 
L 419.063727 264.307204 
L 419.782909 280.022705 
L 420.502091 243.892144 
L 421.221273 243.569849 
L 421.940455 240.330961 
L 422.659636 265.049263 
L 423.378818 276.450072 
L 424.098 264.59295 
L 424.817182 287.979931 
L 425.536364 262.758396 
L 426.255545 265.023895 
L 426.974727 283.993456 
L 427.693909 263.263983 
L 428.413091 290.003627 
L 429.132273 282.052301 
L 429.851455 261.560368 
L 430.570636 268.04213 
L 431.289818 278.094519 
L 432.009 264.847669 
L 432.728182 279.65718 
L 433.447364 240.023906 
L 434.166545 268.717667 
L 434.885727 248.626773 
L 435.604909 282.78772 
L 436.324091 267.923109 
L 437.043273 265.872561 
L 437.762455 264.407109 
L 438.481636 265.029546 
L 438.481636 265.029546 
" style="fill:none;stroke:#4c72b0;stroke-linecap:round;stroke-width:1.75;"/>
   </g>
   <g id="patch_18">
    <path d="M 281.7 300.76 
L 281.7 193.880379 
" style="fill:none;"/>
   </g>
   <g id="patch_19">
    <path d="M 439.92 300.76 
L 439.92 193.880379 
" style="fill:none;"/>
   </g>
   <g id="patch_20">
    <path d="M 281.7 300.76 
L 439.92 300.76 
" style="fill:none;"/>
   </g>
   <g id="patch_21">
    <path d="M 281.7 193.880379 
L 439.92 193.880379 
" style="fill:none;"/>
   </g>
   <g id="text_47">
    <!-- $\|AR\|$ -->
    <defs>
     <path d="M 21 76.421875 
L 21 -23.578125 
L 12.703125 -23.578125 
L 12.703125 76.421875 
z
" id="DejaVuSans-7c"/>
    </defs>
    <g style="fill:#262626;" transform="translate(348.45 187.880379)scale(0.12 -0.12)">
     <use transform="translate(0 0.578125)" xlink:href="#DejaVuSans-7c"/>
     <use transform="translate(33.691406 0.578125)" xlink:href="#DejaVuSans-Oblique-41"/>
     <use transform="translate(102.099609 0.578125)" xlink:href="#DejaVuSans-Oblique-52"/>
     <use transform="translate(171.582031 0.578125)" xlink:href="#DejaVuSans-7c"/>
    </g>
   </g>
  </g>
  <g id="text_48">
   <!-- Calibrated gyroscope data -->
   <defs>
    <path d="M 64.40625 67.28125 
L 64.40625 56.890625 
Q 59.421875 61.53125 53.78125 63.8125 
Q 48.140625 66.109375 41.796875 66.109375 
Q 29.296875 66.109375 22.65625 58.46875 
Q 16.015625 50.828125 16.015625 36.375 
Q 16.015625 21.96875 22.65625 14.328125 
Q 29.296875 6.6875 41.796875 6.6875 
Q 48.140625 6.6875 53.78125 8.984375 
Q 59.421875 11.28125 64.40625 15.921875 
L 64.40625 5.609375 
Q 59.234375 2.09375 53.4375 0.328125 
Q 47.65625 -1.421875 41.21875 -1.421875 
Q 24.65625 -1.421875 15.125 8.703125 
Q 5.609375 18.84375 5.609375 36.375 
Q 5.609375 53.953125 15.125 64.078125 
Q 24.65625 74.21875 41.21875 74.21875 
Q 47.75 74.21875 53.53125 72.484375 
Q 59.328125 70.75 64.40625 67.28125 
z
" id="DejaVuSans-43"/>
    <path d="M 48.6875 27.296875 
Q 48.6875 37.203125 44.609375 42.84375 
Q 40.53125 48.484375 33.40625 48.484375 
Q 26.265625 48.484375 22.1875 42.84375 
Q 18.109375 37.203125 18.109375 27.296875 
Q 18.109375 17.390625 22.1875 11.75 
Q 26.265625 6.109375 33.40625 6.109375 
Q 40.53125 6.109375 44.609375 11.75 
Q 48.6875 17.390625 48.6875 27.296875 
z
M 18.109375 46.390625 
Q 20.953125 51.265625 25.265625 53.625 
Q 29.59375 56 35.59375 56 
Q 45.5625 56 51.78125 48.09375 
Q 58.015625 40.1875 58.015625 27.296875 
Q 58.015625 14.40625 51.78125 6.484375 
Q 45.5625 -1.421875 35.59375 -1.421875 
Q 29.59375 -1.421875 25.265625 0.953125 
Q 20.953125 3.328125 18.109375 8.203125 
L 18.109375 0 
L 9.078125 0 
L 9.078125 75.984375 
L 18.109375 75.984375 
z
" id="DejaVuSans-62"/>
    <path d="M 32.171875 -5.078125 
Q 28.375 -14.84375 24.75 -17.8125 
Q 21.140625 -20.796875 15.09375 -20.796875 
L 7.90625 -20.796875 
L 7.90625 -13.28125 
L 13.1875 -13.28125 
Q 16.890625 -13.28125 18.9375 -11.515625 
Q 21 -9.765625 23.484375 -3.21875 
L 25.09375 0.875 
L 2.984375 54.6875 
L 12.5 54.6875 
L 29.59375 11.921875 
L 46.6875 54.6875 
L 56.203125 54.6875 
z
" id="DejaVuSans-79"/>
    <path d="M 30.609375 48.390625 
Q 23.390625 48.390625 19.1875 42.75 
Q 14.984375 37.109375 14.984375 27.296875 
Q 14.984375 17.484375 19.15625 11.84375 
Q 23.34375 6.203125 30.609375 6.203125 
Q 37.796875 6.203125 41.984375 11.859375 
Q 46.1875 17.53125 46.1875 27.296875 
Q 46.1875 37.015625 41.984375 42.703125 
Q 37.796875 48.390625 30.609375 48.390625 
z
M 30.609375 56 
Q 42.328125 56 49.015625 48.375 
Q 55.71875 40.765625 55.71875 27.296875 
Q 55.71875 13.875 49.015625 6.21875 
Q 42.328125 -1.421875 30.609375 -1.421875 
Q 18.84375 -1.421875 12.171875 6.21875 
Q 5.515625 13.875 5.515625 27.296875 
Q 5.515625 40.765625 12.171875 48.375 
Q 18.84375 56 30.609375 56 
z
" id="DejaVuSans-6f"/>
    <path d="M 48.78125 52.59375 
L 48.78125 44.1875 
Q 44.96875 46.296875 41.140625 47.34375 
Q 37.3125 48.390625 33.40625 48.390625 
Q 24.65625 48.390625 19.8125 42.84375 
Q 14.984375 37.3125 14.984375 27.296875 
Q 14.984375 17.28125 19.8125 11.734375 
Q 24.65625 6.203125 33.40625 6.203125 
Q 37.3125 6.203125 41.140625 7.25 
Q 44.96875 8.296875 48.78125 10.40625 
L 48.78125 2.09375 
Q 45.015625 0.34375 40.984375 -0.53125 
Q 36.96875 -1.421875 32.421875 -1.421875 
Q 20.0625 -1.421875 12.78125 6.34375 
Q 5.515625 14.109375 5.515625 27.296875 
Q 5.515625 40.671875 12.859375 48.328125 
Q 20.21875 56 33.015625 56 
Q 37.15625 56 41.109375 55.140625 
Q 45.0625 54.296875 48.78125 52.59375 
z
" id="DejaVuSans-63"/>
   </defs>
   <g style="fill:#262626;" transform="translate(135.086625 17.85375)scale(0.144 -0.144)">
    <use xlink:href="#DejaVuSans-43"/>
    <use x="69.824219" xlink:href="#DejaVuSans-61"/>
    <use x="131.103516" xlink:href="#DejaVuSans-6c"/>
    <use x="158.886719" xlink:href="#DejaVuSans-69"/>
    <use x="186.669922" xlink:href="#DejaVuSans-62"/>
    <use x="250.146484" xlink:href="#DejaVuSans-72"/>
    <use x="291.259766" xlink:href="#DejaVuSans-61"/>
    <use x="352.539062" xlink:href="#DejaVuSans-74"/>
    <use x="391.748047" xlink:href="#DejaVuSans-65"/>
    <use x="453.271484" xlink:href="#DejaVuSans-64"/>
    <use x="516.748047" xlink:href="#DejaVuSans-20"/>
    <use x="548.535156" xlink:href="#DejaVuSans-67"/>
    <use x="612.011719" xlink:href="#DejaVuSans-79"/>
    <use x="671.191406" xlink:href="#DejaVuSans-72"/>
    <use x="712.273438" xlink:href="#DejaVuSans-6f"/>
    <use x="773.455078" xlink:href="#DejaVuSans-73"/>
    <use x="825.554688" xlink:href="#DejaVuSans-63"/>
    <use x="880.535156" xlink:href="#DejaVuSans-6f"/>
    <use x="941.716797" xlink:href="#DejaVuSans-70"/>
    <use x="1005.193359" xlink:href="#DejaVuSans-65"/>
    <use x="1066.716797" xlink:href="#DejaVuSans-20"/>
    <use x="1098.503906" xlink:href="#DejaVuSans-64"/>
    <use x="1161.980469" xlink:href="#DejaVuSans-61"/>
    <use x="1223.259766" xlink:href="#DejaVuSans-74"/>
    <use x="1262.46875" xlink:href="#DejaVuSans-61"/>
   </g>
  </g>
 </g>
 <defs>
  <clipPath id="p73f1a8788b">
   <rect height="106.879621" width="158.22" x="65.18" y="41.472"/>
  </clipPath>
  <clipPath id="p06eb6453c2">
   <rect height="106.879621" width="158.22" x="281.7" y="41.472"/>
  </clipPath>
  <clipPath id="p63b6e03a23">
   <rect height="106.879621" width="158.22" x="65.18" y="193.880379"/>
  </clipPath>
  <clipPath id="paed4c6a2c7">
   <rect height="106.879621" width="158.22" x="281.7" y="193.880379"/>
  </clipPath>
 </defs>
</svg>
