<?xml version="1.0" encoding="utf-8" standalone="no"?>
<!DOCTYPE svg PUBLIC "-//W3C//DTD SVG 1.1//EN"
  "http://www.w3.org/Graphics/SVG/1.1/DTD/svg11.dtd">
<!-- Created with matplotlib (http://matplotlib.org/) -->
<svg height="345pt" version="1.1" viewBox="0 0 460 345" width="460pt" xmlns="http://www.w3.org/2000/svg" xmlns:xlink="http://www.w3.org/1999/xlink">
 <defs>
  <style type="text/css">
*{stroke-linecap:butt;stroke-linejoin:round;}
  </style>
 </defs>
 <g id="figure_1">
  <g id="patch_1">
   <path d="M 0 345.6 
L 460.8 345.6 
L 460.8 0 
L 0 0 
z
" style="fill:#ffffff;"/>
  </g>
  <g id="axes_1">
   <g id="patch_2">
    <path d="M 65.27 148.351621 
L 223.445 148.351621 
L 223.445 41.472 
L 65.27 41.472 
z
" style="fill:#eaeaf2;"/>
   </g>
   <g id="matplotlib.axis_1">
    <g id="xtick_1">
     <g id="line2d_1">
      <path clip-path="url(#pf5b60c230a)" d="M 65.27 148.351621 
L 65.27 41.472 
" style="fill:none;stroke:#ffffff;stroke-linecap:round;"/>
     </g>
     <g id="line2d_2"/>
     <g id="text_1">
      <!-- 0.0 -->
      <defs>
       <path d="M 31.78125 66.40625 
Q 24.171875 66.40625 20.328125 58.90625 
Q 16.5 51.421875 16.5 36.375 
Q 16.5 21.390625 20.328125 13.890625 
Q 24.171875 6.390625 31.78125 6.390625 
Q 39.453125 6.390625 43.28125 13.890625 
Q 47.125 21.390625 47.125 36.375 
Q 47.125 51.421875 43.28125 58.90625 
Q 39.453125 66.40625 31.78125 66.40625 
z
M 31.78125 74.21875 
Q 44.046875 74.21875 50.515625 64.515625 
Q 56.984375 54.828125 56.984375 36.375 
Q 56.984375 17.96875 50.515625 8.265625 
Q 44.046875 -1.421875 31.78125 -1.421875 
Q 19.53125 -1.421875 13.0625 8.265625 
Q 6.59375 17.96875 6.59375 36.375 
Q 6.59375 54.828125 13.0625 64.515625 
Q 19.53125 74.21875 31.78125 74.21875 
z
" id="DejaVuSans-30"/>
       <path d="M 10.6875 12.40625 
L 21 12.40625 
L 21 0 
L 10.6875 0 
z
" id="DejaVuSans-2e"/>
      </defs>
      <g style="fill:#262626;" transform="translate(57.318438 162.950058)scale(0.1 -0.1)">
       <use xlink:href="#DejaVuSans-30"/>
       <use x="63.623047" xlink:href="#DejaVuSans-2e"/>
       <use x="95.410156" xlink:href="#DejaVuSans-30"/>
      </g>
     </g>
    </g>
    <g id="xtick_2">
     <g id="line2d_3">
      <path clip-path="url(#pf5b60c230a)" d="M 96.905 148.351621 
L 96.905 41.472 
" style="fill:none;stroke:#ffffff;stroke-linecap:round;"/>
     </g>
     <g id="line2d_4"/>
     <g id="text_2">
      <!-- 0.2 -->
      <defs>
       <path d="M 19.1875 8.296875 
L 53.609375 8.296875 
L 53.609375 0 
L 7.328125 0 
L 7.328125 8.296875 
Q 12.9375 14.109375 22.625 23.890625 
Q 32.328125 33.6875 34.8125 36.53125 
Q 39.546875 41.84375 41.421875 45.53125 
Q 43.3125 49.21875 43.3125 52.78125 
Q 43.3125 58.59375 39.234375 62.25 
Q 35.15625 65.921875 28.609375 65.921875 
Q 23.96875 65.921875 18.8125 64.3125 
Q 13.671875 62.703125 7.8125 59.421875 
L 7.8125 69.390625 
Q 13.765625 71.78125 18.9375 73 
Q 24.125 74.21875 28.421875 74.21875 
Q 39.75 74.21875 46.484375 68.546875 
Q 53.21875 62.890625 53.21875 53.421875 
Q 53.21875 48.921875 51.53125 44.890625 
Q 49.859375 40.875 45.40625 35.40625 
Q 44.1875 33.984375 37.640625 27.21875 
Q 31.109375 20.453125 19.1875 8.296875 
z
" id="DejaVuSans-32"/>
      </defs>
      <g style="fill:#262626;" transform="translate(88.953438 162.950058)scale(0.1 -0.1)">
       <use xlink:href="#DejaVuSans-30"/>
       <use x="63.623047" xlink:href="#DejaVuSans-2e"/>
       <use x="95.410156" xlink:href="#DejaVuSans-32"/>
      </g>
     </g>
    </g>
    <g id="xtick_3">
     <g id="line2d_5">
      <path clip-path="url(#pf5b60c230a)" d="M 128.54 148.351621 
L 128.54 41.472 
" style="fill:none;stroke:#ffffff;stroke-linecap:round;"/>
     </g>
     <g id="line2d_6"/>
     <g id="text_3">
      <!-- 0.4 -->
      <defs>
       <path d="M 37.796875 64.3125 
L 12.890625 25.390625 
L 37.796875 25.390625 
z
M 35.203125 72.90625 
L 47.609375 72.90625 
L 47.609375 25.390625 
L 58.015625 25.390625 
L 58.015625 17.1875 
L 47.609375 17.1875 
L 47.609375 0 
L 37.796875 0 
L 37.796875 17.1875 
L 4.890625 17.1875 
L 4.890625 26.703125 
z
" id="DejaVuSans-34"/>
      </defs>
      <g style="fill:#262626;" transform="translate(120.588438 162.950058)scale(0.1 -0.1)">
       <use xlink:href="#DejaVuSans-30"/>
       <use x="63.623047" xlink:href="#DejaVuSans-2e"/>
       <use x="95.410156" xlink:href="#DejaVuSans-34"/>
      </g>
     </g>
    </g>
    <g id="xtick_4">
     <g id="line2d_7">
      <path clip-path="url(#pf5b60c230a)" d="M 160.175 148.351621 
L 160.175 41.472 
" style="fill:none;stroke:#ffffff;stroke-linecap:round;"/>
     </g>
     <g id="line2d_8"/>
     <g id="text_4">
      <!-- 0.6 -->
      <defs>
       <path d="M 33.015625 40.375 
Q 26.375 40.375 22.484375 35.828125 
Q 18.609375 31.296875 18.609375 23.390625 
Q 18.609375 15.53125 22.484375 10.953125 
Q 26.375 6.390625 33.015625 6.390625 
Q 39.65625 6.390625 43.53125 10.953125 
Q 47.40625 15.53125 47.40625 23.390625 
Q 47.40625 31.296875 43.53125 35.828125 
Q 39.65625 40.375 33.015625 40.375 
z
M 52.59375 71.296875 
L 52.59375 62.3125 
Q 48.875 64.0625 45.09375 64.984375 
Q 41.3125 65.921875 37.59375 65.921875 
Q 27.828125 65.921875 22.671875 59.328125 
Q 17.53125 52.734375 16.796875 39.40625 
Q 19.671875 43.65625 24.015625 45.921875 
Q 28.375 48.1875 33.59375 48.1875 
Q 44.578125 48.1875 50.953125 41.515625 
Q 57.328125 34.859375 57.328125 23.390625 
Q 57.328125 12.15625 50.6875 5.359375 
Q 44.046875 -1.421875 33.015625 -1.421875 
Q 20.359375 -1.421875 13.671875 8.265625 
Q 6.984375 17.96875 6.984375 36.375 
Q 6.984375 53.65625 15.1875 63.9375 
Q 23.390625 74.21875 37.203125 74.21875 
Q 40.921875 74.21875 44.703125 73.484375 
Q 48.484375 72.75 52.59375 71.296875 
z
" id="DejaVuSans-36"/>
      </defs>
      <g style="fill:#262626;" transform="translate(152.223438 162.950058)scale(0.1 -0.1)">
       <use xlink:href="#DejaVuSans-30"/>
       <use x="63.623047" xlink:href="#DejaVuSans-2e"/>
       <use x="95.410156" xlink:href="#DejaVuSans-36"/>
      </g>
     </g>
    </g>
    <g id="xtick_5">
     <g id="line2d_9">
      <path clip-path="url(#pf5b60c230a)" d="M 191.81 148.351621 
L 191.81 41.472 
" style="fill:none;stroke:#ffffff;stroke-linecap:round;"/>
     </g>
     <g id="line2d_10"/>
     <g id="text_5">
      <!-- 0.8 -->
      <defs>
       <path d="M 31.78125 34.625 
Q 24.75 34.625 20.71875 30.859375 
Q 16.703125 27.09375 16.703125 20.515625 
Q 16.703125 13.921875 20.71875 10.15625 
Q 24.75 6.390625 31.78125 6.390625 
Q 38.8125 6.390625 42.859375 10.171875 
Q 46.921875 13.96875 46.921875 20.515625 
Q 46.921875 27.09375 42.890625 30.859375 
Q 38.875 34.625 31.78125 34.625 
z
M 21.921875 38.8125 
Q 15.578125 40.375 12.03125 44.71875 
Q 8.5 49.078125 8.5 55.328125 
Q 8.5 64.0625 14.71875 69.140625 
Q 20.953125 74.21875 31.78125 74.21875 
Q 42.671875 74.21875 48.875 69.140625 
Q 55.078125 64.0625 55.078125 55.328125 
Q 55.078125 49.078125 51.53125 44.71875 
Q 48 40.375 41.703125 38.8125 
Q 48.828125 37.15625 52.796875 32.3125 
Q 56.78125 27.484375 56.78125 20.515625 
Q 56.78125 9.90625 50.3125 4.234375 
Q 43.84375 -1.421875 31.78125 -1.421875 
Q 19.734375 -1.421875 13.25 4.234375 
Q 6.78125 9.90625 6.78125 20.515625 
Q 6.78125 27.484375 10.78125 32.3125 
Q 14.796875 37.15625 21.921875 38.8125 
z
M 18.3125 54.390625 
Q 18.3125 48.734375 21.84375 45.5625 
Q 25.390625 42.390625 31.78125 42.390625 
Q 38.140625 42.390625 41.71875 45.5625 
Q 45.3125 48.734375 45.3125 54.390625 
Q 45.3125 60.0625 41.71875 63.234375 
Q 38.140625 66.40625 31.78125 66.40625 
Q 25.390625 66.40625 21.84375 63.234375 
Q 18.3125 60.0625 18.3125 54.390625 
z
" id="DejaVuSans-38"/>
      </defs>
      <g style="fill:#262626;" transform="translate(183.858438 162.950058)scale(0.1 -0.1)">
       <use xlink:href="#DejaVuSans-30"/>
       <use x="63.623047" xlink:href="#DejaVuSans-2e"/>
       <use x="95.410156" xlink:href="#DejaVuSans-38"/>
      </g>
     </g>
    </g>
    <g id="xtick_6">
     <g id="line2d_11">
      <path clip-path="url(#pf5b60c230a)" d="M 223.445 148.351621 
L 223.445 41.472 
" style="fill:none;stroke:#ffffff;stroke-linecap:round;"/>
     </g>
     <g id="line2d_12"/>
     <g id="text_6">
      <!-- 1.0 -->
      <defs>
       <path d="M 12.40625 8.296875 
L 28.515625 8.296875 
L 28.515625 63.921875 
L 10.984375 60.40625 
L 10.984375 69.390625 
L 28.421875 72.90625 
L 38.28125 72.90625 
L 38.28125 8.296875 
L 54.390625 8.296875 
L 54.390625 0 
L 12.40625 0 
z
" id="DejaVuSans-31"/>
      </defs>
      <g style="fill:#262626;" transform="translate(215.493437 162.950058)scale(0.1 -0.1)">
       <use xlink:href="#DejaVuSans-31"/>
       <use x="63.623047" xlink:href="#DejaVuSans-2e"/>
       <use x="95.410156" xlink:href="#DejaVuSans-30"/>
      </g>
     </g>
    </g>
   </g>
   <g id="matplotlib.axis_2">
    <g id="ytick_1">
     <g id="line2d_13">
      <path clip-path="url(#pf5b60c230a)" d="M 65.27 125.777593 
L 223.445 125.777593 
" style="fill:none;stroke:#ffffff;stroke-linecap:round;"/>
     </g>
     <g id="line2d_14"/>
     <g id="text_7">
      <!-- −1.0 -->
      <defs>
       <path d="M 10.59375 35.5 
L 73.1875 35.5 
L 73.1875 27.203125 
L 10.59375 27.203125 
z
" id="DejaVuSans-2212"/>
      </defs>
      <g style="fill:#262626;" transform="translate(33.987188 129.576812)scale(0.1 -0.1)">
       <use xlink:href="#DejaVuSans-2212"/>
       <use x="83.789062" xlink:href="#DejaVuSans-31"/>
       <use x="147.412109" xlink:href="#DejaVuSans-2e"/>
       <use x="179.199219" xlink:href="#DejaVuSans-30"/>
      </g>
     </g>
    </g>
    <g id="ytick_2">
     <g id="line2d_15">
      <path clip-path="url(#pf5b60c230a)" d="M 65.27 89.25004 
L 223.445 89.25004 
" style="fill:none;stroke:#ffffff;stroke-linecap:round;"/>
     </g>
     <g id="line2d_16"/>
     <g id="text_8">
      <!-- −0.5 -->
      <defs>
       <path d="M 10.796875 72.90625 
L 49.515625 72.90625 
L 49.515625 64.59375 
L 19.828125 64.59375 
L 19.828125 46.734375 
Q 21.96875 47.46875 24.109375 47.828125 
Q 26.265625 48.1875 28.421875 48.1875 
Q 40.625 48.1875 47.75 41.5 
Q 54.890625 34.8125 54.890625 23.390625 
Q 54.890625 11.625 47.5625 5.09375 
Q 40.234375 -1.421875 26.90625 -1.421875 
Q 22.3125 -1.421875 17.546875 -0.640625 
Q 12.796875 0.140625 7.71875 1.703125 
L 7.71875 11.625 
Q 12.109375 9.234375 16.796875 8.0625 
Q 21.484375 6.890625 26.703125 6.890625 
Q 35.15625 6.890625 40.078125 11.328125 
Q 45.015625 15.765625 45.015625 23.390625 
Q 45.015625 31 40.078125 35.4375 
Q 35.15625 39.890625 26.703125 39.890625 
Q 22.75 39.890625 18.8125 39.015625 
Q 14.890625 38.140625 10.796875 36.28125 
z
" id="DejaVuSans-35"/>
      </defs>
      <g style="fill:#262626;" transform="translate(33.987188 93.049258)scale(0.1 -0.1)">
       <use xlink:href="#DejaVuSans-2212"/>
       <use x="83.789062" xlink:href="#DejaVuSans-30"/>
       <use x="147.412109" xlink:href="#DejaVuSans-2e"/>
       <use x="179.199219" xlink:href="#DejaVuSans-35"/>
      </g>
     </g>
    </g>
    <g id="ytick_3">
     <g id="line2d_17">
      <path clip-path="url(#pf5b60c230a)" d="M 65.27 52.722486 
L 223.445 52.722486 
" style="fill:none;stroke:#ffffff;stroke-linecap:round;"/>
     </g>
     <g id="line2d_18"/>
     <g id="text_9">
      <!-- 0.0 -->
      <g style="fill:#262626;" transform="translate(42.366875 56.521705)scale(0.1 -0.1)">
       <use xlink:href="#DejaVuSans-30"/>
       <use x="63.623047" xlink:href="#DejaVuSans-2e"/>
       <use x="95.410156" xlink:href="#DejaVuSans-30"/>
      </g>
     </g>
    </g>
    <g id="text_10">
     <!-- Angular rate (dps) -->
     <defs>
      <path d="M 34.1875 63.1875 
L 20.796875 26.90625 
L 47.609375 26.90625 
z
M 28.609375 72.90625 
L 39.796875 72.90625 
L 67.578125 0 
L 57.328125 0 
L 50.6875 18.703125 
L 17.828125 18.703125 
L 11.1875 0 
L 0.78125 0 
z
" id="DejaVuSans-41"/>
      <path d="M 54.890625 33.015625 
L 54.890625 0 
L 45.90625 0 
L 45.90625 32.71875 
Q 45.90625 40.484375 42.875 44.328125 
Q 39.84375 48.1875 33.796875 48.1875 
Q 26.515625 48.1875 22.3125 43.546875 
Q 18.109375 38.921875 18.109375 30.90625 
L 18.109375 0 
L 9.078125 0 
L 9.078125 54.6875 
L 18.109375 54.6875 
L 18.109375 46.1875 
Q 21.34375 51.125 25.703125 53.5625 
Q 30.078125 56 35.796875 56 
Q 45.21875 56 50.046875 50.171875 
Q 54.890625 44.34375 54.890625 33.015625 
z
" id="DejaVuSans-6e"/>
      <path d="M 45.40625 27.984375 
Q 45.40625 37.75 41.375 43.109375 
Q 37.359375 48.484375 30.078125 48.484375 
Q 22.859375 48.484375 18.828125 43.109375 
Q 14.796875 37.75 14.796875 27.984375 
Q 14.796875 18.265625 18.828125 12.890625 
Q 22.859375 7.515625 30.078125 7.515625 
Q 37.359375 7.515625 41.375 12.890625 
Q 45.40625 18.265625 45.40625 27.984375 
z
M 54.390625 6.78125 
Q 54.390625 -7.171875 48.1875 -13.984375 
Q 42 -20.796875 29.203125 -20.796875 
Q 24.46875 -20.796875 20.265625 -20.09375 
Q 16.0625 -19.390625 12.109375 -17.921875 
L 12.109375 -9.1875 
Q 16.0625 -11.328125 19.921875 -12.34375 
Q 23.78125 -13.375 27.78125 -13.375 
Q 36.625 -13.375 41.015625 -8.765625 
Q 45.40625 -4.15625 45.40625 5.171875 
L 45.40625 9.625 
Q 42.625 4.78125 38.28125 2.390625 
Q 33.9375 0 27.875 0 
Q 17.828125 0 11.671875 7.65625 
Q 5.515625 15.328125 5.515625 27.984375 
Q 5.515625 40.671875 11.671875 48.328125 
Q 17.828125 56 27.875 56 
Q 33.9375 56 38.28125 53.609375 
Q 42.625 51.21875 45.40625 46.390625 
L 45.40625 54.6875 
L 54.390625 54.6875 
z
" id="DejaVuSans-67"/>
      <path d="M 8.5 21.578125 
L 8.5 54.6875 
L 17.484375 54.6875 
L 17.484375 21.921875 
Q 17.484375 14.15625 20.5 10.265625 
Q 23.53125 6.390625 29.59375 6.390625 
Q 36.859375 6.390625 41.078125 11.03125 
Q 45.3125 15.671875 45.3125 23.6875 
L 45.3125 54.6875 
L 54.296875 54.6875 
L 54.296875 0 
L 45.3125 0 
L 45.3125 8.40625 
Q 42.046875 3.421875 37.71875 1 
Q 33.40625 -1.421875 27.6875 -1.421875 
Q 18.265625 -1.421875 13.375 4.4375 
Q 8.5 10.296875 8.5 21.578125 
z
M 31.109375 56 
z
" id="DejaVuSans-75"/>
      <path d="M 9.421875 75.984375 
L 18.40625 75.984375 
L 18.40625 0 
L 9.421875 0 
z
" id="DejaVuSans-6c"/>
      <path d="M 34.28125 27.484375 
Q 23.390625 27.484375 19.1875 25 
Q 14.984375 22.515625 14.984375 16.5 
Q 14.984375 11.71875 18.140625 8.90625 
Q 21.296875 6.109375 26.703125 6.109375 
Q 34.1875 6.109375 38.703125 11.40625 
Q 43.21875 16.703125 43.21875 25.484375 
L 43.21875 27.484375 
z
M 52.203125 31.203125 
L 52.203125 0 
L 43.21875 0 
L 43.21875 8.296875 
Q 40.140625 3.328125 35.546875 0.953125 
Q 30.953125 -1.421875 24.3125 -1.421875 
Q 15.921875 -1.421875 10.953125 3.296875 
Q 6 8.015625 6 15.921875 
Q 6 25.140625 12.171875 29.828125 
Q 18.359375 34.515625 30.609375 34.515625 
L 43.21875 34.515625 
L 43.21875 35.40625 
Q 43.21875 41.609375 39.140625 45 
Q 35.0625 48.390625 27.6875 48.390625 
Q 23 48.390625 18.546875 47.265625 
Q 14.109375 46.140625 10.015625 43.890625 
L 10.015625 52.203125 
Q 14.9375 54.109375 19.578125 55.046875 
Q 24.21875 56 28.609375 56 
Q 40.484375 56 46.34375 49.84375 
Q 52.203125 43.703125 52.203125 31.203125 
z
" id="DejaVuSans-61"/>
      <path d="M 41.109375 46.296875 
Q 39.59375 47.171875 37.8125 47.578125 
Q 36.03125 48 33.890625 48 
Q 26.265625 48 22.1875 43.046875 
Q 18.109375 38.09375 18.109375 28.8125 
L 18.109375 0 
L 9.078125 0 
L 9.078125 54.6875 
L 18.109375 54.6875 
L 18.109375 46.1875 
Q 20.953125 51.171875 25.484375 53.578125 
Q 30.03125 56 36.53125 56 
Q 37.453125 56 38.578125 55.875 
Q 39.703125 55.765625 41.0625 55.515625 
z
" id="DejaVuSans-72"/>
      <path id="DejaVuSans-20"/>
      <path d="M 18.3125 70.21875 
L 18.3125 54.6875 
L 36.8125 54.6875 
L 36.8125 47.703125 
L 18.3125 47.703125 
L 18.3125 18.015625 
Q 18.3125 11.328125 20.140625 9.421875 
Q 21.96875 7.515625 27.59375 7.515625 
L 36.8125 7.515625 
L 36.8125 0 
L 27.59375 0 
Q 17.1875 0 13.234375 3.875 
Q 9.28125 7.765625 9.28125 18.015625 
L 9.28125 47.703125 
L 2.6875 47.703125 
L 2.6875 54.6875 
L 9.28125 54.6875 
L 9.28125 70.21875 
z
" id="DejaVuSans-74"/>
      <path d="M 56.203125 29.59375 
L 56.203125 25.203125 
L 14.890625 25.203125 
Q 15.484375 15.921875 20.484375 11.0625 
Q 25.484375 6.203125 34.421875 6.203125 
Q 39.59375 6.203125 44.453125 7.46875 
Q 49.3125 8.734375 54.109375 11.28125 
L 54.109375 2.78125 
Q 49.265625 0.734375 44.1875 -0.34375 
Q 39.109375 -1.421875 33.890625 -1.421875 
Q 20.796875 -1.421875 13.15625 6.1875 
Q 5.515625 13.8125 5.515625 26.8125 
Q 5.515625 40.234375 12.765625 48.109375 
Q 20.015625 56 32.328125 56 
Q 43.359375 56 49.78125 48.890625 
Q 56.203125 41.796875 56.203125 29.59375 
z
M 47.21875 32.234375 
Q 47.125 39.59375 43.09375 43.984375 
Q 39.0625 48.390625 32.421875 48.390625 
Q 24.90625 48.390625 20.390625 44.140625 
Q 15.875 39.890625 15.1875 32.171875 
z
" id="DejaVuSans-65"/>
      <path d="M 31 75.875 
Q 24.46875 64.65625 21.28125 53.65625 
Q 18.109375 42.671875 18.109375 31.390625 
Q 18.109375 20.125 21.3125 9.0625 
Q 24.515625 -2 31 -13.1875 
L 23.1875 -13.1875 
Q 15.875 -1.703125 12.234375 9.375 
Q 8.59375 20.453125 8.59375 31.390625 
Q 8.59375 42.28125 12.203125 53.3125 
Q 15.828125 64.359375 23.1875 75.875 
z
" id="DejaVuSans-28"/>
      <path d="M 45.40625 46.390625 
L 45.40625 75.984375 
L 54.390625 75.984375 
L 54.390625 0 
L 45.40625 0 
L 45.40625 8.203125 
Q 42.578125 3.328125 38.25 0.953125 
Q 33.9375 -1.421875 27.875 -1.421875 
Q 17.96875 -1.421875 11.734375 6.484375 
Q 5.515625 14.40625 5.515625 27.296875 
Q 5.515625 40.1875 11.734375 48.09375 
Q 17.96875 56 27.875 56 
Q 33.9375 56 38.25 53.625 
Q 42.578125 51.265625 45.40625 46.390625 
z
M 14.796875 27.296875 
Q 14.796875 17.390625 18.875 11.75 
Q 22.953125 6.109375 30.078125 6.109375 
Q 37.203125 6.109375 41.296875 11.75 
Q 45.40625 17.390625 45.40625 27.296875 
Q 45.40625 37.203125 41.296875 42.84375 
Q 37.203125 48.484375 30.078125 48.484375 
Q 22.953125 48.484375 18.875 42.84375 
Q 14.796875 37.203125 14.796875 27.296875 
z
" id="DejaVuSans-64"/>
      <path d="M 18.109375 8.203125 
L 18.109375 -20.796875 
L 9.078125 -20.796875 
L 9.078125 54.6875 
L 18.109375 54.6875 
L 18.109375 46.390625 
Q 20.953125 51.265625 25.265625 53.625 
Q 29.59375 56 35.59375 56 
Q 45.5625 56 51.78125 48.09375 
Q 58.015625 40.1875 58.015625 27.296875 
Q 58.015625 14.40625 51.78125 6.484375 
Q 45.5625 -1.421875 35.59375 -1.421875 
Q 29.59375 -1.421875 25.265625 0.953125 
Q 20.953125 3.328125 18.109375 8.203125 
z
M 48.6875 27.296875 
Q 48.6875 37.203125 44.609375 42.84375 
Q 40.53125 48.484375 33.40625 48.484375 
Q 26.265625 48.484375 22.1875 42.84375 
Q 18.109375 37.203125 18.109375 27.296875 
Q 18.109375 17.390625 22.1875 11.75 
Q 26.265625 6.109375 33.40625 6.109375 
Q 40.53125 6.109375 44.609375 11.75 
Q 48.6875 17.390625 48.6875 27.296875 
z
" id="DejaVuSans-70"/>
      <path d="M 44.28125 53.078125 
L 44.28125 44.578125 
Q 40.484375 46.53125 36.375 47.5 
Q 32.28125 48.484375 27.875 48.484375 
Q 21.1875 48.484375 17.84375 46.4375 
Q 14.5 44.390625 14.5 40.28125 
Q 14.5 37.15625 16.890625 35.375 
Q 19.28125 33.59375 26.515625 31.984375 
L 29.59375 31.296875 
Q 39.15625 29.25 43.1875 25.515625 
Q 47.21875 21.78125 47.21875 15.09375 
Q 47.21875 7.46875 41.1875 3.015625 
Q 35.15625 -1.421875 24.609375 -1.421875 
Q 20.21875 -1.421875 15.453125 -0.5625 
Q 10.6875 0.296875 5.421875 2 
L 5.421875 11.28125 
Q 10.40625 8.6875 15.234375 7.390625 
Q 20.0625 6.109375 24.8125 6.109375 
Q 31.15625 6.109375 34.5625 8.28125 
Q 37.984375 10.453125 37.984375 14.40625 
Q 37.984375 18.0625 35.515625 20.015625 
Q 33.0625 21.96875 24.703125 23.78125 
L 21.578125 24.515625 
Q 13.234375 26.265625 9.515625 29.90625 
Q 5.8125 33.546875 5.8125 39.890625 
Q 5.8125 47.609375 11.28125 51.796875 
Q 16.75 56 26.8125 56 
Q 31.78125 56 36.171875 55.265625 
Q 40.578125 54.546875 44.28125 53.078125 
z
" id="DejaVuSans-73"/>
      <path d="M 8.015625 75.875 
L 15.828125 75.875 
Q 23.140625 64.359375 26.78125 53.3125 
Q 30.421875 42.28125 30.421875 31.390625 
Q 30.421875 20.453125 26.78125 9.375 
Q 23.140625 -1.703125 15.828125 -13.1875 
L 8.015625 -13.1875 
Q 14.5 -2 17.703125 9.0625 
Q 20.90625 20.125 20.90625 31.390625 
Q 20.90625 42.671875 17.703125 53.65625 
Q 14.5 64.65625 8.015625 75.875 
z
" id="DejaVuSans-29"/>
     </defs>
     <g style="fill:#262626;" transform="translate(27.699531 145.104467)rotate(-90)scale(0.11 -0.11)">
      <use xlink:href="#DejaVuSans-41"/>
      <use x="68.408203" xlink:href="#DejaVuSans-6e"/>
      <use x="131.787109" xlink:href="#DejaVuSans-67"/>
      <use x="195.263672" xlink:href="#DejaVuSans-75"/>
      <use x="258.642578" xlink:href="#DejaVuSans-6c"/>
      <use x="286.425781" xlink:href="#DejaVuSans-61"/>
      <use x="347.705078" xlink:href="#DejaVuSans-72"/>
      <use x="388.818359" xlink:href="#DejaVuSans-20"/>
      <use x="420.605469" xlink:href="#DejaVuSans-72"/>
      <use x="461.71875" xlink:href="#DejaVuSans-61"/>
      <use x="522.998047" xlink:href="#DejaVuSans-74"/>
      <use x="562.207031" xlink:href="#DejaVuSans-65"/>
      <use x="623.730469" xlink:href="#DejaVuSans-20"/>
      <use x="655.517578" xlink:href="#DejaVuSans-28"/>
      <use x="694.53125" xlink:href="#DejaVuSans-64"/>
      <use x="758.007812" xlink:href="#DejaVuSans-70"/>
      <use x="821.484375" xlink:href="#DejaVuSans-73"/>
      <use x="873.583984" xlink:href="#DejaVuSans-29"/>
     </g>
    </g>
   </g>
   <g id="line2d_19">
    <path clip-path="url(#pf5b60c230a)" d="M 65.27 93.633346 
L 65.988977 100.025668 
L 66.707955 85.96256 
L 67.426932 129.430348 
L 68.145909 121.759562 
L 68.864886 80.20947 
L 69.583864 83.405631 
L 70.302841 100.6649 
L 71.021818 102.582597 
L 71.740795 74.456381 
L 72.459773 118.563401 
L 73.17875 104.500293 
L 73.897727 124.955723 
L 74.616705 119.202633 
L 75.335682 63.589434 
L 76.054659 90.437185 
L 76.773636 78.291774 
L 77.492614 132.626509 
L 78.211591 96.190275 
L 78.930568 77.013309 
L 79.649545 92.994114 
L 80.368523 116.006473 
L 81.0875 123.038027 
L 81.806477 77.013309 
L 82.525455 92.994114 
L 83.244432 114.088776 
L 83.963409 102.582597 
L 84.682386 81.487935 
L 85.401364 119.202633 
L 86.120341 98.747204 
L 86.839318 128.791116 
L 87.558295 87.880256 
L 88.277273 110.892615 
L 88.99625 108.974919 
L 89.715227 79.570238 
L 90.434205 106.41799 
L 91.153182 100.6649 
L 91.872159 97.468739 
L 92.591136 92.994114 
L 93.310114 105.139525 
L 94.029091 101.943365 
L 94.748068 112.171079 
L 95.467045 68.703291 
L 96.186023 95.551043 
L 96.905 97.468739 
L 97.623977 101.304132 
L 98.342955 87.880256 
L 99.061932 119.841866 
L 99.780909 119.841866 
L 100.499886 85.323328 
L 101.218864 83.405631 
L 101.937841 84.684096 
L 102.656818 116.645705 
L 103.375795 105.778758 
L 104.094773 92.354882 
L 104.81375 84.044863 
L 105.532727 94.91181 
L 106.251705 85.96256 
L 106.970682 104.500293 
L 107.689659 101.304132 
L 108.408636 108.974919 
L 109.127614 90.437185 
L 109.846591 75.095613 
L 110.565568 80.20947 
L 111.284545 92.994114 
L 112.003523 133.904974 
L 112.7225 121.759562 
L 113.441477 105.778758 
L 114.160455 77.652542 
L 114.879432 110.253383 
L 116.317386 78.931006 
L 117.036364 96.829507 
L 117.755341 59.75404 
L 118.474318 126.234187 
L 119.193295 112.171079 
L 119.912273 106.41799 
L 120.63125 62.310969 
L 121.350227 121.12033 
L 122.069205 104.500293 
L 122.788182 64.228666 
L 123.507159 46.969397 
L 124.945114 138.379599 
L 125.664091 119.202633 
L 126.383068 71.26022 
L 127.102045 80.848702 
L 127.821023 71.26022 
L 128.54 82.127167 
L 129.258977 108.974919 
L 129.977955 69.342523 
L 130.696932 77.652542 
L 131.415909 79.570238 
L 132.134886 98.747204 
L 132.853864 100.025668 
L 133.572841 105.139525 
L 134.291818 103.861061 
L 135.010795 80.20947 
L 135.729773 94.272578 
L 136.44875 92.994114 
L 137.167727 57.197112 
L 137.886705 120.481098 
L 138.605682 65.50713 
L 139.324659 92.994114 
L 140.043636 46.330165 
L 140.762614 105.778758 
L 141.481591 133.904974 
L 142.200568 143.493456 
L 142.919545 73.177916 
L 143.638523 143.493456 
L 144.3575 120.481098 
L 145.076477 88.519489 
L 145.795455 100.025668 
L 146.514432 92.994114 
L 147.233409 105.778758 
L 147.952386 107.696454 
L 149.390341 84.044863 
L 150.109318 105.778758 
L 150.828295 117.284937 
L 151.547273 115.36724 
L 152.26625 86.601792 
L 152.985227 106.41799 
L 153.704205 115.36724 
L 154.423182 99.386436 
L 155.142159 93.633346 
L 155.861136 94.91181 
L 156.580114 105.139525 
L 157.299091 103.861061 
L 158.018068 96.190275 
L 158.737045 81.487935 
L 159.456023 70.620988 
L 160.175 107.057222 
L 161.612955 67.424827 
L 162.331932 71.26022 
L 163.050909 95.551043 
L 163.769886 92.994114 
L 164.488864 125.594955 
L 165.207841 108.335686 
L 165.926818 86.601792 
L 166.645795 107.696454 
L 167.364773 82.766399 
L 168.08375 91.076417 
L 168.802727 92.994114 
L 169.521705 65.50713 
L 170.240682 103.221829 
L 170.959659 87.241024 
L 171.678636 79.570238 
L 172.397614 98.107971 
L 173.116591 138.379599 
L 173.835568 139.018831 
L 174.554545 63.589434 
L 175.273523 72.538684 
L 175.9925 91.71565 
L 176.711477 87.880256 
L 177.430455 116.006473 
L 178.149432 81.487935 
L 178.868409 57.197112 
L 179.587386 116.006473 
L 180.306364 85.323328 
L 181.025341 92.994114 
L 181.744318 87.241024 
L 182.463295 101.304132 
L 183.182273 117.924169 
L 183.90125 95.551043 
L 184.620227 104.500293 
L 185.339205 123.038027 
L 186.058182 110.253383 
L 186.777159 100.6649 
L 187.496136 92.994114 
L 188.215114 82.127167 
L 188.934091 98.107971 
L 189.653068 110.892615 
L 190.372045 65.50713 
L 191.091023 112.810312 
L 191.81 124.316491 
L 192.528977 124.316491 
L 193.247955 114.728008 
L 193.966932 113.449544 
L 194.685909 73.817148 
L 195.404886 69.981755 
L 196.123864 112.171079 
L 196.842841 113.449544 
L 197.561818 78.931006 
L 198.280795 99.386436 
L 198.999773 107.057222 
L 199.71875 118.563401 
L 200.437727 66.785594 
L 201.156705 93.633346 
L 202.594659 85.96256 
L 203.313636 97.468739 
L 204.032614 68.064059 
L 204.751591 63.589434 
L 206.189545 98.747204 
L 206.908523 85.96256 
L 207.6275 89.158721 
L 208.346477 87.880256 
L 209.065455 106.41799 
L 209.784432 66.146362 
L 210.503409 87.880256 
L 211.222386 96.190275 
L 211.941364 94.272578 
L 212.660341 98.107971 
L 213.379318 121.759562 
L 214.098295 80.20947 
L 214.817273 107.057222 
L 215.53625 111.531847 
L 216.255227 80.848702 
L 216.974205 63.589434 
L 217.693182 115.36724 
L 218.412159 112.810312 
L 219.131136 103.861061 
L 220.569091 123.677259 
L 221.288068 112.171079 
L 222.007045 123.038027 
L 222.007045 123.038027 
" style="fill:none;stroke:#4c72b0;stroke-linecap:round;stroke-width:1.75;"/>
   </g>
   <g id="line2d_20">
    <path clip-path="url(#pf5b60c230a)" d="M 65.27 96.972532 
L 222.007045 96.972532 
" style="fill:none;stroke:#55a868;stroke-linecap:round;stroke-width:1.75;"/>
   </g>
   <g id="patch_3">
    <path d="M 65.27 148.351621 
L 65.27 41.472 
" style="fill:none;"/>
   </g>
   <g id="patch_4">
    <path d="M 223.445 148.351621 
L 223.445 41.472 
" style="fill:none;"/>
   </g>
   <g id="patch_5">
    <path d="M 65.27 148.351621 
L 223.445 148.351621 
" style="fill:none;"/>
   </g>
   <g id="patch_6">
    <path d="M 65.27 41.472 
L 223.445 41.472 
" style="fill:none;"/>
   </g>
   <g id="text_11">
    <!-- $AR_x$ -->
    <defs>
     <path d="M 36.8125 72.90625 
L 48 72.90625 
L 61.53125 0 
L 51.21875 0 
L 48.1875 18.703125 
L 15.375 18.703125 
L 5.078125 0 
L -5.328125 0 
z
M 40.375 63.1875 
L 19.921875 26.90625 
L 46.6875 26.90625 
z
" id="DejaVuSans-Oblique-41"/>
     <path d="M 25.203125 64.796875 
L 20.21875 38.921875 
L 32.90625 38.921875 
Q 40.375 38.921875 44.984375 43.046875 
Q 49.609375 47.171875 49.609375 53.8125 
Q 49.609375 59.125 46.5 61.953125 
Q 43.40625 64.796875 37.59375 64.796875 
z
M 43.3125 35.015625 
Q 46.4375 34.28125 48.515625 31.390625 
Q 50.59375 28.515625 53.328125 19.921875 
L 59.515625 0 
L 49.125 0 
L 43.40625 18.703125 
Q 41.21875 25.921875 38.328125 28.359375 
Q 35.453125 30.8125 29.5 30.8125 
L 18.609375 30.8125 
L 12.59375 0 
L 2.6875 0 
L 16.890625 72.90625 
L 39.109375 72.90625 
Q 49.21875 72.90625 54.609375 68.328125 
Q 60.015625 63.765625 60.015625 55.171875 
Q 60.015625 47.5625 55.421875 41.984375 
Q 50.828125 36.421875 43.3125 35.015625 
z
" id="DejaVuSans-Oblique-52"/>
     <path d="M 60.015625 54.6875 
L 34.90625 27.875 
L 50.296875 0 
L 39.984375 0 
L 28.421875 21.6875 
L 8.296875 0 
L -2.59375 0 
L 24.3125 28.8125 
L 10.015625 54.6875 
L 20.3125 54.6875 
L 30.8125 34.90625 
L 49.125 54.6875 
z
" id="DejaVuSans-Oblique-78"/>
    </defs>
    <g style="fill:#262626;" transform="translate(133.3775 35.472)scale(0.12 -0.12)">
     <use transform="translate(0 0.09375)" xlink:href="#DejaVuSans-Oblique-41"/>
     <use transform="translate(68.408203 0.09375)" xlink:href="#DejaVuSans-Oblique-52"/>
     <use transform="translate(137.890625 -16.3125)scale(0.7)" xlink:href="#DejaVuSans-Oblique-78"/>
    </g>
   </g>
   <g id="legend_1">
    <g id="line2d_21">
     <path d="M 158.085625 133.771933 
L 178.085625 133.771933 
" style="fill:none;stroke:#55a868;stroke-linecap:round;stroke-width:1.75;"/>
    </g>
    <g id="line2d_22"/>
    <g id="text_12">
     <!-- mean -->
     <defs>
      <path d="M 52 44.1875 
Q 55.375 50.25 60.0625 53.125 
Q 64.75 56 71.09375 56 
Q 79.640625 56 84.28125 50.015625 
Q 88.921875 44.046875 88.921875 33.015625 
L 88.921875 0 
L 79.890625 0 
L 79.890625 32.71875 
Q 79.890625 40.578125 77.09375 44.375 
Q 74.3125 48.1875 68.609375 48.1875 
Q 61.625 48.1875 57.5625 43.546875 
Q 53.515625 38.921875 53.515625 30.90625 
L 53.515625 0 
L 44.484375 0 
L 44.484375 32.71875 
Q 44.484375 40.625 41.703125 44.40625 
Q 38.921875 48.1875 33.109375 48.1875 
Q 26.21875 48.1875 22.15625 43.53125 
Q 18.109375 38.875 18.109375 30.90625 
L 18.109375 0 
L 9.078125 0 
L 9.078125 54.6875 
L 18.109375 54.6875 
L 18.109375 46.1875 
Q 21.1875 51.21875 25.484375 53.609375 
Q 29.78125 56 35.6875 56 
Q 41.65625 56 45.828125 52.96875 
Q 50 49.953125 52 44.1875 
z
" id="DejaVuSans-6d"/>
     </defs>
     <g style="fill:#262626;" transform="translate(186.085625 137.271933)scale(0.1 -0.1)">
      <use xlink:href="#DejaVuSans-6d"/>
      <use x="97.412109" xlink:href="#DejaVuSans-65"/>
      <use x="158.935547" xlink:href="#DejaVuSans-61"/>
      <use x="220.214844" xlink:href="#DejaVuSans-6e"/>
     </g>
    </g>
   </g>
  </g>
  <g id="axes_2">
   <g id="patch_7">
    <path d="M 281.745 148.351621 
L 439.92 148.351621 
L 439.92 41.472 
L 281.745 41.472 
z
" style="fill:#eaeaf2;"/>
   </g>
   <g id="matplotlib.axis_3">
    <g id="xtick_7">
     <g id="line2d_23">
      <path clip-path="url(#p99c4ef5f17)" d="M 281.745 148.351621 
L 281.745 41.472 
" style="fill:none;stroke:#ffffff;stroke-linecap:round;"/>
     </g>
     <g id="line2d_24"/>
     <g id="text_13">
      <!-- 0.0 -->
      <g style="fill:#262626;" transform="translate(273.793437 162.950058)scale(0.1 -0.1)">
       <use xlink:href="#DejaVuSans-30"/>
       <use x="63.623047" xlink:href="#DejaVuSans-2e"/>
       <use x="95.410156" xlink:href="#DejaVuSans-30"/>
      </g>
     </g>
    </g>
    <g id="xtick_8">
     <g id="line2d_25">
      <path clip-path="url(#p99c4ef5f17)" d="M 313.38 148.351621 
L 313.38 41.472 
" style="fill:none;stroke:#ffffff;stroke-linecap:round;"/>
     </g>
     <g id="line2d_26"/>
     <g id="text_14">
      <!-- 0.2 -->
      <g style="fill:#262626;" transform="translate(305.428437 162.950058)scale(0.1 -0.1)">
       <use xlink:href="#DejaVuSans-30"/>
       <use x="63.623047" xlink:href="#DejaVuSans-2e"/>
       <use x="95.410156" xlink:href="#DejaVuSans-32"/>
      </g>
     </g>
    </g>
    <g id="xtick_9">
     <g id="line2d_27">
      <path clip-path="url(#p99c4ef5f17)" d="M 345.015 148.351621 
L 345.015 41.472 
" style="fill:none;stroke:#ffffff;stroke-linecap:round;"/>
     </g>
     <g id="line2d_28"/>
     <g id="text_15">
      <!-- 0.4 -->
      <g style="fill:#262626;" transform="translate(337.063437 162.950058)scale(0.1 -0.1)">
       <use xlink:href="#DejaVuSans-30"/>
       <use x="63.623047" xlink:href="#DejaVuSans-2e"/>
       <use x="95.410156" xlink:href="#DejaVuSans-34"/>
      </g>
     </g>
    </g>
    <g id="xtick_10">
     <g id="line2d_29">
      <path clip-path="url(#p99c4ef5f17)" d="M 376.65 148.351621 
L 376.65 41.472 
" style="fill:none;stroke:#ffffff;stroke-linecap:round;"/>
     </g>
     <g id="line2d_30"/>
     <g id="text_16">
      <!-- 0.6 -->
      <g style="fill:#262626;" transform="translate(368.698437 162.950058)scale(0.1 -0.1)">
       <use xlink:href="#DejaVuSans-30"/>
       <use x="63.623047" xlink:href="#DejaVuSans-2e"/>
       <use x="95.410156" xlink:href="#DejaVuSans-36"/>
      </g>
     </g>
    </g>
    <g id="xtick_11">
     <g id="line2d_31">
      <path clip-path="url(#p99c4ef5f17)" d="M 408.285 148.351621 
L 408.285 41.472 
" style="fill:none;stroke:#ffffff;stroke-linecap:round;"/>
     </g>
     <g id="line2d_32"/>
     <g id="text_17">
      <!-- 0.8 -->
      <g style="fill:#262626;" transform="translate(400.333437 162.950058)scale(0.1 -0.1)">
       <use xlink:href="#DejaVuSans-30"/>
       <use x="63.623047" xlink:href="#DejaVuSans-2e"/>
       <use x="95.410156" xlink:href="#DejaVuSans-38"/>
      </g>
     </g>
    </g>
    <g id="xtick_12">
     <g id="line2d_33">
      <path clip-path="url(#p99c4ef5f17)" d="M 439.92 148.351621 
L 439.92 41.472 
" style="fill:none;stroke:#ffffff;stroke-linecap:round;"/>
     </g>
     <g id="line2d_34"/>
     <g id="text_18">
      <!-- 1.0 -->
      <g style="fill:#262626;" transform="translate(431.968437 162.950058)scale(0.1 -0.1)">
       <use xlink:href="#DejaVuSans-31"/>
       <use x="63.623047" xlink:href="#DejaVuSans-2e"/>
       <use x="95.410156" xlink:href="#DejaVuSans-30"/>
      </g>
     </g>
    </g>
   </g>
   <g id="matplotlib.axis_4">
    <g id="ytick_4">
     <g id="line2d_35">
      <path clip-path="url(#p99c4ef5f17)" d="M 281.745 108.471962 
L 439.92 108.471962 
" style="fill:none;stroke:#ffffff;stroke-linecap:round;"/>
     </g>
     <g id="line2d_36"/>
     <g id="text_19">
      <!-- −0.5 -->
      <g style="fill:#262626;" transform="translate(250.462187 112.271181)scale(0.1 -0.1)">
       <use xlink:href="#DejaVuSans-2212"/>
       <use x="83.789062" xlink:href="#DejaVuSans-30"/>
       <use x="147.412109" xlink:href="#DejaVuSans-2e"/>
       <use x="179.199219" xlink:href="#DejaVuSans-35"/>
      </g>
     </g>
    </g>
    <g id="ytick_5">
     <g id="line2d_37">
      <path clip-path="url(#p99c4ef5f17)" d="M 281.745 65.762823 
L 439.92 65.762823 
" style="fill:none;stroke:#ffffff;stroke-linecap:round;"/>
     </g>
     <g id="line2d_38"/>
     <g id="text_20">
      <!-- 0.0 -->
      <g style="fill:#262626;" transform="translate(258.841875 69.562042)scale(0.1 -0.1)">
       <use xlink:href="#DejaVuSans-30"/>
       <use x="63.623047" xlink:href="#DejaVuSans-2e"/>
       <use x="95.410156" xlink:href="#DejaVuSans-30"/>
      </g>
     </g>
    </g>
   </g>
   <g id="line2d_39">
    <path clip-path="url(#p99c4ef5f17)" d="M 281.745 102.38591 
L 282.463977 103.88073 
L 283.182955 92.669581 
L 283.901932 110.607419 
L 284.620909 82.205842 
L 285.339886 88.932531 
L 286.058864 86.690301 
L 286.777841 85.195481 
L 287.496818 91.922171 
L 288.215795 92.669581 
L 288.934773 76.226562 
L 289.65375 68.752463 
L 291.091705 67.257643 
L 291.810682 107.617779 
L 292.529659 100.14368 
L 293.248636 103.13332 
L 293.967614 59.036134 
L 294.686591 65.762823 
L 295.405568 70.994693 
L 296.124545 90.427351 
L 296.843523 76.973972 
L 297.5625 104.62814 
L 298.281477 51.562034 
L 299.000455 108.365189 
L 299.719432 74.731742 
L 300.438409 75.479152 
L 301.157386 91.174761 
L 301.876364 85.195481 
L 302.595341 81.458432 
L 303.314318 82.953252 
L 304.033295 68.005053 
L 304.752273 74.731742 
L 305.47125 75.479152 
L 306.190227 89.679941 
L 306.909205 91.174761 
L 308.347159 102.38591 
L 309.066136 129.292668 
L 309.785114 86.690301 
L 310.504091 85.195481 
L 311.223068 46.330165 
L 311.942045 107.617779 
L 312.661023 103.88073 
L 313.38 100.89109 
L 314.098977 81.458432 
L 314.817955 73.984332 
L 315.536932 97.15404 
L 316.255909 88.185121 
L 316.974886 69.499873 
L 317.693864 119.576338 
L 318.412841 98.64886 
L 319.131818 53.804264 
L 319.850795 116.586699 
L 320.569773 76.973972 
L 321.28875 68.005053 
L 322.007727 92.669581 
L 322.726705 72.489512 
L 323.445682 99.39627 
L 324.164659 90.427351 
L 324.883636 68.752463 
L 325.602614 90.427351 
L 326.321591 103.88073 
L 327.759545 69.499873 
L 328.478523 83.700661 
L 329.1975 102.38591 
L 329.916477 85.195481 
L 330.635455 96.40663 
L 331.354432 70.247283 
L 332.073409 82.205842 
L 332.792386 101.6385 
L 333.511364 89.679941 
L 334.230341 103.88073 
L 334.949318 70.247283 
L 335.668295 89.679941 
L 336.387273 83.700661 
L 337.10625 95.65922 
L 337.825227 80.711022 
L 338.544205 79.216202 
L 339.263182 109.860009 
L 339.982159 109.112599 
L 340.701136 106.870369 
L 341.420114 94.164401 
L 342.139091 91.922171 
L 342.858068 85.195481 
L 343.577045 70.247283 
L 344.296023 105.37555 
L 345.015 108.365189 
L 345.733977 68.752463 
L 346.452955 98.64886 
L 347.171932 112.102239 
L 347.890909 84.448071 
L 348.609886 73.984332 
L 349.328864 106.12296 
L 350.766818 77.721382 
L 351.485795 94.164401 
L 352.204773 97.15404 
L 352.92375 112.849649 
L 353.642727 59.783543 
L 354.361705 86.690301 
L 355.080682 118.828928 
L 355.799659 116.586699 
L 356.518636 132.282307 
L 357.237614 78.468792 
L 357.956591 68.005053 
L 358.675568 71.742102 
L 359.394545 80.711022 
L 360.113523 121.818568 
L 360.8325 96.40663 
L 361.551477 101.6385 
L 362.270455 72.489512 
L 362.989432 99.39627 
L 363.708409 90.427351 
L 364.427386 91.922171 
L 365.146364 87.437711 
L 365.865341 101.6385 
L 366.584318 68.752463 
L 367.303295 65.762823 
L 368.74125 99.39627 
L 369.460227 55.299084 
L 370.179205 72.489512 
L 370.898182 96.40663 
L 371.617159 107.617779 
L 372.336136 82.205842 
L 373.055114 102.38591 
L 373.774091 107.617779 
L 374.493068 91.922171 
L 375.212045 87.437711 
L 375.931023 85.942891 
L 376.65 125.555618 
L 377.368977 143.493456 
L 378.087955 82.205842 
L 378.806932 82.205842 
L 379.525909 78.468792 
L 380.244886 77.721382 
L 380.963864 82.953252 
L 381.682841 91.922171 
L 382.401818 103.13332 
L 383.839773 60.530953 
L 384.55875 72.489512 
L 385.277727 87.437711 
L 385.996705 99.39627 
L 386.715682 51.562034 
L 387.434659 56.793904 
L 388.153636 73.236922 
L 388.872614 112.849649 
L 390.310568 68.005053 
L 391.029545 97.90145 
L 391.748523 75.479152 
L 392.4675 58.288724 
L 393.905455 73.984332 
L 394.624432 48.572394 
L 395.343409 88.185121 
L 396.781364 127.050438 
L 397.500341 102.38591 
L 398.219318 97.90145 
L 398.938295 68.752463 
L 399.657273 76.973972 
L 400.37625 94.164401 
L 401.095227 97.90145 
L 401.814205 52.309444 
L 402.533182 68.005053 
L 403.252159 71.742102 
L 403.971136 73.984332 
L 404.690114 87.437711 
L 405.409091 98.64886 
L 406.128068 78.468792 
L 406.847045 98.64886 
L 407.566023 106.12296 
L 408.285 97.15404 
L 409.003977 79.963612 
L 409.722955 72.489512 
L 410.441932 67.257643 
L 411.160909 112.849649 
L 411.879886 135.271947 
L 412.598864 59.783543 
L 413.317841 66.510233 
L 414.036818 114.344469 
L 414.755795 97.90145 
L 416.19375 53.804264 
L 416.912727 82.953252 
L 417.631705 94.164401 
L 418.350682 70.247283 
L 419.069659 87.437711 
L 420.507614 109.112599 
L 421.226591 117.334109 
L 421.945568 100.14368 
L 422.664545 56.046494 
L 423.383523 82.953252 
L 424.1025 84.448071 
L 424.821477 80.711022 
L 425.540455 88.932531 
L 426.259432 88.185121 
L 426.978409 98.64886 
L 427.697386 59.783543 
L 428.416364 93.416991 
L 429.135341 82.953252 
L 429.854318 60.530953 
L 430.573295 87.437711 
L 431.292273 68.005053 
L 432.01125 63.520593 
L 432.730227 79.216202 
L 433.449205 109.860009 
L 434.168182 79.216202 
L 434.887159 79.963612 
L 435.606136 82.953252 
L 436.325114 68.005053 
L 437.044091 103.88073 
L 437.763068 80.711022 
L 438.482045 67.257643 
L 438.482045 67.257643 
" style="fill:none;stroke:#4c72b0;stroke-linecap:round;stroke-width:1.75;"/>
   </g>
   <g id="line2d_40">
    <path clip-path="url(#p99c4ef5f17)" d="M 281.745 87.226116 
L 438.482045 87.226116 
" style="fill:none;stroke:#55a868;stroke-linecap:round;stroke-width:1.75;"/>
   </g>
   <g id="patch_8">
    <path d="M 281.745 148.351621 
L 281.745 41.472 
" style="fill:none;"/>
   </g>
   <g id="patch_9">
    <path d="M 439.92 148.351621 
L 439.92 41.472 
" style="fill:none;"/>
   </g>
   <g id="patch_10">
    <path d="M 281.745 148.351621 
L 439.92 148.351621 
" style="fill:none;"/>
   </g>
   <g id="patch_11">
    <path d="M 281.745 41.472 
L 439.92 41.472 
" style="fill:none;"/>
   </g>
   <g id="text_21">
    <!-- $AR_y$ -->
    <defs>
     <path d="M 24.8125 -5.078125 
Q 18.5625 -15.578125 14.625 -18.1875 
Q 10.6875 -20.796875 4.59375 -20.796875 
L -2.484375 -20.796875 
L -0.984375 -13.28125 
L 4.203125 -13.28125 
Q 7.953125 -13.28125 10.59375 -11.234375 
Q 13.234375 -9.1875 16.5 -3.21875 
L 19.28125 2 
L 7.171875 54.6875 
L 16.703125 54.6875 
L 25.78125 12.796875 
L 50.875 54.6875 
L 60.296875 54.6875 
z
" id="DejaVuSans-Oblique-79"/>
    </defs>
    <g style="fill:#262626;" transform="translate(349.8525 35.472)scale(0.12 -0.12)">
     <use transform="translate(0 0.09375)" xlink:href="#DejaVuSans-Oblique-41"/>
     <use transform="translate(68.408203 0.09375)" xlink:href="#DejaVuSans-Oblique-52"/>
     <use transform="translate(137.890625 -16.3125)scale(0.7)" xlink:href="#DejaVuSans-Oblique-79"/>
    </g>
   </g>
   <g id="legend_2">
    <g id="line2d_41">
     <path d="M 290.745 133.771933 
L 310.745 133.771933 
" style="fill:none;stroke:#55a868;stroke-linecap:round;stroke-width:1.75;"/>
    </g>
    <g id="line2d_42"/>
    <g id="text_22">
     <!-- mean -->
     <g style="fill:#262626;" transform="translate(318.745 137.271933)scale(0.1 -0.1)">
      <use xlink:href="#DejaVuSans-6d"/>
      <use x="97.412109" xlink:href="#DejaVuSans-65"/>
      <use x="158.935547" xlink:href="#DejaVuSans-61"/>
      <use x="220.214844" xlink:href="#DejaVuSans-6e"/>
     </g>
    </g>
   </g>
  </g>
  <g id="axes_3">
   <g id="patch_12">
    <path d="M 65.27 300.76 
L 223.445 300.76 
L 223.445 193.880379 
L 65.27 193.880379 
z
" style="fill:#eaeaf2;"/>
   </g>
   <g id="matplotlib.axis_5">
    <g id="xtick_13">
     <g id="line2d_43">
      <path clip-path="url(#pa0fe0c1b27)" d="M 65.27 300.76 
L 65.27 193.880379 
" style="fill:none;stroke:#ffffff;stroke-linecap:round;"/>
     </g>
     <g id="line2d_44"/>
     <g id="text_23">
      <!-- 0.0 -->
      <g style="fill:#262626;" transform="translate(57.318438 315.358437)scale(0.1 -0.1)">
       <use xlink:href="#DejaVuSans-30"/>
       <use x="63.623047" xlink:href="#DejaVuSans-2e"/>
       <use x="95.410156" xlink:href="#DejaVuSans-30"/>
      </g>
     </g>
    </g>
    <g id="xtick_14">
     <g id="line2d_45">
      <path clip-path="url(#pa0fe0c1b27)" d="M 96.905 300.76 
L 96.905 193.880379 
" style="fill:none;stroke:#ffffff;stroke-linecap:round;"/>
     </g>
     <g id="line2d_46"/>
     <g id="text_24">
      <!-- 0.2 -->
      <g style="fill:#262626;" transform="translate(88.953438 315.358437)scale(0.1 -0.1)">
       <use xlink:href="#DejaVuSans-30"/>
       <use x="63.623047" xlink:href="#DejaVuSans-2e"/>
       <use x="95.410156" xlink:href="#DejaVuSans-32"/>
      </g>
     </g>
    </g>
    <g id="xtick_15">
     <g id="line2d_47">
      <path clip-path="url(#pa0fe0c1b27)" d="M 128.54 300.76 
L 128.54 193.880379 
" style="fill:none;stroke:#ffffff;stroke-linecap:round;"/>
     </g>
     <g id="line2d_48"/>
     <g id="text_25">
      <!-- 0.4 -->
      <g style="fill:#262626;" transform="translate(120.588438 315.358437)scale(0.1 -0.1)">
       <use xlink:href="#DejaVuSans-30"/>
       <use x="63.623047" xlink:href="#DejaVuSans-2e"/>
       <use x="95.410156" xlink:href="#DejaVuSans-34"/>
      </g>
     </g>
    </g>
    <g id="xtick_16">
     <g id="line2d_49">
      <path clip-path="url(#pa0fe0c1b27)" d="M 160.175 300.76 
L 160.175 193.880379 
" style="fill:none;stroke:#ffffff;stroke-linecap:round;"/>
     </g>
     <g id="line2d_50"/>
     <g id="text_26">
      <!-- 0.6 -->
      <g style="fill:#262626;" transform="translate(152.223438 315.358437)scale(0.1 -0.1)">
       <use xlink:href="#DejaVuSans-30"/>
       <use x="63.623047" xlink:href="#DejaVuSans-2e"/>
       <use x="95.410156" xlink:href="#DejaVuSans-36"/>
      </g>
     </g>
    </g>
    <g id="xtick_17">
     <g id="line2d_51">
      <path clip-path="url(#pa0fe0c1b27)" d="M 191.81 300.76 
L 191.81 193.880379 
" style="fill:none;stroke:#ffffff;stroke-linecap:round;"/>
     </g>
     <g id="line2d_52"/>
     <g id="text_27">
      <!-- 0.8 -->
      <g style="fill:#262626;" transform="translate(183.858438 315.358437)scale(0.1 -0.1)">
       <use xlink:href="#DejaVuSans-30"/>
       <use x="63.623047" xlink:href="#DejaVuSans-2e"/>
       <use x="95.410156" xlink:href="#DejaVuSans-38"/>
      </g>
     </g>
    </g>
    <g id="xtick_18">
     <g id="line2d_53">
      <path clip-path="url(#pa0fe0c1b27)" d="M 223.445 300.76 
L 223.445 193.880379 
" style="fill:none;stroke:#ffffff;stroke-linecap:round;"/>
     </g>
     <g id="line2d_54"/>
     <g id="text_28">
      <!-- 1.0 -->
      <g style="fill:#262626;" transform="translate(215.493437 315.358437)scale(0.1 -0.1)">
       <use xlink:href="#DejaVuSans-31"/>
       <use x="63.623047" xlink:href="#DejaVuSans-2e"/>
       <use x="95.410156" xlink:href="#DejaVuSans-30"/>
      </g>
     </g>
    </g>
    <g id="text_29">
     <!-- Time (s) -->
     <defs>
      <path d="M -0.296875 72.90625 
L 61.375 72.90625 
L 61.375 64.59375 
L 35.5 64.59375 
L 35.5 0 
L 25.59375 0 
L 25.59375 64.59375 
L -0.296875 64.59375 
z
" id="DejaVuSans-54"/>
      <path d="M 9.421875 54.6875 
L 18.40625 54.6875 
L 18.40625 0 
L 9.421875 0 
z
M 9.421875 75.984375 
L 18.40625 75.984375 
L 18.40625 64.59375 
L 9.421875 64.59375 
z
" id="DejaVuSans-69"/>
     </defs>
     <g style="fill:#262626;" transform="translate(121.826406 329.796406)scale(0.11 -0.11)">
      <use xlink:href="#DejaVuSans-54"/>
      <use x="61.037109" xlink:href="#DejaVuSans-69"/>
      <use x="88.820312" xlink:href="#DejaVuSans-6d"/>
      <use x="186.232422" xlink:href="#DejaVuSans-65"/>
      <use x="247.755859" xlink:href="#DejaVuSans-20"/>
      <use x="279.542969" xlink:href="#DejaVuSans-28"/>
      <use x="318.556641" xlink:href="#DejaVuSans-73"/>
      <use x="370.65625" xlink:href="#DejaVuSans-29"/>
     </g>
    </g>
   </g>
   <g id="matplotlib.axis_6">
    <g id="ytick_6">
     <g id="line2d_55">
      <path clip-path="url(#pa0fe0c1b27)" d="M 65.27 286.920355 
L 223.445 286.920355 
" style="fill:none;stroke:#ffffff;stroke-linecap:round;"/>
     </g>
     <g id="line2d_56"/>
     <g id="text_30">
      <!-- −1.0 -->
      <g style="fill:#262626;" transform="translate(33.987188 290.719573)scale(0.1 -0.1)">
       <use xlink:href="#DejaVuSans-2212"/>
       <use x="83.789062" xlink:href="#DejaVuSans-31"/>
       <use x="147.412109" xlink:href="#DejaVuSans-2e"/>
       <use x="179.199219" xlink:href="#DejaVuSans-30"/>
      </g>
     </g>
    </g>
    <g id="ytick_7">
     <g id="line2d_57">
      <path clip-path="url(#pa0fe0c1b27)" d="M 65.27 254.260425 
L 223.445 254.260425 
" style="fill:none;stroke:#ffffff;stroke-linecap:round;"/>
     </g>
     <g id="line2d_58"/>
     <g id="text_31">
      <!-- −0.5 -->
      <g style="fill:#262626;" transform="translate(33.987188 258.059643)scale(0.1 -0.1)">
       <use xlink:href="#DejaVuSans-2212"/>
       <use x="83.789062" xlink:href="#DejaVuSans-30"/>
       <use x="147.412109" xlink:href="#DejaVuSans-2e"/>
       <use x="179.199219" xlink:href="#DejaVuSans-35"/>
      </g>
     </g>
    </g>
    <g id="ytick_8">
     <g id="line2d_59">
      <path clip-path="url(#pa0fe0c1b27)" d="M 65.27 221.600495 
L 223.445 221.600495 
" style="fill:none;stroke:#ffffff;stroke-linecap:round;"/>
     </g>
     <g id="line2d_60"/>
     <g id="text_32">
      <!-- 0.0 -->
      <g style="fill:#262626;" transform="translate(42.366875 225.399713)scale(0.1 -0.1)">
       <use xlink:href="#DejaVuSans-30"/>
       <use x="63.623047" xlink:href="#DejaVuSans-2e"/>
       <use x="95.410156" xlink:href="#DejaVuSans-30"/>
      </g>
     </g>
    </g>
    <g id="text_33">
     <!-- Angular rate (dps) -->
     <g style="fill:#262626;" transform="translate(27.699531 297.512846)rotate(-90)scale(0.11 -0.11)">
      <use xlink:href="#DejaVuSans-41"/>
      <use x="68.408203" xlink:href="#DejaVuSans-6e"/>
      <use x="131.787109" xlink:href="#DejaVuSans-67"/>
      <use x="195.263672" xlink:href="#DejaVuSans-75"/>
      <use x="258.642578" xlink:href="#DejaVuSans-6c"/>
      <use x="286.425781" xlink:href="#DejaVuSans-61"/>
      <use x="347.705078" xlink:href="#DejaVuSans-72"/>
      <use x="388.818359" xlink:href="#DejaVuSans-20"/>
      <use x="420.605469" xlink:href="#DejaVuSans-72"/>
      <use x="461.71875" xlink:href="#DejaVuSans-61"/>
      <use x="522.998047" xlink:href="#DejaVuSans-74"/>
      <use x="562.207031" xlink:href="#DejaVuSans-65"/>
      <use x="623.730469" xlink:href="#DejaVuSans-20"/>
      <use x="655.517578" xlink:href="#DejaVuSans-28"/>
      <use x="694.53125" xlink:href="#DejaVuSans-64"/>
      <use x="758.007812" xlink:href="#DejaVuSans-70"/>
      <use x="821.484375" xlink:href="#DejaVuSans-73"/>
      <use x="873.583984" xlink:href="#DejaVuSans-29"/>
     </g>
    </g>
   </g>
   <g id="line2d_61">
    <path clip-path="url(#pa0fe0c1b27)" d="M 65.27 241.604702 
L 65.988977 269.610592 
L 66.707955 246.748641 
L 67.426932 245.033994 
L 68.145909 266.181299 
L 68.864886 266.752848 
L 69.583864 269.610592 
L 70.302841 244.462446 
L 71.021818 235.889214 
L 71.740795 242.176251 
L 72.459773 265.60975 
L 73.17875 263.323555 
L 73.897727 270.753689 
L 74.616705 270.182141 
L 75.335682 255.893421 
L 76.054659 221.600495 
L 76.773636 233.603019 
L 77.492614 254.178775 
L 78.211591 269.610592 
L 78.930568 249.034836 
L 79.649545 255.321872 
L 80.368523 265.038202 
L 81.0875 253.035677 
L 81.806477 273.039884 
L 82.525455 267.324397 
L 83.244432 274.182982 
L 83.963409 267.895945 
L 84.682386 233.03147 
L 85.401364 254.178775 
L 86.120341 259.322714 
L 86.839318 250.177933 
L 87.558295 282.184665 
L 88.277273 270.182141 
L 88.99625 261.03736 
L 89.715227 253.607226 
L 90.434205 278.183823 
L 91.153182 257.608067 
L 91.872159 240.461604 
L 92.591136 262.180458 
L 93.310114 251.321031 
L 94.029091 254.750324 
L 94.748068 256.46497 
L 95.467045 247.32019 
L 96.186023 274.182982 
L 96.905 266.181299 
L 97.623977 241.033153 
L 98.342955 285.042409 
L 99.061932 262.752006 
L 99.780909 245.033994 
L 100.499886 265.038202 
L 101.937841 235.317665 
L 102.656818 261.03736 
L 103.375795 231.316824 
L 105.532727 276.469177 
L 106.251705 295.901835 
L 106.970682 265.038202 
L 107.689659 262.180458 
L 108.408636 281.613116 
L 109.127614 215.885007 
L 109.846591 231.888373 
L 110.565568 253.035677 
L 111.284545 243.890897 
L 112.003523 230.745275 
L 112.7225 235.317665 
L 113.441477 256.46497 
L 114.160455 241.604702 
L 114.879432 267.324397 
L 115.598409 275.897628 
L 116.317386 231.888373 
L 117.036364 263.895104 
L 117.755341 265.60975 
L 118.474318 249.606385 
L 119.193295 257.608067 
L 119.912273 244.462446 
L 120.63125 246.177092 
L 121.350227 249.034836 
L 122.069205 261.608909 
L 122.788182 222.172043 
L 123.507159 211.884165 
L 124.226136 263.323555 
L 124.945114 258.751165 
L 125.664091 208.454873 
L 126.383068 217.028104 
L 127.102045 266.752848 
L 127.821023 237.032312 
L 128.54 231.888373 
L 129.258977 250.177933 
L 129.977955 222.743592 
L 130.696932 255.321872 
L 131.415909 252.464128 
L 132.134886 270.182141 
L 132.853864 254.750324 
L 133.572841 253.035677 
L 134.291818 264.466653 
L 135.010795 237.032312 
L 135.729773 262.180458 
L 136.44875 240.461604 
L 137.167727 291.900994 
L 137.886705 281.041567 
L 138.605682 234.174568 
L 139.324659 227.315982 
L 140.043636 198.738544 
L 140.762614 224.458238 
L 141.481591 246.177092 
L 142.200568 241.604702 
L 142.919545 259.894263 
L 143.638523 256.46497 
L 144.3575 275.326079 
L 145.076477 233.03147 
L 145.795455 273.039884 
L 146.514432 283.899311 
L 147.233409 253.035677 
L 147.952386 242.747799 
L 148.671364 244.462446 
L 149.390341 245.605543 
L 150.109318 289.614799 
L 150.828295 264.466653 
L 151.547273 271.325238 
L 152.26625 241.033153 
L 152.985227 254.178775 
L 153.704205 255.321872 
L 154.423182 268.467494 
L 155.142159 267.324397 
L 155.861136 242.747799 
L 156.580114 269.039043 
L 157.299091 227.315982 
L 158.018068 246.177092 
L 158.737045 243.319348 
L 159.456023 277.612275 
L 160.175 234.174568 
L 160.893977 222.172043 
L 161.612955 277.040726 
L 162.331932 246.177092 
L 163.050909 250.177933 
L 163.769886 291.900994 
L 164.488864 263.323555 
L 165.207841 254.750324 
L 165.926818 247.891738 
L 166.645795 267.324397 
L 167.364773 267.895945 
L 168.08375 274.754531 
L 168.802727 255.893421 
L 169.521705 222.743592 
L 170.240682 279.326921 
L 170.959659 269.039043 
L 171.678636 274.182982 
L 172.397614 248.463287 
L 173.116591 234.746116 
L 173.835568 275.326079 
L 174.554545 255.893421 
L 175.273523 285.042409 
L 175.9925 262.180458 
L 176.711477 263.895104 
L 177.430455 262.752006 
L 178.149432 271.325238 
L 178.868409 278.183823 
L 179.587386 245.033994 
L 181.025341 270.753689 
L 181.744318 249.606385 
L 182.463295 258.179616 
L 183.182273 281.613116 
L 183.90125 242.747799 
L 184.620227 250.177933 
L 185.339205 227.887531 
L 186.058182 293.044092 
L 186.777159 294.758738 
L 187.496136 271.325238 
L 188.215114 267.895945 
L 188.934091 227.315982 
L 189.653068 229.030629 
L 190.372045 249.034836 
L 191.091023 252.464128 
L 191.81 261.608909 
L 192.528977 239.318507 
L 193.247955 273.611433 
L 193.966932 280.470018 
L 194.685909 273.039884 
L 195.404886 246.748641 
L 196.123864 269.039043 
L 196.842841 256.46497 
L 197.561818 213.598812 
L 198.280795 250.177933 
L 198.999773 248.463287 
L 199.71875 231.316824 
L 200.437727 269.039043 
L 201.156705 248.463287 
L 201.875682 279.326921 
L 202.594659 281.613116 
L 203.313636 268.467494 
L 204.032614 222.743592 
L 204.751591 230.745275 
L 205.470568 210.741068 
L 206.908523 270.753689 
L 207.6275 282.184665 
L 208.346477 257.608067 
L 209.065455 283.327762 
L 209.784432 259.322714 
L 210.503409 249.606385 
L 211.222386 275.326079 
L 211.941364 248.463287 
L 212.660341 269.039043 
L 213.379318 260.465811 
L 214.098295 234.174568 
L 214.817273 258.751165 
L 215.53625 271.896787 
L 216.255227 259.894263 
L 216.974205 222.172043 
L 217.693182 237.032312 
L 218.412159 217.028104 
L 219.131136 242.747799 
L 219.850114 240.461604 
L 220.569091 258.179616 
L 221.288068 279.326921 
L 222.007045 253.035677 
L 222.007045 253.035677 
" style="fill:none;stroke:#4c72b0;stroke-linecap:round;stroke-width:1.75;"/>
   </g>
   <g id="line2d_62">
    <path clip-path="url(#pa0fe0c1b27)" d="M 65.27 254.878204 
L 222.007045 254.878204 
" style="fill:none;stroke:#55a868;stroke-linecap:round;stroke-width:1.75;"/>
   </g>
   <g id="patch_13">
    <path d="M 65.27 300.76 
L 65.27 193.880379 
" style="fill:none;"/>
   </g>
   <g id="patch_14">
    <path d="M 223.445 300.76 
L 223.445 193.880379 
" style="fill:none;"/>
   </g>
   <g id="patch_15">
    <path d="M 65.27 300.76 
L 223.445 300.76 
" style="fill:none;"/>
   </g>
   <g id="patch_16">
    <path d="M 65.27 193.880379 
L 223.445 193.880379 
" style="fill:none;"/>
   </g>
   <g id="text_34">
    <!-- $AR_z$ -->
    <defs>
     <path d="M 11.625 54.6875 
L 54.296875 54.6875 
L 52.6875 46.484375 
L 11.53125 7.171875 
L 45.515625 7.171875 
L 44.09375 0 
L -0.296875 0 
L 1.3125 8.203125 
L 42.484375 47.515625 
L 10.203125 47.515625 
z
" id="DejaVuSans-Oblique-7a"/>
    </defs>
    <g style="fill:#262626;" transform="translate(133.6775 187.880379)scale(0.12 -0.12)">
     <use transform="translate(0 0.09375)" xlink:href="#DejaVuSans-Oblique-41"/>
     <use transform="translate(68.408203 0.09375)" xlink:href="#DejaVuSans-Oblique-52"/>
     <use transform="translate(137.890625 -16.3125)scale(0.7)" xlink:href="#DejaVuSans-Oblique-7a"/>
    </g>
   </g>
   <g id="legend_3">
    <g id="line2d_63">
     <path d="M 158.085625 206.978817 
L 178.085625 206.978817 
" style="fill:none;stroke:#55a868;stroke-linecap:round;stroke-width:1.75;"/>
    </g>
    <g id="line2d_64"/>
    <g id="text_35">
     <!-- mean -->
     <g style="fill:#262626;" transform="translate(186.085625 210.478817)scale(0.1 -0.1)">
      <use xlink:href="#DejaVuSans-6d"/>
      <use x="97.412109" xlink:href="#DejaVuSans-65"/>
      <use x="158.935547" xlink:href="#DejaVuSans-61"/>
      <use x="220.214844" xlink:href="#DejaVuSans-6e"/>
     </g>
    </g>
   </g>
  </g>
  <g id="axes_4">
   <g id="patch_17">
    <path d="M 281.745 300.76 
L 439.92 300.76 
L 439.92 193.880379 
L 281.745 193.880379 
z
" style="fill:#eaeaf2;"/>
   </g>
   <g id="matplotlib.axis_7">
    <g id="xtick_19">
     <g id="line2d_65">
      <path clip-path="url(#p5090725bf7)" d="M 281.745 300.76 
L 281.745 193.880379 
" style="fill:none;stroke:#ffffff;stroke-linecap:round;"/>
     </g>
     <g id="line2d_66"/>
     <g id="text_36">
      <!-- 0.0 -->
      <g style="fill:#262626;" transform="translate(273.793437 315.358437)scale(0.1 -0.1)">
       <use xlink:href="#DejaVuSans-30"/>
       <use x="63.623047" xlink:href="#DejaVuSans-2e"/>
       <use x="95.410156" xlink:href="#DejaVuSans-30"/>
      </g>
     </g>
    </g>
    <g id="xtick_20">
     <g id="line2d_67">
      <path clip-path="url(#p5090725bf7)" d="M 313.38 300.76 
L 313.38 193.880379 
" style="fill:none;stroke:#ffffff;stroke-linecap:round;"/>
     </g>
     <g id="line2d_68"/>
     <g id="text_37">
      <!-- 0.2 -->
      <g style="fill:#262626;" transform="translate(305.428437 315.358437)scale(0.1 -0.1)">
       <use xlink:href="#DejaVuSans-30"/>
       <use x="63.623047" xlink:href="#DejaVuSans-2e"/>
       <use x="95.410156" xlink:href="#DejaVuSans-32"/>
      </g>
     </g>
    </g>
    <g id="xtick_21">
     <g id="line2d_69">
      <path clip-path="url(#p5090725bf7)" d="M 345.015 300.76 
L 345.015 193.880379 
" style="fill:none;stroke:#ffffff;stroke-linecap:round;"/>
     </g>
     <g id="line2d_70"/>
     <g id="text_38">
      <!-- 0.4 -->
      <g style="fill:#262626;" transform="translate(337.063437 315.358437)scale(0.1 -0.1)">
       <use xlink:href="#DejaVuSans-30"/>
       <use x="63.623047" xlink:href="#DejaVuSans-2e"/>
       <use x="95.410156" xlink:href="#DejaVuSans-34"/>
      </g>
     </g>
    </g>
    <g id="xtick_22">
     <g id="line2d_71">
      <path clip-path="url(#p5090725bf7)" d="M 376.65 300.76 
L 376.65 193.880379 
" style="fill:none;stroke:#ffffff;stroke-linecap:round;"/>
     </g>
     <g id="line2d_72"/>
     <g id="text_39">
      <!-- 0.6 -->
      <g style="fill:#262626;" transform="translate(368.698437 315.358437)scale(0.1 -0.1)">
       <use xlink:href="#DejaVuSans-30"/>
       <use x="63.623047" xlink:href="#DejaVuSans-2e"/>
       <use x="95.410156" xlink:href="#DejaVuSans-36"/>
      </g>
     </g>
    </g>
    <g id="xtick_23">
     <g id="line2d_73">
      <path clip-path="url(#p5090725bf7)" d="M 408.285 300.76 
L 408.285 193.880379 
" style="fill:none;stroke:#ffffff;stroke-linecap:round;"/>
     </g>
     <g id="line2d_74"/>
     <g id="text_40">
      <!-- 0.8 -->
      <g style="fill:#262626;" transform="translate(400.333437 315.358437)scale(0.1 -0.1)">
       <use xlink:href="#DejaVuSans-30"/>
       <use x="63.623047" xlink:href="#DejaVuSans-2e"/>
       <use x="95.410156" xlink:href="#DejaVuSans-38"/>
      </g>
     </g>
    </g>
    <g id="xtick_24">
     <g id="line2d_75">
      <path clip-path="url(#p5090725bf7)" d="M 439.92 300.76 
L 439.92 193.880379 
" style="fill:none;stroke:#ffffff;stroke-linecap:round;"/>
     </g>
     <g id="line2d_76"/>
     <g id="text_41">
      <!-- 1.0 -->
      <g style="fill:#262626;" transform="translate(431.968437 315.358437)scale(0.1 -0.1)">
       <use xlink:href="#DejaVuSans-31"/>
       <use x="63.623047" xlink:href="#DejaVuSans-2e"/>
       <use x="95.410156" xlink:href="#DejaVuSans-30"/>
      </g>
     </g>
    </g>
    <g id="text_42">
     <!-- Time (s) -->
     <g style="fill:#262626;" transform="translate(338.301406 329.796406)scale(0.11 -0.11)">
      <use xlink:href="#DejaVuSans-54"/>
      <use x="61.037109" xlink:href="#DejaVuSans-69"/>
      <use x="88.820312" xlink:href="#DejaVuSans-6d"/>
      <use x="186.232422" xlink:href="#DejaVuSans-65"/>
      <use x="247.755859" xlink:href="#DejaVuSans-20"/>
      <use x="279.542969" xlink:href="#DejaVuSans-28"/>
      <use x="318.556641" xlink:href="#DejaVuSans-73"/>
      <use x="370.65625" xlink:href="#DejaVuSans-29"/>
     </g>
    </g>
   </g>
   <g id="matplotlib.axis_8">
    <g id="ytick_9">
     <g id="line2d_77">
      <path clip-path="url(#p5090725bf7)" d="M 281.745 283.110108 
L 439.92 283.110108 
" style="fill:none;stroke:#ffffff;stroke-linecap:round;"/>
     </g>
     <g id="line2d_78"/>
     <g id="text_43">
      <!-- 0.5 -->
      <g style="fill:#262626;" transform="translate(258.841875 286.909327)scale(0.1 -0.1)">
       <use xlink:href="#DejaVuSans-30"/>
       <use x="63.623047" xlink:href="#DejaVuSans-2e"/>
       <use x="95.410156" xlink:href="#DejaVuSans-35"/>
      </g>
     </g>
    </g>
    <g id="ytick_10">
     <g id="line2d_79">
      <path clip-path="url(#p5090725bf7)" d="M 281.745 241.055392 
L 439.92 241.055392 
" style="fill:none;stroke:#ffffff;stroke-linecap:round;"/>
     </g>
     <g id="line2d_80"/>
     <g id="text_44">
      <!-- 1.0 -->
      <g style="fill:#262626;" transform="translate(258.841875 244.854611)scale(0.1 -0.1)">
       <use xlink:href="#DejaVuSans-31"/>
       <use x="63.623047" xlink:href="#DejaVuSans-2e"/>
       <use x="95.410156" xlink:href="#DejaVuSans-30"/>
      </g>
     </g>
    </g>
    <g id="ytick_11">
     <g id="line2d_81">
      <path clip-path="url(#p5090725bf7)" d="M 281.745 199.000675 
L 439.92 199.000675 
" style="fill:none;stroke:#ffffff;stroke-linecap:round;"/>
     </g>
     <g id="line2d_82"/>
     <g id="text_45">
      <!-- 1.5 -->
      <g style="fill:#262626;" transform="translate(258.841875 202.799894)scale(0.1 -0.1)">
       <use xlink:href="#DejaVuSans-31"/>
       <use x="63.623047" xlink:href="#DejaVuSans-2e"/>
       <use x="95.410156" xlink:href="#DejaVuSans-35"/>
      </g>
     </g>
    </g>
   </g>
   <g id="line2d_83">
    <path clip-path="url(#p5090725bf7)" d="M 281.745 260.492622 
L 282.463977 234.630082 
L 283.182955 268.462652 
L 283.901932 221.918087 
L 284.620909 225.791479 
L 285.339886 255.148221 
L 286.058864 251.041076 
L 286.777841 259.747348 
L 287.496818 259.610876 
L 288.215795 280.108834 
L 288.934773 229.961385 
L 289.65375 244.861099 
L 290.372727 220.632943 
L 291.091705 226.302413 
L 291.810682 263.480343 
L 292.529659 270.10556 
L 293.248636 275.570897 
L 293.967614 223.840282 
L 294.686591 245.626914 
L 295.405568 279.815267 
L 296.843523 232.650542 
L 297.5625 226.895889 
L 298.281477 251.919485 
L 299.719432 226.90967 
L 300.438409 241.855212 
L 301.157386 281.124053 
L 301.876364 235.810365 
L 302.595341 251.63902 
L 303.314318 228.672961 
L 304.033295 237.249468 
L 304.752273 233.096566 
L 305.47125 242.311563 
L 306.190227 268.519994 
L 306.909205 226.39011 
L 307.628182 246.730946 
L 308.347159 257.753364 
L 309.066136 231.391588 
L 309.785114 250.793047 
L 310.504091 251.683233 
L 311.223068 241.104426 
L 311.942045 269.183655 
L 312.661023 233.379382 
L 313.38 240.632164 
L 314.098977 261.970966 
L 314.817955 233.636439 
L 315.536932 226.499842 
L 316.255909 239.319234 
L 316.974886 257.705173 
L 317.693864 252.338489 
L 318.412841 273.062358 
L 319.131818 234.97774 
L 319.850795 245.212598 
L 320.569773 268.548687 
L 321.28875 263.440842 
L 322.007727 235.426278 
L 322.726705 221.907595 
L 323.445682 236.966524 
L 324.164659 244.861099 
L 324.883636 224.295676 
L 325.602614 274.871402 
L 326.321591 277.754077 
L 327.040568 269.528187 
L 327.759545 270.510376 
L 328.478523 229.317833 
L 329.1975 236.113963 
L 329.916477 246.979944 
L 330.635455 276.197371 
L 331.354432 236.433858 
L 332.073409 238.916379 
L 332.792386 276.854384 
L 333.511364 247.066587 
L 334.230341 256.712861 
L 334.949318 233.061275 
L 335.668295 239.20574 
L 336.387273 254.451598 
L 337.10625 280.555841 
L 337.825227 237.610619 
L 338.544205 245.270202 
L 339.263182 279.761553 
L 339.982159 280.193062 
L 341.420114 212.045015 
L 342.139091 242.652201 
L 342.858068 295.901835 
L 343.577045 258.468229 
L 344.296023 276.463561 
L 345.015 269.654889 
L 345.733977 250.618465 
L 346.452955 287.522917 
L 347.171932 255.945681 
L 347.890909 271.56104 
L 348.609886 242.783591 
L 350.047841 247.819224 
L 350.766818 243.606251 
L 351.485795 278.490957 
L 352.204773 247.871762 
L 352.92375 255.241112 
L 354.361705 213.949976 
L 355.080682 268.515213 
L 355.799659 256.546897 
L 356.518636 252.977181 
L 357.237614 262.703748 
L 357.956591 226.461422 
L 358.675568 217.370282 
L 359.394545 268.572609 
L 360.113523 198.738544 
L 360.8325 216.619196 
L 361.551477 268.923029 
L 362.270455 239.158495 
L 362.989432 226.769201 
L 363.708409 247.966422 
L 364.427386 251.605878 
L 365.146364 263.304978 
L 365.865341 265.971691 
L 366.584318 218.346983 
L 367.303295 232.580313 
L 368.022273 227.116607 
L 368.74125 268.205325 
L 369.460227 249.748027 
L 370.179205 240.718708 
L 370.898182 238.916379 
L 371.617159 239.237252 
L 372.336136 267.173426 
L 373.055114 232.032023 
L 373.774091 252.92093 
L 374.493068 260.593201 
L 375.212045 276.848778 
L 375.931023 247.567534 
L 376.65 237.746823 
L 377.368977 238.577927 
L 378.087955 250.032247 
L 378.806932 283.702255 
L 379.525909 262.379408 
L 380.244886 222.779402 
L 380.963864 224.110592 
L 382.401818 261.748512 
L 383.120795 237.080207 
L 383.839773 256.051398 
L 384.55875 243.443707 
L 385.277727 257.673064 
L 385.996705 288.893242 
L 386.715682 229.765309 
L 387.434659 251.75698 
L 388.153636 250.371839 
L 388.872614 247.212364 
L 389.591591 222.370234 
L 390.310568 204.078001 
L 391.029545 269.416345 
L 391.748523 239.809613 
L 392.4675 255.88311 
L 393.186477 257.30491 
L 393.905455 234.710883 
L 394.624432 251.11784 
L 395.343409 248.859123 
L 396.062386 236.183937 
L 396.781364 239.904851 
L 397.500341 238.815958 
L 398.219318 262.864378 
L 398.938295 251.982368 
L 399.657273 216.866479 
L 400.37625 262.275972 
L 401.095227 248.293364 
L 401.814205 242.734295 
L 402.533182 211.784361 
L 403.252159 215.823724 
L 403.971136 245.698449 
L 404.690114 253.364632 
L 405.409091 263.252465 
L 406.128068 256.365587 
L 406.847045 275.033204 
L 407.566023 236.031889 
L 408.285 223.166314 
L 409.003977 238.502895 
L 409.722955 227.05586 
L 410.441932 222.030938 
L 411.160909 240.744368 
L 411.879886 246.883017 
L 412.598864 233.237865 
L 413.317841 242.073296 
L 414.036818 267.675281 
L 414.755795 252.763658 
L 415.474773 252.834762 
L 416.19375 247.43851 
L 416.912727 259.743208 
L 417.631705 260.379657 
L 418.350682 239.335009 
L 419.069659 236.330146 
L 419.788636 239.464473 
L 420.507614 278.945754 
L 421.226591 271.555989 
L 421.945568 275.784323 
L 422.664545 266.095349 
L 424.1025 234.698908 
L 424.821477 261.881035 
L 425.540455 221.918087 
L 426.259432 269.615873 
L 426.978409 262.018124 
L 427.697386 239.57831 
L 428.416364 260.154317 
L 429.135341 243.017325 
L 429.854318 231.097474 
L 430.573295 283.702255 
L 431.292273 246.382985 
L 432.01125 231.443587 
L 432.730227 264.704222 
L 433.449205 279.9708 
L 434.168182 249.189907 
L 434.887159 254.340621 
L 435.606136 258.123981 
L 436.325114 250.422548 
L 437.044091 223.672037 
L 437.763068 223.05486 
L 438.482045 234.642048 
L 438.482045 234.642048 
" style="fill:none;stroke:#4c72b0;stroke-linecap:round;stroke-width:1.75;"/>
   </g>
   <g id="patch_18">
    <path d="M 281.745 300.76 
L 281.745 193.880379 
" style="fill:none;"/>
   </g>
   <g id="patch_19">
    <path d="M 439.92 300.76 
L 439.92 193.880379 
" style="fill:none;"/>
   </g>
   <g id="patch_20">
    <path d="M 281.745 300.76 
L 439.92 300.76 
" style="fill:none;"/>
   </g>
   <g id="patch_21">
    <path d="M 281.745 193.880379 
L 439.92 193.880379 
" style="fill:none;"/>
   </g>
   <g id="text_46">
    <!-- $\|AR\|$ -->
    <defs>
     <path d="M 21 76.421875 
L 21 -23.578125 
L 12.703125 -23.578125 
L 12.703125 76.421875 
z
" id="DejaVuSans-7c"/>
    </defs>
    <g style="fill:#262626;" transform="translate(348.4725 187.880379)scale(0.12 -0.12)">
     <use transform="translate(0 0.578125)" xlink:href="#DejaVuSans-7c"/>
     <use transform="translate(33.691406 0.578125)" xlink:href="#DejaVuSans-Oblique-41"/>
     <use transform="translate(102.099609 0.578125)" xlink:href="#DejaVuSans-Oblique-52"/>
     <use transform="translate(171.582031 0.578125)" xlink:href="#DejaVuSans-7c"/>
    </g>
   </g>
  </g>
  <g id="text_47">
   <!-- Gyroscope data -->
   <defs>
    <path d="M 59.515625 10.40625 
L 59.515625 29.984375 
L 43.40625 29.984375 
L 43.40625 38.09375 
L 69.28125 38.09375 
L 69.28125 6.78125 
Q 63.578125 2.734375 56.6875 0.65625 
Q 49.8125 -1.421875 42 -1.421875 
Q 24.90625 -1.421875 15.25 8.5625 
Q 5.609375 18.5625 5.609375 36.375 
Q 5.609375 54.25 15.25 64.234375 
Q 24.90625 74.21875 42 74.21875 
Q 49.125 74.21875 55.546875 72.453125 
Q 61.96875 70.703125 67.390625 67.28125 
L 67.390625 56.78125 
Q 61.921875 61.421875 55.765625 63.765625 
Q 49.609375 66.109375 42.828125 66.109375 
Q 29.4375 66.109375 22.71875 58.640625 
Q 16.015625 51.171875 16.015625 36.375 
Q 16.015625 21.625 22.71875 14.15625 
Q 29.4375 6.6875 42.828125 6.6875 
Q 48.046875 6.6875 52.140625 7.59375 
Q 56.25 8.5 59.515625 10.40625 
z
" id="DejaVuSans-47"/>
    <path d="M 32.171875 -5.078125 
Q 28.375 -14.84375 24.75 -17.8125 
Q 21.140625 -20.796875 15.09375 -20.796875 
L 7.90625 -20.796875 
L 7.90625 -13.28125 
L 13.1875 -13.28125 
Q 16.890625 -13.28125 18.9375 -11.515625 
Q 21 -9.765625 23.484375 -3.21875 
L 25.09375 0.875 
L 2.984375 54.6875 
L 12.5 54.6875 
L 29.59375 11.921875 
L 46.6875 54.6875 
L 56.203125 54.6875 
z
" id="DejaVuSans-79"/>
    <path d="M 30.609375 48.390625 
Q 23.390625 48.390625 19.1875 42.75 
Q 14.984375 37.109375 14.984375 27.296875 
Q 14.984375 17.484375 19.15625 11.84375 
Q 23.34375 6.203125 30.609375 6.203125 
Q 37.796875 6.203125 41.984375 11.859375 
Q 46.1875 17.53125 46.1875 27.296875 
Q 46.1875 37.015625 41.984375 42.703125 
Q 37.796875 48.390625 30.609375 48.390625 
z
M 30.609375 56 
Q 42.328125 56 49.015625 48.375 
Q 55.71875 40.765625 55.71875 27.296875 
Q 55.71875 13.875 49.015625 6.21875 
Q 42.328125 -1.421875 30.609375 -1.421875 
Q 18.84375 -1.421875 12.171875 6.21875 
Q 5.515625 13.875 5.515625 27.296875 
Q 5.515625 40.765625 12.171875 48.375 
Q 18.84375 56 30.609375 56 
z
" id="DejaVuSans-6f"/>
    <path d="M 48.78125 52.59375 
L 48.78125 44.1875 
Q 44.96875 46.296875 41.140625 47.34375 
Q 37.3125 48.390625 33.40625 48.390625 
Q 24.65625 48.390625 19.8125 42.84375 
Q 14.984375 37.3125 14.984375 27.296875 
Q 14.984375 17.28125 19.8125 11.734375 
Q 24.65625 6.203125 33.40625 6.203125 
Q 37.3125 6.203125 41.140625 7.25 
Q 44.96875 8.296875 48.78125 10.40625 
L 48.78125 2.09375 
Q 45.015625 0.34375 40.984375 -0.53125 
Q 36.96875 -1.421875 32.421875 -1.421875 
Q 20.0625 -1.421875 12.78125 6.34375 
Q 5.515625 14.109375 5.515625 27.296875 
Q 5.515625 40.671875 12.859375 48.328125 
Q 20.21875 56 33.015625 56 
Q 37.15625 56 41.109375 55.140625 
Q 45.0625 54.296875 48.78125 52.59375 
z
" id="DejaVuSans-63"/>
   </defs>
   <g style="fill:#262626;" transform="translate(173.574 17.85375)scale(0.144 -0.144)">
    <use xlink:href="#DejaVuSans-47"/>
    <use x="77.490234" xlink:href="#DejaVuSans-79"/>
    <use x="136.669922" xlink:href="#DejaVuSans-72"/>
    <use x="177.751953" xlink:href="#DejaVuSans-6f"/>
    <use x="238.933594" xlink:href="#DejaVuSans-73"/>
    <use x="291.033203" xlink:href="#DejaVuSans-63"/>
    <use x="346.013672" xlink:href="#DejaVuSans-6f"/>
    <use x="407.195312" xlink:href="#DejaVuSans-70"/>
    <use x="470.671875" xlink:href="#DejaVuSans-65"/>
    <use x="532.195312" xlink:href="#DejaVuSans-20"/>
    <use x="563.982422" xlink:href="#DejaVuSans-64"/>
    <use x="627.458984" xlink:href="#DejaVuSans-61"/>
    <use x="688.738281" xlink:href="#DejaVuSans-74"/>
    <use x="727.947266" xlink:href="#DejaVuSans-61"/>
   </g>
  </g>
 </g>
 <defs>
  <clipPath id="pf5b60c230a">
   <rect height="106.879621" width="158.175" x="65.27" y="41.472"/>
  </clipPath>
  <clipPath id="p99c4ef5f17">
   <rect height="106.879621" width="158.175" x="281.745" y="41.472"/>
  </clipPath>
  <clipPath id="pa0fe0c1b27">
   <rect height="106.879621" width="158.175" x="65.27" y="193.880379"/>
  </clipPath>
  <clipPath id="p5090725bf7">
   <rect height="106.879621" width="158.175" x="281.745" y="193.880379"/>
  </clipPath>
 </defs>
</svg>
