<?xml version="1.0" encoding="UTF-8" standalone="no"?>
<!-- Created with Inkscape (http://www.inkscape.org/) -->

<svg
   xmlns:dc="http://purl.org/dc/elements/1.1/"
   xmlns:cc="http://creativecommons.org/ns#"
   xmlns:rdf="http://www.w3.org/1999/02/22-rdf-syntax-ns#"
   xmlns:svg="http://www.w3.org/2000/svg"
   xmlns="http://www.w3.org/2000/svg"
   xmlns:sodipodi="http://sodipodi.sourceforge.net/DTD/sodipodi-0.dtd"
   xmlns:inkscape="http://www.inkscape.org/namespaces/inkscape"
   version="1.1"
   id="svg29"
   xml:space="preserve"
   width="135.81328"
   height="121.52"
   viewBox="0 0 135.81328 121.51999"
   sodipodi:docname="lsm303dlhc-accel.svg"
   inkscape:version="0.92.2 5c3e80d, 2017-08-06"><metadata
     id="metadata35"><rdf:RDF><cc:Work
         rdf:about=""><dc:format>image/svg+xml</dc:format><dc:type
           rdf:resource="http://purl.org/dc/dcmitype/StillImage" /><dc:title></dc:title></cc:Work></rdf:RDF></metadata><defs
     id="defs33" /><sodipodi:namedview
     pagecolor="#ffffff"
     bordercolor="#666666"
     borderopacity="1"
     objecttolerance="10"
     gridtolerance="10"
     guidetolerance="10"
     inkscape:pageopacity="0"
     inkscape:pageshadow="2"
     inkscape:window-width="1920"
     inkscape:window-height="1080"
     id="namedview31"
     showgrid="false"
     fit-margin-top="0"
     fit-margin-left="0"
     fit-margin-right="0"
     fit-margin-bottom="0"
     inkscape:zoom="2.2425436"
     inkscape:cx="-41.988323"
     inkscape:cy="-61.450757"
     inkscape:window-x="0"
     inkscape:window-y="0"
     inkscape:window-maximized="1"
     inkscape:current-layer="g37" /><g
     id="g37"
     inkscape:groupmode="layer"
     inkscape:label="LSM303DLHC"
     transform="matrix(1.3333333,0,0,-1.3333333,-195.55335,932.36531)"><g
       id="g231"
       transform="translate(147.21,637.654)"><path
         d="M 0,0 32.16,-22.38 100.56,12.6 66.48,33.54"
         style="fill:#231f20;fill-opacity:1;fill-rule:evenodd;stroke:none"
         id="path233"
         inkscape:connector-curvature="0" /></g><g
       id="g235"
       transform="translate(147.39,637.834)"><path
         d="m 0,0 32.16,-22.38 -0.06,-0.42 -0.24,0.42 68.4,34.98 h 0.24 l -0.24,-0.42 -34.08,20.94 v 0.42 L 66.3,33.6 66.42,33.54 100.5,12.6 100.92,12.36 100.5,12.18 32.1,-22.8 31.98,-22.86 31.86,-22.8 -0.3,-0.42"
         style="fill:#ffffff;fill-opacity:1;fill-rule:nonzero;stroke:none"
         id="path237"
         inkscape:connector-curvature="0" /></g><g
       id="g239"
       transform="translate(213.81,670.954)"><path
         d="m 0,0 -66.48,-33.54 h -0.24 l -0.36,0.24 0.36,0.18 66.48,33.54"
         style="fill:#ffffff;fill-opacity:1;fill-rule:nonzero;stroke:none"
         id="path241"
         inkscape:connector-curvature="0" /></g><g
       id="g243"
       transform="translate(148.05,636.874)"><path
         d="m 0,0 30.72,-21.9 v -6.36 l -30.9,21.72"
         style="fill:#231f20;fill-opacity:1;fill-rule:evenodd;stroke:none"
         id="path245"
         inkscape:connector-curvature="0" /></g><g
       id="g247"
       transform="translate(148.23,637.054)"><path
         d="m 0,0 30.72,-21.9 0.06,-0.06 v -6.96 l -0.36,0.24 -30.9,21.72 -0.12,0.06 v 0.18 l 0.42,0.18 30.9,-21.72 -0.3,-0.42 -0.12,0.24 v 6.36 h 0.48 l -0.36,-0.24 -30.72,21.9"
         style="fill:#ffffff;fill-opacity:1;fill-rule:nonzero;stroke:none"
         id="path249"
         inkscape:connector-curvature="0" /></g><g
       id="g251"
       transform="translate(147.63,630.334)"><path
         d="M 0,0 0.18,6.54 V 7.02 L 0.6,6.72 0.66,6.54 0.48,0"
         style="fill:#ffffff;fill-opacity:1;fill-rule:nonzero;stroke:none"
         id="path253"
         inkscape:connector-curvature="0" /></g><g
       id="g255"
       transform="translate(179.07,614.434)"><path
         d="m 0,0 68.52,35.82 0.18,-5.76 -69,-35.1"
         style="fill:#231f20;fill-opacity:1;fill-rule:evenodd;stroke:none"
         id="path257"
         inkscape:connector-curvature="0" /></g><g
       id="g259"
       transform="translate(178.95,614.614)"><path
         d="M 0,0 68.52,35.82 68.88,36 v -0.36 l 0.18,-5.76 V 29.7 l -0.12,-0.06 -69,-35.1 -0.36,-0.18 v 0.42 l 0.12,0.18 69,35.1 0.24,-0.42 -0.36,0.24 -0.18,5.76 h 0.48 L 68.76,35.4 0.24,-0.42"
         style="fill:#ffffff;fill-opacity:1;fill-rule:nonzero;stroke:none"
         id="path261"
         inkscape:connector-curvature="0" /></g><g
       id="g263"
       transform="translate(178.53,609.394)"><path
         d="M 0,0 0.3,5.04 V 5.16 L 0.42,5.22 0.78,5.04 0.48,0"
         style="fill:#ffffff;fill-opacity:1;fill-rule:nonzero;stroke:none"
         id="path265"
         inkscape:connector-curvature="0" /></g><text
       transform="matrix(1,0,0,-0.91056253,202.47,669.2145)"
       style="font-variant:normal;font-weight:normal;font-size:6.91879988px;font-family:Helvetica;-inkscape-font-specification:Helvetica;writing-mode:lr-tb;fill:#231f20;fill-opacity:1;fill-rule:nonzero;stroke:none"
       id="text287"><tspan
         x="0"
         y="0"
         id="tspan285">1</tspan></text>
<g
       id="g289"
       transform="translate(160.47,622.054)"><path
         d="m 0,0 3.96,-3.06 v 2.28 L 0,2.16"
         style="fill:#ffffff;fill-opacity:1;fill-rule:evenodd;stroke:none"
         id="path291"
         inkscape:connector-curvature="0" /></g><g
       id="g293"
       transform="translate(160.65,622.234)"><path
         d="M 0,0 3.96,-3.06 4.02,-3.24 H 3.54 v 2.28 L 3.96,-0.78 3.66,-1.14 -0.3,1.8 -0.42,1.98 V 2.46 L 0,2.16 3.96,-0.78 4.02,-0.84 v -2.88 l -0.36,0.3 -3.96,3.06"
         style="fill:#231f20;fill-opacity:1;fill-rule:nonzero;stroke:none"
         id="path295"
         inkscape:connector-curvature="0" /></g><g
       id="g297"
       transform="translate(160.71,624.214)"><path
         d="m 0,0 v -2.16 l -0.36,-0.18 -0.12,0.12 V 0"
         style="fill:#231f20;fill-opacity:1;fill-rule:nonzero;stroke:none"
         id="path299"
         inkscape:connector-curvature="0" /></g><g
       id="g435"
       transform="translate(192.21,618.994)"><path
         d="m 0,0 -4.08,-2.28 -0.06,-1.98 4.08,2.1"
         style="fill:#ffffff;fill-opacity:1;fill-rule:evenodd;stroke:none"
         id="path437"
         inkscape:connector-curvature="0" /></g><g
       id="g439"
       transform="translate(192.33,618.754)"><path
         d="m 0,0 -4.08,-2.28 -0.36,0.24 h 0.48 l -0.06,-1.98 -0.12,-0.24 -0.24,0.42 4.08,2.1 0.36,-0.18 V -2.1 l -0.12,-0.06 -4.08,-2.1 -0.36,-0.18 v 0.42 l 0.06,1.98 v 0.12 l 0.12,0.06 4.08,2.28"
         style="fill:#231f20;fill-opacity:1;fill-rule:nonzero;stroke:none"
         id="path441"
         inkscape:connector-curvature="0" /></g><g
       id="g443"
       transform="translate(191.91,616.834)"><path
         d="M 0,0 0.06,2.16 0.18,2.34 0.48,2.52 0.54,2.16 0.48,0"
         style="fill:#231f20;fill-opacity:1;fill-rule:nonzero;stroke:none"
         id="path445"
         inkscape:connector-curvature="0" /></g><g
       id="g447"
       transform="translate(241.65,644.014)"><path
         d="m 0,0 -4.08,-2.22 -0.06,-1.98 4.08,2.04"
         style="fill:#ffffff;fill-opacity:1;fill-rule:evenodd;stroke:none"
         id="path449"
         inkscape:connector-curvature="0" /></g><g
       id="g451"
       transform="translate(241.77,643.774)"><path
         d="m 0,0 -4.08,-2.22 -0.36,0.24 h 0.48 l -0.06,-1.98 -0.12,-0.24 -0.24,0.42 4.08,2.04 0.36,-0.18 V -2.1 l -4.2,-2.1 -0.36,-0.18 v 0.42 l 0.06,1.98 v 0.12 l 0.12,0.06 4.08,2.22"
         style="fill:#231f20;fill-opacity:1;fill-rule:nonzero;stroke:none"
         id="path453"
         inkscape:connector-curvature="0" /></g><g
       id="g455"
       transform="translate(241.35,641.854)"><path
         d="M 0,0 0.06,2.16 0.18,2.34 0.54,2.52 V 2.16 L 0.48,0"
         style="fill:#231f20;fill-opacity:1;fill-rule:nonzero;stroke:none"
         id="path457"
         inkscape:connector-curvature="0" /></g><g
       id="g459"
       transform="translate(232.05,638.974)"><path
         d="M 0,0 -4.08,-2.28 -4.14,-4.26 0,-2.16"
         style="fill:#ffffff;fill-opacity:1;fill-rule:evenodd;stroke:none"
         id="path461"
         inkscape:connector-curvature="0" /></g><g
       id="g463"
       transform="translate(232.17,638.734)"><path
         d="m 0,0 -4.08,-2.28 -0.36,0.24 h 0.48 l -0.06,-1.98 -0.12,-0.24 -0.24,0.42 4.14,2.1 0.36,-0.18 V -2.1 L 0,-2.16 -4.14,-4.26 -4.5,-4.44 v 0.42 l 0.06,1.98 v 0.12 l 0.12,0.06 4.08,2.28"
         style="fill:#231f20;fill-opacity:1;fill-rule:nonzero;stroke:none"
         id="path465"
         inkscape:connector-curvature="0" /></g><g
       id="g467"
       transform="translate(231.81,636.814)"><path
         d="M 0,0 V 2.16 L 0.12,2.34 0.48,2.52 V 0"
         style="fill:#231f20;fill-opacity:1;fill-rule:nonzero;stroke:none"
         id="path469"
         inkscape:connector-curvature="0" /></g><g
       id="g471"
       transform="translate(221.61,633.694)"><path
         d="m 0,0 -4.08,-2.28 -0.06,-1.98 4.08,2.04"
         style="fill:#ffffff;fill-opacity:1;fill-rule:evenodd;stroke:none"
         id="path473"
         inkscape:connector-curvature="0" /></g><g
       id="g475"
       transform="translate(221.73,633.454)"><path
         d="m 0,0 -4.08,-2.28 -0.36,0.24 h 0.48 l -0.06,-1.98 -0.12,-0.24 -0.24,0.42 4.08,2.04 0.36,-0.18 V -2.16 L -0.06,-2.22 -4.5,-4.44 v 0.42 l 0.06,1.98 v 0.12 l 0.12,0.06 4.08,2.28"
         style="fill:#231f20;fill-opacity:1;fill-rule:nonzero;stroke:none"
         id="path477"
         inkscape:connector-curvature="0" /></g><g
       id="g479"
       transform="translate(221.31,631.474)"><path
         d="M 0,0 0.06,2.22 0.18,2.4 0.48,2.58 0.54,2.22 0.48,0"
         style="fill:#231f20;fill-opacity:1;fill-rule:nonzero;stroke:none"
         id="path481"
         inkscape:connector-curvature="0" /></g><g
       id="g483"
       transform="translate(211.17,628.354)"><path
         d="m 0,0 -4.08,-2.28 -0.06,-1.98 4.08,2.1"
         style="fill:#ffffff;fill-opacity:1;fill-rule:evenodd;stroke:none"
         id="path485"
         inkscape:connector-curvature="0" /></g><g
       id="g487"
       transform="translate(211.29,628.114)"><path
         d="m 0,0 -4.08,-2.28 -0.36,0.24 h 0.48 l -0.06,-1.98 -0.12,-0.24 -0.24,0.42 4.08,2.1 0.36,-0.18 V -2.1 l -0.12,-0.06 -4.08,-2.1 -0.36,-0.18 v 0.42 l 0.06,1.98 v 0.12 l 0.12,0.06 4.08,2.28"
         style="fill:#231f20;fill-opacity:1;fill-rule:nonzero;stroke:none"
         id="path489"
         inkscape:connector-curvature="0" /></g><g
       id="g491"
       transform="translate(210.87,626.194)"><path
         d="M 0,0 0.06,2.16 0.18,2.34 0.48,2.52 0.54,2.16 0.48,0"
         style="fill:#231f20;fill-opacity:1;fill-rule:nonzero;stroke:none"
         id="path493"
         inkscape:connector-curvature="0" /></g><g
       id="g495"
       transform="translate(201.51,623.614)"><path
         d="M 0,0 -4.08,-2.28 -4.14,-4.26 0,-2.22"
         style="fill:#ffffff;fill-opacity:1;fill-rule:evenodd;stroke:none"
         id="path497"
         inkscape:connector-curvature="0" /></g><g
       id="g499"
       transform="translate(201.63,623.374)"><path
         d="m 0,0 -4.08,-2.28 -0.36,0.24 h 0.48 l -0.06,-1.98 -0.12,-0.24 -0.24,0.42 4.14,2.04 0.36,-0.18 V -2.16 L 0,-2.22 -4.14,-4.26 -4.5,-4.44 v 0.42 l 0.06,1.98 v 0.12 l 0.12,0.06 4.08,2.28"
         style="fill:#231f20;fill-opacity:1;fill-rule:nonzero;stroke:none"
         id="path501"
         inkscape:connector-curvature="0" /></g><g
       id="g503"
       transform="translate(201.27,621.394)"><path
         d="M 0,0 V 2.22 L 0.12,2.4 0.48,2.58 V 0"
         style="fill:#231f20;fill-opacity:1;fill-rule:nonzero;stroke:none"
         id="path505"
         inkscape:connector-curvature="0" /></g><text
       transform="matrix(1,0,0,-0.91056253,227.73,650.1345)"
       style="font-variant:normal;font-weight:normal;font-size:6.91879988px;font-family:Helvetica;-inkscape-font-specification:Helvetica;writing-mode:lr-tb;fill:#231f20;fill-opacity:1;fill-rule:nonzero;stroke:none"
       id="text513"><tspan
         x="0 3.8959763"
         y="0"
         sodipodi:role="line"
         id="tspan507">13</tspan><tspan
         x="-43.680462"
         y="30.640598"
         id="tspan509">8</tspan><tspan
         x="-73.620186"
         y="7.0509491"
         id="tspan511">6</tspan></text>
<g
       id="g515"
       transform="translate(212.61,663.154)"><path
         d="M 0,0 -0.06,0.18 -0.12,0.36 -0.3,0.48 -0.48,0.66 -1.02,0.84 -1.62,0.9 -2.28,0.84 -2.76,0.66 -3,0.48 -3.12,0.36 -3.24,0.18 v -0.36 c 0.489,-1.002 2.418,-1.036 3.12,-0.18 L -0.06,-0.18 0,0"
         style="fill:#ffffff;fill-opacity:1;fill-rule:evenodd;stroke:none"
         id="path517"
         inkscape:connector-curvature="0" /></g><g
       id="g519"
       transform="translate(212.37,663.034)"><path
         d="M 0,0 -0.06,0.18 -0.12,0.36 0,0.24 -0.18,0.36 -0.24,0.42 -0.42,0.6 -0.3,0.54 -0.84,0.72 h 0.06 l -0.6,0.06 h 0.06 L -1.98,0.72 h 0.06 L -2.4,0.54 -2.34,0.6 -2.58,0.42 -2.7,0.3 -2.64,0.36 -2.76,0.18 V 0.3 -0.06 0.06 l 0.12,-0.18 0.12,-0.18 -0.12,0.06 0.24,-0.12 0.48,-0.24 -0.06,0.06 0.66,-0.06 h -0.06 l 0.6,0.06 -0.06,-0.06 0.54,0.24 h -0.06 l 0.18,0.12 H -0.24 L -0.06,-0.06 -0.12,-0.18 -0.06,0 0,0.18 0.48,0 0.42,-0.18 0.36,-0.36 0.12,-0.6 0.06,-0.66 -0.12,-0.78 -0.66,-1.02 h -0.06 l -0.6,-0.06 h -0.06 l -0.66,0.06 h -0.12 l -0.72,0.36 -0.06,0.12 -0.24,0.36 -0.06,0.12 V 0.3 l 0.06,0.12 0.12,0.18 v 0.06 l 0.12,0.12 h 0.06 l 0.24,0.18 h 0.06 l 0.48,0.18 0.06,0.06 0.66,0.06 h 0.06 l 0.6,-0.06 h 0.06 L -0.12,1.02 0.12,0.78 H 0.06 L 0.24,0.66 0.36,0.54 0.42,0.36 0.48,0.18"
         style="fill:#ffffff;fill-opacity:1;fill-rule:nonzero;stroke:none"
         id="path521"
         inkscape:connector-curvature="0" /></g><g
       id="g523"
       transform="translate(212.37,663.214)"><path
         d="M 0,0 V -0.18 L 0.48,0 v -0.18"
         style="fill:#ffffff;fill-opacity:1;fill-rule:nonzero;stroke:none"
         id="path525"
         inkscape:connector-curvature="0" /></g><g
       id="g531"
       transform="translate(238.89,661.954)"><path
         d="m 0,0 -46.62,-23.52 -6.66,2.46 46.14,23.76 -2.7,0.84 16.56,4.08 -4.68,-8.7"
         style="fill:#ffffff;fill-opacity:1;fill-rule:evenodd;stroke:none"
         id="path533"
         inkscape:connector-curvature="0" /></g><g
       id="g535"
       transform="translate(239.01,661.714)"><path
         d="m 0,0 -46.62,-23.52 v -0.06 l -0.18,0.06 -6.66,2.46 -0.54,0.18 0.48,0.24 46.14,23.76 0.18,0.06 -0.12,-0.48 -2.7,0.84 -0.96,0.24 0.96,0.24 L 6.54,8.1 7.08,8.22 6.84,7.74 2.16,-0.96 2.04,-1.2 1.8,-1.08 1.74,-0.72 6.42,7.98 6.84,7.74 6.66,7.62 -9.9,3.54 -10.02,4.02 H -9.9 L -7.2,3.18 -6.6,3 -7.14,2.7 l -46.14,-23.76 -0.24,0.42 0.24,0.06 6.66,-2.46 -0.18,-0.48 -0.06,0.42 46.62,23.52"
         style="fill:#231f20;fill-opacity:1;fill-rule:nonzero;stroke:none"
         id="path537"
         inkscape:connector-curvature="0" /></g><g
       id="g539"
       transform="translate(240.81,660.634)"><path
         d="M 0,0 -2.04,1.08 V 1.5 L -1.92,1.56 -1.8,1.5 0.24,0.42"
         style="fill:#231f20;fill-opacity:1;fill-rule:nonzero;stroke:none"
         id="path541"
         inkscape:connector-curvature="0" /></g><g
       id="g543"
       transform="translate(166.65,663.154)"><path
         d="m 0,0 30,-22.5 -4.86,-3.66 -30,22.26 -1.5,-1.92 -5.52,9.96 14.94,-1.5"
         style="fill:#ffffff;fill-opacity:1;fill-rule:evenodd;stroke:none"
         id="path545"
         inkscape:connector-curvature="0" /></g><g
       id="g547"
       transform="translate(166.83,663.334)"><path
         d="m 0,0 30.24,-22.68 -0.24,-0.18 -4.86,-3.66 -0.12,-0.12 -0.18,0.12 -30,22.26 -0.06,0.3 0.36,-0.3 -1.5,-1.92 -0.18,-0.24 -0.18,0.3 -5.52,9.96 L -12.6,4.26 2.94,2.7 3.48,2.64 3.06,2.28 2.88,2.22 -12.06,3.72 -12,4.2 -11.82,4.08 -6.3,-5.88 -6.72,-6.12 v 0.24 l 1.5,1.92 0.12,0.18 0.24,-0.12 30,-22.26 -0.3,-0.36 v 0.36 l 4.86,3.66 0.3,-0.36 h -0.3 l -30,22.5"
         style="fill:#231f20;fill-opacity:1;fill-rule:nonzero;stroke:none"
         id="path549"
         inkscape:connector-curvature="0" /></g><g
       id="g551"
       transform="translate(169.89,665.614)"><path
         d="m 0,0 -3.06,-2.64 h -0.3 l -0.24,0.18 0.24,0.18 3.06,2.64"
         style="fill:#231f20;fill-opacity:1;fill-rule:nonzero;stroke:none"
         id="path553"
         inkscape:connector-curvature="0" /></g><g
       id="g555"
       transform="translate(193.53,637.534)"><path
         d="m 0,0 -5.94,2.7 0.24,44.52 -1.86,0.72 5.7,13.14 L 2.7,44.52 0,45.9"
         style="fill:#ffffff;fill-opacity:1;fill-rule:evenodd;stroke:none"
         id="path557"
         inkscape:connector-curvature="0" /></g><g
       id="g559"
       transform="translate(193.47,637.294)"><path
         d="m 0,0 -5.94,2.7 -0.18,0.06 v 0.18 l 0.24,44.52 0.36,0.18 -0.18,-0.42 -1.86,0.72 -0.24,0.06 0.12,0.24 5.7,13.14 0.24,0.6 0.18,-0.6 4.56,-16.56 0.12,-0.54 -0.48,0.24 -2.7,1.38 -0.12,0.24 v 0.36 l 0.36,-0.18 2.7,-1.38 -0.24,-0.42 -0.12,0.18 -4.56,16.56 0.48,0.12 V 61.2 l -5.7,-13.14 -0.42,0.18 0.3,0.12 1.86,-0.72 0.18,-0.06 L -5.4,47.46 -5.64,2.94 h -0.48 l 0.36,0.18 5.94,-2.7"
         style="fill:#231f20;fill-opacity:1;fill-rule:nonzero;stroke:none"
         id="path561"
         inkscape:connector-curvature="0" /></g><g
       id="g563"
       transform="translate(193.77,683.434)"><path
         d="m 0,0 v -46.26 l -0.3,0.12 -0.18,0.24 V 0"
         style="fill:#231f20;fill-opacity:1;fill-rule:nonzero;stroke:none"
         id="path565"
         inkscape:connector-curvature="0" /></g><text
       transform="matrix(1,0,0,-0.91056253,245.37,659.0743)"
       style="font-variant:normal;font-weight:normal;font-size:6.91879988px;font-family:Helvetica;-inkscape-font-specification:Helvetica;writing-mode:lr-tb;fill:#231f20;fill-opacity:1;fill-rule:nonzero;stroke:none"
       id="text573"><tspan
         x="0"
         y="0"
         id="tspan567">X</tspan><tspan
         x="-65.700233"
         y="-38.547401"
         id="tspan569">Z</tspan><tspan
         x="-98.760338"
         y="-8.3689804"
         id="tspan571">Y</tspan></text>
</g></svg>