<?xml version="1.0" encoding="UTF-8" standalone="no"?>
<!-- Created with Inkscape (http://www.inkscape.org/) -->

<svg
   xmlns:dc="http://purl.org/dc/elements/1.1/"
   xmlns:cc="http://creativecommons.org/ns#"
   xmlns:rdf="http://www.w3.org/1999/02/22-rdf-syntax-ns#"
   xmlns:svg="http://www.w3.org/2000/svg"
   xmlns="http://www.w3.org/2000/svg"
   xmlns:sodipodi="http://sodipodi.sourceforge.net/DTD/sodipodi-0.dtd"
   xmlns:inkscape="http://www.inkscape.org/namespaces/inkscape"
   version="1.1"
   id="svg29"
   xml:space="preserve"
   width="135.44"
   height="105.90122"
   viewBox="0 0 135.44 105.90123"
   sodipodi:docname="lsm303dlhc-mag.svg"
   inkscape:version="0.92.2 5c3e80d, 2017-08-06"><metadata
     id="metadata35"><rdf:RDF><cc:Work
         rdf:about=""><dc:format>image/svg+xml</dc:format><dc:type
           rdf:resource="http://purl.org/dc/dcmitype/StillImage" /><dc:title></dc:title></cc:Work></rdf:RDF></metadata><defs
     id="defs33" /><sodipodi:namedview
     pagecolor="#ffffff"
     bordercolor="#666666"
     borderopacity="1"
     objecttolerance="10"
     gridtolerance="10"
     guidetolerance="10"
     inkscape:pageopacity="0"
     inkscape:pageshadow="2"
     inkscape:window-width="1920"
     inkscape:window-height="1080"
     id="namedview31"
     showgrid="false"
     inkscape:zoom="2.2425436"
     inkscape:cx="-43.337461"
     inkscape:cy="134.77213"
     inkscape:window-x="0"
     inkscape:window-y="0"
     inkscape:window-maximized="1"
     inkscape:current-layer="g37"
     fit-margin-top="0"
     fit-margin-left="0"
     fit-margin-right="0"
     fit-margin-bottom="0" /><g
     id="g37"
     inkscape:groupmode="layer"
     inkscape:label="LSM303DLHC"
     transform="matrix(1.3333333,0,0,-1.3333333,-198.84,777.30654)"><g
       id="g575"
       transform="translate(149.61,533.074)"><path
         d="M 0,0 32.16,-22.38 100.56,12.6 66.48,33.54"
         style="fill:#231f20;fill-opacity:1;fill-rule:evenodd;stroke:none"
         id="path577"
         inkscape:connector-curvature="0" /></g><g
       id="g579"
       transform="translate(149.79,533.254)"><path
         d="m 0,0 32.16,-22.38 -0.06,-0.42 -0.24,0.42 68.4,34.98 h 0.24 l -0.24,-0.42 -34.08,20.94 v 0.42 L 66.3,33.6 66.42,33.54 100.5,12.6 100.92,12.36 100.5,12.18 32.1,-22.8 31.98,-22.86 31.86,-22.8 -0.3,-0.42"
         style="fill:#ffffff;fill-opacity:1;fill-rule:nonzero;stroke:none"
         id="path581"
         inkscape:connector-curvature="0" /></g><g
       id="g583"
       transform="translate(216.21,566.374)"><path
         d="m 0,0 -66.48,-33.54 h -0.24 l -0.36,0.24 0.36,0.18 66.48,33.54"
         style="fill:#ffffff;fill-opacity:1;fill-rule:nonzero;stroke:none"
         id="path585"
         inkscape:connector-curvature="0" /></g><g
       id="g587"
       transform="translate(150.45,532.294)"><path
         d="m 0,0 30.72,-21.96 v -6.3 l -30.9,21.72"
         style="fill:#231f20;fill-opacity:1;fill-rule:evenodd;stroke:none"
         id="path589"
         inkscape:connector-curvature="0" /></g><g
       id="g591"
       transform="translate(150.63,532.474)"><path
         d="m 0,0 30.72,-21.96 0.06,-0.06 v -6.9 l -0.36,0.24 -30.9,21.72 -0.12,0.06 v 0.18 l 0.42,0.18 30.9,-21.72 -0.3,-0.42 -0.12,0.24 v 6.3 h 0.48 L 30.42,-22.38 -0.3,-0.42"
         style="fill:#ffffff;fill-opacity:1;fill-rule:nonzero;stroke:none"
         id="path593"
         inkscape:connector-curvature="0" /></g><g
       id="g595"
       transform="translate(150.03,525.754)"><path
         d="M 0,0 0.18,6.54 V 7.02 L 0.6,6.72 0.66,6.54 0.48,0"
         style="fill:#ffffff;fill-opacity:1;fill-rule:nonzero;stroke:none"
         id="path597"
         inkscape:connector-curvature="0" /></g><g
       id="g599"
       transform="translate(181.53,509.854)"><path
         d="M 0,0 68.46,35.82 68.64,30 -0.36,-5.04"
         style="fill:#231f20;fill-opacity:1;fill-rule:evenodd;stroke:none"
         id="path601"
         inkscape:connector-curvature="0" /></g><g
       id="g603"
       transform="translate(181.41,510.034)"><path
         d="M 0,0 68.46,35.82 68.82,36 V 35.64 L 69,29.82 v -0.18 l -0.12,-0.06 -69,-35.04 -0.42,-0.18 0.06,0.42 0.12,0.18 69,35.04 0.24,-0.42 -0.36,0.24 -0.18,5.82 h 0.48 L 68.7,35.4 0.24,-0.42"
         style="fill:#ffffff;fill-opacity:1;fill-rule:nonzero;stroke:none"
         id="path605"
         inkscape:connector-curvature="0" /></g><g
       id="g607"
       transform="translate(180.93,504.814)"><path
         d="M 0,0 0.36,5.04 V 5.16 L 0.48,5.22 0.84,4.98 0.48,-0.06"
         style="fill:#ffffff;fill-opacity:1;fill-rule:nonzero;stroke:none"
         id="path609"
         inkscape:connector-curvature="0" /></g><text
       transform="matrix(1,0,0,-0.91056253,204.8699,564.634)"
       style="font-variant:normal;font-weight:normal;font-size:6.91879988px;font-family:Helvetica;-inkscape-font-specification:Helvetica;writing-mode:lr-tb;fill:#231f20;fill-opacity:1;fill-rule:nonzero;stroke:none"
       id="text613"><tspan
         x="0"
         y="0"
         id="tspan611">1</tspan></text>
<g
       id="g615"
       transform="translate(162.87,517.474)"><path
         d="m 0,0 3.96,-3.06 v 2.22 L 0,2.16"
         style="fill:#ffffff;fill-opacity:1;fill-rule:evenodd;stroke:none"
         id="path617"
         inkscape:connector-curvature="0" /></g><g
       id="g619"
       transform="translate(163.05,517.654)"><path
         d="M 0,0 3.96,-3.06 4.02,-3.24 H 3.54 v 2.22 l 0.42,0.18 -0.3,-0.36 -3.96,3 -0.12,0.18 V 2.46 L 0,2.16 l 3.96,-3 0.06,-0.06 v -2.82 l -0.36,0.3 -3.96,3.06"
         style="fill:#231f20;fill-opacity:1;fill-rule:nonzero;stroke:none"
         id="path621"
         inkscape:connector-curvature="0" /></g><g
       id="g623"
       transform="translate(163.11,519.634)"><path
         d="m 0,0 v -2.16 l -0.36,-0.18 -0.12,0.12 V 0"
         style="fill:#231f20;fill-opacity:1;fill-rule:nonzero;stroke:none"
         id="path625"
         inkscape:connector-curvature="0" /></g><g
       id="g627"
       transform="translate(194.61,514.414)"><path
         d="m 0,0 -4.08,-2.28 -0.06,-1.98 4.08,2.04"
         style="fill:#ffffff;fill-opacity:1;fill-rule:evenodd;stroke:none"
         id="path629"
         inkscape:connector-curvature="0" /></g><g
       id="g631"
       transform="translate(194.73,514.174)"><path
         d="m 0,0 -4.08,-2.28 -0.36,0.24 h 0.48 l -0.06,-1.98 -0.12,-0.24 -0.24,0.42 4.08,2.04 0.36,-0.18 V -2.16 L -0.06,-2.22 -4.5,-4.44 v 0.42 l 0.06,1.98 v 0.12 l 0.12,0.06 4.08,2.28"
         style="fill:#231f20;fill-opacity:1;fill-rule:nonzero;stroke:none"
         id="path633"
         inkscape:connector-curvature="0" /></g><g
       id="g635"
       transform="translate(194.31,512.194)"><path
         d="M 0,0 0.06,2.22 0.18,2.4 0.48,2.58 0.54,2.22 0.48,0"
         style="fill:#231f20;fill-opacity:1;fill-rule:nonzero;stroke:none"
         id="path637"
         inkscape:connector-curvature="0" /></g><g
       id="g639"
       transform="translate(244.05,539.434)"><path
         d="m 0,0 -4.08,-2.28 -0.06,-1.98 4.08,2.1"
         style="fill:#ffffff;fill-opacity:1;fill-rule:evenodd;stroke:none"
         id="path641"
         inkscape:connector-curvature="0" /></g><g
       id="g643"
       transform="translate(244.17,539.194)"><path
         d="m 0,0 -4.08,-2.28 -0.36,0.24 h 0.48 l -0.06,-1.98 -0.12,-0.24 -0.24,0.42 4.08,2.1 0.36,-0.18 V -2.1 l -0.12,-0.06 -4.08,-2.1 -0.36,-0.18 v 0.42 l 0.06,1.98 v 0.12 l 0.12,0.06 4.08,2.28"
         style="fill:#231f20;fill-opacity:1;fill-rule:nonzero;stroke:none"
         id="path645"
         inkscape:connector-curvature="0" /></g><g
       id="g647"
       transform="translate(243.75,537.274)"><path
         d="M 0,0 0.06,2.16 0.18,2.34 0.48,2.52 0.54,2.16 0.48,0"
         style="fill:#231f20;fill-opacity:1;fill-rule:nonzero;stroke:none"
         id="path649"
         inkscape:connector-curvature="0" /></g><g
       id="g651"
       transform="translate(234.51,534.394)"><path
         d="m 0,0 -4.14,-2.28 -0.06,-1.98 4.14,2.04"
         style="fill:#ffffff;fill-opacity:1;fill-rule:evenodd;stroke:none"
         id="path653"
         inkscape:connector-curvature="0" /></g><g
       id="g655"
       transform="translate(234.63,534.154)"><path
         d="m 0,0 -4.14,-2.28 -0.36,0.24 h 0.48 L -4.08,-4.02 -4.2,-4.26 -4.44,-3.84 -0.3,-1.8 0.06,-1.98 V -2.16 L -0.06,-2.22 -4.2,-4.26 -4.56,-4.44 v 0.42 l 0.06,1.98 v 0.12 l 0.12,0.06 4.14,2.28"
         style="fill:#231f20;fill-opacity:1;fill-rule:nonzero;stroke:none"
         id="path657"
         inkscape:connector-curvature="0" /></g><g
       id="g659"
       transform="translate(234.21,532.174)"><path
         d="M 0,0 0.06,2.22 0.18,2.4 0.48,2.58 0.54,2.22 0.48,0"
         style="fill:#231f20;fill-opacity:1;fill-rule:nonzero;stroke:none"
         id="path661"
         inkscape:connector-curvature="0" /></g><g
       id="g663"
       transform="translate(224.01,529.054)"><path
         d="m 0,0 -4.08,-2.22 -0.06,-1.98 4.08,2.04"
         style="fill:#ffffff;fill-opacity:1;fill-rule:evenodd;stroke:none"
         id="path665"
         inkscape:connector-curvature="0" /></g><g
       id="g667"
       transform="translate(224.13,528.814)"><path
         d="m 0,0 -4.08,-2.22 -0.36,0.24 h 0.48 l -0.06,-1.98 -0.12,-0.24 -0.24,0.42 4.08,2.04 0.36,-0.18 V -2.1 L -4.5,-4.38 v 0.42 l 0.06,1.98 v 0.12 l 0.12,0.06 4.08,2.22"
         style="fill:#231f20;fill-opacity:1;fill-rule:nonzero;stroke:none"
         id="path669"
         inkscape:connector-curvature="0" /></g><g
       id="g671"
       transform="translate(223.71,526.894)"><path
         d="M 0,0 0.06,2.16 0.18,2.34 0.54,2.52 V 2.16 L 0.48,0"
         style="fill:#231f20;fill-opacity:1;fill-rule:nonzero;stroke:none"
         id="path673"
         inkscape:connector-curvature="0" /></g><g
       id="g675"
       transform="translate(213.57,523.774)"><path
         d="m 0,0 -4.08,-2.28 -0.06,-1.98 4.08,2.1"
         style="fill:#ffffff;fill-opacity:1;fill-rule:evenodd;stroke:none"
         id="path677"
         inkscape:connector-curvature="0" /></g><g
       id="g679"
       transform="translate(213.69,523.534)"><path
         d="m 0,0 -4.08,-2.28 -0.36,0.24 h 0.48 l -0.06,-1.98 -0.12,-0.24 -0.24,0.42 4.08,2.1 0.36,-0.18 V -2.1 l -0.12,-0.06 -4.08,-2.1 -0.36,-0.18 v 0.42 l 0.06,1.98 v 0.12 l 0.12,0.06 4.08,2.28"
         style="fill:#231f20;fill-opacity:1;fill-rule:nonzero;stroke:none"
         id="path681"
         inkscape:connector-curvature="0" /></g><g
       id="g683"
       transform="translate(213.27,521.614)"><path
         d="M 0,0 0.06,2.16 0.18,2.34 0.48,2.52 0.54,2.16 0.48,0"
         style="fill:#231f20;fill-opacity:1;fill-rule:nonzero;stroke:none"
         id="path685"
         inkscape:connector-curvature="0" /></g><g
       id="g687"
       transform="translate(203.97,518.974)"><path
         d="m 0,0 -4.14,-2.28 -0.06,-1.98 4.14,2.1"
         style="fill:#ffffff;fill-opacity:1;fill-rule:evenodd;stroke:none"
         id="path689"
         inkscape:connector-curvature="0" /></g><g
       id="g691"
       transform="translate(204.09,518.734)"><path
         d="m 0,0 -4.14,-2.28 -0.36,0.24 h 0.48 l -0.06,-1.98 -0.12,-0.24 -0.24,0.42 4.14,2.1 0.36,-0.18 V -2.1 l -0.12,-0.06 -4.14,-2.1 -0.36,-0.18 v 0.42 l 0.06,1.98 v 0.12 l 0.12,0.06 4.14,2.28"
         style="fill:#231f20;fill-opacity:1;fill-rule:nonzero;stroke:none"
         id="path693"
         inkscape:connector-curvature="0" /></g><g
       id="g695"
       transform="translate(203.67,516.814)"><path
         d="M 0,0 0.06,2.16 0.18,2.34 0.48,2.52 0.54,2.16 0.48,0"
         style="fill:#231f20;fill-opacity:1;fill-rule:nonzero;stroke:none"
         id="path697"
         inkscape:connector-curvature="0" /></g><text
       transform="matrix(1,0,0,-0.91056253,230.19,545.5541)"
       style="font-variant:normal;font-weight:normal;font-size:6.91879988px;font-family:Helvetica;-inkscape-font-specification:Helvetica;writing-mode:lr-tb;fill:#231f20;fill-opacity:1;fill-rule:nonzero;stroke:none"
       id="text705"><tspan
         x="0 3.8399341"
         y="0"
         sodipodi:role="line"
         id="tspan699">13</tspan><tspan
         x="-43.739964"
         y="30.640598"
         id="tspan701">8</tspan><tspan
         x="-73.679688"
         y="7.1166778"
         id="tspan703">6</tspan></text>
<g
       id="g707"
       transform="translate(215.01,558.514)"><path
         d="m 0,0 -0.06,0.24 -0.06,0.18 c -0.894,0.715 -2.129,0.765 -3,0 L -3.24,0.24 v -0.42 c 0.428,-0.932 2.51,-0.892 2.94,-0.3 L -0.12,-0.36 0,0"
         style="fill:#ffffff;fill-opacity:1;fill-rule:evenodd;stroke:none"
         id="path709"
         inkscape:connector-curvature="0" /></g><g
       id="g711"
       transform="translate(214.77,558.454)"><path
         d="M 0,0 -0.06,0.24 V 0.18 L -0.12,0.36 0,0.24 -0.18,0.36 -0.36,0.48 h 0.06 l -0.54,0.24 h 0.06 l -0.6,0.06 h 0.06 L -1.98,0.72 h 0.06 L -2.64,0.36 -2.58,0.42 -2.7,0.3 -2.64,0.36 -2.76,0.18 V 0.3 -0.12 0 l 0.12,-0.18 -0.06,0.06 0.12,-0.12 0.24,-0.18 H -2.4 l 0.48,-0.18 -0.06,0.06 0.66,-0.06 h -0.06 l 0.6,0.06 h -0.06 l 0.54,0.18 -0.12,-0.06 0.18,0.18 h 0.06 L 0,-0.12 -0.12,-0.24 -0.06,-0.06 0,0.12 0.48,-0.06 0.36,-0.42 0.24,-0.54 0.06,-0.66 0.12,-0.6 -0.06,-0.78 -0.12,-0.84 -0.66,-1.02 c -1.01,-0.084 -0.384,-0.076 -1.44,0 l -0.48,0.18 -0.06,0.06 -0.24,0.18 h -0.06 l -0.12,0.12 v 0.06 l -0.12,0.18 -0.06,0.12 V 0.3 l 0.06,0.12 0.12,0.18 v 0.06 l 0.12,0.12 h 0.06 l 0.84,0.42 0.66,0.06 c 0.606,0.057 1.139,-0.267 1.62,-0.6 L 0.36,0.54 0.42,0.36 0.48,0.12"
         style="fill:#ffffff;fill-opacity:1;fill-rule:nonzero;stroke:none"
         id="path713"
         inkscape:connector-curvature="0" /></g><g
       id="g715"
       transform="translate(214.77,558.574)"><path
         d="M 0,0 V -0.12 L 0.48,0 v -0.18"
         style="fill:#ffffff;fill-opacity:1;fill-rule:nonzero;stroke:none"
         id="path717"
         inkscape:connector-curvature="0" /></g><g
       id="g723"
       transform="translate(199.47,543.514)"><path
         d="M 0,0 -26.76,13.74 2.28,5.28"
         style="fill:#323031;fill-opacity:1;fill-rule:evenodd;stroke:none"
         id="path725"
         inkscape:connector-curvature="0" /></g><g
       id="g727"
       transform="translate(199.47,543.394)"><path
         d="M 0,0 -26.76,13.74 -26.7,13.92 2.34,5.46 H 2.46 L 2.4,5.34 2.28,5.28 -26.76,13.74 -26.7,13.92 0.06,0.18"
         style="fill:#ffffff;fill-opacity:1;fill-rule:nonzero;stroke:none"
         id="path729"
         inkscape:connector-curvature="0" /></g><g
       id="g731"
       transform="translate(201.87,548.734)"><path
         d="M 0,0 -2.28,-5.28 V -5.4 l -0.12,0.06 -0.06,0.12 2.28,5.28"
         style="fill:#ffffff;fill-opacity:1;fill-rule:nonzero;stroke:none"
         id="path733"
         inkscape:connector-curvature="0" /></g><g
       id="g735"
       transform="translate(199.41,543.634)"><path
         d="M 0,0 34.38,15.24 15.78,-1.74"
         style="fill:#231f20;fill-opacity:1;fill-rule:evenodd;stroke:none"
         id="path737"
         inkscape:connector-curvature="0" /></g><g
       id="g739"
       transform="translate(199.41,543.694)"><path
         d="m 0,0 34.38,15.24 0.06,-0.12 -18.6,-16.98 -0.06,-0.06 -0.06,0.18 18.6,16.98 0.12,-0.18 L 0.06,-0.18"
         style="fill:#ffffff;fill-opacity:1;fill-rule:nonzero;stroke:none"
         id="path741"
         inkscape:connector-curvature="0" /></g><g
       id="g743"
       transform="translate(215.19,541.774)"><path
         d="m 0,0 -15.78,1.74 -0.3,0.06 0.3,0.12 L 0,0.18"
         style="fill:#ffffff;fill-opacity:1;fill-rule:nonzero;stroke:none"
         id="path745"
         inkscape:connector-curvature="0" /></g><g
       id="g747"
       transform="translate(199.35,543.694)"><path
         d="m 0,0 -26.04,13.26 15.6,-16.2"
         style="fill:#ffffff;fill-opacity:1;fill-rule:evenodd;stroke:none"
         id="path749"
         inkscape:connector-curvature="0" /></g><g
       id="g751"
       transform="translate(199.35,543.574)"><path
         d="m 0,0 -26.04,13.26 0.06,0.18 15.6,-16.2 v -0.18 l -0.12,0.06 -15.6,16.2 0.12,0.12 L 0.06,0.18"
         style="fill:#231f20;fill-opacity:1;fill-rule:nonzero;stroke:none"
         id="path753"
         inkscape:connector-curvature="0" /></g><g
       id="g755"
       transform="translate(188.91,540.814)"><path
         d="M 0,0 10.44,2.94 H 10.5 L 10.74,2.82 10.5,2.76 0.06,-0.18"
         style="fill:#231f20;fill-opacity:1;fill-rule:nonzero;stroke:none"
         id="path757"
         inkscape:connector-curvature="0" /></g><g
       id="g759"
       transform="translate(199.47,543.694)"><path
         d="M 0,0 34.26,15.18 2.1,5.04"
         style="fill:#ffffff;fill-opacity:1;fill-rule:evenodd;stroke:none"
         id="path761"
         inkscape:connector-curvature="0" /></g><g
       id="g763"
       transform="translate(199.47,543.754)"><path
         d="M 0,0 34.26,15.18 34.32,15 2.16,4.86 2.04,4.98 V 5.04 H 2.1 L 34.26,15.18 34.32,15 0.06,-0.18"
         style="fill:#231f20;fill-opacity:1;fill-rule:nonzero;stroke:none"
         id="path765"
         inkscape:connector-curvature="0" /></g><g
       id="g767"
       transform="translate(201.69,548.674)"><path
         d="m 0,0 -2.1,-5.04 -0.06,-0.06 -0.3,-0.12 0.18,0.24 2.1,5.04"
         style="fill:#231f20;fill-opacity:1;fill-rule:nonzero;stroke:none"
         id="path769"
         inkscape:connector-curvature="0" /></g><g
       id="g771"
       transform="translate(199.41,543.754)"><path
         d="M 0,0 37.2,-22.32 15.72,-1.8"
         style="fill:#ffffff;fill-opacity:1;fill-rule:evenodd;stroke:none"
         id="path773"
         inkscape:connector-curvature="0" /></g><g
       id="g775"
       transform="translate(199.47,543.814)"><path
         d="m 0,0 37.2,-22.32 -0.12,-0.12 -21.48,20.52 0.06,0.12 h 0.06 L 37.2,-22.32 37.08,-22.5 -0.12,-0.18"
         style="fill:#231f20;fill-opacity:1;fill-rule:nonzero;stroke:none"
         id="path777"
         inkscape:connector-curvature="0" /></g><g
       id="g779"
       transform="translate(215.13,541.834)"><path
         d="m 0,0 -15.72,1.8 0.06,0.18 -0.12,-0.18 0.06,0.18 L 0,0.18"
         style="fill:#231f20;fill-opacity:1;fill-rule:nonzero;stroke:none"
         id="path781"
         inkscape:connector-curvature="0" /></g><g
       id="g783"
       transform="translate(199.77,543.814)"><path
         d="m 0,0 -37.98,-25.38 26.82,22.2"
         style="fill:#231f20;fill-opacity:1;fill-rule:evenodd;stroke:none"
         id="path785"
         inkscape:connector-curvature="0" /></g><g
       id="g787"
       transform="translate(199.83,543.754)"><path
         d="m 0,0 -37.98,-25.38 -0.12,0.12 26.82,22.2 h 0.06 l 0.06,-0.12 -26.82,-22.2 -0.12,0.12 37.98,25.38"
         style="fill:#ffffff;fill-opacity:1;fill-rule:nonzero;stroke:none"
         id="path789"
         inkscape:connector-curvature="0" /></g><g
       id="g791"
       transform="translate(188.61,540.694)"><path
         d="M 0,0 11.16,3.18 11.22,3.06 11.1,3.18 11.22,3 0.06,-0.18"
         style="fill:#ffffff;fill-opacity:1;fill-rule:nonzero;stroke:none"
         id="path793"
         inkscape:connector-curvature="0" /></g><g
       id="g795"
       transform="translate(199.41,543.634)"><path
         d="M 0,0 -36.66,-24.48 0.06,-12.54"
         style="fill:#ffffff;fill-opacity:1;fill-rule:evenodd;stroke:none"
         id="path797"
         inkscape:connector-curvature="0" /></g><g
       id="g799"
       transform="translate(199.47,543.574)"><path
         d="m 0,0 -36.66,-24.48 -0.06,0.12 L 0,-12.42 0.12,-12.48 V -12.6 H 0.06 l -36.72,-11.94 -0.12,0.18 36.66,24.48"
         style="fill:#231f20;fill-opacity:1;fill-rule:nonzero;stroke:none"
         id="path801"
         inkscape:connector-curvature="0" /></g><g
       id="g803"
       transform="translate(199.41,531.094)"><path
         d="m 0,0 -0.06,12.54 v 0.06 l 0.18,0.12 V 12.54 L 0.18,0"
         style="fill:#231f20;fill-opacity:1;fill-rule:nonzero;stroke:none"
         id="path805"
         inkscape:connector-curvature="0" /></g><g
       id="g807"
       transform="translate(199.47,543.634)"><path
         d="M 0,0 V -12.48 L 37.8,-22.56"
         style="fill:#231f20;fill-opacity:1;fill-rule:evenodd;stroke:none"
         id="path809"
         inkscape:connector-curvature="0" /></g><g
       id="g811"
       transform="translate(199.59,543.634)"><path
         d="m 0,0 v -12.48 l -0.12,-0.12 0.06,0.18 37.8,-10.08 -0.12,-0.18 0.12,0.18 -0.06,-0.18 -37.8,10.08 H -0.18 V 0"
         style="fill:#ffffff;fill-opacity:1;fill-rule:nonzero;stroke:none"
         id="path813"
         inkscape:connector-curvature="0" /></g><g
       id="g815"
       transform="translate(237.21,520.954)"><path
         d="M 0,0 -37.8,22.56 V 22.8 L -37.68,22.74 0.12,0.18"
         style="fill:#ffffff;fill-opacity:1;fill-rule:nonzero;stroke:none"
         id="path817"
         inkscape:connector-curvature="0" /></g><g
       id="g819"
       transform="translate(197.37,542.614)"><path
         d="M 0,0 6.36,0.12 1.5,37.56"
         style="fill:#231f20;fill-opacity:1;fill-rule:evenodd;stroke:none"
         id="path821"
         inkscape:connector-curvature="0" /></g><g
       id="g823"
       transform="translate(197.37,542.674)"><path
         d="M 0,0 6.36,0.12 6.48,0.06 H 6.3 L 1.44,37.5 H 1.62 1.44 1.62 L 6.48,0.06 V -0.06 H 6.36 L 0,-0.18"
         style="fill:#ffffff;fill-opacity:1;fill-rule:nonzero;stroke:none"
         id="path825"
         inkscape:connector-curvature="0" /></g><g
       id="g827"
       transform="translate(198.99,580.174)"><path
         d="m 0,0 -1.5,-37.56 -0.12,-0.12 -0.06,0.12 1.5,37.56"
         style="fill:#ffffff;fill-opacity:1;fill-rule:nonzero;stroke:none"
         id="path829"
         inkscape:connector-curvature="0" /></g><text
       transform="matrix(1,0,0,-0.91056253,237.99,555.7551)"
       style="font-variant:normal;font-weight:normal;font-size:6.91879988px;font-family:Helvetica;-inkscape-font-specification:Helvetica;writing-mode:lr-tb;fill:#231f20;fill-opacity:1;fill-rule:nonzero;stroke:none"
       id="text837"><tspan
         x="0"
         y="0"
         id="tspan831">X</tspan><tspan
         x="-44.700291"
         y="-24.972717"
         id="tspan833">Z</tspan><tspan
         x="-73.74057"
         y="-3.557647"
         id="tspan835">Y</tspan></text>
</g></svg>