<?xml version="1.0" encoding="UTF-8" standalone="no"?>
<!DOCTYPE svg PUBLIC "-//W3C//DTD SVG 1.1//EN"
 "http://www.w3.org/Graphics/SVG/1.1/DTD/svg11.dtd">
<!-- Generated by graphviz version 2.40.1 (20161225.0304)
 -->
<!-- Title: %3 Pages: 1 -->
<svg width="212pt" height="239pt"
 viewBox="0.00 0.00 212.00 239.00" xmlns="http://www.w3.org/2000/svg" xmlns:xlink="http://www.w3.org/1999/xlink">
<g id="graph0" class="graph" transform="scale(1 1) rotate(0) translate(4 235)">
<title>%3</title>
<polygon fill="#ffffff" stroke="transparent" points="-4,4 -4,-235 208,-235 208,4 -4,4"/>
<!-- 0 -->
<g id="node1" class="node">
<title>0</title>
<polygon fill="none" stroke="#000000" points="149,-231 58,-231 58,-178 149,-178 149,-231"/>
<text text-anchor="middle" x="103.5" y="-215.8" font-family="monospace" font-size="14.00" fill="#000000">main</text>
<text text-anchor="middle" x="103.5" y="-200.8" font-family="monospace" font-size="14.00" fill="#000000">max = 32</text>
<text text-anchor="middle" x="103.5" y="-185.8" font-family="monospace" font-size="14.00" fill="#000000">local = 8</text>
</g>
<!-- 1 -->
<g id="node2" class="node">
<title>1</title>
<polygon fill="none" stroke="#000000" points="95,-142 4,-142 4,-89 95,-89 95,-142"/>
<text text-anchor="middle" x="49.5" y="-126.8" font-family="monospace" font-size="14.00" fill="#000000">app::baz</text>
<text text-anchor="middle" x="49.5" y="-111.8" font-family="monospace" font-size="14.00" fill="#000000">max = 24</text>
<text text-anchor="middle" x="49.5" y="-96.8" font-family="monospace" font-size="14.00" fill="#000000">local = 8</text>
</g>
<!-- 0&#45;&gt;1 -->
<g id="edge1" class="edge">
<title>0&#45;&gt;1</title>
<path fill="none" stroke="#000000" d="M87.2982,-177.7971C82.1723,-169.3487 76.4246,-159.8757 70.9883,-150.9159"/>
<polygon fill="#000000" stroke="#000000" points="73.87,-148.9179 65.6903,-142.1841 67.8854,-152.5491 73.87,-148.9179"/>
</g>
<!-- 2 -->
<g id="node3" class="node">
<title>2</title>
<polygon fill="none" stroke="#000000" points="204,-142 113,-142 113,-89 204,-89 204,-142"/>
<text text-anchor="middle" x="158.5" y="-126.8" font-family="monospace" font-size="14.00" fill="#000000">app::foo</text>
<text text-anchor="middle" x="158.5" y="-111.8" font-family="monospace" font-size="14.00" fill="#000000">max = 8</text>
<text text-anchor="middle" x="158.5" y="-96.8" font-family="monospace" font-size="14.00" fill="#000000">local = 8</text>
</g>
<!-- 0&#45;&gt;2 -->
<g id="edge2" class="edge">
<title>0&#45;&gt;2</title>
<path fill="none" stroke="#000000" d="M120.0018,-177.7971C125.2227,-169.3487 131.0768,-159.8757 136.6138,-150.9159"/>
<polygon fill="#000000" stroke="#000000" points="139.7302,-152.5308 142.0098,-142.1841 133.7755,-148.8509 139.7302,-152.5308"/>
</g>
<!-- 3 -->
<g id="node4" class="node">
<title>3</title>
<polygon fill="none" stroke="#000000" points="99,-53 0,-53 0,0 99,0 99,-53"/>
<text text-anchor="middle" x="49.5" y="-37.8" font-family="monospace" font-size="14.00" fill="#000000">app::bar</text>
<text text-anchor="middle" x="49.5" y="-22.8" font-family="monospace" font-size="14.00" fill="#000000">max = 16</text>
<text text-anchor="middle" x="49.5" y="-7.8" font-family="monospace" font-size="14.00" fill="#000000">local = 16</text>
</g>
<!-- 1&#45;&gt;3 -->
<g id="edge3" class="edge">
<title>1&#45;&gt;3</title>
<path fill="none" stroke="#000000" d="M49.5,-88.7971C49.5,-80.7887 49.5,-71.8597 49.5,-63.3198"/>
<polygon fill="#000000" stroke="#000000" points="53.0001,-63.1841 49.5,-53.1841 46.0001,-63.1841 53.0001,-63.1841"/>
</g>
</g>
</svg>
