<?xml version="1.0" encoding="UTF-8" standalone="no"?>
<!DOCTYPE svg PUBLIC "-//W3C//DTD SVG 1.1//EN"
 "http://www.w3.org/Graphics/SVG/1.1/DTD/svg11.dtd">
<!-- Generated by graphviz version 2.40.1 (20161225.0304)
 -->
<!-- Title: %3 Pages: 1 -->
<svg width="125pt" height="150pt"
 viewBox="0.00 0.00 125.00 150.00" xmlns="http://www.w3.org/2000/svg" xmlns:xlink="http://www.w3.org/1999/xlink">
<g id="graph0" class="graph" transform="scale(1 1) rotate(0) translate(4 146)">
<title>%3</title>
<polygon fill="#ffffff" stroke="transparent" points="-4,4 -4,-146 121,-146 121,4 -4,4"/>
<!-- 0 -->
<g id="node1" class="node">
<title>0</title>
<polygon fill="none" stroke="#000000" points="95,-142 4,-142 4,-89 95,-89 95,-142"/>
<text text-anchor="middle" x="49.5" y="-126.8" font-family="monospace" font-size="14.00" fill="#000000">main</text>
<text text-anchor="middle" x="49.5" y="-111.8" font-family="monospace" font-size="14.00" fill="#000000">max &gt;= 16</text>
<text text-anchor="middle" x="49.5" y="-96.8" font-family="monospace" font-size="14.00" fill="#000000">local = 0</text>
</g>
<!-- 1 -->
<g id="node2" class="node">
<title>1</title>
<polygon fill="none" stroke="#000000" points="99,-53 0,-53 0,0 99,0 99,-53"/>
<text text-anchor="middle" x="49.5" y="-37.8" font-family="monospace" font-size="14.00" fill="#000000">app::fib</text>
<text text-anchor="middle" x="49.5" y="-22.8" font-family="monospace" font-size="14.00" fill="#000000">max &gt;= 16</text>
<text text-anchor="middle" x="49.5" y="-7.8" font-family="monospace" font-size="14.00" fill="#000000">local = 16</text>
</g>
<!-- 0&#45;&gt;1 -->
<g id="edge1" class="edge">
<title>0&#45;&gt;1</title>
<path fill="none" stroke="#000000" d="M49.5,-88.7971C49.5,-80.7887 49.5,-71.8597 49.5,-63.3198"/>
<polygon fill="#000000" stroke="#000000" points="53.0001,-63.1841 49.5,-53.1841 46.0001,-63.1841 53.0001,-63.1841"/>
</g>
<!-- 1&#45;&gt;1 -->
<g id="edge2" class="edge">
<title>1&#45;&gt;1</title>
<path fill="none" stroke="#000000" d="M99.2454,-42.4199C109.5732,-40.7441 117,-35.4375 117,-26.5 117,-20.7744 113.9521,-16.5389 109.046,-13.7936"/>
<polygon fill="#000000" stroke="#000000" points="109.8382,-10.37 99.2454,-10.5801 107.6572,-17.0216 109.8382,-10.37"/>
</g>
</g>
</svg>
