<?xml version="1.0" encoding="UTF-8" standalone="no"?>
<!DOCTYPE svg PUBLIC "-//W3C//DTD SVG 1.1//EN"
 "http://www.w3.org/Graphics/SVG/1.1/DTD/svg11.dtd">
<!-- Generated by graphviz version 2.40.1 (20161225.0304)
 -->
<!-- Title: %3 Pages: 1 -->
<svg width="1091pt" height="684pt"
 viewBox="0.00 0.00 1090.50 684.00" xmlns="http://www.w3.org/2000/svg" xmlns:xlink="http://www.w3.org/1999/xlink">
<g id="graph0" class="graph" transform="scale(1 1) rotate(0) translate(4 680)">
<title>%3</title>
<polygon fill="#ffffff" stroke="transparent" points="-4,4 -4,-680 1086.5,-680 1086.5,4 -4,4"/>
<!-- 0 -->
<g id="node1" class="node">
<title>0</title>
<polygon fill="none" stroke="#000000" points="553.5,-676 454.5,-676 454.5,-623 553.5,-623 553.5,-676"/>
<text text-anchor="middle" x="504" y="-660.8" font-family="monospace" font-size="14.00" fill="#000000">main</text>
<text text-anchor="middle" x="504" y="-645.8" font-family="monospace" font-size="14.00" fill="#000000">max = 264</text>
<text text-anchor="middle" x="504" y="-630.8" font-family="monospace" font-size="14.00" fill="#000000">local = 40</text>
</g>
<!-- 1 -->
<g id="node2" class="node">
<title>1</title>
<polygon fill="none" stroke="#000000" points="578.5,-587 429.5,-587 429.5,-534 578.5,-534 578.5,-587"/>
<text text-anchor="middle" x="504" y="-571.8" font-family="monospace" font-size="14.00" fill="#000000">core::fmt::write</text>
<text text-anchor="middle" x="504" y="-556.8" font-family="monospace" font-size="14.00" fill="#000000">max = 224</text>
<text text-anchor="middle" x="504" y="-541.8" font-family="monospace" font-size="14.00" fill="#000000">local = 104</text>
</g>
<!-- 0&#45;&gt;1 -->
<g id="edge1" class="edge">
<title>0&#45;&gt;1</title>
<path fill="none" stroke="#000000" d="M504,-622.7971C504,-614.7887 504,-605.8597 504,-597.3198"/>
<polygon fill="#000000" stroke="#000000" points="507.5001,-597.1841 504,-587.1841 500.5001,-597.1841 507.5001,-597.1841"/>
</g>
<!-- 2 -->
<g id="node3" class="node">
<title>2</title>
<polygon fill="none" stroke="#000000" stroke-dasharray="5,2" points="276.5,-142 61.5,-142 61.5,-89 276.5,-89 276.5,-142"/>
<text text-anchor="middle" x="169" y="-126.8" font-family="monospace" font-size="14.00" fill="#000000">i1 ({}*, [0 x i8]*, i32)</text>
<text text-anchor="middle" x="169" y="-111.8" font-family="monospace" font-size="14.00" fill="#000000">max = 20</text>
<text text-anchor="middle" x="169" y="-96.8" font-family="monospace" font-size="14.00" fill="#000000">local = 0</text>
</g>
<!-- 1&#45;&gt;2 -->
<g id="edge2" class="edge">
<title>1&#45;&gt;2</title>
<path fill="none" stroke="#000000" d="M429.3211,-554.7238C338.2848,-546.4553 190.9967,-528.7434 146,-498 96.4383,-464.1377 76,-442.5251 76,-382.5 76,-382.5 76,-382.5 76,-293.5 76,-238.6262 111.1494,-183.9475 138.2301,-149.9636"/>
<polygon fill="#000000" stroke="#000000" points="140.9548,-152.1605 144.5653,-142.1998 135.5313,-147.7349 140.9548,-152.1605"/>
</g>
<!-- 3 -->
<g id="node4" class="node">
<title>3</title>
<polygon fill="none" stroke="#000000" stroke-dasharray="5,2" points="543,-498 155,-498 155,-445 543,-445 543,-498"/>
<text text-anchor="middle" x="349" y="-482.8" font-family="monospace" font-size="14.00" fill="#000000">i1 (%&quot;fmt::Void&quot;*, %&quot;core::fmt::Formatter&quot;*)*</text>
<text text-anchor="middle" x="349" y="-467.8" font-family="monospace" font-size="14.00" fill="#000000">max = 120</text>
<text text-anchor="middle" x="349" y="-452.8" font-family="monospace" font-size="14.00" fill="#000000">local = 0</text>
</g>
<!-- 1&#45;&gt;3 -->
<g id="edge3" class="edge">
<title>1&#45;&gt;3</title>
<path fill="none" stroke="#000000" d="M457.4949,-533.7971C440.7131,-524.1611 421.6098,-513.1921 404.159,-503.1719"/>
<polygon fill="#000000" stroke="#000000" points="405.6199,-499.9749 395.205,-498.0306 402.1343,-506.0454 405.6199,-499.9749"/>
</g>
<!-- 4 -->
<g id="node5" class="node">
<title>4</title>
<polygon fill="none" stroke="#000000" points="759,-498 561,-498 561,-445 759,-445 759,-498"/>
<text text-anchor="middle" x="660" y="-482.8" font-family="monospace" font-size="14.00" fill="#000000">core::panicking::panic</text>
<text text-anchor="middle" x="660" y="-467.8" font-family="monospace" font-size="14.00" fill="#000000">max = 0</text>
<text text-anchor="middle" x="660" y="-452.8" font-family="monospace" font-size="14.00" fill="#000000">local = 0</text>
</g>
<!-- 1&#45;&gt;4 -->
<g id="edge4" class="edge">
<title>1&#45;&gt;4</title>
<path fill="none" stroke="#000000" d="M550.8051,-533.7971C567.6952,-524.1611 586.9217,-513.1921 604.4851,-503.1719"/>
<polygon fill="#000000" stroke="#000000" points="606.5454,-506.0261 613.4969,-498.0306 603.0766,-499.946 606.5454,-506.0261"/>
</g>
<!-- 5 -->
<g id="node6" class="node">
<title>5</title>
<polygon fill="none" stroke="#000000" points="1082.5,-498 777.5,-498 777.5,-445 1082.5,-445 1082.5,-498"/>
<text text-anchor="middle" x="930" y="-482.8" font-family="monospace" font-size="14.00" fill="#000000">core::panicking::panic_bounds_check</text>
<text text-anchor="middle" x="930" y="-467.8" font-family="monospace" font-size="14.00" fill="#000000">max = 0</text>
<text text-anchor="middle" x="930" y="-452.8" font-family="monospace" font-size="14.00" fill="#000000">local = 0</text>
</g>
<!-- 1&#45;&gt;5 -->
<g id="edge5" class="edge">
<title>1&#45;&gt;5</title>
<path fill="none" stroke="#000000" d="M578.691,-544.8955C637.832,-532.5398 722.0358,-514.9479 793.1802,-500.0844"/>
<polygon fill="#000000" stroke="#000000" points="794.0555,-503.4772 803.1284,-498.006 792.6239,-496.6251 794.0555,-503.4772"/>
</g>
<!-- 14 -->
<g id="node15" class="node">
<title>14</title>
<polygon fill="none" stroke="#000000" points="338,-53 0,-53 0,0 338,0 338,-53"/>
<text text-anchor="middle" x="169" y="-37.8" font-family="monospace" font-size="14.00" fill="#000000">&lt;&amp;mut W as core::fmt::Write&gt;::write_str</text>
<text text-anchor="middle" x="169" y="-22.8" font-family="monospace" font-size="14.00" fill="#000000">max = 20</text>
<text text-anchor="middle" x="169" y="-7.8" font-family="monospace" font-size="14.00" fill="#000000">local = 20</text>
</g>
<!-- 2&#45;&gt;14 -->
<g id="edge20" class="edge">
<title>2&#45;&gt;14</title>
<path fill="none" stroke="#000000" d="M169,-88.7971C169,-80.7887 169,-71.8597 169,-63.3198"/>
<polygon fill="#000000" stroke="#000000" points="172.5001,-63.1841 169,-53.1841 165.5001,-63.1841 172.5001,-63.1841"/>
</g>
<!-- 8 -->
<g id="node9" class="node">
<title>8</title>
<polygon fill="none" stroke="#000000" points="493.5,-409 204.5,-409 204.5,-356 493.5,-356 493.5,-409"/>
<text text-anchor="middle" x="349" y="-393.8" font-family="monospace" font-size="14.00" fill="#000000">core::fmt::ArgumentV1::show_usize</text>
<text text-anchor="middle" x="349" y="-378.8" font-family="monospace" font-size="14.00" fill="#000000">max = 120</text>
<text text-anchor="middle" x="349" y="-363.8" font-family="monospace" font-size="14.00" fill="#000000">local = 0</text>
</g>
<!-- 3&#45;&gt;8 -->
<g id="edge9" class="edge">
<title>3&#45;&gt;8</title>
<path fill="none" stroke="#000000" d="M349,-444.7971C349,-436.7887 349,-427.8597 349,-419.3198"/>
<polygon fill="#000000" stroke="#000000" points="352.5001,-419.1841 349,-409.1841 345.5001,-419.1841 352.5001,-419.1841"/>
</g>
<!-- 9 -->
<g id="node10" class="node">
<title>9</title>
<polygon fill="none" stroke="#000000" points="900.5,-231 611.5,-231 611.5,-178 900.5,-178 900.5,-231"/>
<text text-anchor="middle" x="756" y="-215.8" font-family="monospace" font-size="14.00" fill="#000000">&lt;bool as core::fmt::Display&gt;::fmt</text>
<text text-anchor="middle" x="756" y="-200.8" font-family="monospace" font-size="14.00" fill="#000000">max = 72</text>
<text text-anchor="middle" x="756" y="-185.8" font-family="monospace" font-size="14.00" fill="#000000">local = 48</text>
</g>
<!-- 3&#45;&gt;9 -->
<g id="edge10" class="edge">
<title>3&#45;&gt;9</title>
<path fill="none" stroke="#000000" d="M426.5681,-444.8628C451.3971,-435.0234 478.5202,-422.8467 502,-409 587.227,-358.7393 674.4687,-281.7918 721.252,-238.0209"/>
<polygon fill="#000000" stroke="#000000" points="723.7977,-240.4314 728.6818,-231.0294 719.0006,-235.3335 723.7977,-240.4314"/>
</g>
<!-- 6 -->
<g id="node7" class="node">
<title>6</title>
<polygon fill="none" stroke="#000000" points="971.5,-409 740.5,-409 740.5,-356 971.5,-356 971.5,-409"/>
<text text-anchor="middle" x="856" y="-393.8" font-family="monospace" font-size="14.00" fill="#000000">core::panicking::panic_fmt</text>
<text text-anchor="middle" x="856" y="-378.8" font-family="monospace" font-size="14.00" fill="#000000">max = 0</text>
<text text-anchor="middle" x="856" y="-363.8" font-family="monospace" font-size="14.00" fill="#000000">local = 0</text>
</g>
<!-- 4&#45;&gt;6 -->
<g id="edge8" class="edge">
<title>4&#45;&gt;6</title>
<path fill="none" stroke="#000000" d="M718.541,-444.9176C740.4514,-434.9685 765.521,-423.5849 788.1992,-413.2871"/>
<polygon fill="#000000" stroke="#000000" points="789.7641,-416.4205 797.4222,-409.0991 786.8699,-410.0468 789.7641,-416.4205"/>
</g>
<!-- 5&#45;&gt;6 -->
<g id="edge6" class="edge">
<title>5&#45;&gt;6</title>
<path fill="none" stroke="#000000" d="M907.7976,-444.7971C900.5536,-436.0847 892.4036,-426.2826 884.7498,-417.0775"/>
<polygon fill="#000000" stroke="#000000" points="887.2714,-414.6357 878.1868,-409.1841 881.8889,-419.1111 887.2714,-414.6357"/>
</g>
<!-- 7 -->
<g id="node8" class="node">
<title>7</title>
<polygon fill="none" stroke="#000000" points="934.5,-320 777.5,-320 777.5,-267 934.5,-267 934.5,-320"/>
<text text-anchor="middle" x="856" y="-304.8" font-family="monospace" font-size="14.00" fill="#000000">rust_begin_unwind</text>
<text text-anchor="middle" x="856" y="-289.8" font-family="monospace" font-size="14.00" fill="#000000">max = 0</text>
<text text-anchor="middle" x="856" y="-274.8" font-family="monospace" font-size="14.00" fill="#000000">local = 0</text>
</g>
<!-- 6&#45;&gt;7 -->
<g id="edge7" class="edge">
<title>6&#45;&gt;7</title>
<path fill="none" stroke="#000000" d="M856,-355.7971C856,-347.7887 856,-338.8597 856,-330.3198"/>
<polygon fill="#000000" stroke="#000000" points="859.5001,-330.1841 856,-320.1841 852.5001,-330.1841 859.5001,-330.1841"/>
</g>
<!-- 12 -->
<g id="node13" class="node">
<title>12</title>
<polygon fill="none" stroke="#000000" points="473,-320 225,-320 225,-267 473,-267 473,-320"/>
<text text-anchor="middle" x="349" y="-304.8" font-family="monospace" font-size="14.00" fill="#000000">core::fmt::num::imp::fmt_u32</text>
<text text-anchor="middle" x="349" y="-289.8" font-family="monospace" font-size="14.00" fill="#000000">max = 120</text>
<text text-anchor="middle" x="349" y="-274.8" font-family="monospace" font-size="14.00" fill="#000000">local = 80</text>
</g>
<!-- 8&#45;&gt;12 -->
<g id="edge14" class="edge">
<title>8&#45;&gt;12</title>
<path fill="none" stroke="#000000" d="M349,-355.7971C349,-347.7887 349,-338.8597 349,-330.3198"/>
<polygon fill="#000000" stroke="#000000" points="352.5001,-330.1841 349,-320.1841 345.5001,-330.1841 352.5001,-330.1841"/>
</g>
<!-- 9&#45;&gt;2 -->
<g id="edge12" class="edge">
<title>9&#45;&gt;2</title>
<path fill="none" stroke="#000000" d="M611.2755,-182.5571C511.3726,-167.41 380.2046,-147.5225 286.7143,-133.3477"/>
<polygon fill="#000000" stroke="#000000" points="287.0599,-129.8601 276.6482,-131.8214 286.0105,-136.781 287.0599,-129.8601"/>
</g>
<!-- 10 -->
<g id="node11" class="node">
<title>10</title>
<polygon fill="none" stroke="#000000" stroke-dasharray="5,2" points="646,-142 522,-142 522,-89 646,-89 646,-142"/>
<text text-anchor="middle" x="584" y="-126.8" font-family="monospace" font-size="14.00" fill="#000000">i1 ({}*, i32)</text>
<text text-anchor="middle" x="584" y="-111.8" font-family="monospace" font-size="14.00" fill="#000000">max = 24</text>
<text text-anchor="middle" x="584" y="-96.8" font-family="monospace" font-size="14.00" fill="#000000">local = 0</text>
</g>
<!-- 9&#45;&gt;10 -->
<g id="edge11" class="edge">
<title>9&#45;&gt;10</title>
<path fill="none" stroke="#000000" d="M704.3943,-177.7971C685.5157,-168.0285 663.9895,-156.8899 644.4103,-146.7588"/>
<polygon fill="#000000" stroke="#000000" points="645.7626,-143.5178 635.2727,-142.0306 642.5456,-149.7348 645.7626,-143.5178"/>
</g>
<!-- 11 -->
<g id="node12" class="node">
<title>11</title>
<polygon fill="none" stroke="#000000" points="757.5,-53 410.5,-53 410.5,0 757.5,0 757.5,-53"/>
<text text-anchor="middle" x="584" y="-37.8" font-family="monospace" font-size="14.00" fill="#000000">&lt;&amp;mut W as core::fmt::Write&gt;::write_char</text>
<text text-anchor="middle" x="584" y="-22.8" font-family="monospace" font-size="14.00" fill="#000000">max = 24</text>
<text text-anchor="middle" x="584" y="-7.8" font-family="monospace" font-size="14.00" fill="#000000">local = 24</text>
</g>
<!-- 10&#45;&gt;11 -->
<g id="edge13" class="edge">
<title>10&#45;&gt;11</title>
<path fill="none" stroke="#000000" d="M584,-88.7971C584,-80.7887 584,-71.8597 584,-63.3198"/>
<polygon fill="#000000" stroke="#000000" points="587.5001,-63.1841 584,-53.1841 580.5001,-63.1841 587.5001,-63.1841"/>
</g>
<!-- 12&#45;&gt;2 -->
<g id="edge16" class="edge">
<title>12&#45;&gt;2</title>
<path fill="none" stroke="#000000" d="M224.763,-270.9447C183.6812,-260.7769 145.2852,-247.3439 133,-231 115.3536,-207.5237 127.7245,-175.235 142.5861,-150.7645"/>
<polygon fill="#000000" stroke="#000000" points="145.6693,-152.4404 148.1231,-142.1336 139.7775,-148.6606 145.6693,-152.4404"/>
</g>
<!-- 12&#45;&gt;10 -->
<g id="edge15" class="edge">
<title>12&#45;&gt;10</title>
<path fill="none" stroke="#000000" d="M473.0023,-269.2756C513.0623,-259.017 550.6225,-245.9581 564,-231 582.874,-209.8961 587.1405,-177.6179 587.1023,-152.5439"/>
<polygon fill="#000000" stroke="#000000" points="590.5951,-152.2042 586.8523,-142.2925 583.5972,-152.3749 590.5951,-152.2042"/>
</g>
<!-- 13 -->
<g id="node14" class="node">
<title>13</title>
<polygon fill="none" stroke="#000000" points="555.5,-231 142.5,-231 142.5,-178 555.5,-178 555.5,-231"/>
<text text-anchor="middle" x="349" y="-215.8" font-family="monospace" font-size="14.00" fill="#000000">core::fmt::Formatter::pad_integral::write_prefix</text>
<text text-anchor="middle" x="349" y="-200.8" font-family="monospace" font-size="14.00" fill="#000000">max = 40</text>
<text text-anchor="middle" x="349" y="-185.8" font-family="monospace" font-size="14.00" fill="#000000">local = 16</text>
</g>
<!-- 12&#45;&gt;13 -->
<g id="edge17" class="edge">
<title>12&#45;&gt;13</title>
<path fill="none" stroke="#000000" d="M349,-266.7971C349,-258.7887 349,-249.8597 349,-241.3198"/>
<polygon fill="#000000" stroke="#000000" points="352.5001,-241.1841 349,-231.1841 345.5001,-241.1841 352.5001,-241.1841"/>
</g>
<!-- 13&#45;&gt;2 -->
<g id="edge19" class="edge">
<title>13&#45;&gt;2</title>
<path fill="none" stroke="#000000" d="M294.9941,-177.7971C275.0585,-167.94 252.302,-156.6882 231.6643,-146.484"/>
<polygon fill="#000000" stroke="#000000" points="233.1729,-143.3255 222.6574,-142.0306 230.0702,-149.6004 233.1729,-143.3255"/>
</g>
<!-- 13&#45;&gt;10 -->
<g id="edge18" class="edge">
<title>13&#45;&gt;10</title>
<path fill="none" stroke="#000000" d="M419.1894,-177.9176C448.6009,-166.7788 482.7601,-153.8419 512.3281,-142.6438"/>
<polygon fill="#000000" stroke="#000000" points="513.6428,-145.8886 521.755,-139.0736 511.1635,-139.3423 513.6428,-145.8886"/>
</g>
</g>
</svg>
