<?xml version="1.0" encoding="UTF-8" standalone="no"?>
<!DOCTYPE svg PUBLIC "-//W3C//DTD SVG 1.1//EN"
 "http://www.w3.org/Graphics/SVG/1.1/DTD/svg11.dtd">
<!-- Generated by graphviz version 2.40.1 (20161225.0304)
 -->
<!-- Title: %3 Pages: 1 -->
<svg width="278pt" height="239pt"
 viewBox="0.00 0.00 278.00 239.00" xmlns="http://www.w3.org/2000/svg" xmlns:xlink="http://www.w3.org/1999/xlink">
<g id="graph0" class="graph" transform="scale(1 1) rotate(0) translate(4 235)">
<title>%3</title>
<polygon fill="#ffffff" stroke="transparent" points="-4,4 -4,-235 274,-235 274,4 -4,4"/>
<!-- 0 -->
<g id="node1" class="node">
<title>0</title>
<polygon fill="none" stroke="#000000" points="205,-231 114,-231 114,-178 205,-178 205,-231"/>
<text text-anchor="middle" x="159.5" y="-215.8" font-family="monospace" font-size="14.00" fill="#000000">main</text>
<text text-anchor="middle" x="159.5" y="-200.8" font-family="monospace" font-size="14.00" fill="#000000">max = 24</text>
<text text-anchor="middle" x="159.5" y="-185.8" font-family="monospace" font-size="14.00" fill="#000000">local = 8</text>
</g>
<!-- 1 -->
<g id="node2" class="node">
<title>1</title>
<polygon fill="none" stroke="#000000" stroke-dasharray="5,2" points="153,-142 46,-142 46,-89 153,-89 153,-142"/>
<text text-anchor="middle" x="99.5" y="-126.8" font-family="monospace" font-size="14.00" fill="#000000">fn() &#45;&gt; u32</text>
<text text-anchor="middle" x="99.5" y="-111.8" font-family="monospace" font-size="14.00" fill="#000000">max = 16</text>
<text text-anchor="middle" x="99.5" y="-96.8" font-family="monospace" font-size="14.00" fill="#000000">local = 0</text>
</g>
<!-- 0&#45;&gt;1 -->
<g id="edge1" class="edge">
<title>0&#45;&gt;1</title>
<path fill="none" stroke="#000000" d="M141.498,-177.7971C135.7432,-169.2607 129.2831,-159.6782 123.1872,-150.6361"/>
<polygon fill="#000000" stroke="#000000" points="125.9814,-148.5193 117.4893,-142.1841 120.1771,-152.4323 125.9814,-148.5193"/>
</g>
<!-- 2 -->
<g id="node3" class="node">
<title>2</title>
<polygon fill="none" stroke="#000000" points="270,-142 171,-142 171,-89 270,-89 270,-142"/>
<text text-anchor="middle" x="220.5" y="-126.8" font-family="monospace" font-size="14.00" fill="#000000">app::baz</text>
<text text-anchor="middle" x="220.5" y="-111.8" font-family="monospace" font-size="14.00" fill="#000000">max = 16</text>
<text text-anchor="middle" x="220.5" y="-96.8" font-family="monospace" font-size="14.00" fill="#000000">local = 16</text>
</g>
<!-- 0&#45;&gt;2 -->
<g id="edge2" class="edge">
<title>0&#45;&gt;2</title>
<path fill="none" stroke="#000000" d="M177.802,-177.7971C183.6528,-169.2607 190.2205,-159.6782 196.418,-150.6361"/>
<polygon fill="#000000" stroke="#000000" points="199.4444,-152.4114 202.2109,-142.1841 193.6704,-148.4539 199.4444,-152.4114"/>
</g>
<!-- 3 -->
<g id="node4" class="node">
<title>3</title>
<polygon fill="none" stroke="#000000" points="91,-53 0,-53 0,0 91,0 91,-53"/>
<text text-anchor="middle" x="45.5" y="-37.8" font-family="monospace" font-size="14.00" fill="#000000">app::foo</text>
<text text-anchor="middle" x="45.5" y="-22.8" font-family="monospace" font-size="14.00" fill="#000000">max = 0</text>
<text text-anchor="middle" x="45.5" y="-7.8" font-family="monospace" font-size="14.00" fill="#000000">local = 0</text>
</g>
<!-- 1&#45;&gt;3 -->
<g id="edge3" class="edge">
<title>1&#45;&gt;3</title>
<path fill="none" stroke="#000000" d="M83.2982,-88.7971C78.1723,-80.3487 72.4246,-70.8757 66.9883,-61.9159"/>
<polygon fill="#000000" stroke="#000000" points="69.87,-59.9179 61.6903,-53.1841 63.8854,-63.5491 69.87,-59.9179"/>
</g>
<!-- 4 -->
<g id="node5" class="node">
<title>4</title>
<polygon fill="none" stroke="#000000" points="200,-53 109,-53 109,0 200,0 200,-53"/>
<text text-anchor="middle" x="154.5" y="-37.8" font-family="monospace" font-size="14.00" fill="#000000">app::bar</text>
<text text-anchor="middle" x="154.5" y="-22.8" font-family="monospace" font-size="14.00" fill="#000000">max = 8</text>
<text text-anchor="middle" x="154.5" y="-7.8" font-family="monospace" font-size="14.00" fill="#000000">local = 8</text>
</g>
<!-- 1&#45;&gt;4 -->
<g id="edge4" class="edge">
<title>1&#45;&gt;4</title>
<path fill="none" stroke="#000000" d="M116.0018,-88.7971C121.2227,-80.3487 127.0768,-70.8757 132.6138,-61.9159"/>
<polygon fill="#000000" stroke="#000000" points="135.7302,-63.5308 138.0098,-53.1841 129.7755,-59.8509 135.7302,-63.5308"/>
</g>
</g>
</svg>
