<?xml version="1.0" encoding="UTF-8" standalone="no"?>
<!DOCTYPE svg PUBLIC "-//W3C//DTD SVG 1.1//EN"
 "http://www.w3.org/Graphics/SVG/1.1/DTD/svg11.dtd">
<!-- Generated by graphviz version 2.40.1 (20161225.0304)
 -->
<!-- Title: %3 Pages: 1 -->
<svg width="490pt" height="328pt"
 viewBox="0.00 0.00 490.00 328.00" xmlns="http://www.w3.org/2000/svg" xmlns:xlink="http://www.w3.org/1999/xlink">
<g id="graph0" class="graph" transform="scale(1 1) rotate(0) translate(4 324)">
<title>%3</title>
<polygon fill="#ffffff" stroke="transparent" points="-4,4 -4,-324 486,-324 486,4 -4,4"/>
<!-- 0 -->
<g id="node1" class="node">
<title>0</title>
<polygon fill="none" stroke="#000000" points="303.5,-320 212.5,-320 212.5,-267 303.5,-267 303.5,-320"/>
<text text-anchor="middle" x="258" y="-304.8" font-family="monospace" font-size="14.00" fill="#000000">main</text>
<text text-anchor="middle" x="258" y="-289.8" font-family="monospace" font-size="14.00" fill="#000000">max = 16</text>
<text text-anchor="middle" x="258" y="-274.8" font-family="monospace" font-size="14.00" fill="#000000">local = 0</text>
</g>
<!-- 1 -->
<g id="node2" class="node">
<title>1</title>
<polygon fill="none" stroke="#000000" stroke-dasharray="5,2" points="207.5,-231 116.5,-231 116.5,-178 207.5,-178 207.5,-231"/>
<text text-anchor="middle" x="162" y="-215.8" font-family="monospace" font-size="14.00" fill="#000000">i1 ({}*)</text>
<text text-anchor="middle" x="162" y="-200.8" font-family="monospace" font-size="14.00" fill="#000000">max = 16</text>
<text text-anchor="middle" x="162" y="-185.8" font-family="monospace" font-size="14.00" fill="#000000">local = 0</text>
</g>
<!-- 0&#45;&gt;1 -->
<g id="edge1" class="edge">
<title>0&#45;&gt;1</title>
<path fill="none" stroke="#000000" d="M229.1968,-266.7971C219.5144,-257.8207 208.5844,-247.6876 198.3962,-238.2423"/>
<polygon fill="#000000" stroke="#000000" points="200.4958,-235.4161 190.7828,-231.1841 195.7367,-240.5495 200.4958,-235.4161"/>
</g>
<!-- 2 -->
<g id="node3" class="node">
<title>2</title>
<polygon fill="none" stroke="#000000" points="482,-231 226,-231 226,-178 482,-178 482,-231"/>
<text text-anchor="middle" x="354" y="-215.8" font-family="monospace" font-size="14.00" fill="#000000">&lt;spin::mutex::Mutex&lt;T&gt;&gt;::lock</text>
<text text-anchor="middle" x="354" y="-200.8" font-family="monospace" font-size="14.00" fill="#000000">max = 0</text>
<text text-anchor="middle" x="354" y="-185.8" font-family="monospace" font-size="14.00" fill="#000000">local = 0</text>
</g>
<!-- 0&#45;&gt;2 -->
<g id="edge2" class="edge">
<title>0&#45;&gt;2</title>
<path fill="none" stroke="#000000" d="M286.8032,-266.7971C296.4856,-257.8207 307.4156,-247.6876 317.6038,-238.2423"/>
<polygon fill="#000000" stroke="#000000" points="320.2633,-240.5495 325.2172,-231.1841 315.5042,-235.4161 320.2633,-240.5495"/>
</g>
<!-- 3 -->
<g id="node4" class="node">
<title>3</title>
<polygon fill="none" stroke="#000000" points="124,-142 0,-142 0,-89 124,-89 124,-142"/>
<text text-anchor="middle" x="62" y="-126.8" font-family="monospace" font-size="14.00" fill="#000000">app::Foo::foo</text>
<text text-anchor="middle" x="62" y="-111.8" font-family="monospace" font-size="14.00" fill="#000000">max = 16</text>
<text text-anchor="middle" x="62" y="-96.8" font-family="monospace" font-size="14.00" fill="#000000">local = 16</text>
</g>
<!-- 1&#45;&gt;3 -->
<g id="edge3" class="edge">
<title>1&#45;&gt;3</title>
<path fill="none" stroke="#000000" d="M131.9967,-177.7971C121.812,-168.7327 110.302,-158.4888 99.6008,-148.9647"/>
<polygon fill="#000000" stroke="#000000" points="101.779,-146.2179 91.9821,-142.1841 97.1252,-151.4469 101.779,-146.2179"/>
</g>
<!-- 4 -->
<g id="node5" class="node">
<title>4</title>
<polygon fill="none" stroke="#000000" points="381.5,-142 142.5,-142 142.5,-89 381.5,-89 381.5,-142"/>
<text text-anchor="middle" x="262" y="-126.8" font-family="monospace" font-size="14.00" fill="#000000">&lt;app::Baz as app::Foo&gt;::foo</text>
<text text-anchor="middle" x="262" y="-111.8" font-family="monospace" font-size="14.00" fill="#000000">max = 8</text>
<text text-anchor="middle" x="262" y="-96.8" font-family="monospace" font-size="14.00" fill="#000000">local = 8</text>
</g>
<!-- 1&#45;&gt;4 -->
<g id="edge4" class="edge">
<title>1&#45;&gt;4</title>
<path fill="none" stroke="#000000" d="M192.0033,-177.7971C202.188,-168.7327 213.698,-158.4888 224.3992,-148.9647"/>
<polygon fill="#000000" stroke="#000000" points="226.8748,-151.4469 232.0179,-142.1841 222.221,-146.2179 226.8748,-151.4469"/>
</g>
<!-- 5 -->
<g id="node6" class="node">
<title>5</title>
<polygon fill="none" stroke="#000000" points="107.5,-53 16.5,-53 16.5,0 107.5,0 107.5,-53"/>
<text text-anchor="middle" x="62" y="-37.8" font-family="monospace" font-size="14.00" fill="#000000">app::foo</text>
<text text-anchor="middle" x="62" y="-22.8" font-family="monospace" font-size="14.00" fill="#000000">max = 0</text>
<text text-anchor="middle" x="62" y="-7.8" font-family="monospace" font-size="14.00" fill="#000000">local = 0</text>
</g>
<!-- 3&#45;&gt;5 -->
<g id="edge5" class="edge">
<title>3&#45;&gt;5</title>
<path fill="none" stroke="#000000" d="M62,-88.7971C62,-80.7887 62,-71.8597 62,-63.3198"/>
<polygon fill="#000000" stroke="#000000" points="65.5001,-63.1841 62,-53.1841 58.5001,-63.1841 65.5001,-63.1841"/>
</g>
</g>
</svg>
