<?xml version="1.0" encoding="UTF-8"?>
<svg width="1606px" height="480px" viewBox="0 0 1606 480" version="1.1" xmlns="http://www.w3.org/2000/svg" xmlns:xlink="http://www.w3.org/1999/xlink">
    <!-- Generator: Sketch 53 (72520) - https://sketchapp.com -->
    <title>Memfault - Logotype on Transparent</title>
    <desc>Created with Sketch.</desc>
    <g id="Logotype-on-Transparent" stroke="none" stroke-width="1" fill="none" fill-rule="evenodd">
        <g id="Group-4" transform="translate(90.000000, 90.000000)">
            <path d="M300,150 C300,67.158 232.842,2.84217094e-14 150,2.84217094e-14 C67.158,2.84217094e-14 -1.70530257e-13,67.158 -1.70530257e-13,150 C-1.70530257e-13,232.842 67.158,300 150,300 C232.842,300 300,232.842 300,150" id="Fill-1" fill="#141845"></path>
            <polygon id="Fill-3" fill="#FFFFFF" points="72.0585 135 98.0385 150 201.9615 150 227.9415 135 196.2855 95.742 141.1185 76.869"></polygon>
            <polygon id="Fill-5" fill="#B0E6EB" points="72.0585 135 98.0385 150 201.9615 150 227.9415 135 196.2885 95.742 141.1185 76.869"></polygon>
            <path d="M240.9318,127.5 L227.9418,135 L162.9918,97.5 C155.8188,93.36 144.1788,93.36 137.0088,97.5 L72.0588,135 L59.0688,127.5 C51.8958,123.36 51.8958,116.64 59.0688,112.5 L137.0088,67.5 C144.1788,63.36 155.8188,63.36 162.9918,67.5 L240.9318,112.5 C248.1048,116.64 248.1048,123.36 240.9318,127.5" id="Fill-7" fill="#39C0CE"></path>
            <path d="M162.9903,127.5 L201.9603,150 L162.9903,172.5 C155.8173,176.64 144.1803,176.64 137.0103,172.5 L98.0403,150 L137.0103,127.5 C144.1773,123.36 155.8173,123.36 162.9903,127.5" id="Fill-9" fill="#FFFFFF"></path>
            <path d="M240.9318,187.5 L162.9918,232.5 C155.8218,236.64 144.1818,236.64 137.0088,232.5 L59.0688,187.5 C51.8958,183.36 51.8958,176.64 59.0688,172.5 L72.0588,165 L137.0088,202.5 C144.1818,206.64 155.8188,206.64 162.9918,202.5 L227.9418,165 L240.9318,172.5 C248.1048,176.64 248.1048,183.36 240.9318,187.5" id="Fill-11" fill="#39C0CE"></path>
        </g>
        <path d="M608.458631,161.11316 L635.397096,161.11316 L635.397096,318.068679 L604.89652,318.068679 L604.89652,225.008527 L568.830145,292.243374 L546.566951,292.243374 L510.500576,225.899055 L510.500576,318.068679 L480,318.068679 L480,161.11316 L507.383729,161.11316 L557.92118,257.067527 L608.458631,161.11316 Z M762.742567,269.757548 L691.500346,269.757548 C692.5393,278.514448 695.396381,284.859395 700.071676,288.792579 C704.74697,292.725763 711.388756,294.692325 719.997234,294.692325 C725.637272,294.692325 731.24012,293.764702 736.805946,291.909426 C742.371772,290.054151 747.455151,287.419699 752.056234,284.005992 L760.961512,306.491818 C755.618319,310.647635 749.124952,313.912871 741.481217,316.287624 C733.837482,318.662376 726.156757,319.849735 718.438811,319.849735 C700.034478,319.849735 685.526442,314.766356 674.914266,304.599447 C664.30209,294.432537 658.996082,280.59239 658.996082,263.07859 C658.996082,251.946937 661.296589,242.077019 665.897672,233.468541 C670.498755,224.860063 676.880807,218.144067 685.044019,213.32035 C693.207231,208.496634 702.48347,206.084812 712.873012,206.084812 C728.160482,206.084812 740.293802,211.056876 749.273335,221.001152 C758.252868,230.945429 762.742567,244.451632 762.742567,261.520166 L762.742567,269.757548 Z M713.76354,229.238534 C707.381392,229.238534 702.298014,231.279307 698.513252,235.360913 C694.72849,239.442519 692.390878,245.342206 691.500346,253.060152 L734.468311,253.060152 C734.023045,245.193784 732.056482,239.256992 728.568564,235.249597 C725.080646,231.242202 720.145688,229.238534 713.76354,229.238534 Z M917.6944,206.084812 C930.161851,206.084812 939.438089,209.869517 945.523392,217.439041 C951.608696,225.008565 954.651302,236.58531 954.651302,252.169624 L954.651302,318.068679 L921.033879,318.068679 L921.033879,253.282784 C921.033879,245.861682 919.883625,240.518569 917.583084,237.253284 C915.282542,233.987999 911.386522,232.355381 905.894907,232.355381 C899.512759,232.355381 894.540695,234.581679 890.978566,239.03434 C887.416438,243.487001 885.6354,249.720633 885.6354,257.735423 L885.6354,318.068679 L852.017976,318.068679 L852.017976,253.282784 C852.017976,245.861682 850.867723,240.518569 848.567181,237.253284 C846.26664,233.987999 842.37062,232.355381 836.879004,232.355381 C830.496857,232.355381 825.524793,234.581679 821.962664,239.03434 C818.400535,243.487001 816.619498,249.720633 816.619498,257.735423 L816.619498,318.068679 L783.002074,318.068679 L783.002074,208.756395 L815.72897,208.756395 L815.72897,223.450104 C819.142677,217.810066 823.706586,213.505892 829.420834,210.537451 C835.135083,207.56901 841.702659,206.084812 849.123761,206.084812 C865.301763,206.084812 876.13641,212.837914 881.628025,226.344319 C885.190154,220.110593 890.162217,215.175635 896.544365,211.539295 C902.926513,207.902955 909.976454,206.084812 917.6944,206.084812 Z M1022.33141,208.756395 L1049.71514,208.756395 L1049.71514,233.913805 L1022.33141,233.913805 L1022.33141,318.068679 L988.713989,318.068679 L988.713989,233.913805 L968.009219,233.913805 L968.009219,208.756395 L988.713989,208.756395 C989.010833,193.320504 993.500533,181.706653 1002.18322,173.914496 C1010.86591,166.122339 1024.11238,161.70685 1041.92302,160.667896 L1054.16778,160 L1056.17147,184.712146 L1045.70777,185.15741 C1037.09929,185.454254 1031.05118,187.049767 1027.56326,189.943996 C1024.07535,192.838226 1022.33141,197.624765 1022.33141,204.303757 L1022.33141,208.756395 Z M1111.16156,206.084812 C1127.48798,206.084812 1139.54709,209.943727 1147.33925,217.661673 C1155.13141,225.379619 1159.02743,237.327414 1159.02743,253.505416 L1159.02743,318.068679 L1127.19106,318.068679 L1127.19106,301.816548 C1124.96473,307.456585 1121.25423,311.872074 1116.05946,315.063148 C1110.86469,318.254222 1104.77948,319.849735 1097.80364,319.849735 C1090.38254,319.849735 1083.66654,318.365537 1077.65545,315.397096 C1071.64436,312.428655 1066.89492,308.272901 1063.40701,302.929707 C1059.91909,297.586514 1058.17516,291.649722 1058.17516,285.119152 C1058.17516,277.104362 1060.21593,270.79652 1064.29753,266.195437 C1068.37914,261.594354 1074.94672,258.254908 1084.00046,256.176999 C1093.05421,254.099091 1105.44726,253.060152 1121.18,253.060152 L1126.96843,253.060152 L1126.96843,249.052777 C1126.96843,242.522207 1125.55844,237.921193 1122.73842,235.249597 C1119.9184,232.578 1115.02055,231.242222 1108.04471,231.242222 C1102.70152,231.242222 1096.76472,232.20695 1090.23416,234.136437 C1083.70359,236.065923 1077.46995,238.73748 1071.53307,242.151187 L1062.62779,219.665361 C1068.86152,215.806388 1076.54225,212.578257 1085.6702,209.980871 C1094.79816,207.383486 1103.29519,206.084812 1111.16156,206.084812 Z M1105.1505,296.696013 C1111.68107,296.696013 1116.94997,294.506821 1120.95736,290.128371 C1124.96476,285.74992 1126.96843,280.072863 1126.96843,273.097027 L1126.96843,269.312284 L1123.18368,269.312284 C1111.1615,269.312284 1102.73867,270.277013 1097.91496,272.206499 C1093.09124,274.135986 1090.67942,277.623851 1090.67942,282.670201 C1090.67942,286.677596 1092.0523,290.017041 1094.79811,292.688638 C1097.54392,295.360235 1100.99468,296.696013 1105.1505,296.696013 Z M1289.48974,208.756395 L1289.48974,318.068679 L1256.76285,318.068679 L1256.76285,302.484443 C1253.34914,308.124481 1248.85944,312.428655 1243.29362,315.397096 C1237.72779,318.365537 1231.45705,319.849735 1224.48122,319.849735 C1210.67797,319.849735 1200.3999,316.027925 1193.64669,308.38419 C1186.89349,300.740455 1183.51694,289.200815 1183.51694,273.764923 L1183.51694,208.756395 L1217.13436,208.756395 L1217.13436,274.432819 C1217.13436,280.963388 1218.50725,285.787032 1221.25305,288.903895 C1223.99886,292.020758 1228.19172,293.579166 1233.83176,293.579166 C1240.36233,293.579166 1245.66834,291.352869 1249.74994,286.900207 C1253.83155,282.447546 1255.87232,276.584964 1255.87232,269.312284 L1255.87232,208.756395 L1289.48974,208.756395 Z M1315.31505,318.068679 L1315.31505,161.11316 L1348.93247,161.11316 L1348.93247,318.068679 L1315.31505,318.068679 Z M1435.31367,295.137589 C1438.72737,295.137589 1442.28945,294.91496 1446,294.469693 L1444.21894,318.959207 C1439.91471,319.552895 1435.61053,319.849735 1431.30629,319.849735 C1414.68302,319.849735 1402.5497,316.21345 1394.90597,308.94077 C1387.26223,301.66809 1383.44042,290.610814 1383.44042,275.76861 L1383.44042,233.913805 L1362.73565,233.913805 L1362.73565,208.756395 L1383.44042,208.756395 L1383.44042,176.697396 L1417.05785,176.697396 L1417.05785,208.756395 L1444.44158,208.756395 L1444.44158,233.913805 L1417.05785,233.913805 L1417.05785,275.545978 C1417.05785,288.607118 1423.14306,295.137589 1435.31367,295.137589 Z" id="Memfault" fill="#141845" fill-rule="nonzero"></path>
    </g>
</svg>