<?xml version="1.0" encoding="UTF-8" standalone="no"?>
<!DOCTYPE svg PUBLIC "-//W3C//DTD SVG 1.1//EN"
 "http://www.w3.org/Graphics/SVG/1.1/DTD/svg11.dtd">
<!-- Generated by graphviz version 2.40.1 (20161225.0304)
 -->
<!-- Title: %3 Pages: 1 -->
<svg width="771pt" height="239pt"
 viewBox="0.00 0.00 770.50 239.00" xmlns="http://www.w3.org/2000/svg" xmlns:xlink="http://www.w3.org/1999/xlink">
<g id="graph0" class="graph" transform="scale(1 1) rotate(0) translate(4 235)">
<title>%3</title>
<polygon fill="#ffffff" stroke="transparent" points="-4,4 -4,-235 766.5,-235 766.5,4 -4,4"/>
<!-- 0 -->
<g id="node1" class="node">
<title>0</title>
<polygon fill="none" stroke="#000000" points="300.5,-231 209.5,-231 209.5,-178 300.5,-178 300.5,-231"/>
<text text-anchor="middle" x="255" y="-215.8" font-family="monospace" font-size="14.00" fill="#000000">main</text>
<text text-anchor="middle" x="255" y="-200.8" font-family="monospace" font-size="14.00" fill="#000000">max = 16</text>
<text text-anchor="middle" x="255" y="-185.8" font-family="monospace" font-size="14.00" fill="#000000">local = 0</text>
</g>
<!-- 1 -->
<g id="node2" class="node">
<title>1</title>
<polygon fill="none" stroke="#000000" stroke-dasharray="5,2" points="405,-142 281,-142 281,-89 405,-89 405,-142"/>
<text text-anchor="middle" x="343" y="-126.8" font-family="monospace" font-size="14.00" fill="#000000">(dyn Foo).foo</text>
<text text-anchor="middle" x="343" y="-111.8" font-family="monospace" font-size="14.00" fill="#000000">max = 16</text>
<text text-anchor="middle" x="343" y="-96.8" font-family="monospace" font-size="14.00" fill="#000000">local = 0</text>
</g>
<!-- 0&#45;&gt;1 -->
<g id="edge1" class="edge">
<title>0&#45;&gt;1</title>
<path fill="none" stroke="#000000" d="M281.4029,-177.7971C290.1914,-168.9087 300.1013,-158.8862 309.3619,-149.5203"/>
<polygon fill="#000000" stroke="#000000" points="312.0735,-151.7559 316.6157,-142.1841 307.0959,-146.8342 312.0735,-151.7559"/>
</g>
<!-- 2 -->
<g id="node3" class="node">
<title>2</title>
<polygon fill="none" stroke="#000000" points="248,-53 0,-53 0,0 248,0 248,-53"/>
<text text-anchor="middle" x="124" y="-37.8" font-family="monospace" font-size="14.00" fill="#000000">&lt;app::Quux as app::Foo&gt;::foo</text>
<text text-anchor="middle" x="124" y="-22.8" font-family="monospace" font-size="14.00" fill="#000000">max = 0</text>
<text text-anchor="middle" x="124" y="-7.8" font-family="monospace" font-size="14.00" fill="#000000">local = 0</text>
</g>
<!-- 0&#45;&gt;2 -->
<g id="edge2" class="edge">
<title>0&#45;&gt;2</title>
<path fill="none" stroke="#000000" d="M235.388,-177.8516C212.5554,-146.8272 174.7726,-95.4887 149.6338,-61.3307"/>
<polygon fill="#000000" stroke="#000000" points="152.2782,-59.0189 143.5319,-53.0395 146.6404,-63.168 152.2782,-59.0189"/>
</g>
<!-- 1&#45;&gt;2 -->
<g id="edge5" class="edge">
<title>1&#45;&gt;2</title>
<path fill="none" stroke="#000000" d="M280.8292,-90.2342C255.2641,-79.8448 225.437,-67.7232 198.6993,-56.8573"/>
<polygon fill="#000000" stroke="#000000" points="199.9647,-53.5936 189.3828,-53.0711 197.3293,-60.0785 199.9647,-53.5936"/>
</g>
<!-- 3 -->
<g id="node4" class="node">
<title>3</title>
<polygon fill="none" stroke="#000000" points="505.5,-53 266.5,-53 266.5,0 505.5,0 505.5,-53"/>
<text text-anchor="middle" x="386" y="-37.8" font-family="monospace" font-size="14.00" fill="#000000">&lt;app::Baz as app::Foo&gt;::foo</text>
<text text-anchor="middle" x="386" y="-22.8" font-family="monospace" font-size="14.00" fill="#000000">max = 16</text>
<text text-anchor="middle" x="386" y="-7.8" font-family="monospace" font-size="14.00" fill="#000000">local = 16</text>
</g>
<!-- 1&#45;&gt;3 -->
<g id="edge3" class="edge">
<title>1&#45;&gt;3</title>
<path fill="none" stroke="#000000" d="M355.9014,-88.7971C359.9407,-80.4367 364.4648,-71.073 368.7536,-62.1961"/>
<polygon fill="#000000" stroke="#000000" points="371.9088,-63.7109 373.1077,-53.1841 365.6059,-60.6656 371.9088,-63.7109"/>
</g>
<!-- 4 -->
<g id="node5" class="node">
<title>4</title>
<polygon fill="none" stroke="#000000" points="762.5,-53 523.5,-53 523.5,0 762.5,0 762.5,-53"/>
<text text-anchor="middle" x="643" y="-37.8" font-family="monospace" font-size="14.00" fill="#000000">&lt;app::Bar as app::Foo&gt;::foo</text>
<text text-anchor="middle" x="643" y="-22.8" font-family="monospace" font-size="14.00" fill="#000000">max = 8</text>
<text text-anchor="middle" x="643" y="-7.8" font-family="monospace" font-size="14.00" fill="#000000">local = 8</text>
</g>
<!-- 1&#45;&gt;4 -->
<g id="edge4" class="edge">
<title>1&#45;&gt;4</title>
<path fill="none" stroke="#000000" d="M405.1602,-97.0591C445.2171,-85.1756 498.178,-69.4639 543.954,-55.8837"/>
<polygon fill="#000000" stroke="#000000" points="545.0143,-59.2199 553.6058,-53.0203 543.0233,-52.509 545.0143,-59.2199"/>
</g>
</g>
</svg>
