<?xml version="1.0" encoding="UTF-8" standalone="no"?>
<!DOCTYPE svg PUBLIC "-//W3C//DTD SVG 1.1//EN"
 "http://www.w3.org/Graphics/SVG/1.1/DTD/svg11.dtd">
<!-- Generated by graphviz version 2.40.1 (20161225.0304)
 -->
<!-- Title: %3 Pages: 1 -->
<svg width="584pt" height="239pt"
 viewBox="0.00 0.00 583.50 239.00" xmlns="http://www.w3.org/2000/svg" xmlns:xlink="http://www.w3.org/1999/xlink">
<g id="graph0" class="graph" transform="scale(1 1) rotate(0) translate(4 235)">
<title>%3</title>
<polygon fill="#ffffff" stroke="transparent" points="-4,4 -4,-235 579.5,-235 579.5,4 -4,4"/>
<!-- 0 -->
<g id="node1" class="node">
<title>0</title>
<polygon fill="none" stroke="#000000" points="395,-231 304,-231 304,-178 395,-178 395,-231"/>
<text text-anchor="middle" x="349.5" y="-215.8" font-family="monospace" font-size="14.00" fill="#000000">main</text>
<text text-anchor="middle" x="349.5" y="-200.8" font-family="monospace" font-size="14.00" fill="#000000">max = 16</text>
<text text-anchor="middle" x="349.5" y="-185.8" font-family="monospace" font-size="14.00" fill="#000000">local = 0</text>
</g>
<!-- 1 -->
<g id="node2" class="node">
<title>1</title>
<polygon fill="none" stroke="#000000" stroke-dasharray="5,2" points="309.5,-142 185.5,-142 185.5,-89 309.5,-89 309.5,-142"/>
<text text-anchor="middle" x="247.5" y="-126.8" font-family="monospace" font-size="14.00" fill="#000000">(dyn Foo).foo</text>
<text text-anchor="middle" x="247.5" y="-111.8" font-family="monospace" font-size="14.00" fill="#000000">max = 16</text>
<text text-anchor="middle" x="247.5" y="-96.8" font-family="monospace" font-size="14.00" fill="#000000">local = 0</text>
</g>
<!-- 0&#45;&gt;1 -->
<g id="edge1" class="edge">
<title>0&#45;&gt;1</title>
<path fill="none" stroke="#000000" d="M318.8966,-177.7971C308.5082,-168.7327 296.768,-158.4888 285.8528,-148.9647"/>
<polygon fill="#000000" stroke="#000000" points="287.9178,-146.1215 278.0818,-142.1841 283.3156,-151.3959 287.9178,-146.1215"/>
</g>
<!-- 2 -->
<g id="node3" class="node">
<title>2</title>
<polygon fill="none" stroke="#000000" points="575.5,-142 327.5,-142 327.5,-89 575.5,-89 575.5,-142"/>
<text text-anchor="middle" x="451.5" y="-126.8" font-family="monospace" font-size="14.00" fill="#000000">&lt;app::Quux as app::Foo&gt;::foo</text>
<text text-anchor="middle" x="451.5" y="-111.8" font-family="monospace" font-size="14.00" fill="#000000">max = 0</text>
<text text-anchor="middle" x="451.5" y="-96.8" font-family="monospace" font-size="14.00" fill="#000000">local = 0</text>
</g>
<!-- 0&#45;&gt;2 -->
<g id="edge2" class="edge">
<title>0&#45;&gt;2</title>
<path fill="none" stroke="#000000" d="M380.1034,-177.7971C390.4918,-168.7327 402.232,-158.4888 413.1472,-148.9647"/>
<polygon fill="#000000" stroke="#000000" points="415.6844,-151.3959 420.9182,-142.1841 411.0822,-146.1215 415.6844,-151.3959"/>
</g>
<!-- 3 -->
<g id="node4" class="node">
<title>3</title>
<polygon fill="none" stroke="#000000" points="239,-53 0,-53 0,0 239,0 239,-53"/>
<text text-anchor="middle" x="119.5" y="-37.8" font-family="monospace" font-size="14.00" fill="#000000">&lt;app::Baz as app::Foo&gt;::foo</text>
<text text-anchor="middle" x="119.5" y="-22.8" font-family="monospace" font-size="14.00" fill="#000000">max = 16</text>
<text text-anchor="middle" x="119.5" y="-7.8" font-family="monospace" font-size="14.00" fill="#000000">local = 16</text>
</g>
<!-- 1&#45;&gt;3 -->
<g id="edge3" class="edge">
<title>1&#45;&gt;3</title>
<path fill="none" stroke="#000000" d="M209.0958,-88.7971C195.6797,-79.4687 180.4669,-68.8911 166.4349,-59.1344"/>
<polygon fill="#000000" stroke="#000000" points="168.0856,-56.0193 157.8771,-53.1841 164.0894,-61.7665 168.0856,-56.0193"/>
</g>
<!-- 4 -->
<g id="node5" class="node">
<title>4</title>
<polygon fill="none" stroke="#000000" points="496,-53 257,-53 257,0 496,0 496,-53"/>
<text text-anchor="middle" x="376.5" y="-37.8" font-family="monospace" font-size="14.00" fill="#000000">&lt;app::Bar as app::Foo&gt;::foo</text>
<text text-anchor="middle" x="376.5" y="-22.8" font-family="monospace" font-size="14.00" fill="#000000">max = 8</text>
<text text-anchor="middle" x="376.5" y="-7.8" font-family="monospace" font-size="14.00" fill="#000000">local = 8</text>
</g>
<!-- 1&#45;&gt;4 -->
<g id="edge4" class="edge">
<title>1&#45;&gt;4</title>
<path fill="none" stroke="#000000" d="M286.2043,-88.7971C299.7252,-79.4687 315.0568,-68.8911 329.1985,-59.1344"/>
<polygon fill="#000000" stroke="#000000" points="331.5795,-61.7438 337.8231,-53.1841 327.6043,-55.9821 331.5795,-61.7438"/>
</g>
</g>
</svg>
