<?xml version="1.0" encoding="UTF-8" standalone="no"?>
<!DOCTYPE svg PUBLIC "-//W3C//DTD SVG 1.1//EN"
 "http://www.w3.org/Graphics/SVG/1.1/DTD/svg11.dtd">
<!-- Generated by graphviz version 2.40.1 (20161225.0304)
 -->
<!-- Title: %3 Pages: 1 -->
<svg width="317pt" height="239pt"
 viewBox="0.00 0.00 317.00 239.00" xmlns="http://www.w3.org/2000/svg" xmlns:xlink="http://www.w3.org/1999/xlink">
<g id="graph0" class="graph" transform="scale(1 1) rotate(0) translate(4 235)">
<title>%3</title>
<polygon fill="#ffffff" stroke="transparent" points="-4,4 -4,-235 313,-235 313,4 -4,4"/>
<!-- 0 -->
<g id="node1" class="node">
<title>0</title>
<polygon fill="none" stroke="#000000" points="145,-231 54,-231 54,-178 145,-178 145,-231"/>
<text text-anchor="middle" x="99.5" y="-215.8" font-family="monospace" font-size="14.00" fill="#000000">main</text>
<text text-anchor="middle" x="99.5" y="-200.8" font-family="monospace" font-size="14.00" fill="#000000">max = 0</text>
<text text-anchor="middle" x="99.5" y="-185.8" font-family="monospace" font-size="14.00" fill="#000000">local = 0</text>
</g>
<!-- 1 -->
<g id="node2" class="node">
<title>1</title>
<polygon fill="none" stroke="#000000" stroke-dasharray="5,2" points="201,-142 94,-142 94,-89 201,-89 201,-142"/>
<text text-anchor="middle" x="147.5" y="-126.8" font-family="monospace" font-size="14.00" fill="#000000">fn() &#45;&gt; u32</text>
<text text-anchor="middle" x="147.5" y="-111.8" font-family="monospace" font-size="14.00" fill="#000000">max = 0</text>
<text text-anchor="middle" x="147.5" y="-96.8" font-family="monospace" font-size="14.00" fill="#000000">local = 0</text>
</g>
<!-- 0&#45;&gt;1 -->
<g id="edge1" class="edge">
<title>0&#45;&gt;1</title>
<path fill="none" stroke="#000000" d="M113.9016,-177.7971C118.4105,-169.4367 123.4607,-160.073 128.2482,-151.1961"/>
<polygon fill="#000000" stroke="#000000" points="131.4422,-152.6471 133.1086,-142.1841 125.2811,-149.3242 131.4422,-152.6471"/>
</g>
<!-- 2 -->
<g id="node3" class="node">
<title>2</title>
<polygon fill="none" stroke="#000000" points="91,-53 0,-53 0,0 91,0 91,-53"/>
<text text-anchor="middle" x="45.5" y="-37.8" font-family="monospace" font-size="14.00" fill="#000000">app::baz</text>
<text text-anchor="middle" x="45.5" y="-22.8" font-family="monospace" font-size="14.00" fill="#000000">max = 0</text>
<text text-anchor="middle" x="45.5" y="-7.8" font-family="monospace" font-size="14.00" fill="#000000">local = 0</text>
</g>
<!-- 0&#45;&gt;2 -->
<g id="edge2" class="edge">
<title>0&#45;&gt;2</title>
<path fill="none" stroke="#000000" d="M91.4157,-177.8516C82.1234,-147.2216 66.8241,-96.7907 56.4643,-62.6416"/>
<polygon fill="#000000" stroke="#000000" points="59.8037,-61.5927 53.5513,-53.0395 53.1052,-63.6249 59.8037,-61.5927"/>
</g>
<!-- 1&#45;&gt;2 -->
<g id="edge3" class="edge">
<title>1&#45;&gt;2</title>
<path fill="none" stroke="#000000" d="M116.8966,-88.7971C106.5082,-79.7327 94.768,-69.4888 83.8528,-59.9647"/>
<polygon fill="#000000" stroke="#000000" points="85.9178,-57.1215 76.0818,-53.1841 81.3156,-62.3959 85.9178,-57.1215"/>
</g>
<!-- 3 -->
<g id="node4" class="node">
<title>3</title>
<polygon fill="none" stroke="#000000" points="200,-53 109,-53 109,0 200,0 200,-53"/>
<text text-anchor="middle" x="154.5" y="-37.8" font-family="monospace" font-size="14.00" fill="#000000">app::bar</text>
<text text-anchor="middle" x="154.5" y="-22.8" font-family="monospace" font-size="14.00" fill="#000000">max = 0</text>
<text text-anchor="middle" x="154.5" y="-7.8" font-family="monospace" font-size="14.00" fill="#000000">local = 0</text>
</g>
<!-- 1&#45;&gt;3 -->
<g id="edge4" class="edge">
<title>1&#45;&gt;3</title>
<path fill="none" stroke="#000000" d="M149.6002,-88.7971C150.2301,-80.7887 150.9324,-71.8597 151.6041,-63.3198"/>
<polygon fill="#000000" stroke="#000000" points="155.1063,-63.4278 152.4013,-53.1841 148.1278,-62.8788 155.1063,-63.4278"/>
</g>
<!-- 4 -->
<g id="node5" class="node">
<title>4</title>
<polygon fill="none" stroke="#000000" points="309,-53 218,-53 218,0 309,0 309,-53"/>
<text text-anchor="middle" x="263.5" y="-37.8" font-family="monospace" font-size="14.00" fill="#000000">app::foo</text>
<text text-anchor="middle" x="263.5" y="-22.8" font-family="monospace" font-size="14.00" fill="#000000">max = 0</text>
<text text-anchor="middle" x="263.5" y="-7.8" font-family="monospace" font-size="14.00" fill="#000000">local = 0</text>
</g>
<!-- 1&#45;&gt;4 -->
<g id="edge5" class="edge">
<title>1&#45;&gt;4</title>
<path fill="none" stroke="#000000" d="M182.3038,-88.7971C194.3475,-79.5567 207.9888,-69.0905 220.6051,-59.4107"/>
<polygon fill="#000000" stroke="#000000" points="222.9174,-62.0482 228.7207,-53.1841 218.6563,-56.4945 222.9174,-62.0482"/>
</g>
</g>
</svg>
